<?xml version="1.0" encoding="UTF-8" standalone="no"?><svg xmlns="http://www.w3.org/2000/svg" xmlns:xlink="http://www.w3.org/1999/xlink" clip-rule="evenodd" stroke-miterlimit="10" viewBox="0 0 581 44"><desc>SVG generated by Keynote</desc><defs></defs><g transform="matrix(1.00, 0.00, -0.00, -1.00, 0.0, 44.0)"><image xlink:href="22D91CD920732CA9EDF69E541C5CBF79.png" width="578.00" height="41.00" transform="matrix(1.00, 0.00, -0.00, -1.00, 2.0, 42.0)"></image><text xml:space="preserve" font-family="AvenirNext-Medium,Avenir Next" font-size="36.0" fill="#5D514B" transform="matrix(1.00, 0.00, -0.00, -1.00, 2.0, 14.2)">U</text><text xml:space="preserve" font-family="AvenirNext-Medium,Avenir Next" font-size="36.0" fill="#5D514B" transform="matrix(1.00, 0.00, -0.00, -1.00, 27.6, 14.2)">n</text><text xml:space="preserve" font-family="AvenirNext-Medium,Avenir Next" font-size="36.0" fill="#5D514B" transform="matrix(1.00, 0.00, -0.00, -1.00, 48.6, 14.2)">e</text><text xml:space="preserve" font-family="AvenirNext-Medium,Avenir Next" font-size="36.0" fill="#5D514B" transform="matrix(1.00, 0.00, -0.00, -1.00, 69.2, 14.2)"> </text><text xml:space="preserve" font-family="AvenirNext-Medium,Avenir Next" font-size="36.0" fill="#5D514B" transform="matrix(1.00, 0.00, -0.00, -1.00, 78.2, 14.2)">b</text><text xml:space="preserve" font-family="AvenirNext-Medium,Avenir Next" font-size="36.0" fill="#5D514B" transform="matrix(1.00, 0.00, -0.00, -1.00, 101.1, 14.2)">a</text><text xml:space="preserve" font-family="AvenirNext-Medium,Avenir Next" font-size="36.0" fill="#5D514B" transform="matrix(1.00, 0.00, -0.00, -1.00, 120.6, 14.2)">l</text><text xml:space="preserve" font-family="AvenirNext-Medium,Avenir Next" font-size="36.0" fill="#5D514B" transform="matrix(1.00, 0.00, -0.00, -1.00, 130.0, 14.2)">i</text><text xml:space="preserve" font-family="AvenirNext-Medium,Avenir Next" font-size="36.0" fill="#5D514B" transform="matrix(1.00, 0.00, -0.00, -1.00, 139.3, 14.2)">s</text><text xml:space="preserve" font-family="AvenirNext-Medium,Avenir Next" font-size="36.0" fill="#5D514B" transform="matrix(1.00, 0.00, -0.00, -1.00, 155.3, 14.2)">e</text><text xml:space="preserve" font-family="AvenirNext-Medium,Avenir Next" font-size="36.0" fill="#5D514B" transform="matrix(1.00, 0.00, -0.00, -1.00, 175.9, 14.2)"> </text><text xml:space="preserve" font-family="AvenirNext-Medium,Avenir Next" font-size="36.0" fill="#5D514B" transform="matrix(1.00, 0.00, -0.00, -1.00, 184.9, 14.2)">d</text><text xml:space="preserve" font-family="AvenirNext-Medium,Avenir Next" font-size="36.0" fill="#5D514B" transform="matrix(1.00, 0.00, -0.00, -1.00, 207.8, 14.2)">o</text><text xml:space="preserve" font-family="AvenirNext-Medium,Avenir Next" font-size="36.0" fill="#5D514B" transform="matrix(1.00, 0.00, -0.00, -1.00, 229.7, 14.2)">i</text><text xml:space="preserve" font-family="AvenirNext-Medium,Avenir Next" font-size="36.0" fill="#5D514B" transform="matrix(1.00, 0.00, -0.00, -1.00, 239.1, 14.2)">t</text><text xml:space="preserve" font-family="AvenirNext-Medium,Avenir Next" font-size="36.0" fill="#5D514B" transform="matrix(1.00, 0.00, -0.00, -1.00, 250.9, 14.2)"> </text><text xml:space="preserve" font-family="AvenirNext-Medium,Avenir Next" font-size="36.0" fill="#5D514B" transform="matrix(1.00, 0.00, -0.00, -1.00, 259.9, 14.2)">t</text><text xml:space="preserve" font-family="AvenirNext-Medium,Avenir Next" font-size="36.0" fill="#5D514B" transform="matrix(1.00, 0.00, -0.00, -1.00, 271.7, 14.2)">o</text><text xml:space="preserve" font-family="AvenirNext-Medium,Avenir Next" font-size="36.0" fill="#5D514B" transform="matrix(1.00, 0.00, -0.00, -1.00, 293.7, 14.2)">u</text><text xml:space="preserve" font-family="AvenirNext-Medium,Avenir Next" font-size="36.0" fill="#5D514B" transform="matrix(1.00, 0.00, -0.00, -1.00, 314.7, 14.2)">j</text><text xml:space="preserve" font-family="AvenirNext-Medium,Avenir Next" font-size="36.0" fill="#5D514B" transform="matrix(1.00, 0.00, -0.00, -1.00, 324.0, 14.2)">o</text><text xml:space="preserve" font-family="AvenirNext-Medium,Avenir Next" font-size="36.0" fill="#5D514B" transform="matrix(1.00, 0.00, -0.00, -1.00, 346.0, 14.2)">u</text><text xml:space="preserve" font-family="AvenirNext-Medium,Avenir Next" font-size="36.0" fill="#5D514B" transform="matrix(1.00, 0.00, -0.00, -1.00, 366.9, 14.2)">r</text><text xml:space="preserve" font-family="AvenirNext-Medium,Avenir Next" font-size="36.0" fill="#5D514B" transform="matrix(1.00, 0.00, -0.00, -1.00, 380.0, 14.2)">s</text><text xml:space="preserve" font-family="AvenirNext-Medium,Avenir Next" font-size="36.0" fill="#5D514B" transform="matrix(1.00, 0.00, -0.00, -1.00, 395.9, 14.2)"> </text><text xml:space="preserve" font-family="AvenirNext-Medium,Avenir Next" font-size="36.0" fill="#5D514B" transform="matrix(1.00, 0.00, -0.00, -1.00, 404.9, 14.2)">s</text><text xml:space="preserve" font-family="AvenirNext-Medium,Avenir Next" font-size="36.0" fill="#5D514B" transform="matrix(1.00, 0.00, -0.00, -1.00, 420.9, 14.2)">e</text><text xml:space="preserve" font-family="AvenirNext-Medium,Avenir Next" font-size="36.0" fill="#5D514B" transform="matrix(1.00, 0.00, -0.00, -1.00, 441.6, 14.2)"> </text><text xml:space="preserve" font-family="AvenirNext-Medium,Avenir Next" font-size="36.0" fill="#5D514B" transform="matrix(1.00, 0.00, -0.00, -1.00, 450.6, 14.2)">f</text><text xml:space="preserve" font-family="AvenirNext-Medium,Avenir Next" font-size="36.0" fill="#5D514B" transform="matrix(1.00, 0.00, -0.00, -1.00, 461.7, 14.2)">e</text><text xml:space="preserve" font-family="AvenirNext-Medium,Avenir Next" font-size="36.0" fill="#5D514B" transform="matrix(1.00, 0.00, -0.00, -1.00, 482.3, 14.2)">r</text><text xml:space="preserve" font-family="AvenirNext-Medium,Avenir Next" font-size="36.0" fill="#5D514B" transform="matrix(1.00, 0.00, -0.00, -1.00, 495.4, 14.2)">m</text><text xml:space="preserve" font-family="AvenirNext-Medium,Avenir Next" font-size="36.0" fill="#5D514B" transform="matrix(1.00, 0.00, -0.00, -1.00, 527.3, 14.2)">e</text><text xml:space="preserve" font-family="AvenirNext-Medium,Avenir Next" font-size="36.0" fill="#5D514B" transform="matrix(1.00, 0.00, -0.00, -1.00, 547.9, 14.2)">r</text><text xml:space="preserve" font-family="AvenirNext-Medium,Avenir Next" font-size="36.0" fill="#5D514B" transform="matrix(1.00, 0.00, -0.00, -1.00, 561.0, 14.2)"> </text><text xml:space="preserve" font-family="AvenirNext-Medium,Avenir Next" font-size="36.0" fill="#5D514B" transform="matrix(1.00, 0.00, -0.00, -1.00, 570.0, 14.2)">:</text></g></svg>