<?xml version="1.0" encoding="UTF-8" standalone="no"?><svg xmlns="http://www.w3.org/2000/svg" xmlns:xlink="http://www.w3.org/1999/xlink" clip-rule="evenodd" stroke-miterlimit="10" viewBox="0 0 490 43"><desc>SVG generated by Keynote</desc><defs></defs><g transform="matrix(1.00, 0.00, -0.00, -1.00, 0.0, 43.0)"><image xlink:href="../../1B3552E5-1E9F-4779-B142-6B47F9223C7F/assets/6B7BBF5327B36D1C4681B3134F3A4070.png" width="487.00" height="40.00" transform="matrix(1.00, 0.00, -0.00, -1.00, 2.0, 41.0)"></image><text xml:space="preserve" font-family="AvenirNext-Bold,Avenir Next" font-weight="bold" font-size="48.0" fill="#3D3B38" transform="matrix(1.00, 0.00, -0.00, -1.00, 0.9, 6.6)">P</text><text xml:space="preserve" font-family="AvenirNext-Bold,Avenir Next" font-weight="bold" font-size="48.0" fill="#3D3B38" transform="matrix(1.00, 0.00, -0.00, -1.00, 32.6, 6.6)">A</text><text xml:space="preserve" font-family="AvenirNext-Bold,Avenir Next" font-weight="bold" font-size="48.0" fill="#3D3B38" transform="matrix(1.00, 0.00, -0.00, -1.00, 68.5, 6.6)">T</text><text xml:space="preserve" font-family="AvenirNext-Bold,Avenir Next" font-weight="bold" font-size="48.0" fill="#3D3B38" transform="matrix(1.00, 0.00, -0.00, -1.00, 100.3, 6.6)">T</text><text xml:space="preserve" font-family="AvenirNext-Bold,Avenir Next" font-weight="bold" font-size="48.0" fill="#3D3B38" transform="matrix(1.00, 0.00, -0.00, -1.00, 132.0, 6.6)">E</text><text xml:space="preserve" font-family="AvenirNext-Bold,Avenir Next" font-weight="bold" font-size="48.0" fill="#3D3B38" transform="matrix(1.00, 0.00, -0.00, -1.00, 165.0, 6.6)">R</text><text xml:space="preserve" font-family="AvenirNext-Bold,Avenir Next" font-weight="bold" font-size="48.0" fill="#3D3B38" transform="matrix(1.00, 0.00, -0.00, -1.00, 200.6, 6.6)">N</text><text xml:space="preserve" font-family="AvenirNext-Bold,Avenir Next" font-weight="bold" font-size="48.0" fill="#3D3B38" transform="matrix(1.00, 0.00, -0.00, -1.00, 242.4, 6.6)"> </text><text xml:space="preserve" font-family="AvenirNext-Bold,Avenir Next" font-weight="bold" font-size="48.0" fill="#3D3B38" transform="matrix(1.00, 0.00, -0.00, -1.00, 258.2, 6.6)">B</text><text xml:space="preserve" font-family="AvenirNext-Bold,Avenir Next" font-weight="bold" font-size="48.0" fill="#3D3B38" transform="matrix(1.00, 0.00, -0.00, -1.00, 294.0, 6.6)">U</text><text xml:space="preserve" font-family="AvenirNext-Bold,Avenir Next" font-weight="bold" font-size="48.0" fill="#3D3B38" transform="matrix(1.00, 0.00, -0.00, -1.00, 333.3, 6.6)">I</text><text xml:space="preserve" font-family="AvenirNext-Bold,Avenir Next" font-weight="bold" font-size="48.0" fill="#3D3B38" transform="matrix(1.00, 0.00, -0.00, -1.00, 352.4, 6.6)">L</text><text xml:space="preserve" font-family="AvenirNext-Bold,Avenir Next" font-weight="bold" font-size="48.0" fill="#3D3B38" transform="matrix(1.00, 0.00, -0.00, -1.00, 381.5, 6.6)">D</text><text xml:space="preserve" font-family="AvenirNext-Bold,Avenir Next" font-weight="bold" font-size="48.0" fill="#3D3B38" transform="matrix(1.00, 0.00, -0.00, -1.00, 422.4, 6.6)">E</text><text xml:space="preserve" font-family="AvenirNext-Bold,Avenir Next" font-weight="bold" font-size="48.0" fill="#3D3B38" transform="matrix(1.00, 0.00, -0.00, -1.00, 455.4, 6.6)">R</text></g></svg>