<?xml version="1.0" encoding="UTF-8" standalone="no"?><svg xmlns="http://www.w3.org/2000/svg" xmlns:xlink="http://www.w3.org/1999/xlink" clip-rule="evenodd" stroke-miterlimit="10" viewBox="0 0 1024 768"><desc>SVG generated by Keynote</desc><defs></defs><g transform="matrix(1.00, 0.00, -0.00, -1.00, 0.0, 768.0)"><g><clipPath id="clip0x7faa503284e0"><path d="M 0.0 768.0 L 1024.0 768.0 L 1024.0 0.0 L 0.0 0.0 Z M 0.0 768.0 "></path></clipPath><g clip-path="url(#clip0x7faa503284e0)"><image xlink:href="../../9C7E9419-8A9E-4BEA-836D-D65EE0722FC0/assets/B5EE15FD4291743AF7496326DC17A466.jpeg" width="2048.00" height="1536.00" transform="matrix(0.50, 0.00, -0.00, -0.50, 0.0, 768.0)"></image></g></g><g opacity="0.45"><g><clipPath id="clip0x7faa500bf190"><path d="M 30.0 48.0 L 994.0 48.0 L 994.0 741.0 L 30.0 741.0 Z M 30.0 48.0 "></path></clipPath><g clip-path="url(#clip0x7faa500bf190)"><image xlink:href="../../9C7E9419-8A9E-4BEA-836D-D65EE0722FC0/assets/1E0376F862DA30D710D4F1E0694CAC10.png" width="1374.00" height="986.00" transform="matrix(0.70, 0.00, -0.00, -0.70, 31.0, 740.0)"></image></g></g></g><g><clipPath id="clip0x7faa50329ab0"><path d="M 533.0 563.0 L 951.0 563.0 L 951.0 93.0 L 533.0 93.0 Z M 533.0 563.0 "></path></clipPath><g clip-path="url(#clip0x7faa50329ab0)"><image xlink:href="../../9C7E9419-8A9E-4BEA-836D-D65EE0722FC0/assets/F24E98CCA34A964A2F77BE50220D6A8B.jpeg" width="1363.00" height="2089.00" transform="matrix(0.31, 0.00, -0.00, -0.31, 533.0, 648.0)"></image></g></g><image xlink:href="../../9C7E9419-8A9E-4BEA-836D-D65EE0722FC0/assets/83E26C7907F943138DED9578BCF290A1.png" width="424.00" height="478.00" transform="matrix(1.00, 0.00, -0.00, 1.00, 530.0, 89.0)"></image><image xlink:href="../../9C7E9419-8A9E-4BEA-836D-D65EE0722FC0/assets/100813651931B7589391E5CCCFFAD72E.png" width="250.00" height="41.00" transform="matrix(1.00, 0.00, -0.00, -1.00, 386.0, 701.0)"></image><text xml:space="preserve" font-family="AvenirNext-Bold,Avenir Next" font-weight="bold" font-size="48.0" fill="#3D3B38" transform="matrix(1.00, 0.00, -0.00, -1.00, 385.0, 665.6)">H</text><text xml:space="preserve" font-family="AvenirNext-Bold,Avenir Next" font-weight="bold" font-size="48.0" fill="#3D3B38" transform="matrix(1.00, 0.00, -0.00, -1.00, 425.6, 665.6)">I</text><text xml:space="preserve" font-family="AvenirNext-Bold,Avenir Next" font-weight="bold" font-size="48.0" fill="#3D3B38" transform="matrix(1.00, 0.00, -0.00, -1.00, 444.7, 665.6)">S</text><text xml:space="preserve" font-family="AvenirNext-Bold,Avenir Next" font-weight="bold" font-size="48.0" fill="#3D3B38" transform="matrix(1.00, 0.00, -0.00, -1.00, 476.2, 665.6)">T</text><text xml:space="preserve" font-family="AvenirNext-Bold,Avenir Next" font-weight="bold" font-size="48.0" fill="#3D3B38" transform="matrix(1.00, 0.00, -0.00, -1.00, 506.5, 665.6)">O</text><text xml:space="preserve" font-family="AvenirNext-Bold,Avenir Next" font-weight="bold" font-size="48.0" fill="#3D3B38" transform="matrix(1.00, 0.00, -0.00, -1.00, 551.2, 665.6)">I</text><text xml:space="preserve" font-family="AvenirNext-Bold,Avenir Next" font-weight="bold" font-size="48.0" fill="#3D3B38" transform="matrix(1.00, 0.00, -0.00, -1.00, 570.3, 665.6)">R</text><text xml:space="preserve" font-family="AvenirNext-Bold,Avenir Next" font-weight="bold" font-size="48.0" fill="#3D3B38" transform="matrix(1.00, 0.00, -0.00, -1.00, 606.0, 665.6)">E</text><image xlink:href="../../9C7E9419-8A9E-4BEA-836D-D65EE0722FC0/assets/250A152672ECEB5447623FEACAE90638.png" width="14.00" height="14.00" transform="matrix(1.00, 0.00, -0.00, -1.00, 74.0, 439.0)"></image><text xml:space="preserve" font-family="AvenirNext-Medium,Avenir Next" font-size="24.0" fill="#5D514B" transform="matrix(1.00, 0.00, -0.00, -1.00, 75.0, 425.3)">•</text><image xlink:href="../../9C7E9419-8A9E-4BEA-836D-D65EE0722FC0/assets/7AEA8A236A40337CE1CD0CA63AF1812B.png" width="359.00" height="29.00" transform="matrix(1.00, 0.00, -0.00, -1.00, 106.0, 449.0)"></image><text xml:space="preserve" font-family="AvenirNext-Medium,Avenir Next" font-size="32.0" fill="#5D514B" transform="matrix(1.00, 0.00, -0.00, -1.00, 106.0, 424.7)">I</text><text xml:space="preserve" font-family="AvenirNext-Medium,Avenir Next" font-size="32.0" fill="#5D514B" transform="matrix(1.00, 0.00, -0.00, -1.00, 114.7, 424.7)">d</text><text xml:space="preserve" font-family="AvenirNext-Medium,Avenir Next" font-size="32.0" fill="#5D514B" transform="matrix(1.00, 0.00, -0.00, -1.00, 135.0, 424.7)">é</text><text xml:space="preserve" font-family="AvenirNext-Medium,Avenir Next" font-size="32.0" fill="#5D514B" transform="matrix(1.00, 0.00, -0.00, -1.00, 153.3, 424.7)">e</text><text xml:space="preserve" font-family="AvenirNext-Medium,Avenir Next" font-size="32.0" fill="#5D514B" transform="matrix(1.00, 0.00, -0.00, -1.00, 171.7, 424.7)"> </text><text xml:space="preserve" font-family="AvenirNext-Medium,Avenir Next" font-size="32.0" fill="#5D514B" transform="matrix(1.00, 0.00, -0.00, -1.00, 179.7, 424.7)">d</text><text xml:space="preserve" font-family="AvenirNext-Medium,Avenir Next" font-size="32.0" fill="#5D514B" transform="matrix(1.00, 0.00, -0.00, -1.00, 200.0, 424.7)">e</text><text xml:space="preserve" font-family="AvenirNext-Medium,Avenir Next" font-size="32.0" fill="#5D514B" transform="matrix(1.00, 0.00, -0.00, -1.00, 218.3, 424.7)"> </text><text xml:space="preserve" font-family="AvenirNext-Medium,Avenir Next" font-size="32.0" fill="#5D514B" transform="matrix(1.00, 0.00, -0.00, -1.00, 225.6, 424.7)">T</text><text xml:space="preserve" font-family="AvenirNext-Medium,Avenir Next" font-size="32.0" fill="#5D514B" transform="matrix(1.00, 0.00, -0.00, -1.00, 243.4, 424.7)">i</text><text xml:space="preserve" font-family="AvenirNext-Medium,Avenir Next" font-size="32.0" fill="#5D514B" transform="matrix(1.00, 0.00, -0.00, -1.00, 251.7, 424.7)">m</text><text xml:space="preserve" font-family="AvenirNext-Medium,Avenir Next" font-size="32.0" fill="#5D514B" transform="matrix(1.00, 0.00, -0.00, -1.00, 280.0, 424.7)"> </text><text xml:space="preserve" font-family="AvenirNext-Medium,Avenir Next" font-size="32.0" fill="#5D514B" transform="matrix(1.00, 0.00, -0.00, -1.00, 288.0, 424.7)">B</text><text xml:space="preserve" font-family="AvenirNext-Medium,Avenir Next" font-size="32.0" fill="#5D514B" transform="matrix(1.00, 0.00, -0.00, -1.00, 308.6, 424.7)">e</text><text xml:space="preserve" font-family="AvenirNext-Medium,Avenir Next" font-size="32.0" fill="#5D514B" transform="matrix(1.00, 0.00, -0.00, -1.00, 326.9, 424.7)">r</text><text xml:space="preserve" font-family="AvenirNext-Medium,Avenir Next" font-size="32.0" fill="#5D514B" transform="matrix(1.00, 0.00, -0.00, -1.00, 338.5, 424.7)">n</text><text xml:space="preserve" font-family="AvenirNext-Medium,Avenir Next" font-size="32.0" fill="#5D514B" transform="matrix(1.00, 0.00, -0.00, -1.00, 357.1, 424.7)">e</text><text xml:space="preserve" font-family="AvenirNext-Medium,Avenir Next" font-size="32.0" fill="#5D514B" transform="matrix(1.00, 0.00, -0.00, -1.00, 375.5, 424.7)">r</text><text xml:space="preserve" font-family="AvenirNext-Medium,Avenir Next" font-size="32.0" fill="#5D514B" transform="matrix(1.00, 0.00, -0.00, -1.00, 387.1, 424.7)">s</text><text xml:space="preserve" font-family="AvenirNext-Medium,Avenir Next" font-size="32.0" fill="#5D514B" transform="matrix(1.00, 0.00, -0.00, -1.00, 401.3, 424.7)">-</text><text xml:space="preserve" font-family="AvenirNext-Medium,Avenir Next" font-size="32.0" fill="#5D514B" transform="matrix(1.00, 0.00, -0.00, -1.00, 411.5, 424.7)">L</text><text xml:space="preserve" font-family="AvenirNext-Medium,Avenir Next" font-size="32.0" fill="#5D514B" transform="matrix(1.00, 0.00, -0.00, -1.00, 427.3, 424.7)">e</text><text xml:space="preserve" font-family="AvenirNext-Medium,Avenir Next" font-size="32.0" fill="#5D514B" transform="matrix(1.00, 0.00, -0.00, -1.00, 445.6, 424.7)">e</text><text xml:space="preserve" font-family="AvenirNext-Medium,Avenir Next" font-size="32.0" fill="#5D514B" transform="matrix(1.00, 0.00, -0.00, -1.00, 464.0, 424.7)"> </text><image xlink:href="../../9C7E9419-8A9E-4BEA-836D-D65EE0722FC0/assets/5DB064818712FE942AE58A0F8E271078.png" width="123.00" height="29.00" transform="matrix(1.00, 0.00, -0.00, -1.00, 105.0, 409.0)"></image><text xml:space="preserve" font-family="AvenirNext-Medium,Avenir Next" font-size="32.0" fill="#5D514B" transform="matrix(1.00, 0.00, -0.00, -1.00, 106.0, 385.1)">e</text><text xml:space="preserve" font-family="AvenirNext-Medium,Avenir Next" font-size="32.0" fill="#5D514B" transform="matrix(1.00, 0.00, -0.00, -1.00, 124.3, 385.1)">n</text><text xml:space="preserve" font-family="AvenirNext-Medium,Avenir Next" font-size="32.0" fill="#5D514B" transform="matrix(1.00, 0.00, -0.00, -1.00, 143.0, 385.1)"> </text><text xml:space="preserve" font-family="AvenirNext-Medium,Avenir Next" font-size="32.0" fill="#5D514B" transform="matrix(1.00, 0.00, -0.00, -1.00, 151.0, 385.1)">1</text><text xml:space="preserve" font-family="AvenirNext-Medium,Avenir Next" font-size="32.0" fill="#5D514B" transform="matrix(1.00, 0.00, -0.00, -1.00, 170.0, 385.1)">9</text><text xml:space="preserve" font-family="AvenirNext-Medium,Avenir Next" font-size="32.0" fill="#5D514B" transform="matrix(1.00, 0.00, -0.00, -1.00, 189.0, 385.1)">8</text><text xml:space="preserve" font-family="AvenirNext-Medium,Avenir Next" font-size="32.0" fill="#5D514B" transform="matrix(1.00, 0.00, -0.00, -1.00, 208.1, 385.1)">9</text><text xml:space="preserve" font-family="AvenirNext-Medium,Avenir Next" font-size="32.0" fill="#5D514B" transform="matrix(1.00, 0.00, -0.00, -1.00, 227.1, 385.1)"> </text><text xml:space="preserve" font-family="AvenirNext-Medium,Avenir Next" font-size="32.0" fill="#5D514B" transform="matrix(1.00, 0.00, -0.00, -1.00, 235.1, 385.1)"> </text><text xml:space="preserve" font-family="AvenirNext-Medium,Avenir Next" font-size="32.0" fill="#5D514B" transform="matrix(1.00, 0.00, -0.00, -1.00, 243.1, 385.1)"> </text><image xlink:href="../../9C7E9419-8A9E-4BEA-836D-D65EE0722FC0/assets/AC275E3874DB432AB6AA73B31CABD61E.png" width="14.00" height="13.00" transform="matrix(1.00, 0.00, -0.00, -1.00, 74.0, 331.0)"></image><text xml:space="preserve" font-family="AvenirNext-Medium,Avenir Next" font-size="24.0" fill="#5D514B" transform="matrix(1.00, 0.00, -0.00, -1.00, 75.0, 318.1)">•</text><image xlink:href="../../9C7E9419-8A9E-4BEA-836D-D65EE0722FC0/assets/14BB1F5E23F56E1891DE9B5F9C8388F1.png" width="257.00" height="29.00" transform="matrix(1.00, 0.00, -0.00, -1.00, 105.0, 341.0)"></image><text xml:space="preserve" font-family="AvenirNext-Medium,Avenir Next" font-size="32.0" fill="#5D514B" transform="matrix(1.00, 0.00, -0.00, -1.00, 106.0, 317.5)">C</text><text xml:space="preserve" font-family="AvenirNext-Medium,Avenir Next" font-size="32.0" fill="#5D514B" transform="matrix(1.00, 0.00, -0.00, -1.00, 128.7, 317.5)">r</text><text xml:space="preserve" font-family="AvenirNext-Medium,Avenir Next" font-size="32.0" fill="#5D514B" transform="matrix(1.00, 0.00, -0.00, -1.00, 139.7, 317.5)">é</text><text xml:space="preserve" font-family="AvenirNext-Medium,Avenir Next" font-size="32.0" fill="#5D514B" transform="matrix(1.00, 0.00, -0.00, -1.00, 157.8, 317.5)">a</text><text xml:space="preserve" font-family="AvenirNext-Medium,Avenir Next" font-size="32.0" fill="#5D514B" transform="matrix(1.00, 0.00, -0.00, -1.00, 174.8, 317.5)">t</text><text xml:space="preserve" font-family="AvenirNext-Medium,Avenir Next" font-size="32.0" fill="#5D514B" transform="matrix(1.00, 0.00, -0.00, -1.00, 185.4, 317.5)">i</text><text xml:space="preserve" font-family="AvenirNext-Medium,Avenir Next" font-size="32.0" fill="#5D514B" transform="matrix(1.00, 0.00, -0.00, -1.00, 193.6, 317.5)">o</text><text xml:space="preserve" font-family="AvenirNext-Medium,Avenir Next" font-size="32.0" fill="#5D514B" transform="matrix(1.00, 0.00, -0.00, -1.00, 213.2, 317.5)">n</text><text xml:space="preserve" font-family="AvenirNext-Medium,Avenir Next" font-size="32.0" fill="#5D514B" transform="matrix(1.00, 0.00, -0.00, -1.00, 231.8, 317.5)"> </text><text xml:space="preserve" font-family="AvenirNext-Medium,Avenir Next" font-size="32.0" fill="#5D514B" transform="matrix(1.00, 0.00, -0.00, -1.00, 239.8, 317.5)">e</text><text xml:space="preserve" font-family="AvenirNext-Medium,Avenir Next" font-size="32.0" fill="#5D514B" transform="matrix(1.00, 0.00, -0.00, -1.00, 258.1, 317.5)">n</text><text xml:space="preserve" font-family="AvenirNext-Medium,Avenir Next" font-size="32.0" fill="#5D514B" transform="matrix(1.00, 0.00, -0.00, -1.00, 276.8, 317.5)"> </text><text xml:space="preserve" font-family="AvenirNext-Medium,Avenir Next" font-size="32.0" fill="#5D514B" transform="matrix(1.00, 0.00, -0.00, -1.00, 284.8, 317.5)">1</text><text xml:space="preserve" font-family="AvenirNext-Medium,Avenir Next" font-size="32.0" fill="#5D514B" transform="matrix(1.00, 0.00, -0.00, -1.00, 303.8, 317.5)">9</text><text xml:space="preserve" font-family="AvenirNext-Medium,Avenir Next" font-size="32.0" fill="#5D514B" transform="matrix(1.00, 0.00, -0.00, -1.00, 322.8, 317.5)">9</text><text xml:space="preserve" font-family="AvenirNext-Medium,Avenir Next" font-size="32.0" fill="#5D514B" transform="matrix(1.00, 0.00, -0.00, -1.00, 341.9, 317.5)">0</text><text xml:space="preserve" font-family="AvenirNext-Medium,Avenir Next" font-size="32.0" fill="#5D514B" transform="matrix(1.00, 0.00, -0.00, -1.00, 360.9, 317.5)"> </text><text xml:space="preserve" font-family="AvenirNext-Medium,Avenir Next" font-size="32.0" fill="#5D514B" transform="matrix(1.00, 0.00, -0.00, -1.00, 368.9, 317.5)"> </text><image xlink:href="../../9C7E9419-8A9E-4BEA-836D-D65EE0722FC0/assets/5B779DD4BF1A766498B7DA7FF90AA6A5.png" width="14.00" height="14.00" transform="matrix(1.00, 0.00, -0.00, -1.00, 74.0, 264.0)"></image><text xml:space="preserve" font-family="AvenirNext-Medium,Avenir Next" font-size="24.0" fill="#5D514B" transform="matrix(1.00, 0.00, -0.00, -1.00, 75.0, 250.5)">•</text><image xlink:href="../../9C7E9419-8A9E-4BEA-836D-D65EE0722FC0/assets/45996AA173110FAD5949704481057BF7.png" width="309.00" height="37.00" transform="matrix(1.00, 0.00, -0.00, -1.00, 106.0, 275.0)"></image><text xml:space="preserve" font-family="AvenirNext-Medium,Avenir Next" font-size="32.0" fill="#5D514B" transform="matrix(1.00, 0.00, -0.00, -1.00, 106.0, 249.9)">B</text><text xml:space="preserve" font-family="AvenirNext-Medium,Avenir Next" font-size="32.0" fill="#5D514B" transform="matrix(1.00, 0.00, -0.00, -1.00, 126.5, 249.9)">a</text><text xml:space="preserve" font-family="AvenirNext-Medium,Avenir Next" font-size="32.0" fill="#5D514B" transform="matrix(1.00, 0.00, -0.00, -1.00, 143.9, 249.9)">s</text><text xml:space="preserve" font-family="AvenirNext-Medium,Avenir Next" font-size="32.0" fill="#5D514B" transform="matrix(1.00, 0.00, -0.00, -1.00, 158.1, 249.9)">é</text><text xml:space="preserve" font-family="AvenirNext-Medium,Avenir Next" font-size="32.0" fill="#5D514B" transform="matrix(1.00, 0.00, -0.00, -1.00, 176.4, 249.9)"> </text><text xml:space="preserve" font-family="AvenirNext-Medium,Avenir Next" font-size="32.0" fill="#5D514B" transform="matrix(1.00, 0.00, -0.00, -1.00, 184.4, 249.9)">s</text><text xml:space="preserve" font-family="AvenirNext-Medium,Avenir Next" font-size="32.0" fill="#5D514B" transform="matrix(1.00, 0.00, -0.00, -1.00, 198.6, 249.9)">u</text><text xml:space="preserve" font-family="AvenirNext-Medium,Avenir Next" font-size="32.0" fill="#5D514B" transform="matrix(1.00, 0.00, -0.00, -1.00, 217.3, 249.9)">r</text><text xml:space="preserve" font-family="AvenirNext-Medium,Avenir Next" font-size="32.0" fill="#5D514B" transform="matrix(1.00, 0.00, -0.00, -1.00, 228.8, 249.9)"> </text><text xml:space="preserve" font-family="AvenirNext-Medium,Avenir Next" font-size="32.0" fill="#5D514B" transform="matrix(1.00, 0.00, -0.00, -1.00, 236.8, 249.9)">l</text><text xml:space="preserve" font-family="AvenirNext-Medium,Avenir Next" font-size="32.0" fill="#5D514B" transform="matrix(1.00, 0.00, -0.00, -1.00, 245.2, 249.9)">e</text><text xml:space="preserve" font-family="AvenirNext-Medium,Avenir Next" font-size="32.0" fill="#5D514B" transform="matrix(1.00, 0.00, -0.00, -1.00, 263.5, 249.9)"> </text><text xml:space="preserve" font-family="AvenirNext-Medium,Avenir Next" font-size="32.0" fill="#5D514B" transform="matrix(1.00, 0.00, -0.00, -1.00, 271.5, 249.9)">p</text><text xml:space="preserve" font-family="AvenirNext-Medium,Avenir Next" font-size="32.0" fill="#5D514B" transform="matrix(1.00, 0.00, -0.00, -1.00, 291.8, 249.9)">r</text><text xml:space="preserve" font-family="AvenirNext-Medium,Avenir Next" font-size="32.0" fill="#5D514B" transform="matrix(1.00, 0.00, -0.00, -1.00, 302.8, 249.9)">o</text><text xml:space="preserve" font-family="AvenirNext-Medium,Avenir Next" font-size="32.0" fill="#5D514B" transform="matrix(1.00, 0.00, -0.00, -1.00, 322.3, 249.9)">t</text><text xml:space="preserve" font-family="AvenirNext-Medium,Avenir Next" font-size="32.0" fill="#5D514B" transform="matrix(1.00, 0.00, -0.00, -1.00, 332.8, 249.9)">o</text><text xml:space="preserve" font-family="AvenirNext-Medium,Avenir Next" font-size="32.0" fill="#5D514B" transform="matrix(1.00, 0.00, -0.00, -1.00, 352.4, 249.9)">c</text><text xml:space="preserve" font-family="AvenirNext-Medium,Avenir Next" font-size="32.0" fill="#5D514B" transform="matrix(1.00, 0.00, -0.00, -1.00, 368.2, 249.9)">o</text><text xml:space="preserve" font-family="AvenirNext-Medium,Avenir Next" font-size="32.0" fill="#5D514B" transform="matrix(1.00, 0.00, -0.00, -1.00, 387.7, 249.9)">l</text><text xml:space="preserve" font-family="AvenirNext-Medium,Avenir Next" font-size="32.0" fill="#5D514B" transform="matrix(1.00, 0.00, -0.00, -1.00, 396.0, 249.9)">e</text><text xml:space="preserve" font-family="AvenirNext-Medium,Avenir Next" font-size="32.0" fill="#5D514B" transform="matrix(1.00, 0.00, -0.00, -1.00, 414.4, 249.9)"> </text><image xlink:href="../../9C7E9419-8A9E-4BEA-836D-D65EE0722FC0/assets/18115B39C39713A24CFDF86B629C8AB7.png" width="102.00" height="30.00" transform="matrix(1.00, 0.00, -0.00, -1.00, 104.0, 235.0)"></image><text xml:space="preserve" font-family="AvenirNext-Medium,Avenir Next" font-size="32.0" fill="#5D514B" transform="matrix(1.00, 0.00, -0.00, -1.00, 106.0, 210.3)">T</text><text xml:space="preserve" font-family="AvenirNext-Medium,Avenir Next" font-size="32.0" fill="#5D514B" transform="matrix(1.00, 0.00, -0.00, -1.00, 123.2, 210.3)">C</text><text xml:space="preserve" font-family="AvenirNext-Medium,Avenir Next" font-size="32.0" fill="#5D514B" transform="matrix(1.00, 0.00, -0.00, -1.00, 145.9, 210.3)">P</text><text xml:space="preserve" font-family="AvenirNext-Medium,Avenir Next" font-size="32.0" fill="#5D514B" transform="matrix(1.00, 0.00, -0.00, -1.00, 164.9, 210.3)">/</text><text xml:space="preserve" font-family="AvenirNext-Medium,Avenir Next" font-size="32.0" fill="#5D514B" transform="matrix(1.00, 0.00, -0.00, -1.00, 177.1, 210.3)">I</text><text xml:space="preserve" font-family="AvenirNext-Medium,Avenir Next" font-size="32.0" fill="#5D514B" transform="matrix(1.00, 0.00, -0.00, -1.00, 185.8, 210.3)">P</text></g></svg>