<?xml version="1.0" encoding="UTF-8" standalone="no"?><svg xmlns="http://www.w3.org/2000/svg" xmlns:xlink="http://www.w3.org/1999/xlink" clip-rule="evenodd" stroke-miterlimit="10" viewBox="0 0 841 127"><desc>SVG generated by Keynote</desc><defs></defs><g transform="matrix(1.00, 0.00, -0.00, -1.00, 0.0, 127.0)"><image xlink:href="6FDC6A2D9776881BEA9746186E0F2B17.png" width="834.00" height="36.00" transform="matrix(1.00, 0.00, -0.00, -1.00, 3.0, 125.0)"></image><text xml:space="preserve" font-family="AvenirNext-Medium,Avenir Next" font-size="32.0" fill="#5D514B" transform="matrix(1.00, 0.00, -0.00, -1.00, 3.2, 100.7)">L</text><text xml:space="preserve" font-family="AvenirNext-Medium,Avenir Next" font-size="32.0" fill="#5D514B" transform="matrix(1.00, 0.00, -0.00, -1.00, 19.0, 100.7)">e</text><text xml:space="preserve" font-family="AvenirNext-Medium,Avenir Next" font-size="32.0" fill="#5D514B" transform="matrix(1.00, 0.00, -0.00, -1.00, 37.3, 100.7)"> </text><text xml:space="preserve" font-family="AvenirNext-Medium,Avenir Next" font-size="32.0" fill="#5D514B" transform="matrix(1.00, 0.00, -0.00, -1.00, 45.3, 100.7)">c</text><text xml:space="preserve" font-family="AvenirNext-Medium,Avenir Next" font-size="32.0" fill="#5D514B" transform="matrix(1.00, 0.00, -0.00, -1.00, 61.1, 100.7)">h</text><text xml:space="preserve" font-family="AvenirNext-Medium,Avenir Next" font-size="32.0" fill="#5D514B" transform="matrix(1.00, 0.00, -0.00, -1.00, 79.8, 100.7)">a</text><text xml:space="preserve" font-family="AvenirNext-Medium,Avenir Next" font-size="32.0" fill="#5D514B" transform="matrix(1.00, 0.00, -0.00, -1.00, 97.1, 100.7)">m</text><text xml:space="preserve" font-family="AvenirNext-Medium,Avenir Next" font-size="32.0" fill="#5D514B" transform="matrix(1.00, 0.00, -0.00, -1.00, 125.5, 100.7)">p</text><text xml:space="preserve" font-family="AvenirNext-Medium,Avenir Next" font-size="32.0" fill="#5D514B" transform="matrix(1.00, 0.00, -0.00, -1.00, 145.8, 100.7)"> </text><text xml:space="preserve" font-family="AvenirNext-Medium,Avenir Next" font-size="32.0" fill="#5D514B" transform="matrix(1.00, 0.00, -0.00, -1.00, 153.8, 100.7)">d</text><text xml:space="preserve" font-family="AvenirNext-Medium,Avenir Next" font-size="32.0" fill="#5D514B" transform="matrix(1.00, 0.00, -0.00, -1.00, 174.1, 100.7)">e</text><text xml:space="preserve" font-family="AvenirNext-Medium,Avenir Next" font-size="32.0" fill="#5D514B" transform="matrix(1.00, 0.00, -0.00, -1.00, 192.5, 100.7)"> </text><text xml:space="preserve" font-family="AvenirNext-Medium,Avenir Next" font-size="32.0" fill="#5D514B" transform="matrix(1.00, 0.00, -0.00, -1.00, 200.5, 100.7)">t</text><text xml:space="preserve" font-family="AvenirNext-Medium,Avenir Next" font-size="32.0" fill="#5D514B" transform="matrix(1.00, 0.00, -0.00, -1.00, 211.0, 100.7)">y</text><text xml:space="preserve" font-family="AvenirNext-Medium,Avenir Next" font-size="32.0" fill="#5D514B" transform="matrix(1.00, 0.00, -0.00, -1.00, 227.1, 100.7)">p</text><text xml:space="preserve" font-family="AvenirNext-Medium,Avenir Next" font-size="32.0" fill="#5D514B" transform="matrix(1.00, 0.00, -0.00, -1.00, 247.4, 100.7)">e</text><text xml:space="preserve" font-family="AvenirNext-Medium,Avenir Next" font-size="32.0" fill="#5D514B" transform="matrix(1.00, 0.00, -0.00, -1.00, 265.8, 100.7)"> </text><text xml:space="preserve" font-family="AvenirNext-Medium,Avenir Next" font-size="32.0" fill="#5D514B" transform="matrix(1.00, 0.00, -0.00, -1.00, 273.8, 100.7)">e</text><text xml:space="preserve" font-family="AvenirNext-Medium,Avenir Next" font-size="32.0" fill="#5D514B" transform="matrix(1.00, 0.00, -0.00, -1.00, 292.1, 100.7)">m</text><text xml:space="preserve" font-family="AvenirNext-Medium,Avenir Next" font-size="32.0" fill="#5D514B" transform="matrix(1.00, 0.00, -0.00, -1.00, 320.5, 100.7)">a</text><text xml:space="preserve" font-family="AvenirNext-Medium,Avenir Next" font-size="32.0" fill="#5D514B" transform="matrix(1.00, 0.00, -0.00, -1.00, 337.8, 100.7)">i</text><text xml:space="preserve" font-family="AvenirNext-Medium,Avenir Next" font-size="32.0" fill="#5D514B" transform="matrix(1.00, 0.00, -0.00, -1.00, 346.1, 100.7)">l</text><text xml:space="preserve" font-family="AvenirNext-Medium,Avenir Next" font-size="32.0" fill="#5D514B" transform="matrix(1.00, 0.00, -0.00, -1.00, 354.4, 100.7)"> </text><text xml:space="preserve" font-family="AvenirNext-Medium,Avenir Next" font-size="32.0" fill="#5D514B" transform="matrix(1.00, 0.00, -0.00, -1.00, 362.4, 100.7)">p</text><text xml:space="preserve" font-family="AvenirNext-Medium,Avenir Next" font-size="32.0" fill="#5D514B" transform="matrix(1.00, 0.00, -0.00, -1.00, 382.7, 100.7)">e</text><text xml:space="preserve" font-family="AvenirNext-Medium,Avenir Next" font-size="32.0" fill="#5D514B" transform="matrix(1.00, 0.00, -0.00, -1.00, 401.1, 100.7)">r</text><text xml:space="preserve" font-family="AvenirNext-Medium,Avenir Next" font-size="32.0" fill="#5D514B" transform="matrix(1.00, 0.00, -0.00, -1.00, 412.6, 100.7)">m</text><text xml:space="preserve" font-family="AvenirNext-Medium,Avenir Next" font-size="32.0" fill="#5D514B" transform="matrix(1.00, 0.00, -0.00, -1.00, 441.0, 100.7)">e</text><text xml:space="preserve" font-family="AvenirNext-Medium,Avenir Next" font-size="32.0" fill="#5D514B" transform="matrix(1.00, 0.00, -0.00, -1.00, 459.4, 100.7)">t</text><text xml:space="preserve" font-family="AvenirNext-Medium,Avenir Next" font-size="32.0" fill="#5D514B" transform="matrix(1.00, 0.00, -0.00, -1.00, 469.9, 100.7)"> </text><text xml:space="preserve" font-family="AvenirNext-Medium,Avenir Next" font-size="32.0" fill="#5D514B" transform="matrix(1.00, 0.00, -0.00, -1.00, 477.9, 100.7)">d</text><text xml:space="preserve" font-family="AvenirNext-Medium,Avenir Next" font-size="32.0" fill="#5D514B" transform="matrix(1.00, 0.00, -0.00, -1.00, 498.2, 100.7)">’</text><text xml:space="preserve" font-family="AvenirNext-Medium,Avenir Next" font-size="32.0" fill="#5D514B" transform="matrix(1.00, 0.00, -0.00, -1.00, 504.2, 100.7)">a</text><text xml:space="preserve" font-family="AvenirNext-Medium,Avenir Next" font-size="32.0" fill="#5D514B" transform="matrix(1.00, 0.00, -0.00, -1.00, 521.5, 100.7)">v</text><text xml:space="preserve" font-family="AvenirNext-Medium,Avenir Next" font-size="32.0" fill="#5D514B" transform="matrix(1.00, 0.00, -0.00, -1.00, 537.6, 100.7)">o</text><text xml:space="preserve" font-family="AvenirNext-Medium,Avenir Next" font-size="32.0" fill="#5D514B" transform="matrix(1.00, 0.00, -0.00, -1.00, 557.1, 100.7)">i</text><text xml:space="preserve" font-family="AvenirNext-Medium,Avenir Next" font-size="32.0" fill="#5D514B" transform="matrix(1.00, 0.00, -0.00, -1.00, 565.4, 100.7)">r</text><text xml:space="preserve" font-family="AvenirNext-Medium,Avenir Next" font-size="32.0" fill="#5D514B" transform="matrix(1.00, 0.00, -0.00, -1.00, 577.0, 100.7)"> </text><text xml:space="preserve" font-family="AvenirNext-Medium,Avenir Next" font-size="32.0" fill="#5D514B" transform="matrix(1.00, 0.00, -0.00, -1.00, 585.0, 100.7)">u</text><text xml:space="preserve" font-family="AvenirNext-Medium,Avenir Next" font-size="32.0" fill="#5D514B" transform="matrix(1.00, 0.00, -0.00, -1.00, 603.6, 100.7)">n</text><text xml:space="preserve" font-family="AvenirNext-Medium,Avenir Next" font-size="32.0" fill="#5D514B" transform="matrix(1.00, 0.00, -0.00, -1.00, 622.3, 100.7)"> </text><text xml:space="preserve" font-family="AvenirNext-Medium,Avenir Next" font-size="32.0" fill="#5D514B" transform="matrix(1.00, 0.00, -0.00, -1.00, 630.3, 100.7)">c</text><text xml:space="preserve" font-family="AvenirNext-Medium,Avenir Next" font-size="32.0" fill="#5D514B" transform="matrix(1.00, 0.00, -0.00, -1.00, 646.1, 100.7)">l</text><text xml:space="preserve" font-family="AvenirNext-Medium,Avenir Next" font-size="32.0" fill="#5D514B" transform="matrix(1.00, 0.00, -0.00, -1.00, 654.4, 100.7)">a</text><text xml:space="preserve" font-family="AvenirNext-Medium,Avenir Next" font-size="32.0" fill="#5D514B" transform="matrix(1.00, 0.00, -0.00, -1.00, 671.7, 100.7)">v</text><text xml:space="preserve" font-family="AvenirNext-Medium,Avenir Next" font-size="32.0" fill="#5D514B" transform="matrix(1.00, 0.00, -0.00, -1.00, 687.9, 100.7)">i</text><text xml:space="preserve" font-family="AvenirNext-Medium,Avenir Next" font-size="32.0" fill="#5D514B" transform="matrix(1.00, 0.00, -0.00, -1.00, 696.2, 100.7)">e</text><text xml:space="preserve" font-family="AvenirNext-Medium,Avenir Next" font-size="32.0" fill="#5D514B" transform="matrix(1.00, 0.00, -0.00, -1.00, 714.5, 100.7)">r</text><text xml:space="preserve" font-family="AvenirNext-Medium,Avenir Next" font-size="32.0" fill="#5D514B" transform="matrix(1.00, 0.00, -0.00, -1.00, 726.1, 100.7)"> </text><text xml:space="preserve" font-family="AvenirNext-Medium,Avenir Next" font-size="32.0" fill="#5D514B" transform="matrix(1.00, 0.00, -0.00, -1.00, 734.1, 100.7)">s</text><text xml:space="preserve" font-family="AvenirNext-Medium,Avenir Next" font-size="32.0" fill="#5D514B" transform="matrix(1.00, 0.00, -0.00, -1.00, 748.3, 100.7)">p</text><text xml:space="preserve" font-family="AvenirNext-Medium,Avenir Next" font-size="32.0" fill="#5D514B" transform="matrix(1.00, 0.00, -0.00, -1.00, 768.6, 100.7)">é</text><text xml:space="preserve" font-family="AvenirNext-Medium,Avenir Next" font-size="32.0" fill="#5D514B" transform="matrix(1.00, 0.00, -0.00, -1.00, 786.9, 100.7)">c</text><text xml:space="preserve" font-family="AvenirNext-Medium,Avenir Next" font-size="32.0" fill="#5D514B" transform="matrix(1.00, 0.00, -0.00, -1.00, 802.7, 100.7)">i</text><text xml:space="preserve" font-family="AvenirNext-Medium,Avenir Next" font-size="32.0" fill="#5D514B" transform="matrix(1.00, 0.00, -0.00, -1.00, 811.0, 100.7)">a</text><text xml:space="preserve" font-family="AvenirNext-Medium,Avenir Next" font-size="32.0" fill="#5D514B" transform="matrix(1.00, 0.00, -0.00, -1.00, 828.3, 100.7)">l</text><text xml:space="preserve" font-family="AvenirNext-Medium,Avenir Next" font-size="32.0" fill="#5D514B" transform="matrix(1.00, 0.00, -0.00, -1.00, 836.7, 100.7)"> </text><image xlink:href="FF26F0BB6C8ED0E2D259D1912B79A3D8.png" width="776.00" height="37.00" transform="matrix(1.00, 0.00, -0.00, -1.00, 2.0, 82.0)"></image><text xml:space="preserve" font-family="AvenirNext-Medium,Avenir Next" font-size="32.0" fill="#5D514B" transform="matrix(1.00, 0.00, -0.00, -1.00, 3.2, 56.7)">s</text><text xml:space="preserve" font-family="AvenirNext-Medium,Avenir Next" font-size="32.0" fill="#5D514B" transform="matrix(1.00, 0.00, -0.00, -1.00, 17.4, 56.7)">u</text><text xml:space="preserve" font-family="AvenirNext-Medium,Avenir Next" font-size="32.0" fill="#5D514B" transform="matrix(1.00, 0.00, -0.00, -1.00, 36.0, 56.7)">r</text><text xml:space="preserve" font-family="AvenirNext-Medium,Avenir Next" font-size="32.0" fill="#5D514B" transform="matrix(1.00, 0.00, -0.00, -1.00, 47.6, 56.7)"> </text><text xml:space="preserve" font-family="AvenirNext-Medium,Avenir Next" font-size="32.0" fill="#5D514B" transform="matrix(1.00, 0.00, -0.00, -1.00, 55.6, 56.7)">s</text><text xml:space="preserve" font-family="AvenirNext-Medium,Avenir Next" font-size="32.0" fill="#5D514B" transform="matrix(1.00, 0.00, -0.00, -1.00, 69.8, 56.7)">m</text><text xml:space="preserve" font-family="AvenirNext-Medium,Avenir Next" font-size="32.0" fill="#5D514B" transform="matrix(1.00, 0.00, -0.00, -1.00, 98.2, 56.7)">a</text><text xml:space="preserve" font-family="AvenirNext-Medium,Avenir Next" font-size="32.0" fill="#5D514B" transform="matrix(1.00, 0.00, -0.00, -1.00, 115.5, 56.7)">r</text><text xml:space="preserve" font-family="AvenirNext-Medium,Avenir Next" font-size="32.0" fill="#5D514B" transform="matrix(1.00, 0.00, -0.00, -1.00, 126.7, 56.7)">t</text><text xml:space="preserve" font-family="AvenirNext-Medium,Avenir Next" font-size="32.0" fill="#5D514B" transform="matrix(1.00, 0.00, -0.00, -1.00, 137.3, 56.7)">p</text><text xml:space="preserve" font-family="AvenirNext-Medium,Avenir Next" font-size="32.0" fill="#5D514B" transform="matrix(1.00, 0.00, -0.00, -1.00, 157.6, 56.7)">h</text><text xml:space="preserve" font-family="AvenirNext-Medium,Avenir Next" font-size="32.0" fill="#5D514B" transform="matrix(1.00, 0.00, -0.00, -1.00, 176.3, 56.7)">o</text><text xml:space="preserve" font-family="AvenirNext-Medium,Avenir Next" font-size="32.0" fill="#5D514B" transform="matrix(1.00, 0.00, -0.00, -1.00, 195.8, 56.7)">n</text><text xml:space="preserve" font-family="AvenirNext-Medium,Avenir Next" font-size="32.0" fill="#5D514B" transform="matrix(1.00, 0.00, -0.00, -1.00, 214.4, 56.7)">e</text><text xml:space="preserve" font-family="AvenirNext-Medium,Avenir Next" font-size="32.0" fill="#5D514B" transform="matrix(1.00, 0.00, -0.00, -1.00, 232.7, 56.7)"> </text><text xml:space="preserve" font-family="AvenirNext-Medium,Avenir Next" font-size="32.0" fill="#5D514B" transform="matrix(1.00, 0.00, -0.00, -1.00, 240.7, 56.7)">e</text><text xml:space="preserve" font-family="AvenirNext-Medium,Avenir Next" font-size="32.0" fill="#5D514B" transform="matrix(1.00, 0.00, -0.00, -1.00, 259.1, 56.7)">t</text><text xml:space="preserve" font-family="AvenirNext-Medium,Avenir Next" font-size="32.0" fill="#5D514B" transform="matrix(1.00, 0.00, -0.00, -1.00, 269.6, 56.7)"> </text><text xml:space="preserve" font-family="AvenirNext-Medium,Avenir Next" font-size="32.0" fill="#5D514B" transform="matrix(1.00, 0.00, -0.00, -1.00, 277.6, 56.7)">f</text><text xml:space="preserve" font-family="AvenirNext-Medium,Avenir Next" font-size="32.0" fill="#5D514B" transform="matrix(1.00, 0.00, -0.00, -1.00, 287.5, 56.7)">a</text><text xml:space="preserve" font-family="AvenirNext-Medium,Avenir Next" font-size="32.0" fill="#5D514B" transform="matrix(1.00, 0.00, -0.00, -1.00, 304.9, 56.7)">i</text><text xml:space="preserve" font-family="AvenirNext-Medium,Avenir Next" font-size="32.0" fill="#5D514B" transform="matrix(1.00, 0.00, -0.00, -1.00, 313.1, 56.7)">t</text><text xml:space="preserve" font-family="AvenirNext-Medium,Avenir Next" font-size="32.0" fill="#5D514B" transform="matrix(1.00, 0.00, -0.00, -1.00, 323.7, 56.7)"> </text><text xml:space="preserve" font-family="AvenirNext-Medium,Avenir Next" font-size="32.0" fill="#5D514B" transform="matrix(1.00, 0.00, -0.00, -1.00, 331.7, 56.7)">u</text><text xml:space="preserve" font-family="AvenirNext-Medium,Avenir Next" font-size="32.0" fill="#5D514B" transform="matrix(1.00, 0.00, -0.00, -1.00, 350.3, 56.7)">n</text><text xml:space="preserve" font-family="AvenirNext-Medium,Avenir Next" font-size="32.0" fill="#5D514B" transform="matrix(1.00, 0.00, -0.00, -1.00, 368.9, 56.7)">e</text><text xml:space="preserve" font-family="AvenirNext-Medium,Avenir Next" font-size="32.0" fill="#5D514B" transform="matrix(1.00, 0.00, -0.00, -1.00, 387.3, 56.7)"> </text><text xml:space="preserve" font-family="AvenirNext-Medium,Avenir Next" font-size="32.0" fill="#5D514B" transform="matrix(1.00, 0.00, -0.00, -1.00, 395.3, 56.7)">v</text><text xml:space="preserve" font-family="AvenirNext-Medium,Avenir Next" font-size="32.0" fill="#5D514B" transform="matrix(1.00, 0.00, -0.00, -1.00, 411.4, 56.7)">é</text><text xml:space="preserve" font-family="AvenirNext-Medium,Avenir Next" font-size="32.0" fill="#5D514B" transform="matrix(1.00, 0.00, -0.00, -1.00, 429.7, 56.7)">r</text><text xml:space="preserve" font-family="AvenirNext-Medium,Avenir Next" font-size="32.0" fill="#5D514B" transform="matrix(1.00, 0.00, -0.00, -1.00, 441.3, 56.7)">i</text><text xml:space="preserve" font-family="AvenirNext-Medium,Avenir Next" font-size="32.0" fill="#5D514B" transform="matrix(1.00, 0.00, -0.00, -1.00, 449.6, 56.7)">ﬁ</text><text xml:space="preserve" font-family="AvenirNext-Medium,Avenir Next" font-size="32.0" fill="#5D514B" transform="matrix(1.00, 0.00, -0.00, -1.00, 468.0, 56.7)">c</text><text xml:space="preserve" font-family="AvenirNext-Medium,Avenir Next" font-size="32.0" fill="#5D514B" transform="matrix(1.00, 0.00, -0.00, -1.00, 483.8, 56.7)">a</text><text xml:space="preserve" font-family="AvenirNext-Medium,Avenir Next" font-size="32.0" fill="#5D514B" transform="matrix(1.00, 0.00, -0.00, -1.00, 500.8, 56.7)">t</text><text xml:space="preserve" font-family="AvenirNext-Medium,Avenir Next" font-size="32.0" fill="#5D514B" transform="matrix(1.00, 0.00, -0.00, -1.00, 511.3, 56.7)">i</text><text xml:space="preserve" font-family="AvenirNext-Medium,Avenir Next" font-size="32.0" fill="#5D514B" transform="matrix(1.00, 0.00, -0.00, -1.00, 519.6, 56.7)">o</text><text xml:space="preserve" font-family="AvenirNext-Medium,Avenir Next" font-size="32.0" fill="#5D514B" transform="matrix(1.00, 0.00, -0.00, -1.00, 539.1, 56.7)">n</text><text xml:space="preserve" font-family="AvenirNext-Medium,Avenir Next" font-size="32.0" fill="#5D514B" transform="matrix(1.00, 0.00, -0.00, -1.00, 557.8, 56.7)"> </text><text xml:space="preserve" font-family="AvenirNext-Medium,Avenir Next" font-size="32.0" fill="#5D514B" transform="matrix(1.00, 0.00, -0.00, -1.00, 565.8, 56.7)">s</text><text xml:space="preserve" font-family="AvenirNext-Medium,Avenir Next" font-size="32.0" fill="#5D514B" transform="matrix(1.00, 0.00, -0.00, -1.00, 580.0, 56.7)">u</text><text xml:space="preserve" font-family="AvenirNext-Medium,Avenir Next" font-size="32.0" fill="#5D514B" transform="matrix(1.00, 0.00, -0.00, -1.00, 598.6, 56.7)">r</text><text xml:space="preserve" font-family="AvenirNext-Medium,Avenir Next" font-size="32.0" fill="#5D514B" transform="matrix(1.00, 0.00, -0.00, -1.00, 610.2, 56.7)"> </text><text xml:space="preserve" font-family="AvenirNext-Medium,Avenir Next" font-size="32.0" fill="#5D514B" transform="matrix(1.00, 0.00, -0.00, -1.00, 618.2, 56.7)">l</text><text xml:space="preserve" font-family="AvenirNext-Medium,Avenir Next" font-size="32.0" fill="#5D514B" transform="matrix(1.00, 0.00, -0.00, -1.00, 626.5, 56.7)">’</text><text xml:space="preserve" font-family="AvenirNext-Medium,Avenir Next" font-size="32.0" fill="#5D514B" transform="matrix(1.00, 0.00, -0.00, -1.00, 632.4, 56.7)">e</text><text xml:space="preserve" font-family="AvenirNext-Medium,Avenir Next" font-size="32.0" fill="#5D514B" transform="matrix(1.00, 0.00, -0.00, -1.00, 650.8, 56.7)">m</text><text xml:space="preserve" font-family="AvenirNext-Medium,Avenir Next" font-size="32.0" fill="#5D514B" transform="matrix(1.00, 0.00, -0.00, -1.00, 679.2, 56.7)">a</text><text xml:space="preserve" font-family="AvenirNext-Medium,Avenir Next" font-size="32.0" fill="#5D514B" transform="matrix(1.00, 0.00, -0.00, -1.00, 696.5, 56.7)">i</text><text xml:space="preserve" font-family="AvenirNext-Medium,Avenir Next" font-size="32.0" fill="#5D514B" transform="matrix(1.00, 0.00, -0.00, -1.00, 704.8, 56.7)">l</text><text xml:space="preserve" font-family="AvenirNext-Medium,Avenir Next" font-size="32.0" fill="#5D514B" transform="matrix(1.00, 0.00, -0.00, -1.00, 713.1, 56.7)"> </text><text xml:space="preserve" font-family="AvenirNext-Medium,Avenir Next" font-size="32.0" fill="#5D514B" transform="matrix(1.00, 0.00, -0.00, -1.00, 721.1, 56.7)">(</text><text xml:space="preserve" font-family="AvenirNext-Medium,Avenir Next" font-size="32.0" fill="#5D514B" transform="matrix(1.00, 0.00, -0.00, -1.00, 731.2, 56.7)">s</text><text xml:space="preserve" font-family="AvenirNext-Medium,Avenir Next" font-size="32.0" fill="#5D514B" transform="matrix(1.00, 0.00, -0.00, -1.00, 745.4, 56.7)">u</text><text xml:space="preserve" font-family="AvenirNext-Medium,Avenir Next" font-size="32.0" fill="#5D514B" transform="matrix(1.00, 0.00, -0.00, -1.00, 764.0, 56.7)">r</text><text xml:space="preserve" font-family="AvenirNext-Medium,Avenir Next" font-size="32.0" fill="#5D514B" transform="matrix(1.00, 0.00, -0.00, -1.00, 775.6, 56.7)"> </text><image xlink:href="DD49FD43E44281371CF65DB9AED5E8E1.png" width="306.00" height="36.00" transform="matrix(1.00, 0.00, -0.00, -1.00, 2.0, 37.0)"></image><text xml:space="preserve" font-family="AvenirNext-Medium,Avenir Next" font-size="32.0" fill="#5D514B" transform="matrix(1.00, 0.00, -0.00, -1.00, 3.2, 12.7)">c</text><text xml:space="preserve" font-family="AvenirNext-Medium,Avenir Next" font-size="32.0" fill="#5D514B" transform="matrix(1.00, 0.00, -0.00, -1.00, 19.0, 12.7)">e</text><text xml:space="preserve" font-family="AvenirNext-Medium,Avenir Next" font-size="32.0" fill="#5D514B" transform="matrix(1.00, 0.00, -0.00, -1.00, 37.3, 12.7)">r</text><text xml:space="preserve" font-family="AvenirNext-Medium,Avenir Next" font-size="32.0" fill="#5D514B" transform="matrix(1.00, 0.00, -0.00, -1.00, 48.5, 12.7)">t</text><text xml:space="preserve" font-family="AvenirNext-Medium,Avenir Next" font-size="32.0" fill="#5D514B" transform="matrix(1.00, 0.00, -0.00, -1.00, 59.1, 12.7)">a</text><text xml:space="preserve" font-family="AvenirNext-Medium,Avenir Next" font-size="32.0" fill="#5D514B" transform="matrix(1.00, 0.00, -0.00, -1.00, 76.4, 12.7)">i</text><text xml:space="preserve" font-family="AvenirNext-Medium,Avenir Next" font-size="32.0" fill="#5D514B" transform="matrix(1.00, 0.00, -0.00, -1.00, 84.7, 12.7)">n</text><text xml:space="preserve" font-family="AvenirNext-Medium,Avenir Next" font-size="32.0" fill="#5D514B" transform="matrix(1.00, 0.00, -0.00, -1.00, 103.3, 12.7)">s</text><text xml:space="preserve" font-family="AvenirNext-Medium,Avenir Next" font-size="32.0" fill="#5D514B" transform="matrix(1.00, 0.00, -0.00, -1.00, 117.5, 12.7)"> </text><text xml:space="preserve" font-family="AvenirNext-Medium,Avenir Next" font-size="32.0" fill="#5D514B" transform="matrix(1.00, 0.00, -0.00, -1.00, 125.5, 12.7)">n</text><text xml:space="preserve" font-family="AvenirNext-Medium,Avenir Next" font-size="32.0" fill="#5D514B" transform="matrix(1.00, 0.00, -0.00, -1.00, 144.2, 12.7)">a</text><text xml:space="preserve" font-family="AvenirNext-Medium,Avenir Next" font-size="32.0" fill="#5D514B" transform="matrix(1.00, 0.00, -0.00, -1.00, 161.5, 12.7)">v</text><text xml:space="preserve" font-family="AvenirNext-Medium,Avenir Next" font-size="32.0" fill="#5D514B" transform="matrix(1.00, 0.00, -0.00, -1.00, 177.6, 12.7)">i</text><text xml:space="preserve" font-family="AvenirNext-Medium,Avenir Next" font-size="32.0" fill="#5D514B" transform="matrix(1.00, 0.00, -0.00, -1.00, 185.9, 12.7)">g</text><text xml:space="preserve" font-family="AvenirNext-Medium,Avenir Next" font-size="32.0" fill="#5D514B" transform="matrix(1.00, 0.00, -0.00, -1.00, 206.1, 12.7)">a</text><text xml:space="preserve" font-family="AvenirNext-Medium,Avenir Next" font-size="32.0" fill="#5D514B" transform="matrix(1.00, 0.00, -0.00, -1.00, 223.2, 12.7)">t</text><text xml:space="preserve" font-family="AvenirNext-Medium,Avenir Next" font-size="32.0" fill="#5D514B" transform="matrix(1.00, 0.00, -0.00, -1.00, 233.7, 12.7)">e</text><text xml:space="preserve" font-family="AvenirNext-Medium,Avenir Next" font-size="32.0" fill="#5D514B" transform="matrix(1.00, 0.00, -0.00, -1.00, 252.0, 12.7)">u</text><text xml:space="preserve" font-family="AvenirNext-Medium,Avenir Next" font-size="32.0" fill="#5D514B" transform="matrix(1.00, 0.00, -0.00, -1.00, 270.7, 12.7)">r</text><text xml:space="preserve" font-family="AvenirNext-Medium,Avenir Next" font-size="32.0" fill="#5D514B" transform="matrix(1.00, 0.00, -0.00, -1.00, 282.2, 12.7)">s</text><text xml:space="preserve" font-family="AvenirNext-Medium,Avenir Next" font-size="32.0" fill="#5D514B" transform="matrix(1.00, 0.00, -0.00, -1.00, 296.4, 12.7)">)</text><text xml:space="preserve" font-family="AvenirNext-Medium,Avenir Next" font-size="32.0" fill="#5D514B" transform="matrix(1.00, 0.00, -0.00, -1.00, 306.5, 12.7)"> </text></g></svg>