<?xml version="1.0" encoding="UTF-8" standalone="no"?><svg xmlns="http://www.w3.org/2000/svg" xmlns:xlink="http://www.w3.org/1999/xlink" clip-rule="evenodd" stroke-miterlimit="10" viewBox="0 0 1024 768"><desc>SVG generated by Keynote</desc><defs></defs><g transform="matrix(1.00, 0.00, -0.00, -1.00, 0.0, 768.0)"><g><clipPath id="clip0x7faa3abe4760"><path d="M 0.0 768.0 L 1024.0 768.0 L 1024.0 0.0 L 0.0 0.0 Z M 0.0 768.0 "></path></clipPath><g clip-path="url(#clip0x7faa3abe4760)"><image xlink:href="../../9C7E9419-8A9E-4BEA-836D-D65EE0722FC0/assets/B5EE15FD4291743AF7496326DC17A466.jpeg" width="2048.00" height="1536.00" transform="matrix(0.50, 0.00, -0.00, -0.50, 0.0, 768.0)"></image></g></g><g opacity="0.45"><g><clipPath id="clip0x7faa3abe7000"><path d="M 30.0 48.0 L 994.0 48.0 L 994.0 741.0 L 30.0 741.0 Z M 30.0 48.0 "></path></clipPath><g clip-path="url(#clip0x7faa3abe7000)"><image xlink:href="../../9C7E9419-8A9E-4BEA-836D-D65EE0722FC0/assets/1E0376F862DA30D710D4F1E0694CAC10.png" width="1374.00" height="986.00" transform="matrix(0.70, 0.00, -0.00, -0.70, 31.0, 740.0)"></image></g></g></g><image xlink:href="0B9F7EDB4D5485ACE4BBBA2EE25AF828.png" width="482.00" height="41.00" transform="matrix(1.00, 0.00, -0.00, -1.00, 271.0, 701.0)"></image><text xml:space="preserve" font-family="AvenirNext-Bold,Avenir Next" font-weight="bold" font-size="48.0" fill="#3D3B38" transform="matrix(1.00, 0.00, -0.00, -1.00, 270.2, 665.6)">I</text><text xml:space="preserve" font-family="AvenirNext-Bold,Avenir Next" font-weight="bold" font-size="48.0" fill="#3D3B38" transform="matrix(1.00, 0.00, -0.00, -1.00, 289.3, 665.6)">N</text><text xml:space="preserve" font-family="AvenirNext-Bold,Avenir Next" font-weight="bold" font-size="48.0" fill="#3D3B38" transform="matrix(1.00, 0.00, -0.00, -1.00, 331.0, 665.6)">P</text><text xml:space="preserve" font-family="AvenirNext-Bold,Avenir Next" font-weight="bold" font-size="48.0" fill="#3D3B38" transform="matrix(1.00, 0.00, -0.00, -1.00, 365.6, 665.6)">U</text><text xml:space="preserve" font-family="AvenirNext-Bold,Avenir Next" font-weight="bold" font-size="48.0" fill="#3D3B38" transform="matrix(1.00, 0.00, -0.00, -1.00, 404.9, 665.6)">T</text><text xml:space="preserve" font-family="AvenirNext-Bold,Avenir Next" font-weight="bold" font-size="48.0" fill="#3D3B38" transform="matrix(1.00, 0.00, -0.00, -1.00, 435.4, 665.6)"> </text><text xml:space="preserve" font-family="AvenirNext-Bold,Avenir Next" font-weight="bold" font-size="48.0" fill="#3D3B38" transform="matrix(1.00, 0.00, -0.00, -1.00, 451.3, 665.6)">C</text><text xml:space="preserve" font-family="AvenirNext-Bold,Avenir Next" font-weight="bold" font-size="48.0" fill="#3D3B38" transform="matrix(1.00, 0.00, -0.00, -1.00, 488.5, 665.6)">H</text><text xml:space="preserve" font-family="AvenirNext-Bold,Avenir Next" font-weight="bold" font-size="48.0" fill="#3D3B38" transform="matrix(1.00, 0.00, -0.00, -1.00, 529.0, 665.6)">E</text><text xml:space="preserve" font-family="AvenirNext-Bold,Avenir Next" font-weight="bold" font-size="48.0" fill="#3D3B38" transform="matrix(1.00, 0.00, -0.00, -1.00, 562.0, 665.6)">C</text><text xml:space="preserve" font-family="AvenirNext-Bold,Avenir Next" font-weight="bold" font-size="48.0" fill="#3D3B38" transform="matrix(1.00, 0.00, -0.00, -1.00, 599.3, 665.6)">K</text><text xml:space="preserve" font-family="AvenirNext-Bold,Avenir Next" font-weight="bold" font-size="48.0" fill="#3D3B38" transform="matrix(1.00, 0.00, -0.00, -1.00, 637.2, 665.6)">B</text><text xml:space="preserve" font-family="AvenirNext-Bold,Avenir Next" font-weight="bold" font-size="48.0" fill="#3D3B38" transform="matrix(1.00, 0.00, -0.00, -1.00, 673.0, 665.6)">O</text><text xml:space="preserve" font-family="AvenirNext-Bold,Avenir Next" font-weight="bold" font-size="48.0" fill="#3D3B38" transform="matrix(1.00, 0.00, -0.00, -1.00, 716.2, 665.6)">X</text></g></svg>