<?xml version="1.0" encoding="UTF-8" standalone="no"?><svg xmlns="http://www.w3.org/2000/svg" xmlns:xlink="http://www.w3.org/1999/xlink" clip-rule="evenodd" stroke-miterlimit="10" viewBox="0 0 830 303"><desc>SVG generated by Keynote</desc><defs></defs><g transform="matrix(1.00, 0.00, -0.00, -1.00, 0.0, 303.0)"><image xlink:href="../../53554F40-54C5-4BA3-B9EB-20A3EADC6C50/assets/C6F1576CC7BDA490651F882E230B23BA.png" width="15.00" height="15.00" transform="matrix(1.00, 0.00, -0.00, -1.00, 2.0, 209.0)"></image><text xml:space="preserve" font-family="AvenirNext-Medium,Avenir Next" font-size="27.0" fill="#5D514B" transform="matrix(1.00, 0.00, -0.00, -1.00, 3.0, 193.9)">•</text><image xlink:href="../../53554F40-54C5-4BA3-B9EB-20A3EADC6C50/assets/A77B9E331F1C38CDDC0BF2FB6E49268D.png" width="734.00" height="41.00" transform="matrix(1.00, 0.00, -0.00, -1.00, 36.0, 221.0)"></image><text xml:space="preserve" font-family="AvenirNext-Medium,Avenir Next" font-size="36.0" fill="#5D514B" transform="matrix(1.00, 0.00, -0.00, -1.00, 38.0, 193.2)">A</text><text xml:space="preserve" font-family="AvenirNext-Medium,Avenir Next" font-size="36.0" fill="#5D514B" transform="matrix(1.00, 0.00, -0.00, -1.00, 62.9, 193.2)"> </text><text xml:space="preserve" font-family="AvenirNext-Medium,Avenir Next" font-size="36.0" fill="#5D514B" transform="matrix(1.00, 0.00, -0.00, -1.00, 71.9, 193.2)">P</text><text xml:space="preserve" font-family="AvenirNext-Medium,Avenir Next" font-size="36.0" fill="#5D514B" transform="matrix(1.00, 0.00, -0.00, -1.00, 91.4, 193.2)">a</text><text xml:space="preserve" font-family="AvenirNext-Medium,Avenir Next" font-size="36.0" fill="#5D514B" transform="matrix(1.00, 0.00, -0.00, -1.00, 110.5, 193.2)">t</text><text xml:space="preserve" font-family="AvenirNext-Medium,Avenir Next" font-size="36.0" fill="#5D514B" transform="matrix(1.00, 0.00, -0.00, -1.00, 121.8, 193.2)">t</text><text xml:space="preserve" font-family="AvenirNext-Medium,Avenir Next" font-size="36.0" fill="#5D514B" transform="matrix(1.00, 0.00, -0.00, -1.00, 133.7, 193.2)">e</text><text xml:space="preserve" font-family="AvenirNext-Medium,Avenir Next" font-size="36.0" fill="#5D514B" transform="matrix(1.00, 0.00, -0.00, -1.00, 154.3, 193.2)">r</text><text xml:space="preserve" font-family="AvenirNext-Medium,Avenir Next" font-size="36.0" fill="#5D514B" transform="matrix(1.00, 0.00, -0.00, -1.00, 167.3, 193.2)">n</text><text xml:space="preserve" font-family="AvenirNext-Medium,Avenir Next" font-size="36.0" fill="#5D514B" transform="matrix(1.00, 0.00, -0.00, -1.00, 188.3, 193.2)"> </text><text xml:space="preserve" font-family="AvenirNext-Medium,Avenir Next" font-size="36.0" fill="#5D514B" transform="matrix(1.00, 0.00, -0.00, -1.00, 197.3, 193.2)">L</text><text xml:space="preserve" font-family="AvenirNext-Medium,Avenir Next" font-size="36.0" fill="#5D514B" transform="matrix(1.00, 0.00, -0.00, -1.00, 215.7, 193.2)">a</text><text xml:space="preserve" font-family="AvenirNext-Medium,Avenir Next" font-size="36.0" fill="#5D514B" transform="matrix(1.00, 0.00, -0.00, -1.00, 235.2, 193.2)">n</text><text xml:space="preserve" font-family="AvenirNext-Medium,Avenir Next" font-size="36.0" fill="#5D514B" transform="matrix(1.00, 0.00, -0.00, -1.00, 256.1, 193.2)">g</text><text xml:space="preserve" font-family="AvenirNext-Medium,Avenir Next" font-size="36.0" fill="#5D514B" transform="matrix(1.00, 0.00, -0.00, -1.00, 278.9, 193.2)">u</text><text xml:space="preserve" font-family="AvenirNext-Medium,Avenir Next" font-size="36.0" fill="#5D514B" transform="matrix(1.00, 0.00, -0.00, -1.00, 299.8, 193.2)">a</text><text xml:space="preserve" font-family="AvenirNext-Medium,Avenir Next" font-size="36.0" fill="#5D514B" transform="matrix(1.00, 0.00, -0.00, -1.00, 319.3, 193.2)">g</text><text xml:space="preserve" font-family="AvenirNext-Medium,Avenir Next" font-size="36.0" fill="#5D514B" transform="matrix(1.00, 0.00, -0.00, -1.00, 342.1, 193.2)">e</text><text xml:space="preserve" font-family="AvenirNext-Medium,Avenir Next" font-size="36.0" fill="#5D514B" transform="matrix(1.00, 0.00, -0.00, -1.00, 362.7, 193.2)"> </text><text xml:space="preserve" font-family="AvenirNext-Medium,Avenir Next" font-size="36.0" fill="#5D514B" transform="matrix(1.00, 0.00, -0.00, -1.00, 371.7, 193.2)">-</text><text xml:space="preserve" font-family="AvenirNext-Medium,Avenir Next" font-size="36.0" fill="#5D514B" transform="matrix(1.00, 0.00, -0.00, -1.00, 383.2, 193.2)"> </text><text xml:space="preserve" font-family="AvenirNext-Medium,Avenir Next" font-size="36.0" fill="#5D514B" transform="matrix(1.00, 0.00, -0.00, -1.00, 392.2, 193.2)">C</text><text xml:space="preserve" font-family="AvenirNext-Medium,Avenir Next" font-size="36.0" fill="#5D514B" transform="matrix(1.00, 0.00, -0.00, -1.00, 417.7, 193.2)">h</text><text xml:space="preserve" font-family="AvenirNext-Medium,Avenir Next" font-size="36.0" fill="#5D514B" transform="matrix(1.00, 0.00, -0.00, -1.00, 438.8, 193.2)">r</text><text xml:space="preserve" font-family="AvenirNext-Medium,Avenir Next" font-size="36.0" fill="#5D514B" transform="matrix(1.00, 0.00, -0.00, -1.00, 451.8, 193.2)">i</text><text xml:space="preserve" font-family="AvenirNext-Medium,Avenir Next" font-size="36.0" fill="#5D514B" transform="matrix(1.00, 0.00, -0.00, -1.00, 461.1, 193.2)">s</text><text xml:space="preserve" font-family="AvenirNext-Medium,Avenir Next" font-size="36.0" fill="#5D514B" transform="matrix(1.00, 0.00, -0.00, -1.00, 477.1, 193.2)">t</text><text xml:space="preserve" font-family="AvenirNext-Medium,Avenir Next" font-size="36.0" fill="#5D514B" transform="matrix(1.00, 0.00, -0.00, -1.00, 488.9, 193.2)">o</text><text xml:space="preserve" font-family="AvenirNext-Medium,Avenir Next" font-size="36.0" fill="#5D514B" transform="matrix(1.00, 0.00, -0.00, -1.00, 510.9, 193.2)">p</text><text xml:space="preserve" font-family="AvenirNext-Medium,Avenir Next" font-size="36.0" fill="#5D514B" transform="matrix(1.00, 0.00, -0.00, -1.00, 533.7, 193.2)">h</text><text xml:space="preserve" font-family="AvenirNext-Medium,Avenir Next" font-size="36.0" fill="#5D514B" transform="matrix(1.00, 0.00, -0.00, -1.00, 554.7, 193.2)">e</text><text xml:space="preserve" font-family="AvenirNext-Medium,Avenir Next" font-size="36.0" fill="#5D514B" transform="matrix(1.00, 0.00, -0.00, -1.00, 575.4, 193.2)">r</text><text xml:space="preserve" font-family="AvenirNext-Medium,Avenir Next" font-size="36.0" fill="#5D514B" transform="matrix(1.00, 0.00, -0.00, -1.00, 588.4, 193.2)"> </text><text xml:space="preserve" font-family="AvenirNext-Medium,Avenir Next" font-size="36.0" fill="#5D514B" transform="matrix(1.00, 0.00, -0.00, -1.00, 596.8, 193.2)">A</text><text xml:space="preserve" font-family="AvenirNext-Medium,Avenir Next" font-size="36.0" fill="#5D514B" transform="matrix(1.00, 0.00, -0.00, -1.00, 622.4, 193.2)">l</text><text xml:space="preserve" font-family="AvenirNext-Medium,Avenir Next" font-size="36.0" fill="#5D514B" transform="matrix(1.00, 0.00, -0.00, -1.00, 631.7, 193.2)">e</text><text xml:space="preserve" font-family="AvenirNext-Medium,Avenir Next" font-size="36.0" fill="#5D514B" transform="matrix(1.00, 0.00, -0.00, -1.00, 652.0, 193.2)">x</text><text xml:space="preserve" font-family="AvenirNext-Medium,Avenir Next" font-size="36.0" fill="#5D514B" transform="matrix(1.00, 0.00, -0.00, -1.00, 670.4, 193.2)">a</text><text xml:space="preserve" font-family="AvenirNext-Medium,Avenir Next" font-size="36.0" fill="#5D514B" transform="matrix(1.00, 0.00, -0.00, -1.00, 689.9, 193.2)">n</text><text xml:space="preserve" font-family="AvenirNext-Medium,Avenir Next" font-size="36.0" fill="#5D514B" transform="matrix(1.00, 0.00, -0.00, -1.00, 710.8, 193.2)">d</text><text xml:space="preserve" font-family="AvenirNext-Medium,Avenir Next" font-size="36.0" fill="#5D514B" transform="matrix(1.00, 0.00, -0.00, -1.00, 733.7, 193.2)">e</text><text xml:space="preserve" font-family="AvenirNext-Medium,Avenir Next" font-size="36.0" fill="#5D514B" transform="matrix(1.00, 0.00, -0.00, -1.00, 754.3, 193.2)">r</text><image xlink:href="../../53554F40-54C5-4BA3-B9EB-20A3EADC6C50/assets/85ADF1EC9FE531F07D66C7FD29A444A0.png" width="42.00" height="23.00" transform="matrix(1.00, 0.00, -0.00, -1.00, 776.0, 211.0)"></image><text xml:space="preserve" font-family="AvenirNext-Medium,Avenir Next" font-size="36.0" fill="#5D514B" transform="matrix(1.00, 0.00, -0.00, -1.00, 767.4, 193.2)"> </text><text xml:space="preserve" font-family="AvenirNext-Medium,Avenir Next" font-size="36.0" fill="#5D514B" transform="matrix(1.00, 0.00, -0.00, -1.00, 776.4, 193.2)">e</text><text xml:space="preserve" font-family="AvenirNext-Medium,Avenir Next" font-size="36.0" fill="#5D514B" transform="matrix(1.00, 0.00, -0.00, -1.00, 797.0, 193.2)">n</text><text xml:space="preserve" font-family="AvenirNext-Medium,Avenir Next" font-size="36.0" fill="#5D514B" transform="matrix(1.00, 0.00, -0.00, -1.00, 817.9, 193.2)"> </text><image xlink:href="../../53554F40-54C5-4BA3-B9EB-20A3EADC6C50/assets/07802DB8DF379C70797DD5427EB35869.png" width="84.00" height="31.00" transform="matrix(1.00, 0.00, -0.00, -1.00, 39.0, 171.0)"></image><text xml:space="preserve" font-family="AvenirNext-Medium,Avenir Next" font-size="36.0" fill="#5D514B" transform="matrix(1.00, 0.00, -0.00, -1.00, 38.0, 144.2)">1</text><text xml:space="preserve" font-family="AvenirNext-Medium,Avenir Next" font-size="36.0" fill="#5D514B" transform="matrix(1.00, 0.00, -0.00, -1.00, 59.4, 144.2)">9</text><text xml:space="preserve" font-family="AvenirNext-Medium,Avenir Next" font-size="36.0" fill="#5D514B" transform="matrix(1.00, 0.00, -0.00, -1.00, 80.8, 144.2)">7</text><text xml:space="preserve" font-family="AvenirNext-Medium,Avenir Next" font-size="36.0" fill="#5D514B" transform="matrix(1.00, 0.00, -0.00, -1.00, 102.3, 144.2)">7</text><text xml:space="preserve" font-family="AvenirNext-Medium,Avenir Next" font-size="36.0" fill="#5D514B" transform="matrix(1.00, 0.00, -0.00, -1.00, 123.7, 144.2)"> </text><image xlink:href="../../53554F40-54C5-4BA3-B9EB-20A3EADC6C50/assets/C6F1576CC7BDA490651F882E230B23BA.png" width="15.00" height="15.00" transform="matrix(1.00, 0.00, -0.00, -1.00, 2.0, 79.0)"></image><text xml:space="preserve" font-family="AvenirNext-Medium,Avenir Next" font-size="27.0" fill="#5D514B" transform="matrix(1.00, 0.00, -0.00, -1.00, 3.0, 63.9)">•</text><image xlink:href="../../53554F40-54C5-4BA3-B9EB-20A3EADC6C50/assets/6C80C8E34044FBA1EAA0CF9D26D27BC3.png" width="742.00" height="41.00" transform="matrix(1.00, 0.00, -0.00, -1.00, 39.0, 91.0)"></image><text xml:space="preserve" font-family="AvenirNext-Medium,Avenir Next" font-size="36.0" fill="#5D514B" transform="matrix(1.00, 0.00, -0.00, -1.00, 38.0, 63.2)">D</text><text xml:space="preserve" font-family="AvenirNext-Medium,Avenir Next" font-size="36.0" fill="#5D514B" transform="matrix(1.00, 0.00, -0.00, -1.00, 65.4, 63.2)">e</text><text xml:space="preserve" font-family="AvenirNext-Medium,Avenir Next" font-size="36.0" fill="#5D514B" transform="matrix(1.00, 0.00, -0.00, -1.00, 86.0, 63.2)">s</text><text xml:space="preserve" font-family="AvenirNext-Medium,Avenir Next" font-size="36.0" fill="#5D514B" transform="matrix(1.00, 0.00, -0.00, -1.00, 102.0, 63.2)">i</text><text xml:space="preserve" font-family="AvenirNext-Medium,Avenir Next" font-size="36.0" fill="#5D514B" transform="matrix(1.00, 0.00, -0.00, -1.00, 111.3, 63.2)">g</text><text xml:space="preserve" font-family="AvenirNext-Medium,Avenir Next" font-size="36.0" fill="#5D514B" transform="matrix(1.00, 0.00, -0.00, -1.00, 134.1, 63.2)">n</text><text xml:space="preserve" font-family="AvenirNext-Medium,Avenir Next" font-size="36.0" fill="#5D514B" transform="matrix(1.00, 0.00, -0.00, -1.00, 155.0, 63.2)"> </text><text xml:space="preserve" font-family="AvenirNext-Medium,Avenir Next" font-size="36.0" fill="#5D514B" transform="matrix(1.00, 0.00, -0.00, -1.00, 164.0, 63.2)">P</text><text xml:space="preserve" font-family="AvenirNext-Medium,Avenir Next" font-size="36.0" fill="#5D514B" transform="matrix(1.00, 0.00, -0.00, -1.00, 183.4, 63.2)">a</text><text xml:space="preserve" font-family="AvenirNext-Medium,Avenir Next" font-size="36.0" fill="#5D514B" transform="matrix(1.00, 0.00, -0.00, -1.00, 202.6, 63.2)">t</text><text xml:space="preserve" font-family="AvenirNext-Medium,Avenir Next" font-size="36.0" fill="#5D514B" transform="matrix(1.00, 0.00, -0.00, -1.00, 213.9, 63.2)">t</text><text xml:space="preserve" font-family="AvenirNext-Medium,Avenir Next" font-size="36.0" fill="#5D514B" transform="matrix(1.00, 0.00, -0.00, -1.00, 225.7, 63.2)">e</text><text xml:space="preserve" font-family="AvenirNext-Medium,Avenir Next" font-size="36.0" fill="#5D514B" transform="matrix(1.00, 0.00, -0.00, -1.00, 246.4, 63.2)">r</text><text xml:space="preserve" font-family="AvenirNext-Medium,Avenir Next" font-size="36.0" fill="#5D514B" transform="matrix(1.00, 0.00, -0.00, -1.00, 259.4, 63.2)">n</text><text xml:space="preserve" font-family="AvenirNext-Medium,Avenir Next" font-size="36.0" fill="#5D514B" transform="matrix(1.00, 0.00, -0.00, -1.00, 280.4, 63.2)">s</text><text xml:space="preserve" font-family="AvenirNext-Medium,Avenir Next" font-size="36.0" fill="#5D514B" transform="matrix(1.00, 0.00, -0.00, -1.00, 296.3, 63.2)"> </text><text xml:space="preserve" font-family="AvenirNext-Medium,Avenir Next" font-size="36.0" fill="#5D514B" transform="matrix(1.00, 0.00, -0.00, -1.00, 305.3, 63.2)">-</text><text xml:space="preserve" font-family="AvenirNext-Medium,Avenir Next" font-size="36.0" fill="#5D514B" transform="matrix(1.00, 0.00, -0.00, -1.00, 316.9, 63.2)"> </text><text xml:space="preserve" font-family="AvenirNext-Medium,Avenir Next" font-size="36.0" fill="#5D514B" transform="matrix(1.00, 0.00, -0.00, -1.00, 325.9, 63.2)">G</text><text xml:space="preserve" font-family="AvenirNext-Medium,Avenir Next" font-size="36.0" fill="#5D514B" transform="matrix(1.00, 0.00, -0.00, -1.00, 353.9, 63.2)">o</text><text xml:space="preserve" font-family="AvenirNext-Medium,Avenir Next" font-size="36.0" fill="#5D514B" transform="matrix(1.00, 0.00, -0.00, -1.00, 375.8, 63.2)">F</text><text xml:space="preserve" font-family="AvenirNext-Medium,Avenir Next" font-size="36.0" fill="#5D514B" transform="matrix(1.00, 0.00, -0.00, -1.00, 396.3, 63.2)"> </text><text xml:space="preserve" font-family="AvenirNext-Medium,Avenir Next" font-size="36.0" fill="#5D514B" transform="matrix(1.00, 0.00, -0.00, -1.00, 405.3, 63.2)">(</text><text xml:space="preserve" font-family="AvenirNext-Medium,Avenir Next" font-size="36.0" fill="#5D514B" transform="matrix(1.00, 0.00, -0.00, -1.00, 416.6, 63.2)">E</text><text xml:space="preserve" font-family="AvenirNext-Medium,Avenir Next" font-size="36.0" fill="#5D514B" transform="matrix(1.00, 0.00, -0.00, -1.00, 438.2, 63.2)">r</text><text xml:space="preserve" font-family="AvenirNext-Medium,Avenir Next" font-size="36.0" fill="#5D514B" transform="matrix(1.00, 0.00, -0.00, -1.00, 451.3, 63.2)">i</text><text xml:space="preserve" font-family="AvenirNext-Medium,Avenir Next" font-size="36.0" fill="#5D514B" transform="matrix(1.00, 0.00, -0.00, -1.00, 460.6, 63.2)">c</text><text xml:space="preserve" font-family="AvenirNext-Medium,Avenir Next" font-size="36.0" fill="#5D514B" transform="matrix(1.00, 0.00, -0.00, -1.00, 478.4, 63.2)">h</text><text xml:space="preserve" font-family="AvenirNext-Medium,Avenir Next" font-size="36.0" fill="#5D514B" transform="matrix(1.00, 0.00, -0.00, -1.00, 499.4, 63.2)"> </text><text xml:space="preserve" font-family="AvenirNext-Medium,Avenir Next" font-size="36.0" fill="#5D514B" transform="matrix(1.00, 0.00, -0.00, -1.00, 508.4, 63.2)">G</text><text xml:space="preserve" font-family="AvenirNext-Medium,Avenir Next" font-size="36.0" fill="#5D514B" transform="matrix(1.00, 0.00, -0.00, -1.00, 536.4, 63.2)">a</text><text xml:space="preserve" font-family="AvenirNext-Medium,Avenir Next" font-size="36.0" fill="#5D514B" transform="matrix(1.00, 0.00, -0.00, -1.00, 555.9, 63.2)">m</text><text xml:space="preserve" font-family="AvenirNext-Medium,Avenir Next" font-size="36.0" fill="#5D514B" transform="matrix(1.00, 0.00, -0.00, -1.00, 587.9, 63.2)">m</text><text xml:space="preserve" font-family="AvenirNext-Medium,Avenir Next" font-size="36.0" fill="#5D514B" transform="matrix(1.00, 0.00, -0.00, -1.00, 619.8, 63.2)">a</text><text xml:space="preserve" font-family="AvenirNext-Medium,Avenir Next" font-size="36.0" fill="#5D514B" transform="matrix(1.00, 0.00, -0.00, -1.00, 639.3, 63.2)">,</text><text xml:space="preserve" font-family="AvenirNext-Medium,Avenir Next" font-size="36.0" fill="#5D514B" transform="matrix(1.00, 0.00, -0.00, -1.00, 647.6, 63.2)"> </text><text xml:space="preserve" font-family="AvenirNext-Medium,Avenir Next" font-size="36.0" fill="#5D514B" transform="matrix(1.00, 0.00, -0.00, -1.00, 656.6, 63.2)">R</text><text xml:space="preserve" font-family="AvenirNext-Medium,Avenir Next" font-size="36.0" fill="#5D514B" transform="matrix(1.00, 0.00, -0.00, -1.00, 678.7, 63.2)">i</text><text xml:space="preserve" font-family="AvenirNext-Medium,Avenir Next" font-size="36.0" fill="#5D514B" transform="matrix(1.00, 0.00, -0.00, -1.00, 688.0, 63.2)">c</text><text xml:space="preserve" font-family="AvenirNext-Medium,Avenir Next" font-size="36.0" fill="#5D514B" transform="matrix(1.00, 0.00, -0.00, -1.00, 705.8, 63.2)">h</text><text xml:space="preserve" font-family="AvenirNext-Medium,Avenir Next" font-size="36.0" fill="#5D514B" transform="matrix(1.00, 0.00, -0.00, -1.00, 726.8, 63.2)">a</text><text xml:space="preserve" font-family="AvenirNext-Medium,Avenir Next" font-size="36.0" fill="#5D514B" transform="matrix(1.00, 0.00, -0.00, -1.00, 746.3, 63.2)">r</text><text xml:space="preserve" font-family="AvenirNext-Medium,Avenir Next" font-size="36.0" fill="#5D514B" transform="matrix(1.00, 0.00, -0.00, -1.00, 758.7, 63.2)">d</text><text xml:space="preserve" font-family="AvenirNext-Medium,Avenir Next" font-size="36.0" fill="#5D514B" transform="matrix(1.00, 0.00, -0.00, -1.00, 781.6, 63.2)"> </text><image xlink:href="../../53554F40-54C5-4BA3-B9EB-20A3EADC6C50/assets/C1C4FE4324429280526E31DFA4330BD9.png" width="643.00" height="41.00" transform="matrix(1.00, 0.00, -0.00, -1.00, 39.0, 42.0)"></image><text xml:space="preserve" font-family="AvenirNext-Medium,Avenir Next" font-size="36.0" fill="#5D514B" transform="matrix(1.00, 0.00, -0.00, -1.00, 38.0, 14.2)">H</text><text xml:space="preserve" font-family="AvenirNext-Medium,Avenir Next" font-size="36.0" fill="#5D514B" transform="matrix(1.00, 0.00, -0.00, -1.00, 64.2, 14.2)">e</text><text xml:space="preserve" font-family="AvenirNext-Medium,Avenir Next" font-size="36.0" fill="#5D514B" transform="matrix(1.00, 0.00, -0.00, -1.00, 84.9, 14.2)">l</text><text xml:space="preserve" font-family="AvenirNext-Medium,Avenir Next" font-size="36.0" fill="#5D514B" transform="matrix(1.00, 0.00, -0.00, -1.00, 94.2, 14.2)">m</text><text xml:space="preserve" font-family="AvenirNext-Medium,Avenir Next" font-size="36.0" fill="#5D514B" transform="matrix(1.00, 0.00, -0.00, -1.00, 126.2, 14.2)">,</text><text xml:space="preserve" font-family="AvenirNext-Medium,Avenir Next" font-size="36.0" fill="#5D514B" transform="matrix(1.00, 0.00, -0.00, -1.00, 134.4, 14.2)"> </text><text xml:space="preserve" font-family="AvenirNext-Medium,Avenir Next" font-size="36.0" fill="#5D514B" transform="matrix(1.00, 0.00, -0.00, -1.00, 143.4, 14.2)">R</text><text xml:space="preserve" font-family="AvenirNext-Medium,Avenir Next" font-size="36.0" fill="#5D514B" transform="matrix(1.00, 0.00, -0.00, -1.00, 165.1, 14.2)">a</text><text xml:space="preserve" font-family="AvenirNext-Medium,Avenir Next" font-size="36.0" fill="#5D514B" transform="matrix(1.00, 0.00, -0.00, -1.00, 184.6, 14.2)">l</text><text xml:space="preserve" font-family="AvenirNext-Medium,Avenir Next" font-size="36.0" fill="#5D514B" transform="matrix(1.00, 0.00, -0.00, -1.00, 194.0, 14.2)">p</text><text xml:space="preserve" font-family="AvenirNext-Medium,Avenir Next" font-size="36.0" fill="#5D514B" transform="matrix(1.00, 0.00, -0.00, -1.00, 216.8, 14.2)">h</text><text xml:space="preserve" font-family="AvenirNext-Medium,Avenir Next" font-size="36.0" fill="#5D514B" transform="matrix(1.00, 0.00, -0.00, -1.00, 237.8, 14.2)"> </text><text xml:space="preserve" font-family="AvenirNext-Medium,Avenir Next" font-size="36.0" fill="#5D514B" transform="matrix(1.00, 0.00, -0.00, -1.00, 246.4, 14.2)">J</text><text xml:space="preserve" font-family="AvenirNext-Medium,Avenir Next" font-size="36.0" fill="#5D514B" transform="matrix(1.00, 0.00, -0.00, -1.00, 264.2, 14.2)">o</text><text xml:space="preserve" font-family="AvenirNext-Medium,Avenir Next" font-size="36.0" fill="#5D514B" transform="matrix(1.00, 0.00, -0.00, -1.00, 286.2, 14.2)">h</text><text xml:space="preserve" font-family="AvenirNext-Medium,Avenir Next" font-size="36.0" fill="#5D514B" transform="matrix(1.00, 0.00, -0.00, -1.00, 307.2, 14.2)">n</text><text xml:space="preserve" font-family="AvenirNext-Medium,Avenir Next" font-size="36.0" fill="#5D514B" transform="matrix(1.00, 0.00, -0.00, -1.00, 328.2, 14.2)">s</text><text xml:space="preserve" font-family="AvenirNext-Medium,Avenir Next" font-size="36.0" fill="#5D514B" transform="matrix(1.00, 0.00, -0.00, -1.00, 344.1, 14.2)">o</text><text xml:space="preserve" font-family="AvenirNext-Medium,Avenir Next" font-size="36.0" fill="#5D514B" transform="matrix(1.00, 0.00, -0.00, -1.00, 366.1, 14.2)">n</text><text xml:space="preserve" font-family="AvenirNext-Medium,Avenir Next" font-size="36.0" fill="#5D514B" transform="matrix(1.00, 0.00, -0.00, -1.00, 387.1, 14.2)"> </text><text xml:space="preserve" font-family="AvenirNext-Medium,Avenir Next" font-size="36.0" fill="#5D514B" transform="matrix(1.00, 0.00, -0.00, -1.00, 396.1, 14.2)">e</text><text xml:space="preserve" font-family="AvenirNext-Medium,Avenir Next" font-size="36.0" fill="#5D514B" transform="matrix(1.00, 0.00, -0.00, -1.00, 416.7, 14.2)">t</text><text xml:space="preserve" font-family="AvenirNext-Medium,Avenir Next" font-size="36.0" fill="#5D514B" transform="matrix(1.00, 0.00, -0.00, -1.00, 428.5, 14.2)"> </text><text xml:space="preserve" font-family="AvenirNext-Medium,Avenir Next" font-size="36.0" fill="#5D514B" transform="matrix(1.00, 0.00, -0.00, -1.00, 437.1, 14.2)">J</text><text xml:space="preserve" font-family="AvenirNext-Medium,Avenir Next" font-size="36.0" fill="#5D514B" transform="matrix(1.00, 0.00, -0.00, -1.00, 454.9, 14.2)">o</text><text xml:space="preserve" font-family="AvenirNext-Medium,Avenir Next" font-size="36.0" fill="#5D514B" transform="matrix(1.00, 0.00, -0.00, -1.00, 476.9, 14.2)">h</text><text xml:space="preserve" font-family="AvenirNext-Medium,Avenir Next" font-size="36.0" fill="#5D514B" transform="matrix(1.00, 0.00, -0.00, -1.00, 497.9, 14.2)">n</text><text xml:space="preserve" font-family="AvenirNext-Medium,Avenir Next" font-size="36.0" fill="#5D514B" transform="matrix(1.00, 0.00, -0.00, -1.00, 518.9, 14.2)"> </text><text xml:space="preserve" font-family="AvenirNext-Medium,Avenir Next" font-size="36.0" fill="#5D514B" transform="matrix(1.00, 0.00, -0.00, -1.00, 527.2, 14.2)">V</text><text xml:space="preserve" font-family="AvenirNext-Medium,Avenir Next" font-size="36.0" fill="#5D514B" transform="matrix(1.00, 0.00, -0.00, -1.00, 550.3, 14.2)">l</text><text xml:space="preserve" font-family="AvenirNext-Medium,Avenir Next" font-size="36.0" fill="#5D514B" transform="matrix(1.00, 0.00, -0.00, -1.00, 559.7, 14.2)">i</text><text xml:space="preserve" font-family="AvenirNext-Medium,Avenir Next" font-size="36.0" fill="#5D514B" transform="matrix(1.00, 0.00, -0.00, -1.00, 569.0, 14.2)">s</text><text xml:space="preserve" font-family="AvenirNext-Medium,Avenir Next" font-size="36.0" fill="#5D514B" transform="matrix(1.00, 0.00, -0.00, -1.00, 585.0, 14.2)">s</text><text xml:space="preserve" font-family="AvenirNext-Medium,Avenir Next" font-size="36.0" fill="#5D514B" transform="matrix(1.00, 0.00, -0.00, -1.00, 601.0, 14.2)">i</text><text xml:space="preserve" font-family="AvenirNext-Medium,Avenir Next" font-size="36.0" fill="#5D514B" transform="matrix(1.00, 0.00, -0.00, -1.00, 610.3, 14.2)">d</text><text xml:space="preserve" font-family="AvenirNext-Medium,Avenir Next" font-size="36.0" fill="#5D514B" transform="matrix(1.00, 0.00, -0.00, -1.00, 633.2, 14.2)">e</text><text xml:space="preserve" font-family="AvenirNext-Medium,Avenir Next" font-size="36.0" fill="#5D514B" transform="matrix(1.00, 0.00, -0.00, -1.00, 653.8, 14.2)">s</text><text xml:space="preserve" font-family="AvenirNext-Medium,Avenir Next" font-size="36.0" fill="#5D514B" transform="matrix(1.00, 0.00, -0.00, -1.00, 669.8, 14.2)">)</text><text xml:space="preserve" font-family="AvenirNext-Medium,Avenir Next" font-size="36.0" fill="#5D514B" transform="matrix(1.00, 0.00, -0.00, -1.00, 681.1, 14.2)"> </text><image xlink:href="../../53554F40-54C5-4BA3-B9EB-20A3EADC6C50/assets/9DCF9DE65730345CE5D76E29B0C7B67F.png" width="137.00" height="32.00" transform="matrix(1.00, 0.00, -0.00, -1.00, 689.0, 41.0)"></image><text xml:space="preserve" font-family="AvenirNext-Medium,Avenir Next" font-size="36.0" fill="#5D514B" transform="matrix(1.00, 0.00, -0.00, -1.00, 690.1, 14.2)">e</text><text xml:space="preserve" font-family="AvenirNext-Medium,Avenir Next" font-size="36.0" fill="#5D514B" transform="matrix(1.00, 0.00, -0.00, -1.00, 710.7, 14.2)">n</text><text xml:space="preserve" font-family="AvenirNext-Medium,Avenir Next" font-size="36.0" fill="#5D514B" transform="matrix(1.00, 0.00, -0.00, -1.00, 731.7, 14.2)"> </text><text xml:space="preserve" font-family="AvenirNext-Medium,Avenir Next" font-size="36.0" fill="#5D514B" transform="matrix(1.00, 0.00, -0.00, -1.00, 740.7, 14.2)">1</text><text xml:space="preserve" font-family="AvenirNext-Medium,Avenir Next" font-size="36.0" fill="#5D514B" transform="matrix(1.00, 0.00, -0.00, -1.00, 762.1, 14.2)">9</text><text xml:space="preserve" font-family="AvenirNext-Medium,Avenir Next" font-size="36.0" fill="#5D514B" transform="matrix(1.00, 0.00, -0.00, -1.00, 783.5, 14.2)">9</text><text xml:space="preserve" font-family="AvenirNext-Medium,Avenir Next" font-size="36.0" fill="#5D514B" transform="matrix(1.00, 0.00, -0.00, -1.00, 804.9, 14.2)">5</text><text xml:space="preserve" font-family="AvenirNext-Medium,Avenir Next" font-size="36.0" fill="#5D514B" transform="matrix(1.00, 0.00, -0.00, -1.00, 826.4, 14.2)"> </text></g></svg>