<?xml version="1.0" encoding="UTF-8" standalone="no"?><svg xmlns="http://www.w3.org/2000/svg" xmlns:xlink="http://www.w3.org/1999/xlink" clip-rule="evenodd" stroke-miterlimit="10" viewBox="0 0 866 150"><desc>SVG generated by Keynote</desc><defs></defs><g transform="matrix(1.00, 0.00, -0.00, -1.00, 0.0, 150.0)"><image xlink:href="../../335E3EDE-BFE9-40BB-BEF1-179682D6BD89/assets/347F44835FCA6D0B5B89FCF72A3DA2FB.png" width="834.00" height="34.00" transform="matrix(1.00, 0.00, -0.00, -1.00, 3.0, 148.0)"></image><text xml:space="preserve" font-family="AvenirNext-MediumItalic,Avenir Next" font-style="italic" font-size="29.0" fill="#5D514B" transform="matrix(1.00, 0.00, -0.00, -1.00, 3.5, 125.6)">U</text><text xml:space="preserve" font-family="AvenirNext-MediumItalic,Avenir Next" font-style="italic" font-size="29.0" fill="#5D514B" transform="matrix(1.00, 0.00, -0.00, -1.00, 24.1, 125.6)">n</text><text xml:space="preserve" font-family="AvenirNext-MediumItalic,Avenir Next" font-style="italic" font-size="29.0" fill="#5D514B" transform="matrix(1.00, 0.00, -0.00, -1.00, 41.0, 125.6)"> </text><text xml:space="preserve" font-family="AvenirNext-MediumItalic,Avenir Next" font-style="italic" font-size="29.0" fill="#5D514B" transform="matrix(1.00, 0.00, -0.00, -1.00, 48.2, 125.6)">d</text><text xml:space="preserve" font-family="AvenirNext-MediumItalic,Avenir Next" font-style="italic" font-size="29.0" fill="#5D514B" transform="matrix(1.00, 0.00, -0.00, -1.00, 66.4, 125.6)">é</text><text xml:space="preserve" font-family="AvenirNext-MediumItalic,Avenir Next" font-style="italic" font-size="29.0" fill="#5D514B" transform="matrix(1.00, 0.00, -0.00, -1.00, 82.8, 125.6)">c</text><text xml:space="preserve" font-family="AvenirNext-MediumItalic,Avenir Next" font-style="italic" font-size="29.0" fill="#5D514B" transform="matrix(1.00, 0.00, -0.00, -1.00, 97.2, 125.6)">o</text><text xml:space="preserve" font-family="AvenirNext-MediumItalic,Avenir Next" font-style="italic" font-size="29.0" fill="#5D514B" transform="matrix(1.00, 0.00, -0.00, -1.00, 114.6, 125.6)">r</text><text xml:space="preserve" font-family="AvenirNext-MediumItalic,Avenir Next" font-style="italic" font-size="29.0" fill="#5D514B" transform="matrix(1.00, 0.00, -0.00, -1.00, 124.2, 125.6)">a</text><text xml:space="preserve" font-family="AvenirNext-MediumItalic,Avenir Next" font-style="italic" font-size="29.0" fill="#5D514B" transform="matrix(1.00, 0.00, -0.00, -1.00, 139.5, 125.6)">t</text><text xml:space="preserve" font-family="AvenirNext-MediumItalic,Avenir Next" font-style="italic" font-size="29.0" fill="#5D514B" transform="matrix(1.00, 0.00, -0.00, -1.00, 148.9, 125.6)">e</text><text xml:space="preserve" font-family="AvenirNext-MediumItalic,Avenir Next" font-style="italic" font-size="29.0" fill="#5D514B" transform="matrix(1.00, 0.00, -0.00, -1.00, 165.3, 125.6)">u</text><text xml:space="preserve" font-family="AvenirNext-MediumItalic,Avenir Next" font-style="italic" font-size="29.0" fill="#5D514B" transform="matrix(1.00, 0.00, -0.00, -1.00, 182.1, 125.6)">r</text><text xml:space="preserve" font-family="AvenirNext-MediumItalic,Avenir Next" font-style="italic" font-size="29.0" fill="#5D514B" transform="matrix(1.00, 0.00, -0.00, -1.00, 192.1, 125.6)"> </text><text xml:space="preserve" font-family="AvenirNext-MediumItalic,Avenir Next" font-style="italic" font-size="29.0" fill="#5D514B" transform="matrix(1.00, 0.00, -0.00, -1.00, 199.3, 125.6)">p</text><text xml:space="preserve" font-family="AvenirNext-MediumItalic,Avenir Next" font-style="italic" font-size="29.0" fill="#5D514B" transform="matrix(1.00, 0.00, -0.00, -1.00, 217.6, 125.6)">e</text><text xml:space="preserve" font-family="AvenirNext-MediumItalic,Avenir Next" font-style="italic" font-size="29.0" fill="#5D514B" transform="matrix(1.00, 0.00, -0.00, -1.00, 234.0, 125.6)">r</text><text xml:space="preserve" font-family="AvenirNext-MediumItalic,Avenir Next" font-style="italic" font-size="29.0" fill="#5D514B" transform="matrix(1.00, 0.00, -0.00, -1.00, 244.0, 125.6)">m</text><text xml:space="preserve" font-family="AvenirNext-MediumItalic,Avenir Next" font-style="italic" font-size="29.0" fill="#5D514B" transform="matrix(1.00, 0.00, -0.00, -1.00, 269.6, 125.6)">e</text><text xml:space="preserve" font-family="AvenirNext-MediumItalic,Avenir Next" font-style="italic" font-size="29.0" fill="#5D514B" transform="matrix(1.00, 0.00, -0.00, -1.00, 286.0, 125.6)">t</text><text xml:space="preserve" font-family="AvenirNext-MediumItalic,Avenir Next" font-style="italic" font-size="29.0" fill="#5D514B" transform="matrix(1.00, 0.00, -0.00, -1.00, 295.4, 125.6)"> </text><text xml:space="preserve" font-family="AvenirNext-MediumItalic,Avenir Next" font-style="italic" font-size="29.0" fill="#5D514B" transform="matrix(1.00, 0.00, -0.00, -1.00, 302.6, 125.6)">d</text><text xml:space="preserve" font-family="AvenirNext-MediumItalic,Avenir Next" font-style="italic" font-size="29.0" fill="#5D514B" transform="matrix(1.00, 0.00, -0.00, -1.00, 320.8, 125.6)">'</text><text xml:space="preserve" font-family="AvenirNext-MediumItalic,Avenir Next" font-style="italic" font-size="29.0" fill="#5D514B" transform="matrix(1.00, 0.00, -0.00, -1.00, 328.5, 125.6)">a</text><text xml:space="preserve" font-family="AvenirNext-MediumItalic,Avenir Next" font-style="italic" font-size="29.0" fill="#5D514B" transform="matrix(1.00, 0.00, -0.00, -1.00, 343.8, 125.6)">t</text><text xml:space="preserve" font-family="AvenirNext-MediumItalic,Avenir Next" font-style="italic" font-size="29.0" fill="#5D514B" transform="matrix(1.00, 0.00, -0.00, -1.00, 352.7, 125.6)">t</text><text xml:space="preserve" font-family="AvenirNext-MediumItalic,Avenir Next" font-style="italic" font-size="29.0" fill="#5D514B" transform="matrix(1.00, 0.00, -0.00, -1.00, 362.1, 125.6)">a</text><text xml:space="preserve" font-family="AvenirNext-MediumItalic,Avenir Next" font-style="italic" font-size="29.0" fill="#5D514B" transform="matrix(1.00, 0.00, -0.00, -1.00, 377.7, 125.6)">c</text><text xml:space="preserve" font-family="AvenirNext-MediumItalic,Avenir Next" font-style="italic" font-size="29.0" fill="#5D514B" transform="matrix(1.00, 0.00, -0.00, -1.00, 392.0, 125.6)">h</text><text xml:space="preserve" font-family="AvenirNext-MediumItalic,Avenir Next" font-style="italic" font-size="29.0" fill="#5D514B" transform="matrix(1.00, 0.00, -0.00, -1.00, 408.9, 125.6)">e</text><text xml:space="preserve" font-family="AvenirNext-MediumItalic,Avenir Next" font-style="italic" font-size="29.0" fill="#5D514B" transform="matrix(1.00, 0.00, -0.00, -1.00, 425.3, 125.6)">r</text><text xml:space="preserve" font-family="AvenirNext-MediumItalic,Avenir Next" font-style="italic" font-size="29.0" fill="#5D514B" transform="matrix(1.00, 0.00, -0.00, -1.00, 435.2, 125.6)"> </text><text xml:space="preserve" font-family="AvenirNext-MediumItalic,Avenir Next" font-style="italic" font-size="29.0" fill="#5D514B" transform="matrix(1.00, 0.00, -0.00, -1.00, 442.5, 125.6)">d</text><text xml:space="preserve" font-family="AvenirNext-MediumItalic,Avenir Next" font-style="italic" font-size="29.0" fill="#5D514B" transform="matrix(1.00, 0.00, -0.00, -1.00, 460.7, 125.6)">y</text><text xml:space="preserve" font-family="AvenirNext-MediumItalic,Avenir Next" font-style="italic" font-size="29.0" fill="#5D514B" transform="matrix(1.00, 0.00, -0.00, -1.00, 475.0, 125.6)">n</text><text xml:space="preserve" font-family="AvenirNext-MediumItalic,Avenir Next" font-style="italic" font-size="29.0" fill="#5D514B" transform="matrix(1.00, 0.00, -0.00, -1.00, 491.9, 125.6)">a</text><text xml:space="preserve" font-family="AvenirNext-MediumItalic,Avenir Next" font-style="italic" font-size="29.0" fill="#5D514B" transform="matrix(1.00, 0.00, -0.00, -1.00, 507.5, 125.6)">m</text><text xml:space="preserve" font-family="AvenirNext-MediumItalic,Avenir Next" font-style="italic" font-size="29.0" fill="#5D514B" transform="matrix(1.00, 0.00, -0.00, -1.00, 533.1, 125.6)">i</text><text xml:space="preserve" font-family="AvenirNext-MediumItalic,Avenir Next" font-style="italic" font-size="29.0" fill="#5D514B" transform="matrix(1.00, 0.00, -0.00, -1.00, 540.6, 125.6)">q</text><text xml:space="preserve" font-family="AvenirNext-MediumItalic,Avenir Next" font-style="italic" font-size="29.0" fill="#5D514B" transform="matrix(1.00, 0.00, -0.00, -1.00, 558.8, 125.6)">u</text><text xml:space="preserve" font-family="AvenirNext-MediumItalic,Avenir Next" font-style="italic" font-size="29.0" fill="#5D514B" transform="matrix(1.00, 0.00, -0.00, -1.00, 575.6, 125.6)">e</text><text xml:space="preserve" font-family="AvenirNext-MediumItalic,Avenir Next" font-style="italic" font-size="29.0" fill="#5D514B" transform="matrix(1.00, 0.00, -0.00, -1.00, 592.0, 125.6)">m</text><text xml:space="preserve" font-family="AvenirNext-MediumItalic,Avenir Next" font-style="italic" font-size="29.0" fill="#5D514B" transform="matrix(1.00, 0.00, -0.00, -1.00, 617.6, 125.6)">e</text><text xml:space="preserve" font-family="AvenirNext-MediumItalic,Avenir Next" font-style="italic" font-size="29.0" fill="#5D514B" transform="matrix(1.00, 0.00, -0.00, -1.00, 634.0, 125.6)">n</text><text xml:space="preserve" font-family="AvenirNext-MediumItalic,Avenir Next" font-style="italic" font-size="29.0" fill="#5D514B" transform="matrix(1.00, 0.00, -0.00, -1.00, 650.9, 125.6)">t</text><text xml:space="preserve" font-family="AvenirNext-MediumItalic,Avenir Next" font-style="italic" font-size="29.0" fill="#5D514B" transform="matrix(1.00, 0.00, -0.00, -1.00, 660.3, 125.6)"> </text><text xml:space="preserve" font-family="AvenirNext-MediumItalic,Avenir Next" font-style="italic" font-size="29.0" fill="#5D514B" transform="matrix(1.00, 0.00, -0.00, -1.00, 667.5, 125.6)">d</text><text xml:space="preserve" font-family="AvenirNext-MediumItalic,Avenir Next" font-style="italic" font-size="29.0" fill="#5D514B" transform="matrix(1.00, 0.00, -0.00, -1.00, 685.7, 125.6)">e</text><text xml:space="preserve" font-family="AvenirNext-MediumItalic,Avenir Next" font-style="italic" font-size="29.0" fill="#5D514B" transform="matrix(1.00, 0.00, -0.00, -1.00, 702.1, 125.6)"> </text><text xml:space="preserve" font-family="AvenirNext-MediumItalic,Avenir Next" font-style="italic" font-size="29.0" fill="#5D514B" transform="matrix(1.00, 0.00, -0.00, -1.00, 709.4, 125.6)">n</text><text xml:space="preserve" font-family="AvenirNext-MediumItalic,Avenir Next" font-style="italic" font-size="29.0" fill="#5D514B" transform="matrix(1.00, 0.00, -0.00, -1.00, 726.2, 125.6)">o</text><text xml:space="preserve" font-family="AvenirNext-MediumItalic,Avenir Next" font-style="italic" font-size="29.0" fill="#5D514B" transform="matrix(1.00, 0.00, -0.00, -1.00, 743.6, 125.6)">u</text><text xml:space="preserve" font-family="AvenirNext-MediumItalic,Avenir Next" font-style="italic" font-size="29.0" fill="#5D514B" transform="matrix(1.00, 0.00, -0.00, -1.00, 760.5, 125.6)">v</text><text xml:space="preserve" font-family="AvenirNext-MediumItalic,Avenir Next" font-style="italic" font-size="29.0" fill="#5D514B" transform="matrix(1.00, 0.00, -0.00, -1.00, 774.7, 125.6)">e</text><text xml:space="preserve" font-family="AvenirNext-MediumItalic,Avenir Next" font-style="italic" font-size="29.0" fill="#5D514B" transform="matrix(1.00, 0.00, -0.00, -1.00, 791.1, 125.6)">l</text><text xml:space="preserve" font-family="AvenirNext-MediumItalic,Avenir Next" font-style="italic" font-size="29.0" fill="#5D514B" transform="matrix(1.00, 0.00, -0.00, -1.00, 798.6, 125.6)">l</text><text xml:space="preserve" font-family="AvenirNext-MediumItalic,Avenir Next" font-style="italic" font-size="29.0" fill="#5D514B" transform="matrix(1.00, 0.00, -0.00, -1.00, 806.1, 125.6)">e</text><text xml:space="preserve" font-family="AvenirNext-MediumItalic,Avenir Next" font-style="italic" font-size="29.0" fill="#5D514B" transform="matrix(1.00, 0.00, -0.00, -1.00, 822.5, 125.6)">s</text><text xml:space="preserve" font-family="AvenirNext-MediumItalic,Avenir Next" font-style="italic" font-size="29.0" fill="#5D514B" transform="matrix(1.00, 0.00, -0.00, -1.00, 835.4, 125.6)"> </text><image xlink:href="../../335E3EDE-BFE9-40BB-BEF1-179682D6BD89/assets/B832F147DBFCC2649F489DDBC6578D9B.png" width="861.00" height="34.00" transform="matrix(1.00, 0.00, -0.00, -1.00, 2.0, 108.0)"></image><text xml:space="preserve" font-family="AvenirNext-MediumItalic,Avenir Next" font-style="italic" font-size="29.0" fill="#5D514B" transform="matrix(1.00, 0.00, -0.00, -1.00, 3.5, 85.6)">r</text><text xml:space="preserve" font-family="AvenirNext-MediumItalic,Avenir Next" font-style="italic" font-size="29.0" fill="#5D514B" transform="matrix(1.00, 0.00, -0.00, -1.00, 13.1, 85.6)">e</text><text xml:space="preserve" font-family="AvenirNext-MediumItalic,Avenir Next" font-style="italic" font-size="29.0" fill="#5D514B" transform="matrix(1.00, 0.00, -0.00, -1.00, 29.5, 85.6)">s</text><text xml:space="preserve" font-family="AvenirNext-MediumItalic,Avenir Next" font-style="italic" font-size="29.0" fill="#5D514B" transform="matrix(1.00, 0.00, -0.00, -1.00, 42.3, 85.6)">p</text><text xml:space="preserve" font-family="AvenirNext-MediumItalic,Avenir Next" font-style="italic" font-size="29.0" fill="#5D514B" transform="matrix(1.00, 0.00, -0.00, -1.00, 60.7, 85.6)">o</text><text xml:space="preserve" font-family="AvenirNext-MediumItalic,Avenir Next" font-style="italic" font-size="29.0" fill="#5D514B" transform="matrix(1.00, 0.00, -0.00, -1.00, 78.1, 85.6)">n</text><text xml:space="preserve" font-family="AvenirNext-MediumItalic,Avenir Next" font-style="italic" font-size="29.0" fill="#5D514B" transform="matrix(1.00, 0.00, -0.00, -1.00, 94.9, 85.6)">s</text><text xml:space="preserve" font-family="AvenirNext-MediumItalic,Avenir Next" font-style="italic" font-size="29.0" fill="#5D514B" transform="matrix(1.00, 0.00, -0.00, -1.00, 107.8, 85.6)">a</text><text xml:space="preserve" font-family="AvenirNext-MediumItalic,Avenir Next" font-style="italic" font-size="29.0" fill="#5D514B" transform="matrix(1.00, 0.00, -0.00, -1.00, 123.4, 85.6)">b</text><text xml:space="preserve" font-family="AvenirNext-MediumItalic,Avenir Next" font-style="italic" font-size="29.0" fill="#5D514B" transform="matrix(1.00, 0.00, -0.00, -1.00, 141.7, 85.6)">i</text><text xml:space="preserve" font-family="AvenirNext-MediumItalic,Avenir Next" font-style="italic" font-size="29.0" fill="#5D514B" transform="matrix(1.00, 0.00, -0.00, -1.00, 149.2, 85.6)">l</text><text xml:space="preserve" font-family="AvenirNext-MediumItalic,Avenir Next" font-style="italic" font-size="29.0" fill="#5D514B" transform="matrix(1.00, 0.00, -0.00, -1.00, 156.8, 85.6)">i</text><text xml:space="preserve" font-family="AvenirNext-MediumItalic,Avenir Next" font-style="italic" font-size="29.0" fill="#5D514B" transform="matrix(1.00, 0.00, -0.00, -1.00, 164.3, 85.6)">t</text><text xml:space="preserve" font-family="AvenirNext-MediumItalic,Avenir Next" font-style="italic" font-size="29.0" fill="#5D514B" transform="matrix(1.00, 0.00, -0.00, -1.00, 173.7, 85.6)">é</text><text xml:space="preserve" font-family="AvenirNext-MediumItalic,Avenir Next" font-style="italic" font-size="29.0" fill="#5D514B" transform="matrix(1.00, 0.00, -0.00, -1.00, 190.1, 85.6)">s</text><text xml:space="preserve" font-family="AvenirNext-MediumItalic,Avenir Next" font-style="italic" font-size="29.0" fill="#5D514B" transform="matrix(1.00, 0.00, -0.00, -1.00, 202.9, 85.6)"> </text><text xml:space="preserve" font-family="AvenirNext-MediumItalic,Avenir Next" font-style="italic" font-size="29.0" fill="#5D514B" transform="matrix(1.00, 0.00, -0.00, -1.00, 210.2, 85.6)">à</text><text xml:space="preserve" font-family="AvenirNext-MediumItalic,Avenir Next" font-style="italic" font-size="29.0" fill="#5D514B" transform="matrix(1.00, 0.00, -0.00, -1.00, 225.8, 85.6)"> </text><text xml:space="preserve" font-family="AvenirNext-MediumItalic,Avenir Next" font-style="italic" font-size="29.0" fill="#5D514B" transform="matrix(1.00, 0.00, -0.00, -1.00, 233.0, 85.6)">u</text><text xml:space="preserve" font-family="AvenirNext-MediumItalic,Avenir Next" font-style="italic" font-size="29.0" fill="#5D514B" transform="matrix(1.00, 0.00, -0.00, -1.00, 249.9, 85.6)">n</text><text xml:space="preserve" font-family="AvenirNext-MediumItalic,Avenir Next" font-style="italic" font-size="29.0" fill="#5D514B" transform="matrix(1.00, 0.00, -0.00, -1.00, 266.7, 85.6)"> </text><text xml:space="preserve" font-family="AvenirNext-MediumItalic,Avenir Next" font-style="italic" font-size="29.0" fill="#5D514B" transform="matrix(1.00, 0.00, -0.00, -1.00, 274.0, 85.6)">o</text><text xml:space="preserve" font-family="AvenirNext-MediumItalic,Avenir Next" font-style="italic" font-size="29.0" fill="#5D514B" transform="matrix(1.00, 0.00, -0.00, -1.00, 291.4, 85.6)">b</text><text xml:space="preserve" font-family="AvenirNext-MediumItalic,Avenir Next" font-style="italic" font-size="29.0" fill="#5D514B" transform="matrix(1.00, 0.00, -0.00, -1.00, 309.7, 85.6)">j</text><text xml:space="preserve" font-family="AvenirNext-MediumItalic,Avenir Next" font-style="italic" font-size="29.0" fill="#5D514B" transform="matrix(1.00, 0.00, -0.00, -1.00, 317.2, 85.6)">e</text><text xml:space="preserve" font-family="AvenirNext-MediumItalic,Avenir Next" font-style="italic" font-size="29.0" fill="#5D514B" transform="matrix(1.00, 0.00, -0.00, -1.00, 333.6, 85.6)">t</text><text xml:space="preserve" font-family="AvenirNext-MediumItalic,Avenir Next" font-style="italic" font-size="29.0" fill="#5D514B" transform="matrix(1.00, 0.00, -0.00, -1.00, 343.0, 85.6)">.</text><text xml:space="preserve" font-family="AvenirNext-MediumItalic,Avenir Next" font-style="italic" font-size="29.0" fill="#5D514B" transform="matrix(1.00, 0.00, -0.00, -1.00, 349.7, 85.6)"> </text><text xml:space="preserve" font-family="AvenirNext-MediumItalic,Avenir Next" font-style="italic" font-size="29.0" fill="#5D514B" transform="matrix(1.00, 0.00, -0.00, -1.00, 356.9, 85.6)">L</text><text xml:space="preserve" font-family="AvenirNext-MediumItalic,Avenir Next" font-style="italic" font-size="29.0" fill="#5D514B" transform="matrix(1.00, 0.00, -0.00, -1.00, 371.2, 85.6)">e</text><text xml:space="preserve" font-family="AvenirNext-MediumItalic,Avenir Next" font-style="italic" font-size="29.0" fill="#5D514B" transform="matrix(1.00, 0.00, -0.00, -1.00, 387.6, 85.6)">s</text><text xml:space="preserve" font-family="AvenirNext-MediumItalic,Avenir Next" font-style="italic" font-size="29.0" fill="#5D514B" transform="matrix(1.00, 0.00, -0.00, -1.00, 400.5, 85.6)"> </text><text xml:space="preserve" font-family="AvenirNext-MediumItalic,Avenir Next" font-style="italic" font-size="29.0" fill="#5D514B" transform="matrix(1.00, 0.00, -0.00, -1.00, 407.7, 85.6)">d</text><text xml:space="preserve" font-family="AvenirNext-MediumItalic,Avenir Next" font-style="italic" font-size="29.0" fill="#5D514B" transform="matrix(1.00, 0.00, -0.00, -1.00, 425.9, 85.6)">é</text><text xml:space="preserve" font-family="AvenirNext-MediumItalic,Avenir Next" font-style="italic" font-size="29.0" fill="#5D514B" transform="matrix(1.00, 0.00, -0.00, -1.00, 442.3, 85.6)">c</text><text xml:space="preserve" font-family="AvenirNext-MediumItalic,Avenir Next" font-style="italic" font-size="29.0" fill="#5D514B" transform="matrix(1.00, 0.00, -0.00, -1.00, 456.7, 85.6)">o</text><text xml:space="preserve" font-family="AvenirNext-MediumItalic,Avenir Next" font-style="italic" font-size="29.0" fill="#5D514B" transform="matrix(1.00, 0.00, -0.00, -1.00, 474.1, 85.6)">r</text><text xml:space="preserve" font-family="AvenirNext-MediumItalic,Avenir Next" font-style="italic" font-size="29.0" fill="#5D514B" transform="matrix(1.00, 0.00, -0.00, -1.00, 483.7, 85.6)">a</text><text xml:space="preserve" font-family="AvenirNext-MediumItalic,Avenir Next" font-style="italic" font-size="29.0" fill="#5D514B" transform="matrix(1.00, 0.00, -0.00, -1.00, 499.0, 85.6)">t</text><text xml:space="preserve" font-family="AvenirNext-MediumItalic,Avenir Next" font-style="italic" font-size="29.0" fill="#5D514B" transform="matrix(1.00, 0.00, -0.00, -1.00, 508.4, 85.6)">e</text><text xml:space="preserve" font-family="AvenirNext-MediumItalic,Avenir Next" font-style="italic" font-size="29.0" fill="#5D514B" transform="matrix(1.00, 0.00, -0.00, -1.00, 524.8, 85.6)">u</text><text xml:space="preserve" font-family="AvenirNext-MediumItalic,Avenir Next" font-style="italic" font-size="29.0" fill="#5D514B" transform="matrix(1.00, 0.00, -0.00, -1.00, 541.6, 85.6)">r</text><text xml:space="preserve" font-family="AvenirNext-MediumItalic,Avenir Next" font-style="italic" font-size="29.0" fill="#5D514B" transform="matrix(1.00, 0.00, -0.00, -1.00, 551.6, 85.6)">s</text><text xml:space="preserve" font-family="AvenirNext-MediumItalic,Avenir Next" font-style="italic" font-size="29.0" fill="#5D514B" transform="matrix(1.00, 0.00, -0.00, -1.00, 564.4, 85.6)"> </text><text xml:space="preserve" font-family="AvenirNext-MediumItalic,Avenir Next" font-style="italic" font-size="29.0" fill="#5D514B" transform="matrix(1.00, 0.00, -0.00, -1.00, 571.7, 85.6)">o</text><text xml:space="preserve" font-family="AvenirNext-MediumItalic,Avenir Next" font-style="italic" font-size="29.0" fill="#5D514B" transform="matrix(1.00, 0.00, -0.00, -1.00, 589.1, 85.6)">f</text><text xml:space="preserve" font-family="AvenirNext-MediumItalic,Avenir Next" font-style="italic" font-size="29.0" fill="#5D514B" transform="matrix(1.00, 0.00, -0.00, -1.00, 597.5, 85.6)">f</text><text xml:space="preserve" font-family="AvenirNext-MediumItalic,Avenir Next" font-style="italic" font-size="29.0" fill="#5D514B" transform="matrix(1.00, 0.00, -0.00, -1.00, 606.5, 85.6)">r</text><text xml:space="preserve" font-family="AvenirNext-MediumItalic,Avenir Next" font-style="italic" font-size="29.0" fill="#5D514B" transform="matrix(1.00, 0.00, -0.00, -1.00, 616.1, 85.6)">e</text><text xml:space="preserve" font-family="AvenirNext-MediumItalic,Avenir Next" font-style="italic" font-size="29.0" fill="#5D514B" transform="matrix(1.00, 0.00, -0.00, -1.00, 632.5, 85.6)">n</text><text xml:space="preserve" font-family="AvenirNext-MediumItalic,Avenir Next" font-style="italic" font-size="29.0" fill="#5D514B" transform="matrix(1.00, 0.00, -0.00, -1.00, 649.3, 85.6)">t</text><text xml:space="preserve" font-family="AvenirNext-MediumItalic,Avenir Next" font-style="italic" font-size="29.0" fill="#5D514B" transform="matrix(1.00, 0.00, -0.00, -1.00, 658.7, 85.6)"> </text><text xml:space="preserve" font-family="AvenirNext-MediumItalic,Avenir Next" font-style="italic" font-size="29.0" fill="#5D514B" transform="matrix(1.00, 0.00, -0.00, -1.00, 666.0, 85.6)">u</text><text xml:space="preserve" font-family="AvenirNext-MediumItalic,Avenir Next" font-style="italic" font-size="29.0" fill="#5D514B" transform="matrix(1.00, 0.00, -0.00, -1.00, 682.8, 85.6)">n</text><text xml:space="preserve" font-family="AvenirNext-MediumItalic,Avenir Next" font-style="italic" font-size="29.0" fill="#5D514B" transform="matrix(1.00, 0.00, -0.00, -1.00, 699.7, 85.6)">e</text><text xml:space="preserve" font-family="AvenirNext-MediumItalic,Avenir Next" font-style="italic" font-size="29.0" fill="#5D514B" transform="matrix(1.00, 0.00, -0.00, -1.00, 716.1, 85.6)"> </text><text xml:space="preserve" font-family="AvenirNext-MediumItalic,Avenir Next" font-style="italic" font-size="29.0" fill="#5D514B" transform="matrix(1.00, 0.00, -0.00, -1.00, 723.3, 85.6)">a</text><text xml:space="preserve" font-family="AvenirNext-MediumItalic,Avenir Next" font-style="italic" font-size="29.0" fill="#5D514B" transform="matrix(1.00, 0.00, -0.00, -1.00, 738.9, 85.6)">l</text><text xml:space="preserve" font-family="AvenirNext-MediumItalic,Avenir Next" font-style="italic" font-size="29.0" fill="#5D514B" transform="matrix(1.00, 0.00, -0.00, -1.00, 746.4, 85.6)">t</text><text xml:space="preserve" font-family="AvenirNext-MediumItalic,Avenir Next" font-style="italic" font-size="29.0" fill="#5D514B" transform="matrix(1.00, 0.00, -0.00, -1.00, 755.8, 85.6)">e</text><text xml:space="preserve" font-family="AvenirNext-MediumItalic,Avenir Next" font-style="italic" font-size="29.0" fill="#5D514B" transform="matrix(1.00, 0.00, -0.00, -1.00, 772.2, 85.6)">r</text><text xml:space="preserve" font-family="AvenirNext-MediumItalic,Avenir Next" font-style="italic" font-size="29.0" fill="#5D514B" transform="matrix(1.00, 0.00, -0.00, -1.00, 782.1, 85.6)">n</text><text xml:space="preserve" font-family="AvenirNext-MediumItalic,Avenir Next" font-style="italic" font-size="29.0" fill="#5D514B" transform="matrix(1.00, 0.00, -0.00, -1.00, 799.0, 85.6)">a</text><text xml:space="preserve" font-family="AvenirNext-MediumItalic,Avenir Next" font-style="italic" font-size="29.0" fill="#5D514B" transform="matrix(1.00, 0.00, -0.00, -1.00, 814.3, 85.6)">t</text><text xml:space="preserve" font-family="AvenirNext-MediumItalic,Avenir Next" font-style="italic" font-size="29.0" fill="#5D514B" transform="matrix(1.00, 0.00, -0.00, -1.00, 823.7, 85.6)">i</text><text xml:space="preserve" font-family="AvenirNext-MediumItalic,Avenir Next" font-style="italic" font-size="29.0" fill="#5D514B" transform="matrix(1.00, 0.00, -0.00, -1.00, 831.2, 85.6)">v</text><text xml:space="preserve" font-family="AvenirNext-MediumItalic,Avenir Next" font-style="italic" font-size="29.0" fill="#5D514B" transform="matrix(1.00, 0.00, -0.00, -1.00, 845.4, 85.6)">e</text><text xml:space="preserve" font-family="AvenirNext-MediumItalic,Avenir Next" font-style="italic" font-size="29.0" fill="#5D514B" transform="matrix(1.00, 0.00, -0.00, -1.00, 861.8, 85.6)"> </text><image xlink:href="../../335E3EDE-BFE9-40BB-BEF1-179682D6BD89/assets/B75D6094C2919D98ECFF69DFC78EFAE8.png" width="712.00" height="34.00" transform="matrix(1.00, 0.00, -0.00, -1.00, 1.0, 68.0)"></image><text xml:space="preserve" font-family="AvenirNext-MediumItalic,Avenir Next" font-style="italic" font-size="29.0" fill="#5D514B" transform="matrix(1.00, 0.00, -0.00, -1.00, 3.5, 45.6)">a</text><text xml:space="preserve" font-family="AvenirNext-MediumItalic,Avenir Next" font-style="italic" font-size="29.0" fill="#5D514B" transform="matrix(1.00, 0.00, -0.00, -1.00, 19.0, 45.6)">s</text><text xml:space="preserve" font-family="AvenirNext-MediumItalic,Avenir Next" font-style="italic" font-size="29.0" fill="#5D514B" transform="matrix(1.00, 0.00, -0.00, -1.00, 31.9, 45.6)">s</text><text xml:space="preserve" font-family="AvenirNext-MediumItalic,Avenir Next" font-style="italic" font-size="29.0" fill="#5D514B" transform="matrix(1.00, 0.00, -0.00, -1.00, 44.8, 45.6)">e</text><text xml:space="preserve" font-family="AvenirNext-MediumItalic,Avenir Next" font-style="italic" font-size="29.0" fill="#5D514B" transform="matrix(1.00, 0.00, -0.00, -1.00, 61.2, 45.6)">z</text><text xml:space="preserve" font-family="AvenirNext-MediumItalic,Avenir Next" font-style="italic" font-size="29.0" fill="#5D514B" transform="matrix(1.00, 0.00, -0.00, -1.00, 74.5, 45.6)"> </text><text xml:space="preserve" font-family="AvenirNext-MediumItalic,Avenir Next" font-style="italic" font-size="29.0" fill="#5D514B" transform="matrix(1.00, 0.00, -0.00, -1.00, 81.8, 45.6)">s</text><text xml:space="preserve" font-family="AvenirNext-MediumItalic,Avenir Next" font-style="italic" font-size="29.0" fill="#5D514B" transform="matrix(1.00, 0.00, -0.00, -1.00, 94.7, 45.6)">o</text><text xml:space="preserve" font-family="AvenirNext-MediumItalic,Avenir Next" font-style="italic" font-size="29.0" fill="#5D514B" transform="matrix(1.00, 0.00, -0.00, -1.00, 112.1, 45.6)">u</text><text xml:space="preserve" font-family="AvenirNext-MediumItalic,Avenir Next" font-style="italic" font-size="29.0" fill="#5D514B" transform="matrix(1.00, 0.00, -0.00, -1.00, 128.9, 45.6)">p</text><text xml:space="preserve" font-family="AvenirNext-MediumItalic,Avenir Next" font-style="italic" font-size="29.0" fill="#5D514B" transform="matrix(1.00, 0.00, -0.00, -1.00, 147.3, 45.6)">l</text><text xml:space="preserve" font-family="AvenirNext-MediumItalic,Avenir Next" font-style="italic" font-size="29.0" fill="#5D514B" transform="matrix(1.00, 0.00, -0.00, -1.00, 154.8, 45.6)">e</text><text xml:space="preserve" font-family="AvenirNext-MediumItalic,Avenir Next" font-style="italic" font-size="29.0" fill="#5D514B" transform="matrix(1.00, 0.00, -0.00, -1.00, 171.2, 45.6)"> </text><text xml:space="preserve" font-family="AvenirNext-MediumItalic,Avenir Next" font-style="italic" font-size="29.0" fill="#5D514B" transform="matrix(1.00, 0.00, -0.00, -1.00, 178.4, 45.6)">à</text><text xml:space="preserve" font-family="AvenirNext-MediumItalic,Avenir Next" font-style="italic" font-size="29.0" fill="#5D514B" transform="matrix(1.00, 0.00, -0.00, -1.00, 194.0, 45.6)"> </text><text xml:space="preserve" font-family="AvenirNext-MediumItalic,Avenir Next" font-style="italic" font-size="29.0" fill="#5D514B" transform="matrix(1.00, 0.00, -0.00, -1.00, 201.2, 45.6)">l</text><text xml:space="preserve" font-family="AvenirNext-MediumItalic,Avenir Next" font-style="italic" font-size="29.0" fill="#5D514B" transform="matrix(1.00, 0.00, -0.00, -1.00, 208.8, 45.6)">'</text><text xml:space="preserve" font-family="AvenirNext-MediumItalic,Avenir Next" font-style="italic" font-size="29.0" fill="#5D514B" transform="matrix(1.00, 0.00, -0.00, -1.00, 216.5, 45.6)">h</text><text xml:space="preserve" font-family="AvenirNext-MediumItalic,Avenir Next" font-style="italic" font-size="29.0" fill="#5D514B" transform="matrix(1.00, 0.00, -0.00, -1.00, 233.3, 45.6)">é</text><text xml:space="preserve" font-family="AvenirNext-MediumItalic,Avenir Next" font-style="italic" font-size="29.0" fill="#5D514B" transform="matrix(1.00, 0.00, -0.00, -1.00, 249.7, 45.6)">r</text><text xml:space="preserve" font-family="AvenirNext-MediumItalic,Avenir Next" font-style="italic" font-size="29.0" fill="#5D514B" transform="matrix(1.00, 0.00, -0.00, -1.00, 259.7, 45.6)">i</text><text xml:space="preserve" font-family="AvenirNext-MediumItalic,Avenir Next" font-style="italic" font-size="29.0" fill="#5D514B" transform="matrix(1.00, 0.00, -0.00, -1.00, 267.2, 45.6)">t</text><text xml:space="preserve" font-family="AvenirNext-MediumItalic,Avenir Next" font-style="italic" font-size="29.0" fill="#5D514B" transform="matrix(1.00, 0.00, -0.00, -1.00, 276.6, 45.6)">a</text><text xml:space="preserve" font-family="AvenirNext-MediumItalic,Avenir Next" font-style="italic" font-size="29.0" fill="#5D514B" transform="matrix(1.00, 0.00, -0.00, -1.00, 292.1, 45.6)">g</text><text xml:space="preserve" font-family="AvenirNext-MediumItalic,Avenir Next" font-style="italic" font-size="29.0" fill="#5D514B" transform="matrix(1.00, 0.00, -0.00, -1.00, 310.4, 45.6)">e</text><text xml:space="preserve" font-family="AvenirNext-MediumItalic,Avenir Next" font-style="italic" font-size="29.0" fill="#5D514B" transform="matrix(1.00, 0.00, -0.00, -1.00, 326.8, 45.6)"> </text><text xml:space="preserve" font-family="AvenirNext-MediumItalic,Avenir Next" font-style="italic" font-size="29.0" fill="#5D514B" transform="matrix(1.00, 0.00, -0.00, -1.00, 334.0, 45.6)">p</text><text xml:space="preserve" font-family="AvenirNext-MediumItalic,Avenir Next" font-style="italic" font-size="29.0" fill="#5D514B" transform="matrix(1.00, 0.00, -0.00, -1.00, 352.4, 45.6)">o</text><text xml:space="preserve" font-family="AvenirNext-MediumItalic,Avenir Next" font-style="italic" font-size="29.0" fill="#5D514B" transform="matrix(1.00, 0.00, -0.00, -1.00, 369.8, 45.6)">u</text><text xml:space="preserve" font-family="AvenirNext-MediumItalic,Avenir Next" font-style="italic" font-size="29.0" fill="#5D514B" transform="matrix(1.00, 0.00, -0.00, -1.00, 386.6, 45.6)">r</text><text xml:space="preserve" font-family="AvenirNext-MediumItalic,Avenir Next" font-style="italic" font-size="29.0" fill="#5D514B" transform="matrix(1.00, 0.00, -0.00, -1.00, 396.6, 45.6)"> </text><text xml:space="preserve" font-family="AvenirNext-MediumItalic,Avenir Next" font-style="italic" font-size="29.0" fill="#5D514B" transform="matrix(1.00, 0.00, -0.00, -1.00, 403.8, 45.6)">c</text><text xml:space="preserve" font-family="AvenirNext-MediumItalic,Avenir Next" font-style="italic" font-size="29.0" fill="#5D514B" transform="matrix(1.00, 0.00, -0.00, -1.00, 418.2, 45.6)">o</text><text xml:space="preserve" font-family="AvenirNext-MediumItalic,Avenir Next" font-style="italic" font-size="29.0" fill="#5D514B" transform="matrix(1.00, 0.00, -0.00, -1.00, 435.6, 45.6)">m</text><text xml:space="preserve" font-family="AvenirNext-MediumItalic,Avenir Next" font-style="italic" font-size="29.0" fill="#5D514B" transform="matrix(1.00, 0.00, -0.00, -1.00, 461.2, 45.6)">p</text><text xml:space="preserve" font-family="AvenirNext-MediumItalic,Avenir Next" font-style="italic" font-size="29.0" fill="#5D514B" transform="matrix(1.00, 0.00, -0.00, -1.00, 479.6, 45.6)">o</text><text xml:space="preserve" font-family="AvenirNext-MediumItalic,Avenir Next" font-style="italic" font-size="29.0" fill="#5D514B" transform="matrix(1.00, 0.00, -0.00, -1.00, 497.0, 45.6)">s</text><text xml:space="preserve" font-family="AvenirNext-MediumItalic,Avenir Next" font-style="italic" font-size="29.0" fill="#5D514B" transform="matrix(1.00, 0.00, -0.00, -1.00, 509.8, 45.6)">e</text><text xml:space="preserve" font-family="AvenirNext-MediumItalic,Avenir Next" font-style="italic" font-size="29.0" fill="#5D514B" transform="matrix(1.00, 0.00, -0.00, -1.00, 526.2, 45.6)">r</text><text xml:space="preserve" font-family="AvenirNext-MediumItalic,Avenir Next" font-style="italic" font-size="29.0" fill="#5D514B" transform="matrix(1.00, 0.00, -0.00, -1.00, 536.2, 45.6)"> </text><text xml:space="preserve" font-family="AvenirNext-MediumItalic,Avenir Next" font-style="italic" font-size="29.0" fill="#5D514B" transform="matrix(1.00, 0.00, -0.00, -1.00, 543.4, 45.6)">d</text><text xml:space="preserve" font-family="AvenirNext-MediumItalic,Avenir Next" font-style="italic" font-size="29.0" fill="#5D514B" transform="matrix(1.00, 0.00, -0.00, -1.00, 561.6, 45.6)">e</text><text xml:space="preserve" font-family="AvenirNext-MediumItalic,Avenir Next" font-style="italic" font-size="29.0" fill="#5D514B" transform="matrix(1.00, 0.00, -0.00, -1.00, 578.0, 45.6)"> </text><text xml:space="preserve" font-family="AvenirNext-MediumItalic,Avenir Next" font-style="italic" font-size="29.0" fill="#5D514B" transform="matrix(1.00, 0.00, -0.00, -1.00, 585.3, 45.6)">n</text><text xml:space="preserve" font-family="AvenirNext-MediumItalic,Avenir Next" font-style="italic" font-size="29.0" fill="#5D514B" transform="matrix(1.00, 0.00, -0.00, -1.00, 602.1, 45.6)">o</text><text xml:space="preserve" font-family="AvenirNext-MediumItalic,Avenir Next" font-style="italic" font-size="29.0" fill="#5D514B" transform="matrix(1.00, 0.00, -0.00, -1.00, 619.5, 45.6)">u</text><text xml:space="preserve" font-family="AvenirNext-MediumItalic,Avenir Next" font-style="italic" font-size="29.0" fill="#5D514B" transform="matrix(1.00, 0.00, -0.00, -1.00, 636.4, 45.6)">v</text><text xml:space="preserve" font-family="AvenirNext-MediumItalic,Avenir Next" font-style="italic" font-size="29.0" fill="#5D514B" transform="matrix(1.00, 0.00, -0.00, -1.00, 650.6, 45.6)">e</text><text xml:space="preserve" font-family="AvenirNext-MediumItalic,Avenir Next" font-style="italic" font-size="29.0" fill="#5D514B" transform="matrix(1.00, 0.00, -0.00, -1.00, 667.0, 45.6)">l</text><text xml:space="preserve" font-family="AvenirNext-MediumItalic,Avenir Next" font-style="italic" font-size="29.0" fill="#5D514B" transform="matrix(1.00, 0.00, -0.00, -1.00, 674.5, 45.6)">l</text><text xml:space="preserve" font-family="AvenirNext-MediumItalic,Avenir Next" font-style="italic" font-size="29.0" fill="#5D514B" transform="matrix(1.00, 0.00, -0.00, -1.00, 682.0, 45.6)">e</text><text xml:space="preserve" font-family="AvenirNext-MediumItalic,Avenir Next" font-style="italic" font-size="29.0" fill="#5D514B" transform="matrix(1.00, 0.00, -0.00, -1.00, 698.4, 45.6)">s</text><text xml:space="preserve" font-family="AvenirNext-MediumItalic,Avenir Next" font-style="italic" font-size="29.0" fill="#5D514B" transform="matrix(1.00, 0.00, -0.00, -1.00, 711.3, 45.6)"> </text><image xlink:href="../../335E3EDE-BFE9-40BB-BEF1-179682D6BD89/assets/5E7E980FE18ADC374C1E8B1325BFBEE0.png" width="203.00" height="27.00" transform="matrix(1.00, 0.00, -0.00, -1.00, 2.0, 28.0)"></image><text xml:space="preserve" font-family="AvenirNext-MediumItalic,Avenir Next" font-style="italic" font-size="29.0" fill="#5D514B" transform="matrix(1.00, 0.00, -0.00, -1.00, 3.5, 5.6)">f</text><text xml:space="preserve" font-family="AvenirNext-MediumItalic,Avenir Next" font-style="italic" font-size="29.0" fill="#5D514B" transform="matrix(1.00, 0.00, -0.00, -1.00, 12.4, 5.6)">o</text><text xml:space="preserve" font-family="AvenirNext-MediumItalic,Avenir Next" font-style="italic" font-size="29.0" fill="#5D514B" transform="matrix(1.00, 0.00, -0.00, -1.00, 29.8, 5.6)">n</text><text xml:space="preserve" font-family="AvenirNext-MediumItalic,Avenir Next" font-style="italic" font-size="29.0" fill="#5D514B" transform="matrix(1.00, 0.00, -0.00, -1.00, 46.7, 5.6)">c</text><text xml:space="preserve" font-family="AvenirNext-MediumItalic,Avenir Next" font-style="italic" font-size="29.0" fill="#5D514B" transform="matrix(1.00, 0.00, -0.00, -1.00, 61.1, 5.6)">t</text><text xml:space="preserve" font-family="AvenirNext-MediumItalic,Avenir Next" font-style="italic" font-size="29.0" fill="#5D514B" transform="matrix(1.00, 0.00, -0.00, -1.00, 70.5, 5.6)">i</text><text xml:space="preserve" font-family="AvenirNext-MediumItalic,Avenir Next" font-style="italic" font-size="29.0" fill="#5D514B" transform="matrix(1.00, 0.00, -0.00, -1.00, 78.0, 5.6)">o</text><text xml:space="preserve" font-family="AvenirNext-MediumItalic,Avenir Next" font-style="italic" font-size="29.0" fill="#5D514B" transform="matrix(1.00, 0.00, -0.00, -1.00, 95.4, 5.6)">n</text><text xml:space="preserve" font-family="AvenirNext-MediumItalic,Avenir Next" font-style="italic" font-size="29.0" fill="#5D514B" transform="matrix(1.00, 0.00, -0.00, -1.00, 112.2, 5.6)">n</text><text xml:space="preserve" font-family="AvenirNext-MediumItalic,Avenir Next" font-style="italic" font-size="29.0" fill="#5D514B" transform="matrix(1.00, 0.00, -0.00, -1.00, 129.1, 5.6)">a</text><text xml:space="preserve" font-family="AvenirNext-MediumItalic,Avenir Next" font-style="italic" font-size="29.0" fill="#5D514B" transform="matrix(1.00, 0.00, -0.00, -1.00, 144.6, 5.6)">l</text><text xml:space="preserve" font-family="AvenirNext-MediumItalic,Avenir Next" font-style="italic" font-size="29.0" fill="#5D514B" transform="matrix(1.00, 0.00, -0.00, -1.00, 152.2, 5.6)">i</text><text xml:space="preserve" font-family="AvenirNext-MediumItalic,Avenir Next" font-style="italic" font-size="29.0" fill="#5D514B" transform="matrix(1.00, 0.00, -0.00, -1.00, 159.7, 5.6)">t</text><text xml:space="preserve" font-family="AvenirNext-MediumItalic,Avenir Next" font-style="italic" font-size="29.0" fill="#5D514B" transform="matrix(1.00, 0.00, -0.00, -1.00, 169.1, 5.6)">é</text><text xml:space="preserve" font-family="AvenirNext-MediumItalic,Avenir Next" font-style="italic" font-size="29.0" fill="#5D514B" transform="matrix(1.00, 0.00, -0.00, -1.00, 185.5, 5.6)">s</text><text xml:space="preserve" font-family="AvenirNext-MediumItalic,Avenir Next" font-style="italic" font-size="29.0" fill="#5D514B" transform="matrix(1.00, 0.00, -0.00, -1.00, 198.3, 5.6)">.</text></g></svg>