<?xml version="1.0" encoding="UTF-8" standalone="no"?><svg xmlns="http://www.w3.org/2000/svg" xmlns:xlink="http://www.w3.org/1999/xlink" clip-rule="evenodd" stroke-miterlimit="10" viewBox="0 0 131 14"><desc>SVG generated by Keynote</desc><defs></defs><g transform="matrix(1.00, 0.00, -0.00, -1.00, 0.0, 14.0)"><text xml:space="preserve" font-family="CourierNewPS-BoldMT,Courier New" font-weight="bold" font-size="14.0" fill="#000000" transform="matrix(1.00, 0.00, -0.00, -1.00, 2.3, 2.2)">&lt;</text><text xml:space="preserve" font-family="CourierNewPS-BoldMT,Courier New" font-weight="bold" font-size="14.0" fill="#000000" transform="matrix(1.00, 0.00, -0.00, -1.00, 10.7, 2.2)">!</text><text xml:space="preserve" font-family="CourierNewPS-BoldMT,Courier New" font-weight="bold" font-size="14.0" fill="#000000" transform="matrix(1.00, 0.00, -0.00, -1.00, 19.1, 2.2)">D</text><text xml:space="preserve" font-family="CourierNewPS-BoldMT,Courier New" font-weight="bold" font-size="14.0" fill="#000000" transform="matrix(1.00, 0.00, -0.00, -1.00, 27.5, 2.2)">O</text><text xml:space="preserve" font-family="CourierNewPS-BoldMT,Courier New" font-weight="bold" font-size="14.0" fill="#000000" transform="matrix(1.00, 0.00, -0.00, -1.00, 35.9, 2.2)">C</text><text xml:space="preserve" font-family="CourierNewPS-BoldMT,Courier New" font-weight="bold" font-size="14.0" fill="#000000" transform="matrix(1.00, 0.00, -0.00, -1.00, 44.3, 2.2)">T</text><text xml:space="preserve" font-family="CourierNewPS-BoldMT,Courier New" font-weight="bold" font-size="14.0" fill="#000000" transform="matrix(1.00, 0.00, -0.00, -1.00, 52.7, 2.2)">Y</text><text xml:space="preserve" font-family="CourierNewPS-BoldMT,Courier New" font-weight="bold" font-size="14.0" fill="#000000" transform="matrix(1.00, 0.00, -0.00, -1.00, 61.1, 2.2)">P</text><text xml:space="preserve" font-family="CourierNewPS-BoldMT,Courier New" font-weight="bold" font-size="14.0" fill="#000000" transform="matrix(1.00, 0.00, -0.00, -1.00, 69.5, 2.2)">E</text><text xml:space="preserve" font-family="CourierNewPSMT,Courier New" font-size="14.0" fill="#000000" transform="matrix(1.00, 0.00, -0.00, -1.00, 77.9, 2.2)"> </text><text xml:space="preserve" font-family="CourierNewPSMT,Courier New" font-size="14.0" fill="#000000" transform="matrix(1.00, 0.00, -0.00, -1.00, 86.3, 2.2)">h</text><text xml:space="preserve" font-family="CourierNewPSMT,Courier New" font-size="14.0" fill="#000000" transform="matrix(1.00, 0.00, -0.00, -1.00, 94.7, 2.2)">t</text><text xml:space="preserve" font-family="CourierNewPSMT,Courier New" font-size="14.0" fill="#000000" transform="matrix(1.00, 0.00, -0.00, -1.00, 103.1, 2.2)">m</text><text xml:space="preserve" font-family="CourierNewPSMT,Courier New" font-size="14.0" fill="#000000" transform="matrix(1.00, 0.00, -0.00, -1.00, 111.5, 2.2)">l</text><text xml:space="preserve" font-family="CourierNewPS-BoldMT,Courier New" font-weight="bold" font-size="14.0" fill="#000000" transform="matrix(1.00, 0.00, -0.00, -1.00, 119.9, 2.2)">&gt;</text><text xml:space="preserve" font-family="CourierNewPSMT,Courier New" font-size="14.0" fill="#000000" transform="matrix(1.00, 0.00, -0.00, -1.00, 128.3, 2.2)"> </text></g></svg>