<?xml version="1.0" encoding="UTF-8" standalone="no"?><svg xmlns="http://www.w3.org/2000/svg" xmlns:xlink="http://www.w3.org/1999/xlink" clip-rule="evenodd" stroke-miterlimit="10" viewBox="0 0 337 32"><desc>SVG generated by Keynote</desc><defs></defs><g transform="matrix(1.00, 0.00, -0.00, -1.00, 0.0, 32.0)"><image xlink:href="../../BDFF92D3-4260-4BFC-8CFF-03755A20BF9A/assets/BE6840D595A7A0E15AF2C3F4981B9FE9.png" width="335.00" height="30.00" transform="matrix(1.00, 0.00, -0.00, -1.00, 1.0, 31.0)"></image><text xml:space="preserve" font-family="AvenirNext-MediumItalic,Avenir Next" font-style="italic" font-size="32.0" fill="#5D514B" transform="matrix(1.00, 0.00, -0.00, -1.00, 2.8, 6.2)">H</text><text xml:space="preserve" font-family="AvenirNext-MediumItalic,Avenir Next" font-style="italic" font-size="32.0" fill="#5D514B" transform="matrix(1.00, 0.00, -0.00, -1.00, 25.8, 6.2)">T</text><text xml:space="preserve" font-family="AvenirNext-MediumItalic,Avenir Next" font-style="italic" font-size="32.0" fill="#5D514B" transform="matrix(1.00, 0.00, -0.00, -1.00, 43.0, 6.2)">M</text><text xml:space="preserve" font-family="AvenirNext-MediumItalic,Avenir Next" font-style="italic" font-size="32.0" fill="#5D514B" transform="matrix(1.00, 0.00, -0.00, -1.00, 71.9, 6.2)">L</text><text xml:space="preserve" font-family="AvenirNext-MediumItalic,Avenir Next" font-style="italic" font-size="32.0" fill="#5D514B" transform="matrix(1.00, 0.00, -0.00, -1.00, 87.4, 6.2)"> </text><text xml:space="preserve" font-family="AvenirNext-MediumItalic,Avenir Next" font-style="italic" font-size="32.0" fill="#5D514B" transform="matrix(1.00, 0.00, -0.00, -1.00, 95.4, 6.2)">4</text><text xml:space="preserve" font-family="AvenirNext-MediumItalic,Avenir Next" font-style="italic" font-size="32.0" fill="#5D514B" transform="matrix(1.00, 0.00, -0.00, -1.00, 114.5, 6.2)">.</text><text xml:space="preserve" font-family="AvenirNext-MediumItalic,Avenir Next" font-style="italic" font-size="32.0" fill="#5D514B" transform="matrix(1.00, 0.00, -0.00, -1.00, 122.8, 6.2)">0</text><text xml:space="preserve" font-family="AvenirNext-MediumItalic,Avenir Next" font-style="italic" font-size="32.0" fill="#5D514B" transform="matrix(1.00, 0.00, -0.00, -1.00, 141.8, 6.2)">1</text><text xml:space="preserve" font-family="AvenirNext-MediumItalic,Avenir Next" font-style="italic" font-size="32.0" fill="#5D514B" transform="matrix(1.00, 0.00, -0.00, -1.00, 160.9, 6.2)"> </text><text xml:space="preserve" font-family="AvenirNext-MediumItalic,Avenir Next" font-style="italic" font-size="32.0" fill="#5D514B" transform="matrix(1.00, 0.00, -0.00, -1.00, 168.1, 6.2)">T</text><text xml:space="preserve" font-family="AvenirNext-MediumItalic,Avenir Next" font-style="italic" font-size="32.0" fill="#5D514B" transform="matrix(1.00, 0.00, -0.00, -1.00, 182.4, 6.2)">r</text><text xml:space="preserve" font-family="AvenirNext-MediumItalic,Avenir Next" font-style="italic" font-size="32.0" fill="#5D514B" transform="matrix(1.00, 0.00, -0.00, -1.00, 192.9, 6.2)">a</text><text xml:space="preserve" font-family="AvenirNext-MediumItalic,Avenir Next" font-style="italic" font-size="32.0" fill="#5D514B" transform="matrix(1.00, 0.00, -0.00, -1.00, 210.1, 6.2)">n</text><text xml:space="preserve" font-family="AvenirNext-MediumItalic,Avenir Next" font-style="italic" font-size="32.0" fill="#5D514B" transform="matrix(1.00, 0.00, -0.00, -1.00, 228.7, 6.2)">s</text><text xml:space="preserve" font-family="AvenirNext-MediumItalic,Avenir Next" font-style="italic" font-size="32.0" fill="#5D514B" transform="matrix(1.00, 0.00, -0.00, -1.00, 242.9, 6.2)">i</text><text xml:space="preserve" font-family="AvenirNext-MediumItalic,Avenir Next" font-style="italic" font-size="32.0" fill="#5D514B" transform="matrix(1.00, 0.00, -0.00, -1.00, 251.2, 6.2)">t</text><text xml:space="preserve" font-family="AvenirNext-MediumItalic,Avenir Next" font-style="italic" font-size="32.0" fill="#5D514B" transform="matrix(1.00, 0.00, -0.00, -1.00, 261.6, 6.2)">i</text><text xml:space="preserve" font-family="AvenirNext-MediumItalic,Avenir Next" font-style="italic" font-size="32.0" fill="#5D514B" transform="matrix(1.00, 0.00, -0.00, -1.00, 269.9, 6.2)">o</text><text xml:space="preserve" font-family="AvenirNext-MediumItalic,Avenir Next" font-style="italic" font-size="32.0" fill="#5D514B" transform="matrix(1.00, 0.00, -0.00, -1.00, 289.1, 6.2)">n</text><text xml:space="preserve" font-family="AvenirNext-MediumItalic,Avenir Next" font-style="italic" font-size="32.0" fill="#5D514B" transform="matrix(1.00, 0.00, -0.00, -1.00, 307.7, 6.2)">a</text><text xml:space="preserve" font-family="AvenirNext-MediumItalic,Avenir Next" font-style="italic" font-size="32.0" fill="#5D514B" transform="matrix(1.00, 0.00, -0.00, -1.00, 324.8, 6.2)">l</text></g></svg>