<?xml version="1.0" encoding="UTF-8" standalone="no"?><svg xmlns="http://www.w3.org/2000/svg" xmlns:xlink="http://www.w3.org/1999/xlink" clip-rule="evenodd" stroke-miterlimit="10" viewBox="0 0 761 16"><desc>SVG generated by Keynote</desc><defs></defs><g transform="matrix(1.00, 0.00, -0.00, -1.00, 0.0, 16.0)"><text xml:space="preserve" font-family="CourierNewPS-BoldMT,Courier New" font-weight="bold" font-size="14.0" fill="#000000" transform="matrix(1.00, 0.00, -0.00, -1.00, 2.4, 4.2)">&lt;</text><text xml:space="preserve" font-family="CourierNewPS-BoldMT,Courier New" font-weight="bold" font-size="14.0" fill="#000000" transform="matrix(1.00, 0.00, -0.00, -1.00, 10.8, 4.2)">!</text><text xml:space="preserve" font-family="CourierNewPS-BoldMT,Courier New" font-weight="bold" font-size="14.0" fill="#000000" transform="matrix(1.00, 0.00, -0.00, -1.00, 19.2, 4.2)">D</text><text xml:space="preserve" font-family="CourierNewPS-BoldMT,Courier New" font-weight="bold" font-size="14.0" fill="#000000" transform="matrix(1.00, 0.00, -0.00, -1.00, 27.6, 4.2)">O</text><text xml:space="preserve" font-family="CourierNewPS-BoldMT,Courier New" font-weight="bold" font-size="14.0" fill="#000000" transform="matrix(1.00, 0.00, -0.00, -1.00, 36.0, 4.2)">C</text><text xml:space="preserve" font-family="CourierNewPS-BoldMT,Courier New" font-weight="bold" font-size="14.0" fill="#000000" transform="matrix(1.00, 0.00, -0.00, -1.00, 44.4, 4.2)">T</text><text xml:space="preserve" font-family="CourierNewPS-BoldMT,Courier New" font-weight="bold" font-size="14.0" fill="#000000" transform="matrix(1.00, 0.00, -0.00, -1.00, 52.8, 4.2)">Y</text><text xml:space="preserve" font-family="CourierNewPS-BoldMT,Courier New" font-weight="bold" font-size="14.0" fill="#000000" transform="matrix(1.00, 0.00, -0.00, -1.00, 61.2, 4.2)">P</text><text xml:space="preserve" font-family="CourierNewPS-BoldMT,Courier New" font-weight="bold" font-size="14.0" fill="#000000" transform="matrix(1.00, 0.00, -0.00, -1.00, 69.6, 4.2)">E</text><text xml:space="preserve" font-family="CourierNewPSMT,Courier New" font-size="14.0" fill="#000000" transform="matrix(1.00, 0.00, -0.00, -1.00, 78.0, 4.2)"> </text><text xml:space="preserve" font-family="CourierNewPSMT,Courier New" font-size="14.0" fill="#000000" transform="matrix(1.00, 0.00, -0.00, -1.00, 86.4, 4.2)">H</text><text xml:space="preserve" font-family="CourierNewPSMT,Courier New" font-size="14.0" fill="#000000" transform="matrix(1.00, 0.00, -0.00, -1.00, 94.8, 4.2)">T</text><text xml:space="preserve" font-family="CourierNewPSMT,Courier New" font-size="14.0" fill="#000000" transform="matrix(1.00, 0.00, -0.00, -1.00, 103.2, 4.2)">M</text><text xml:space="preserve" font-family="CourierNewPSMT,Courier New" font-size="14.0" fill="#000000" transform="matrix(1.00, 0.00, -0.00, -1.00, 111.6, 4.2)">L</text><text xml:space="preserve" font-family="CourierNewPSMT,Courier New" font-size="14.0" fill="#000000" transform="matrix(1.00, 0.00, -0.00, -1.00, 120.0, 4.2)"> </text><text xml:space="preserve" font-family="CourierNewPSMT,Courier New" font-size="14.0" fill="#000000" transform="matrix(1.00, 0.00, -0.00, -1.00, 128.4, 4.2)">P</text><text xml:space="preserve" font-family="CourierNewPSMT,Courier New" font-size="14.0" fill="#000000" transform="matrix(1.00, 0.00, -0.00, -1.00, 136.8, 4.2)">U</text><text xml:space="preserve" font-family="CourierNewPSMT,Courier New" font-size="14.0" fill="#000000" transform="matrix(1.00, 0.00, -0.00, -1.00, 145.2, 4.2)">B</text><text xml:space="preserve" font-family="CourierNewPSMT,Courier New" font-size="14.0" fill="#000000" transform="matrix(1.00, 0.00, -0.00, -1.00, 153.6, 4.2)">L</text><text xml:space="preserve" font-family="CourierNewPSMT,Courier New" font-size="14.0" fill="#000000" transform="matrix(1.00, 0.00, -0.00, -1.00, 162.0, 4.2)">I</text><text xml:space="preserve" font-family="CourierNewPSMT,Courier New" font-size="14.0" fill="#000000" transform="matrix(1.00, 0.00, -0.00, -1.00, 170.4, 4.2)">C</text><text xml:space="preserve" font-family="CourierNewPSMT,Courier New" font-size="14.0" fill="#000000" transform="matrix(1.00, 0.00, -0.00, -1.00, 178.8, 4.2)"> </text><text xml:space="preserve" font-family="CourierNewPSMT,Courier New" font-size="14.0" fill="#CC1C00" transform="matrix(1.00, 0.00, -0.00, -1.00, 187.2, 4.2)">"</text><text xml:space="preserve" font-family="CourierNewPSMT,Courier New" font-size="14.0" fill="#CC1C00" transform="matrix(1.00, 0.00, -0.00, -1.00, 195.6, 4.2)">-</text><text xml:space="preserve" font-family="CourierNewPSMT,Courier New" font-size="14.0" fill="#CC1C00" transform="matrix(1.00, 0.00, -0.00, -1.00, 204.0, 4.2)">/</text><text xml:space="preserve" font-family="CourierNewPSMT,Courier New" font-size="14.0" fill="#CC1C00" transform="matrix(1.00, 0.00, -0.00, -1.00, 212.4, 4.2)">/</text><text xml:space="preserve" font-family="CourierNewPSMT,Courier New" font-size="14.0" fill="#CC1C00" transform="matrix(1.00, 0.00, -0.00, -1.00, 220.8, 4.2)">W</text><text xml:space="preserve" font-family="CourierNewPSMT,Courier New" font-size="14.0" fill="#CC1C00" transform="matrix(1.00, 0.00, -0.00, -1.00, 229.2, 4.2)">3</text><text xml:space="preserve" font-family="CourierNewPSMT,Courier New" font-size="14.0" fill="#CC1C00" transform="matrix(1.00, 0.00, -0.00, -1.00, 237.6, 4.2)">C</text><text xml:space="preserve" font-family="CourierNewPSMT,Courier New" font-size="14.0" fill="#CC1C00" transform="matrix(1.00, 0.00, -0.00, -1.00, 246.0, 4.2)">/</text><text xml:space="preserve" font-family="CourierNewPSMT,Courier New" font-size="14.0" fill="#CC1C00" transform="matrix(1.00, 0.00, -0.00, -1.00, 254.4, 4.2)">/</text><text xml:space="preserve" font-family="CourierNewPSMT,Courier New" font-size="14.0" fill="#CC1C00" transform="matrix(1.00, 0.00, -0.00, -1.00, 262.8, 4.2)">D</text><text xml:space="preserve" font-family="CourierNewPSMT,Courier New" font-size="14.0" fill="#CC1C00" transform="matrix(1.00, 0.00, -0.00, -1.00, 271.2, 4.2)">T</text><text xml:space="preserve" font-family="CourierNewPSMT,Courier New" font-size="14.0" fill="#CC1C00" transform="matrix(1.00, 0.00, -0.00, -1.00, 279.6, 4.2)">D</text><text xml:space="preserve" font-family="CourierNewPSMT,Courier New" font-size="14.0" fill="#CC1C00" transform="matrix(1.00, 0.00, -0.00, -1.00, 288.0, 4.2)"> </text><text xml:space="preserve" font-family="CourierNewPSMT,Courier New" font-size="14.0" fill="#CC1C00" transform="matrix(1.00, 0.00, -0.00, -1.00, 296.4, 4.2)">H</text><text xml:space="preserve" font-family="CourierNewPSMT,Courier New" font-size="14.0" fill="#CC1C00" transform="matrix(1.00, 0.00, -0.00, -1.00, 304.8, 4.2)">T</text><text xml:space="preserve" font-family="CourierNewPSMT,Courier New" font-size="14.0" fill="#CC1C00" transform="matrix(1.00, 0.00, -0.00, -1.00, 313.2, 4.2)">M</text><text xml:space="preserve" font-family="CourierNewPSMT,Courier New" font-size="14.0" fill="#CC1C00" transform="matrix(1.00, 0.00, -0.00, -1.00, 321.7, 4.2)">L</text><text xml:space="preserve" font-family="CourierNewPSMT,Courier New" font-size="14.0" fill="#CC1C00" transform="matrix(1.00, 0.00, -0.00, -1.00, 330.1, 4.2)"> </text><text xml:space="preserve" font-family="CourierNewPSMT,Courier New" font-size="14.0" fill="#CC1C00" transform="matrix(1.00, 0.00, -0.00, -1.00, 338.5, 4.2)">4</text><text xml:space="preserve" font-family="CourierNewPSMT,Courier New" font-size="14.0" fill="#CC1C00" transform="matrix(1.00, 0.00, -0.00, -1.00, 346.9, 4.2)">.</text><text xml:space="preserve" font-family="CourierNewPSMT,Courier New" font-size="14.0" fill="#CC1C00" transform="matrix(1.00, 0.00, -0.00, -1.00, 355.3, 4.2)">0</text><text xml:space="preserve" font-family="CourierNewPSMT,Courier New" font-size="14.0" fill="#CC1C00" transform="matrix(1.00, 0.00, -0.00, -1.00, 363.7, 4.2)">1</text><text xml:space="preserve" font-family="CourierNewPSMT,Courier New" font-size="14.0" fill="#CC1C00" transform="matrix(1.00, 0.00, -0.00, -1.00, 372.1, 4.2)">/</text><text xml:space="preserve" font-family="CourierNewPSMT,Courier New" font-size="14.0" fill="#CC1C00" transform="matrix(1.00, 0.00, -0.00, -1.00, 380.5, 4.2)">/</text><text xml:space="preserve" font-family="CourierNewPSMT,Courier New" font-size="14.0" fill="#CC1C00" transform="matrix(1.00, 0.00, -0.00, -1.00, 388.9, 4.2)">E</text><text xml:space="preserve" font-family="CourierNewPSMT,Courier New" font-size="14.0" fill="#CC1C00" transform="matrix(1.00, 0.00, -0.00, -1.00, 397.3, 4.2)">N</text><text xml:space="preserve" font-family="CourierNewPSMT,Courier New" font-size="14.0" fill="#CC1C00" transform="matrix(1.00, 0.00, -0.00, -1.00, 405.7, 4.2)">"</text><text xml:space="preserve" font-family="CourierNewPSMT,Courier New" font-size="14.0" fill="#000000" transform="matrix(1.00, 0.00, -0.00, -1.00, 414.0, 4.2)"> </text><text xml:space="preserve" font-family="CourierNewPSMT,Courier New" font-size="14.0" fill="#CC1C00" transform="matrix(1.00, 0.00, -0.00, -1.00, 422.4, 4.2)">"</text><text xml:space="preserve" font-family="CourierNewPSMT,Courier New" font-size="14.0" fill="#CC1C00" transform="matrix(1.00, 0.00, -0.00, -1.00, 430.8, 4.2)">h</text><text xml:space="preserve" font-family="CourierNewPSMT,Courier New" font-size="14.0" fill="#CC1C00" transform="matrix(1.00, 0.00, -0.00, -1.00, 439.3, 4.2)">t</text><text xml:space="preserve" font-family="CourierNewPSMT,Courier New" font-size="14.0" fill="#CC1C00" transform="matrix(1.00, 0.00, -0.00, -1.00, 447.7, 4.2)">t</text><text xml:space="preserve" font-family="CourierNewPSMT,Courier New" font-size="14.0" fill="#CC1C00" transform="matrix(1.00, 0.00, -0.00, -1.00, 456.1, 4.2)">p</text><text xml:space="preserve" font-family="CourierNewPSMT,Courier New" font-size="14.0" fill="#CC1C00" transform="matrix(1.00, 0.00, -0.00, -1.00, 464.5, 4.2)">:</text><text xml:space="preserve" font-family="CourierNewPSMT,Courier New" font-size="14.0" fill="#CC1C00" transform="matrix(1.00, 0.00, -0.00, -1.00, 472.9, 4.2)">/</text><text xml:space="preserve" font-family="CourierNewPSMT,Courier New" font-size="14.0" fill="#CC1C00" transform="matrix(1.00, 0.00, -0.00, -1.00, 481.3, 4.2)">/</text><text xml:space="preserve" font-family="CourierNewPSMT,Courier New" font-size="14.0" fill="#CC1C00" transform="matrix(1.00, 0.00, -0.00, -1.00, 489.7, 4.2)">w</text><text xml:space="preserve" font-family="CourierNewPSMT,Courier New" font-size="14.0" fill="#CC1C00" transform="matrix(1.00, 0.00, -0.00, -1.00, 498.1, 4.2)">w</text><text xml:space="preserve" font-family="CourierNewPSMT,Courier New" font-size="14.0" fill="#CC1C00" transform="matrix(1.00, 0.00, -0.00, -1.00, 506.5, 4.2)">w</text><text xml:space="preserve" font-family="CourierNewPSMT,Courier New" font-size="14.0" fill="#CC1C00" transform="matrix(1.00, 0.00, -0.00, -1.00, 514.9, 4.2)">.</text><text xml:space="preserve" font-family="CourierNewPSMT,Courier New" font-size="14.0" fill="#CC1C00" transform="matrix(1.00, 0.00, -0.00, -1.00, 523.3, 4.2)">w</text><text xml:space="preserve" font-family="CourierNewPSMT,Courier New" font-size="14.0" fill="#CC1C00" transform="matrix(1.00, 0.00, -0.00, -1.00, 531.7, 4.2)">3</text><text xml:space="preserve" font-family="CourierNewPSMT,Courier New" font-size="14.0" fill="#CC1C00" transform="matrix(1.00, 0.00, -0.00, -1.00, 540.1, 4.2)">.</text><text xml:space="preserve" font-family="CourierNewPSMT,Courier New" font-size="14.0" fill="#CC1C00" transform="matrix(1.00, 0.00, -0.00, -1.00, 548.5, 4.2)">o</text><text xml:space="preserve" font-family="CourierNewPSMT,Courier New" font-size="14.0" fill="#CC1C00" transform="matrix(1.00, 0.00, -0.00, -1.00, 556.9, 4.2)">r</text><text xml:space="preserve" font-family="CourierNewPSMT,Courier New" font-size="14.0" fill="#CC1C00" transform="matrix(1.00, 0.00, -0.00, -1.00, 565.3, 4.2)">g</text><text xml:space="preserve" font-family="CourierNewPSMT,Courier New" font-size="14.0" fill="#CC1C00" transform="matrix(1.00, 0.00, -0.00, -1.00, 573.7, 4.2)">/</text><text xml:space="preserve" font-family="CourierNewPSMT,Courier New" font-size="14.0" fill="#CC1C00" transform="matrix(1.00, 0.00, -0.00, -1.00, 582.1, 4.2)">T</text><text xml:space="preserve" font-family="CourierNewPSMT,Courier New" font-size="14.0" fill="#CC1C00" transform="matrix(1.00, 0.00, -0.00, -1.00, 590.5, 4.2)">R</text><text xml:space="preserve" font-family="CourierNewPSMT,Courier New" font-size="14.0" fill="#CC1C00" transform="matrix(1.00, 0.00, -0.00, -1.00, 598.9, 4.2)">/</text><text xml:space="preserve" font-family="CourierNewPSMT,Courier New" font-size="14.0" fill="#CC1C00" transform="matrix(1.00, 0.00, -0.00, -1.00, 607.3, 4.2)">h</text><text xml:space="preserve" font-family="CourierNewPSMT,Courier New" font-size="14.0" fill="#CC1C00" transform="matrix(1.00, 0.00, -0.00, -1.00, 615.7, 4.2)">t</text><text xml:space="preserve" font-family="CourierNewPSMT,Courier New" font-size="14.0" fill="#CC1C00" transform="matrix(1.00, 0.00, -0.00, -1.00, 624.1, 4.2)">m</text><text xml:space="preserve" font-family="CourierNewPSMT,Courier New" font-size="14.0" fill="#CC1C00" transform="matrix(1.00, 0.00, -0.00, -1.00, 632.5, 4.2)">l</text><text xml:space="preserve" font-family="CourierNewPSMT,Courier New" font-size="14.0" fill="#CC1C00" transform="matrix(1.00, 0.00, -0.00, -1.00, 640.9, 4.2)">4</text><text xml:space="preserve" font-family="CourierNewPSMT,Courier New" font-size="14.0" fill="#CC1C00" transform="matrix(1.00, 0.00, -0.00, -1.00, 649.3, 4.2)">/</text><text xml:space="preserve" font-family="CourierNewPSMT,Courier New" font-size="14.0" fill="#CC1C00" transform="matrix(1.00, 0.00, -0.00, -1.00, 657.7, 4.2)">s</text><text xml:space="preserve" font-family="CourierNewPSMT,Courier New" font-size="14.0" fill="#CC1C00" transform="matrix(1.00, 0.00, -0.00, -1.00, 666.1, 4.2)">t</text><text xml:space="preserve" font-family="CourierNewPSMT,Courier New" font-size="14.0" fill="#CC1C00" transform="matrix(1.00, 0.00, -0.00, -1.00, 674.5, 4.2)">r</text><text xml:space="preserve" font-family="CourierNewPSMT,Courier New" font-size="14.0" fill="#CC1C00" transform="matrix(1.00, 0.00, -0.00, -1.00, 682.9, 4.2)">i</text><text xml:space="preserve" font-family="CourierNewPSMT,Courier New" font-size="14.0" fill="#CC1C00" transform="matrix(1.00, 0.00, -0.00, -1.00, 691.3, 4.2)">c</text><text xml:space="preserve" font-family="CourierNewPSMT,Courier New" font-size="14.0" fill="#CC1C00" transform="matrix(1.00, 0.00, -0.00, -1.00, 699.7, 4.2)">t</text><text xml:space="preserve" font-family="CourierNewPSMT,Courier New" font-size="14.0" fill="#CC1C00" transform="matrix(1.00, 0.00, -0.00, -1.00, 708.1, 4.2)">.</text><text xml:space="preserve" font-family="CourierNewPSMT,Courier New" font-size="14.0" fill="#CC1C00" transform="matrix(1.00, 0.00, -0.00, -1.00, 716.5, 4.2)">d</text><text xml:space="preserve" font-family="CourierNewPSMT,Courier New" font-size="14.0" fill="#CC1C00" transform="matrix(1.00, 0.00, -0.00, -1.00, 724.9, 4.2)">t</text><text xml:space="preserve" font-family="CourierNewPSMT,Courier New" font-size="14.0" fill="#CC1C00" transform="matrix(1.00, 0.00, -0.00, -1.00, 733.3, 4.2)">d</text><text xml:space="preserve" font-family="CourierNewPSMT,Courier New" font-size="14.0" fill="#CC1C00" transform="matrix(1.00, 0.00, -0.00, -1.00, 741.8, 4.2)">"</text><text xml:space="preserve" font-family="CourierNewPS-BoldMT,Courier New" font-weight="bold" font-size="14.0" fill="#000000" transform="matrix(1.00, 0.00, -0.00, -1.00, 750.1, 4.2)">&gt;</text><text xml:space="preserve" font-family="CourierNewPSMT,Courier New" font-size="14.0" fill="#000000" transform="matrix(1.00, 0.00, -0.00, -1.00, 758.5, 4.2)"> </text></g></svg>