<?xml version="1.0" encoding="UTF-8" standalone="no"?><svg xmlns="http://www.w3.org/2000/svg" xmlns:xlink="http://www.w3.org/1999/xlink" clip-rule="evenodd" stroke-miterlimit="10" viewBox="0 0 783 181"><desc>SVG generated by Keynote</desc><defs></defs><g transform="matrix(1.00, 0.00, -0.00, -1.00, 0.0, 181.0)"><text xml:space="preserve" font-family="CourierNewPS-BoldMT,Courier New" font-weight="bold" font-size="20.0" fill="#000000" transform="matrix(1.00, 0.00, -0.00, -1.00, 2.4, 165.7)">&lt;</text><text xml:space="preserve" font-family="CourierNewPS-BoldMT,Courier New" font-weight="bold" font-size="20.0" fill="#000000" transform="matrix(1.00, 0.00, -0.00, -1.00, 14.4, 165.7)">f</text><text xml:space="preserve" font-family="CourierNewPS-BoldMT,Courier New" font-weight="bold" font-size="20.0" fill="#000000" transform="matrix(1.00, 0.00, -0.00, -1.00, 26.4, 165.7)">o</text><text xml:space="preserve" font-family="CourierNewPS-BoldMT,Courier New" font-weight="bold" font-size="20.0" fill="#000000" transform="matrix(1.00, 0.00, -0.00, -1.00, 38.4, 165.7)">r</text><text xml:space="preserve" font-family="CourierNewPS-BoldMT,Courier New" font-weight="bold" font-size="20.0" fill="#000000" transform="matrix(1.00, 0.00, -0.00, -1.00, 50.5, 165.7)">m</text><text xml:space="preserve" font-family="CourierNewPSMT,Courier New" font-size="20.0" fill="#000000" transform="matrix(1.00, 0.00, -0.00, -1.00, 62.4, 165.7)"> </text><text xml:space="preserve" font-family="CourierNewPSMT,Courier New" font-size="20.0" fill="#006DBC" transform="matrix(1.00, 0.00, -0.00, -1.00, 74.4, 165.7)">a</text><text xml:space="preserve" font-family="CourierNewPSMT,Courier New" font-size="20.0" fill="#006DBC" transform="matrix(1.00, 0.00, -0.00, -1.00, 86.5, 165.7)">c</text><text xml:space="preserve" font-family="CourierNewPSMT,Courier New" font-size="20.0" fill="#006DBC" transform="matrix(1.00, 0.00, -0.00, -1.00, 98.5, 165.7)">t</text><text xml:space="preserve" font-family="CourierNewPSMT,Courier New" font-size="20.0" fill="#006DBC" transform="matrix(1.00, 0.00, -0.00, -1.00, 110.5, 165.7)">i</text><text xml:space="preserve" font-family="CourierNewPSMT,Courier New" font-size="20.0" fill="#006DBC" transform="matrix(1.00, 0.00, -0.00, -1.00, 122.5, 165.7)">o</text><text xml:space="preserve" font-family="CourierNewPSMT,Courier New" font-size="20.0" fill="#006DBC" transform="matrix(1.00, 0.00, -0.00, -1.00, 134.5, 165.7)">n</text><text xml:space="preserve" font-family="CourierNewPSMT,Courier New" font-size="20.0" fill="#000000" transform="matrix(1.00, 0.00, -0.00, -1.00, 146.5, 165.7)">=</text><text xml:space="preserve" font-family="CourierNewPSMT,Courier New" font-size="20.0" fill="#CC1C00" transform="matrix(1.00, 0.00, -0.00, -1.00, 158.5, 165.7)">"</text><text xml:space="preserve" font-family="CourierNewPSMT,Courier New" font-size="20.0" fill="#CC1C00" transform="matrix(1.00, 0.00, -0.00, -1.00, 170.5, 165.7)">#</text><text xml:space="preserve" font-family="CourierNewPSMT,Courier New" font-size="20.0" fill="#CC1C00" transform="matrix(1.00, 0.00, -0.00, -1.00, 182.5, 165.7)">"</text><text xml:space="preserve" font-family="CourierNewPSMT,Courier New" font-size="20.0" fill="#000000" transform="matrix(1.00, 0.00, -0.00, -1.00, 194.5, 165.7)"> </text><text xml:space="preserve" font-family="CourierNewPSMT,Courier New" font-size="20.0" fill="#006DBC" transform="matrix(1.00, 0.00, -0.00, -1.00, 206.5, 165.7)">m</text><text xml:space="preserve" font-family="CourierNewPSMT,Courier New" font-size="20.0" fill="#006DBC" transform="matrix(1.00, 0.00, -0.00, -1.00, 218.5, 165.7)">e</text><text xml:space="preserve" font-family="CourierNewPSMT,Courier New" font-size="20.0" fill="#006DBC" transform="matrix(1.00, 0.00, -0.00, -1.00, 230.5, 165.7)">t</text><text xml:space="preserve" font-family="CourierNewPSMT,Courier New" font-size="20.0" fill="#006DBC" transform="matrix(1.00, 0.00, -0.00, -1.00, 242.5, 165.7)">h</text><text xml:space="preserve" font-family="CourierNewPSMT,Courier New" font-size="20.0" fill="#006DBC" transform="matrix(1.00, 0.00, -0.00, -1.00, 254.5, 165.7)">o</text><text xml:space="preserve" font-family="CourierNewPSMT,Courier New" font-size="20.0" fill="#006DBC" transform="matrix(1.00, 0.00, -0.00, -1.00, 266.5, 165.7)">d</text><text xml:space="preserve" font-family="CourierNewPSMT,Courier New" font-size="20.0" fill="#000000" transform="matrix(1.00, 0.00, -0.00, -1.00, 278.5, 165.7)">=</text><text xml:space="preserve" font-family="CourierNewPSMT,Courier New" font-size="20.0" fill="#CC1C00" transform="matrix(1.00, 0.00, -0.00, -1.00, 290.5, 165.7)">"</text><text xml:space="preserve" font-family="CourierNewPSMT,Courier New" font-size="20.0" fill="#CC1C00" transform="matrix(1.00, 0.00, -0.00, -1.00, 302.5, 165.7)">p</text><text xml:space="preserve" font-family="CourierNewPSMT,Courier New" font-size="20.0" fill="#CC1C00" transform="matrix(1.00, 0.00, -0.00, -1.00, 314.5, 165.7)">o</text><text xml:space="preserve" font-family="CourierNewPSMT,Courier New" font-size="20.0" fill="#CC1C00" transform="matrix(1.00, 0.00, -0.00, -1.00, 326.5, 165.7)">s</text><text xml:space="preserve" font-family="CourierNewPSMT,Courier New" font-size="20.0" fill="#CC1C00" transform="matrix(1.00, 0.00, -0.00, -1.00, 338.5, 165.7)">t</text><text xml:space="preserve" font-family="CourierNewPSMT,Courier New" font-size="20.0" fill="#CC1C00" transform="matrix(1.00, 0.00, -0.00, -1.00, 350.5, 165.7)">"</text><text xml:space="preserve" font-family="CourierNewPS-BoldMT,Courier New" font-weight="bold" font-size="20.0" fill="#000000" transform="matrix(1.00, 0.00, -0.00, -1.00, 362.5, 165.7)">&gt;</text><text xml:space="preserve" font-family="CourierNewPSMT,Courier New" font-size="20.0" fill="#000000" transform="matrix(1.00, 0.00, -0.00, -1.00, 374.5, 165.7)"> </text><text xml:space="preserve" font-family="CourierNewPSMT,Courier New" font-size="20.0" fill="#000000" transform="matrix(1.00, 0.00, -0.00, -1.00, 2.4, 142.7)"> </text><text xml:space="preserve" font-family="CourierNewPSMT,Courier New" font-size="20.0" fill="#000000" transform="matrix(1.00, 0.00, -0.00, -1.00, 14.4, 142.7)"> </text><text xml:space="preserve" font-family="CourierNewPSMT,Courier New" font-size="20.0" fill="#000000" transform="matrix(1.00, 0.00, -0.00, -1.00, 26.4, 142.7)"> </text><text xml:space="preserve" font-family="CourierNewPSMT,Courier New" font-size="20.0" fill="#000000" transform="matrix(1.00, 0.00, -0.00, -1.00, 38.4, 142.7)"> </text><text xml:space="preserve" font-family="CourierNewPS-BoldMT,Courier New" font-weight="bold" font-size="20.0" fill="#000000" transform="matrix(1.00, 0.00, -0.00, -1.00, 50.4, 142.7)">&lt;</text><text xml:space="preserve" font-family="CourierNewPS-BoldMT,Courier New" font-weight="bold" font-size="20.0" fill="#000000" transform="matrix(1.00, 0.00, -0.00, -1.00, 62.4, 142.7)">l</text><text xml:space="preserve" font-family="CourierNewPS-BoldMT,Courier New" font-weight="bold" font-size="20.0" fill="#000000" transform="matrix(1.00, 0.00, -0.00, -1.00, 74.5, 142.7)">a</text><text xml:space="preserve" font-family="CourierNewPS-BoldMT,Courier New" font-weight="bold" font-size="20.0" fill="#000000" transform="matrix(1.00, 0.00, -0.00, -1.00, 86.5, 142.7)">b</text><text xml:space="preserve" font-family="CourierNewPS-BoldMT,Courier New" font-weight="bold" font-size="20.0" fill="#000000" transform="matrix(1.00, 0.00, -0.00, -1.00, 98.5, 142.7)">e</text><text xml:space="preserve" font-family="CourierNewPS-BoldMT,Courier New" font-weight="bold" font-size="20.0" fill="#000000" transform="matrix(1.00, 0.00, -0.00, -1.00, 110.5, 142.7)">l</text><text xml:space="preserve" font-family="CourierNewPSMT,Courier New" font-size="20.0" fill="#000000" transform="matrix(1.00, 0.00, -0.00, -1.00, 122.5, 142.7)"> </text><text xml:space="preserve" font-family="CourierNewPSMT,Courier New" font-size="20.0" fill="#006DBC" transform="matrix(1.00, 0.00, -0.00, -1.00, 134.5, 142.7)">f</text><text xml:space="preserve" font-family="CourierNewPSMT,Courier New" font-size="20.0" fill="#006DBC" transform="matrix(1.00, 0.00, -0.00, -1.00, 146.5, 142.7)">o</text><text xml:space="preserve" font-family="CourierNewPSMT,Courier New" font-size="20.0" fill="#006DBC" transform="matrix(1.00, 0.00, -0.00, -1.00, 158.5, 142.7)">r</text><text xml:space="preserve" font-family="CourierNewPSMT,Courier New" font-size="20.0" fill="#000000" transform="matrix(1.00, 0.00, -0.00, -1.00, 170.5, 142.7)">=</text><text xml:space="preserve" font-family="CourierNewPSMT,Courier New" font-size="20.0" fill="#CC1C00" transform="matrix(1.00, 0.00, -0.00, -1.00, 182.5, 142.7)">"</text><text xml:space="preserve" font-family="CourierNewPSMT,Courier New" font-size="20.0" fill="#CC1C00" transform="matrix(1.00, 0.00, -0.00, -1.00, 194.5, 142.7)">n</text><text xml:space="preserve" font-family="CourierNewPSMT,Courier New" font-size="20.0" fill="#CC1C00" transform="matrix(1.00, 0.00, -0.00, -1.00, 206.5, 142.7)">a</text><text xml:space="preserve" font-family="CourierNewPSMT,Courier New" font-size="20.0" fill="#CC1C00" transform="matrix(1.00, 0.00, -0.00, -1.00, 218.5, 142.7)">m</text><text xml:space="preserve" font-family="CourierNewPSMT,Courier New" font-size="20.0" fill="#CC1C00" transform="matrix(1.00, 0.00, -0.00, -1.00, 230.5, 142.7)">e</text><text xml:space="preserve" font-family="CourierNewPSMT,Courier New" font-size="20.0" fill="#CC1C00" transform="matrix(1.00, 0.00, -0.00, -1.00, 242.5, 142.7)">"</text><text xml:space="preserve" font-family="CourierNewPS-BoldMT,Courier New" font-weight="bold" font-size="20.0" fill="#000000" transform="matrix(1.00, 0.00, -0.00, -1.00, 254.5, 142.7)">&gt;</text><text xml:space="preserve" font-family="CourierNewPSMT,Courier New" font-size="20.0" fill="#000000" transform="matrix(1.00, 0.00, -0.00, -1.00, 266.5, 142.7)">N</text><text xml:space="preserve" font-family="CourierNewPSMT,Courier New" font-size="20.0" fill="#000000" transform="matrix(1.00, 0.00, -0.00, -1.00, 278.5, 142.7)">o</text><text xml:space="preserve" font-family="CourierNewPSMT,Courier New" font-size="20.0" fill="#000000" transform="matrix(1.00, 0.00, -0.00, -1.00, 290.5, 142.7)">m</text><text xml:space="preserve" font-family="CourierNewPSMT,Courier New" font-size="20.0" fill="#000000" transform="matrix(1.00, 0.00, -0.00, -1.00, 302.5, 142.7)"> </text><text xml:space="preserve" font-family="CourierNewPSMT,Courier New" font-size="20.0" fill="#000000" transform="matrix(1.00, 0.00, -0.00, -1.00, 314.5, 142.7)">:</text><text xml:space="preserve" font-family="CourierNewPS-BoldMT,Courier New" font-weight="bold" font-size="20.0" fill="#000000" transform="matrix(1.00, 0.00, -0.00, -1.00, 326.5, 142.7)">&lt;</text><text xml:space="preserve" font-family="CourierNewPS-BoldMT,Courier New" font-weight="bold" font-size="20.0" fill="#000000" transform="matrix(1.00, 0.00, -0.00, -1.00, 338.5, 142.7)">/</text><text xml:space="preserve" font-family="CourierNewPS-BoldMT,Courier New" font-weight="bold" font-size="20.0" fill="#000000" transform="matrix(1.00, 0.00, -0.00, -1.00, 350.5, 142.7)">l</text><text xml:space="preserve" font-family="CourierNewPS-BoldMT,Courier New" font-weight="bold" font-size="20.0" fill="#000000" transform="matrix(1.00, 0.00, -0.00, -1.00, 362.5, 142.7)">a</text><text xml:space="preserve" font-family="CourierNewPS-BoldMT,Courier New" font-weight="bold" font-size="20.0" fill="#000000" transform="matrix(1.00, 0.00, -0.00, -1.00, 374.5, 142.7)">b</text><text xml:space="preserve" font-family="CourierNewPS-BoldMT,Courier New" font-weight="bold" font-size="20.0" fill="#000000" transform="matrix(1.00, 0.00, -0.00, -1.00, 386.5, 142.7)">e</text><text xml:space="preserve" font-family="CourierNewPS-BoldMT,Courier New" font-weight="bold" font-size="20.0" fill="#000000" transform="matrix(1.00, 0.00, -0.00, -1.00, 398.5, 142.7)">l</text><text xml:space="preserve" font-family="CourierNewPS-BoldMT,Courier New" font-weight="bold" font-size="20.0" fill="#000000" transform="matrix(1.00, 0.00, -0.00, -1.00, 410.5, 142.7)">&gt;</text><text xml:space="preserve" font-family="CourierNewPSMT,Courier New" font-size="20.0" fill="#000000" transform="matrix(1.00, 0.00, -0.00, -1.00, 422.5, 142.7)"> </text><text xml:space="preserve" font-family="CourierNewPSMT,Courier New" font-size="20.0" fill="#000000" transform="matrix(1.00, 0.00, -0.00, -1.00, 2.4, 119.7)"> </text><text xml:space="preserve" font-family="CourierNewPSMT,Courier New" font-size="20.0" fill="#000000" transform="matrix(1.00, 0.00, -0.00, -1.00, 14.4, 119.7)"> </text><text xml:space="preserve" font-family="CourierNewPSMT,Courier New" font-size="20.0" fill="#000000" transform="matrix(1.00, 0.00, -0.00, -1.00, 26.4, 119.7)"> </text><text xml:space="preserve" font-family="CourierNewPSMT,Courier New" font-size="20.0" fill="#000000" transform="matrix(1.00, 0.00, -0.00, -1.00, 38.4, 119.7)"> </text><text xml:space="preserve" font-family="CourierNewPS-BoldMT,Courier New" font-weight="bold" font-size="20.0" fill="#000000" transform="matrix(1.00, 0.00, -0.00, -1.00, 50.4, 119.7)">&lt;</text><text xml:space="preserve" font-family="CourierNewPS-BoldMT,Courier New" font-weight="bold" font-size="20.0" fill="#000000" transform="matrix(1.00, 0.00, -0.00, -1.00, 62.4, 119.7)">i</text><text xml:space="preserve" font-family="CourierNewPS-BoldMT,Courier New" font-weight="bold" font-size="20.0" fill="#000000" transform="matrix(1.00, 0.00, -0.00, -1.00, 74.5, 119.7)">n</text><text xml:space="preserve" font-family="CourierNewPS-BoldMT,Courier New" font-weight="bold" font-size="20.0" fill="#000000" transform="matrix(1.00, 0.00, -0.00, -1.00, 86.5, 119.7)">p</text><text xml:space="preserve" font-family="CourierNewPS-BoldMT,Courier New" font-weight="bold" font-size="20.0" fill="#000000" transform="matrix(1.00, 0.00, -0.00, -1.00, 98.5, 119.7)">u</text><text xml:space="preserve" font-family="CourierNewPS-BoldMT,Courier New" font-weight="bold" font-size="20.0" fill="#000000" transform="matrix(1.00, 0.00, -0.00, -1.00, 110.5, 119.7)">t</text><text xml:space="preserve" font-family="CourierNewPSMT,Courier New" font-size="20.0" fill="#000000" transform="matrix(1.00, 0.00, -0.00, -1.00, 122.5, 119.7)"> </text><text xml:space="preserve" font-family="CourierNewPSMT,Courier New" font-size="20.0" fill="#006DBC" transform="matrix(1.00, 0.00, -0.00, -1.00, 134.5, 119.7)">t</text><text xml:space="preserve" font-family="CourierNewPSMT,Courier New" font-size="20.0" fill="#006DBC" transform="matrix(1.00, 0.00, -0.00, -1.00, 146.5, 119.7)">y</text><text xml:space="preserve" font-family="CourierNewPSMT,Courier New" font-size="20.0" fill="#006DBC" transform="matrix(1.00, 0.00, -0.00, -1.00, 158.5, 119.7)">p</text><text xml:space="preserve" font-family="CourierNewPSMT,Courier New" font-size="20.0" fill="#006DBC" transform="matrix(1.00, 0.00, -0.00, -1.00, 170.5, 119.7)">e</text><text xml:space="preserve" font-family="CourierNewPSMT,Courier New" font-size="20.0" fill="#000000" transform="matrix(1.00, 0.00, -0.00, -1.00, 182.5, 119.7)">=</text><text xml:space="preserve" font-family="CourierNewPSMT,Courier New" font-size="20.0" fill="#CC1C00" transform="matrix(1.00, 0.00, -0.00, -1.00, 194.5, 119.7)">"</text><text xml:space="preserve" font-family="CourierNewPSMT,Courier New" font-size="20.0" fill="#CC1C00" transform="matrix(1.00, 0.00, -0.00, -1.00, 206.5, 119.7)">t</text><text xml:space="preserve" font-family="CourierNewPSMT,Courier New" font-size="20.0" fill="#CC1C00" transform="matrix(1.00, 0.00, -0.00, -1.00, 218.5, 119.7)">e</text><text xml:space="preserve" font-family="CourierNewPSMT,Courier New" font-size="20.0" fill="#CC1C00" transform="matrix(1.00, 0.00, -0.00, -1.00, 230.5, 119.7)">x</text><text xml:space="preserve" font-family="CourierNewPSMT,Courier New" font-size="20.0" fill="#CC1C00" transform="matrix(1.00, 0.00, -0.00, -1.00, 242.5, 119.7)">t</text><text xml:space="preserve" font-family="CourierNewPSMT,Courier New" font-size="20.0" fill="#CC1C00" transform="matrix(1.00, 0.00, -0.00, -1.00, 254.5, 119.7)">"</text><text xml:space="preserve" font-family="CourierNewPSMT,Courier New" font-size="20.0" fill="#000000" transform="matrix(1.00, 0.00, -0.00, -1.00, 266.5, 119.7)"> </text><text xml:space="preserve" font-family="CourierNewPSMT,Courier New" font-size="20.0" fill="#006DBC" transform="matrix(1.00, 0.00, -0.00, -1.00, 278.5, 119.7)">n</text><text xml:space="preserve" font-family="CourierNewPSMT,Courier New" font-size="20.0" fill="#006DBC" transform="matrix(1.00, 0.00, -0.00, -1.00, 290.5, 119.7)">a</text><text xml:space="preserve" font-family="CourierNewPSMT,Courier New" font-size="20.0" fill="#006DBC" transform="matrix(1.00, 0.00, -0.00, -1.00, 302.5, 119.7)">m</text><text xml:space="preserve" font-family="CourierNewPSMT,Courier New" font-size="20.0" fill="#006DBC" transform="matrix(1.00, 0.00, -0.00, -1.00, 314.5, 119.7)">e</text><text xml:space="preserve" font-family="CourierNewPSMT,Courier New" font-size="20.0" fill="#000000" transform="matrix(1.00, 0.00, -0.00, -1.00, 326.5, 119.7)">=</text><text xml:space="preserve" font-family="CourierNewPSMT,Courier New" font-size="20.0" fill="#CC1C00" transform="matrix(1.00, 0.00, -0.00, -1.00, 338.5, 119.7)">"</text><text xml:space="preserve" font-family="CourierNewPSMT,Courier New" font-size="20.0" fill="#CC1C00" transform="matrix(1.00, 0.00, -0.00, -1.00, 350.5, 119.7)">n</text><text xml:space="preserve" font-family="CourierNewPSMT,Courier New" font-size="20.0" fill="#CC1C00" transform="matrix(1.00, 0.00, -0.00, -1.00, 362.5, 119.7)">a</text><text xml:space="preserve" font-family="CourierNewPSMT,Courier New" font-size="20.0" fill="#CC1C00" transform="matrix(1.00, 0.00, -0.00, -1.00, 374.5, 119.7)">m</text><text xml:space="preserve" font-family="CourierNewPSMT,Courier New" font-size="20.0" fill="#CC1C00" transform="matrix(1.00, 0.00, -0.00, -1.00, 386.5, 119.7)">e</text><text xml:space="preserve" font-family="CourierNewPSMT,Courier New" font-size="20.0" fill="#CC1C00" transform="matrix(1.00, 0.00, -0.00, -1.00, 398.5, 119.7)">"</text><text xml:space="preserve" font-family="CourierNewPSMT,Courier New" font-size="20.0" fill="#000000" transform="matrix(1.00, 0.00, -0.00, -1.00, 410.5, 119.7)"> </text><text xml:space="preserve" font-family="CourierNewPSMT,Courier New" font-size="20.0" fill="#006DBC" transform="matrix(1.00, 0.00, -0.00, -1.00, 422.5, 119.7)">i</text><text xml:space="preserve" font-family="CourierNewPSMT,Courier New" font-size="20.0" fill="#006DBC" transform="matrix(1.00, 0.00, -0.00, -1.00, 434.5, 119.7)">d</text><text xml:space="preserve" font-family="CourierNewPSMT,Courier New" font-size="20.0" fill="#000000" transform="matrix(1.00, 0.00, -0.00, -1.00, 446.5, 119.7)">=</text><text xml:space="preserve" font-family="CourierNewPSMT,Courier New" font-size="20.0" fill="#CC1C00" transform="matrix(1.00, 0.00, -0.00, -1.00, 458.5, 119.7)">"</text><text xml:space="preserve" font-family="CourierNewPSMT,Courier New" font-size="20.0" fill="#CC1C00" transform="matrix(1.00, 0.00, -0.00, -1.00, 470.5, 119.7)">n</text><text xml:space="preserve" font-family="CourierNewPSMT,Courier New" font-size="20.0" fill="#CC1C00" transform="matrix(1.00, 0.00, -0.00, -1.00, 482.5, 119.7)">a</text><text xml:space="preserve" font-family="CourierNewPSMT,Courier New" font-size="20.0" fill="#CC1C00" transform="matrix(1.00, 0.00, -0.00, -1.00, 494.5, 119.7)">m</text><text xml:space="preserve" font-family="CourierNewPSMT,Courier New" font-size="20.0" fill="#CC1C00" transform="matrix(1.00, 0.00, -0.00, -1.00, 506.5, 119.7)">e</text><text xml:space="preserve" font-family="CourierNewPSMT,Courier New" font-size="20.0" fill="#CC1C00" transform="matrix(1.00, 0.00, -0.00, -1.00, 518.5, 119.7)">"</text><text xml:space="preserve" font-family="CourierNewPS-BoldMT,Courier New" font-weight="bold" font-size="20.0" fill="#000000" transform="matrix(1.00, 0.00, -0.00, -1.00, 530.5, 119.7)">&gt;</text><text xml:space="preserve" font-family="CourierNewPSMT,Courier New" font-size="20.0" fill="#000000" transform="matrix(1.00, 0.00, -0.00, -1.00, 542.5, 119.7)"> </text><text xml:space="preserve" font-family="CourierNewPSMT,Courier New" font-size="20.0" fill="#000000" transform="matrix(1.00, 0.00, -0.00, -1.00, 2.4, 73.7)"> </text><text xml:space="preserve" font-family="CourierNewPSMT,Courier New" font-size="20.0" fill="#000000" transform="matrix(1.00, 0.00, -0.00, -1.00, 14.4, 73.7)"> </text><text xml:space="preserve" font-family="CourierNewPSMT,Courier New" font-size="20.0" fill="#000000" transform="matrix(1.00, 0.00, -0.00, -1.00, 26.4, 73.7)"> </text><text xml:space="preserve" font-family="CourierNewPSMT,Courier New" font-size="20.0" fill="#000000" transform="matrix(1.00, 0.00, -0.00, -1.00, 38.4, 73.7)"> </text><text xml:space="preserve" font-family="CourierNewPS-BoldMT,Courier New" font-weight="bold" font-size="20.0" fill="#000000" transform="matrix(1.00, 0.00, -0.00, -1.00, 50.4, 73.7)">&lt;</text><text xml:space="preserve" font-family="CourierNewPS-BoldMT,Courier New" font-weight="bold" font-size="20.0" fill="#000000" transform="matrix(1.00, 0.00, -0.00, -1.00, 62.4, 73.7)">i</text><text xml:space="preserve" font-family="CourierNewPS-BoldMT,Courier New" font-weight="bold" font-size="20.0" fill="#000000" transform="matrix(1.00, 0.00, -0.00, -1.00, 74.5, 73.7)">n</text><text xml:space="preserve" font-family="CourierNewPS-BoldMT,Courier New" font-weight="bold" font-size="20.0" fill="#000000" transform="matrix(1.00, 0.00, -0.00, -1.00, 86.5, 73.7)">p</text><text xml:space="preserve" font-family="CourierNewPS-BoldMT,Courier New" font-weight="bold" font-size="20.0" fill="#000000" transform="matrix(1.00, 0.00, -0.00, -1.00, 98.5, 73.7)">u</text><text xml:space="preserve" font-family="CourierNewPS-BoldMT,Courier New" font-weight="bold" font-size="20.0" fill="#000000" transform="matrix(1.00, 0.00, -0.00, -1.00, 110.5, 73.7)">t</text><text xml:space="preserve" font-family="CourierNewPSMT,Courier New" font-size="20.0" fill="#000000" transform="matrix(1.00, 0.00, -0.00, -1.00, 122.5, 73.7)"> </text><text xml:space="preserve" font-family="CourierNewPSMT,Courier New" font-size="20.0" fill="#006DBC" transform="matrix(1.00, 0.00, -0.00, -1.00, 134.5, 73.7)">t</text><text xml:space="preserve" font-family="CourierNewPSMT,Courier New" font-size="20.0" fill="#006DBC" transform="matrix(1.00, 0.00, -0.00, -1.00, 146.5, 73.7)">y</text><text xml:space="preserve" font-family="CourierNewPSMT,Courier New" font-size="20.0" fill="#006DBC" transform="matrix(1.00, 0.00, -0.00, -1.00, 158.5, 73.7)">p</text><text xml:space="preserve" font-family="CourierNewPSMT,Courier New" font-size="20.0" fill="#006DBC" transform="matrix(1.00, 0.00, -0.00, -1.00, 170.5, 73.7)">e</text><text xml:space="preserve" font-family="CourierNewPSMT,Courier New" font-size="20.0" fill="#000000" transform="matrix(1.00, 0.00, -0.00, -1.00, 182.5, 73.7)">=</text><text xml:space="preserve" font-family="CourierNewPSMT,Courier New" font-size="20.0" fill="#CC1C00" transform="matrix(1.00, 0.00, -0.00, -1.00, 194.5, 73.7)">"</text><text xml:space="preserve" font-family="CourierNewPSMT,Courier New" font-size="20.0" fill="#CC1C00" transform="matrix(1.00, 0.00, -0.00, -1.00, 206.5, 73.7)">t</text><text xml:space="preserve" font-family="CourierNewPSMT,Courier New" font-size="20.0" fill="#CC1C00" transform="matrix(1.00, 0.00, -0.00, -1.00, 218.5, 73.7)">e</text><text xml:space="preserve" font-family="CourierNewPSMT,Courier New" font-size="20.0" fill="#CC1C00" transform="matrix(1.00, 0.00, -0.00, -1.00, 230.5, 73.7)">x</text><text xml:space="preserve" font-family="CourierNewPSMT,Courier New" font-size="20.0" fill="#CC1C00" transform="matrix(1.00, 0.00, -0.00, -1.00, 242.5, 73.7)">t</text><text xml:space="preserve" font-family="CourierNewPSMT,Courier New" font-size="20.0" fill="#CC1C00" transform="matrix(1.00, 0.00, -0.00, -1.00, 254.5, 73.7)">"</text><text xml:space="preserve" font-family="CourierNewPSMT,Courier New" font-size="20.0" fill="#000000" transform="matrix(1.00, 0.00, -0.00, -1.00, 266.5, 73.7)"> </text><text xml:space="preserve" font-family="CourierNewPSMT,Courier New" font-size="20.0" fill="#006DBC" transform="matrix(1.00, 0.00, -0.00, -1.00, 278.5, 73.7)">p</text><text xml:space="preserve" font-family="CourierNewPSMT,Courier New" font-size="20.0" fill="#006DBC" transform="matrix(1.00, 0.00, -0.00, -1.00, 290.5, 73.7)">l</text><text xml:space="preserve" font-family="CourierNewPSMT,Courier New" font-size="20.0" fill="#006DBC" transform="matrix(1.00, 0.00, -0.00, -1.00, 302.5, 73.7)">a</text><text xml:space="preserve" font-family="CourierNewPSMT,Courier New" font-size="20.0" fill="#006DBC" transform="matrix(1.00, 0.00, -0.00, -1.00, 314.5, 73.7)">c</text><text xml:space="preserve" font-family="CourierNewPSMT,Courier New" font-size="20.0" fill="#006DBC" transform="matrix(1.00, 0.00, -0.00, -1.00, 326.5, 73.7)">e</text><text xml:space="preserve" font-family="CourierNewPSMT,Courier New" font-size="20.0" fill="#006DBC" transform="matrix(1.00, 0.00, -0.00, -1.00, 338.5, 73.7)">h</text><text xml:space="preserve" font-family="CourierNewPSMT,Courier New" font-size="20.0" fill="#006DBC" transform="matrix(1.00, 0.00, -0.00, -1.00, 350.5, 73.7)">o</text><text xml:space="preserve" font-family="CourierNewPSMT,Courier New" font-size="20.0" fill="#006DBC" transform="matrix(1.00, 0.00, -0.00, -1.00, 362.5, 73.7)">l</text><text xml:space="preserve" font-family="CourierNewPSMT,Courier New" font-size="20.0" fill="#006DBC" transform="matrix(1.00, 0.00, -0.00, -1.00, 374.5, 73.7)">d</text><text xml:space="preserve" font-family="CourierNewPSMT,Courier New" font-size="20.0" fill="#006DBC" transform="matrix(1.00, 0.00, -0.00, -1.00, 386.5, 73.7)">e</text><text xml:space="preserve" font-family="CourierNewPSMT,Courier New" font-size="20.0" fill="#006DBC" transform="matrix(1.00, 0.00, -0.00, -1.00, 398.5, 73.7)">r</text><text xml:space="preserve" font-family="CourierNewPSMT,Courier New" font-size="20.0" fill="#000000" transform="matrix(1.00, 0.00, -0.00, -1.00, 410.5, 73.7)">=</text><text xml:space="preserve" font-family="CourierNewPSMT,Courier New" font-size="20.0" fill="#CC1C00" transform="matrix(1.00, 0.00, -0.00, -1.00, 422.5, 73.7)">"</text><text xml:space="preserve" font-family="CourierNewPSMT,Courier New" font-size="20.0" fill="#CC1C00" transform="matrix(1.00, 0.00, -0.00, -1.00, 434.5, 73.7)">F</text><text xml:space="preserve" font-family="CourierNewPSMT,Courier New" font-size="20.0" fill="#CC1C00" transform="matrix(1.00, 0.00, -0.00, -1.00, 446.5, 73.7)">i</text><text xml:space="preserve" font-family="CourierNewPSMT,Courier New" font-size="20.0" fill="#CC1C00" transform="matrix(1.00, 0.00, -0.00, -1.00, 458.5, 73.7)">r</text><text xml:space="preserve" font-family="CourierNewPSMT,Courier New" font-size="20.0" fill="#CC1C00" transform="matrix(1.00, 0.00, -0.00, -1.00, 470.5, 73.7)">s</text><text xml:space="preserve" font-family="CourierNewPSMT,Courier New" font-size="20.0" fill="#CC1C00" transform="matrix(1.00, 0.00, -0.00, -1.00, 482.5, 73.7)">t</text><text xml:space="preserve" font-family="CourierNewPSMT,Courier New" font-size="20.0" fill="#CC1C00" transform="matrix(1.00, 0.00, -0.00, -1.00, 494.5, 73.7)"> </text><text xml:space="preserve" font-family="CourierNewPSMT,Courier New" font-size="20.0" fill="#CC1C00" transform="matrix(1.00, 0.00, -0.00, -1.00, 506.5, 73.7)">n</text><text xml:space="preserve" font-family="CourierNewPSMT,Courier New" font-size="20.0" fill="#CC1C00" transform="matrix(1.00, 0.00, -0.00, -1.00, 518.5, 73.7)">a</text><text xml:space="preserve" font-family="CourierNewPSMT,Courier New" font-size="20.0" fill="#CC1C00" transform="matrix(1.00, 0.00, -0.00, -1.00, 530.5, 73.7)">m</text><text xml:space="preserve" font-family="CourierNewPSMT,Courier New" font-size="20.0" fill="#CC1C00" transform="matrix(1.00, 0.00, -0.00, -1.00, 542.5, 73.7)">e</text><text xml:space="preserve" font-family="CourierNewPSMT,Courier New" font-size="20.0" fill="#CC1C00" transform="matrix(1.00, 0.00, -0.00, -1.00, 554.5, 73.7)">"</text><text xml:space="preserve" font-family="CourierNewPSMT,Courier New" font-size="20.0" fill="#000000" transform="matrix(1.00, 0.00, -0.00, -1.00, 566.5, 73.7)"> </text><text xml:space="preserve" font-family="CourierNewPSMT,Courier New" font-size="20.0" fill="#006DBC" transform="matrix(1.00, 0.00, -0.00, -1.00, 578.5, 73.7)">v</text><text xml:space="preserve" font-family="CourierNewPSMT,Courier New" font-size="20.0" fill="#006DBC" transform="matrix(1.00, 0.00, -0.00, -1.00, 590.5, 73.7)">a</text><text xml:space="preserve" font-family="CourierNewPSMT,Courier New" font-size="20.0" fill="#006DBC" transform="matrix(1.00, 0.00, -0.00, -1.00, 602.5, 73.7)">l</text><text xml:space="preserve" font-family="CourierNewPSMT,Courier New" font-size="20.0" fill="#006DBC" transform="matrix(1.00, 0.00, -0.00, -1.00, 614.5, 73.7)">u</text><text xml:space="preserve" font-family="CourierNewPSMT,Courier New" font-size="20.0" fill="#006DBC" transform="matrix(1.00, 0.00, -0.00, -1.00, 626.5, 73.7)">e</text><text xml:space="preserve" font-family="CourierNewPSMT,Courier New" font-size="20.0" fill="#000000" transform="matrix(1.00, 0.00, -0.00, -1.00, 638.5, 73.7)">=</text><text xml:space="preserve" font-family="CourierNewPSMT,Courier New" font-size="20.0" fill="#CC1C00" transform="matrix(1.00, 0.00, -0.00, -1.00, 650.5, 73.7)">"</text><text xml:space="preserve" font-family="CourierNewPSMT,Courier New" font-size="20.0" fill="#CC1C00" transform="matrix(1.00, 0.00, -0.00, -1.00, 662.5, 73.7)">A</text><text xml:space="preserve" font-family="CourierNewPSMT,Courier New" font-size="20.0" fill="#CC1C00" transform="matrix(1.00, 0.00, -0.00, -1.00, 674.5, 73.7)">l</text><text xml:space="preserve" font-family="CourierNewPSMT,Courier New" font-size="20.0" fill="#CC1C00" transform="matrix(1.00, 0.00, -0.00, -1.00, 686.6, 73.7)">e</text><text xml:space="preserve" font-family="CourierNewPSMT,Courier New" font-size="20.0" fill="#CC1C00" transform="matrix(1.00, 0.00, -0.00, -1.00, 698.6, 73.7)">x</text><text xml:space="preserve" font-family="CourierNewPSMT,Courier New" font-size="20.0" fill="#CC1C00" transform="matrix(1.00, 0.00, -0.00, -1.00, 710.6, 73.7)">i</text><text xml:space="preserve" font-family="CourierNewPSMT,Courier New" font-size="20.0" fill="#CC1C00" transform="matrix(1.00, 0.00, -0.00, -1.00, 722.6, 73.7)">s</text><text xml:space="preserve" font-family="CourierNewPSMT,Courier New" font-size="20.0" fill="#CC1C00" transform="matrix(1.00, 0.00, -0.00, -1.00, 734.6, 73.7)">"</text><text xml:space="preserve" font-family="CourierNewPS-BoldMT,Courier New" font-weight="bold" font-size="20.0" fill="#000000" transform="matrix(1.00, 0.00, -0.00, -1.00, 746.6, 73.7)">&gt;</text><text xml:space="preserve" font-family="CourierNewPSMT,Courier New" font-size="20.0" fill="#000000" transform="matrix(1.00, 0.00, -0.00, -1.00, 758.6, 73.7)"> </text><text xml:space="preserve" font-family="CourierNewPSMT,Courier New" font-size="20.0" fill="#000000" transform="matrix(1.00, 0.00, -0.00, -1.00, 770.6, 73.7)"> </text><text xml:space="preserve" font-family="CourierNewPSMT,Courier New" font-size="20.0" fill="#000000" transform="matrix(1.00, 0.00, -0.00, -1.00, 782.6, 73.7)"> </text><text xml:space="preserve" font-family="CourierNewPSMT,Courier New" font-size="20.0" fill="#000000" transform="matrix(1.00, 0.00, -0.00, -1.00, 2.4, 50.7)"> </text><text xml:space="preserve" font-family="CourierNewPSMT,Courier New" font-size="20.0" fill="#000000" transform="matrix(1.00, 0.00, -0.00, -1.00, 14.4, 50.7)"> </text><text xml:space="preserve" font-family="CourierNewPSMT,Courier New" font-size="20.0" fill="#000000" transform="matrix(1.00, 0.00, -0.00, -1.00, 26.4, 50.7)"> </text><text xml:space="preserve" font-family="CourierNewPSMT,Courier New" font-size="20.0" fill="#000000" transform="matrix(1.00, 0.00, -0.00, -1.00, 38.4, 50.7)"> </text><text xml:space="preserve" font-family="CourierNewPSMT,Courier New" font-size="20.0" fill="#000000" transform="matrix(1.00, 0.00, -0.00, -1.00, 50.5, 50.7)"> </text><text xml:space="preserve" font-family="CourierNewPSMT,Courier New" font-size="20.0" fill="#000000" transform="matrix(1.00, 0.00, -0.00, -1.00, 2.4, 27.7)"> </text><text xml:space="preserve" font-family="CourierNewPSMT,Courier New" font-size="20.0" fill="#000000" transform="matrix(1.00, 0.00, -0.00, -1.00, 14.4, 27.7)"> </text><text xml:space="preserve" font-family="CourierNewPSMT,Courier New" font-size="20.0" fill="#000000" transform="matrix(1.00, 0.00, -0.00, -1.00, 26.4, 27.7)"> </text><text xml:space="preserve" font-family="CourierNewPSMT,Courier New" font-size="20.0" fill="#000000" transform="matrix(1.00, 0.00, -0.00, -1.00, 38.4, 27.7)"> </text><text xml:space="preserve" font-family="CourierNewPS-BoldMT,Courier New" font-weight="bold" font-size="20.0" fill="#000000" transform="matrix(1.00, 0.00, -0.00, -1.00, 50.4, 27.7)">&lt;</text><text xml:space="preserve" font-family="CourierNewPS-BoldMT,Courier New" font-weight="bold" font-size="20.0" fill="#000000" transform="matrix(1.00, 0.00, -0.00, -1.00, 62.4, 27.7)">b</text><text xml:space="preserve" font-family="CourierNewPS-BoldMT,Courier New" font-weight="bold" font-size="20.0" fill="#000000" transform="matrix(1.00, 0.00, -0.00, -1.00, 74.5, 27.7)">u</text><text xml:space="preserve" font-family="CourierNewPS-BoldMT,Courier New" font-weight="bold" font-size="20.0" fill="#000000" transform="matrix(1.00, 0.00, -0.00, -1.00, 86.5, 27.7)">t</text><text xml:space="preserve" font-family="CourierNewPS-BoldMT,Courier New" font-weight="bold" font-size="20.0" fill="#000000" transform="matrix(1.00, 0.00, -0.00, -1.00, 98.5, 27.7)">t</text><text xml:space="preserve" font-family="CourierNewPS-BoldMT,Courier New" font-weight="bold" font-size="20.0" fill="#000000" transform="matrix(1.00, 0.00, -0.00, -1.00, 110.5, 27.7)">o</text><text xml:space="preserve" font-family="CourierNewPS-BoldMT,Courier New" font-weight="bold" font-size="20.0" fill="#000000" transform="matrix(1.00, 0.00, -0.00, -1.00, 122.5, 27.7)">n</text><text xml:space="preserve" font-family="CourierNewPSMT,Courier New" font-size="20.0" fill="#000000" transform="matrix(1.00, 0.00, -0.00, -1.00, 134.5, 27.7)"> </text><text xml:space="preserve" font-family="CourierNewPSMT,Courier New" font-size="20.0" fill="#006DBC" transform="matrix(1.00, 0.00, -0.00, -1.00, 146.5, 27.7)">t</text><text xml:space="preserve" font-family="CourierNewPSMT,Courier New" font-size="20.0" fill="#006DBC" transform="matrix(1.00, 0.00, -0.00, -1.00, 158.5, 27.7)">y</text><text xml:space="preserve" font-family="CourierNewPSMT,Courier New" font-size="20.0" fill="#006DBC" transform="matrix(1.00, 0.00, -0.00, -1.00, 170.5, 27.7)">p</text><text xml:space="preserve" font-family="CourierNewPSMT,Courier New" font-size="20.0" fill="#006DBC" transform="matrix(1.00, 0.00, -0.00, -1.00, 182.5, 27.7)">e</text><text xml:space="preserve" font-family="CourierNewPSMT,Courier New" font-size="20.0" fill="#000000" transform="matrix(1.00, 0.00, -0.00, -1.00, 194.5, 27.7)">=</text><text xml:space="preserve" font-family="CourierNewPSMT,Courier New" font-size="20.0" fill="#CC1C00" transform="matrix(1.00, 0.00, -0.00, -1.00, 206.5, 27.7)">"</text><text xml:space="preserve" font-family="CourierNewPSMT,Courier New" font-size="20.0" fill="#CC1C00" transform="matrix(1.00, 0.00, -0.00, -1.00, 218.5, 27.7)">s</text><text xml:space="preserve" font-family="CourierNewPSMT,Courier New" font-size="20.0" fill="#CC1C00" transform="matrix(1.00, 0.00, -0.00, -1.00, 230.5, 27.7)">u</text><text xml:space="preserve" font-family="CourierNewPSMT,Courier New" font-size="20.0" fill="#CC1C00" transform="matrix(1.00, 0.00, -0.00, -1.00, 242.5, 27.7)">b</text><text xml:space="preserve" font-family="CourierNewPSMT,Courier New" font-size="20.0" fill="#CC1C00" transform="matrix(1.00, 0.00, -0.00, -1.00, 254.5, 27.7)">m</text><text xml:space="preserve" font-family="CourierNewPSMT,Courier New" font-size="20.0" fill="#CC1C00" transform="matrix(1.00, 0.00, -0.00, -1.00, 266.5, 27.7)">i</text><text xml:space="preserve" font-family="CourierNewPSMT,Courier New" font-size="20.0" fill="#CC1C00" transform="matrix(1.00, 0.00, -0.00, -1.00, 278.5, 27.7)">t</text><text xml:space="preserve" font-family="CourierNewPSMT,Courier New" font-size="20.0" fill="#CC1C00" transform="matrix(1.00, 0.00, -0.00, -1.00, 290.5, 27.7)">"</text><text xml:space="preserve" font-family="CourierNewPS-BoldMT,Courier New" font-weight="bold" font-size="20.0" fill="#000000" transform="matrix(1.00, 0.00, -0.00, -1.00, 302.5, 27.7)">&gt;</text><text xml:space="preserve" font-family="CourierNewPSMT,Courier New" font-size="20.0" fill="#000000" transform="matrix(1.00, 0.00, -0.00, -1.00, 314.5, 27.7)">V</text><text xml:space="preserve" font-family="CourierNewPSMT,Courier New" font-size="20.0" fill="#000000" transform="matrix(1.00, 0.00, -0.00, -1.00, 326.5, 27.7)">a</text><text xml:space="preserve" font-family="CourierNewPSMT,Courier New" font-size="20.0" fill="#000000" transform="matrix(1.00, 0.00, -0.00, -1.00, 338.5, 27.7)">l</text><text xml:space="preserve" font-family="CourierNewPSMT,Courier New" font-size="20.0" fill="#000000" transform="matrix(1.00, 0.00, -0.00, -1.00, 350.5, 27.7)">i</text><text xml:space="preserve" font-family="CourierNewPSMT,Courier New" font-size="20.0" fill="#000000" transform="matrix(1.00, 0.00, -0.00, -1.00, 362.5, 27.7)">d</text><text xml:space="preserve" font-family="CourierNewPSMT,Courier New" font-size="20.0" fill="#000000" transform="matrix(1.00, 0.00, -0.00, -1.00, 374.5, 27.7)">e</text><text xml:space="preserve" font-family="CourierNewPSMT,Courier New" font-size="20.0" fill="#000000" transform="matrix(1.00, 0.00, -0.00, -1.00, 386.5, 27.7)">r</text><text xml:space="preserve" font-family="CourierNewPS-BoldMT,Courier New" font-weight="bold" font-size="20.0" fill="#000000" transform="matrix(1.00, 0.00, -0.00, -1.00, 398.5, 27.7)">&lt;</text><text xml:space="preserve" font-family="CourierNewPS-BoldMT,Courier New" font-weight="bold" font-size="20.0" fill="#000000" transform="matrix(1.00, 0.00, -0.00, -1.00, 410.5, 27.7)">/</text><text xml:space="preserve" font-family="CourierNewPS-BoldMT,Courier New" font-weight="bold" font-size="20.0" fill="#000000" transform="matrix(1.00, 0.00, -0.00, -1.00, 422.5, 27.7)">b</text><text xml:space="preserve" font-family="CourierNewPS-BoldMT,Courier New" font-weight="bold" font-size="20.0" fill="#000000" transform="matrix(1.00, 0.00, -0.00, -1.00, 434.5, 27.7)">u</text><text xml:space="preserve" font-family="CourierNewPS-BoldMT,Courier New" font-weight="bold" font-size="20.0" fill="#000000" transform="matrix(1.00, 0.00, -0.00, -1.00, 446.5, 27.7)">t</text><text xml:space="preserve" font-family="CourierNewPS-BoldMT,Courier New" font-weight="bold" font-size="20.0" fill="#000000" transform="matrix(1.00, 0.00, -0.00, -1.00, 458.5, 27.7)">t</text><text xml:space="preserve" font-family="CourierNewPS-BoldMT,Courier New" font-weight="bold" font-size="20.0" fill="#000000" transform="matrix(1.00, 0.00, -0.00, -1.00, 470.5, 27.7)">o</text><text xml:space="preserve" font-family="CourierNewPS-BoldMT,Courier New" font-weight="bold" font-size="20.0" fill="#000000" transform="matrix(1.00, 0.00, -0.00, -1.00, 482.5, 27.7)">n</text><text xml:space="preserve" font-family="CourierNewPS-BoldMT,Courier New" font-weight="bold" font-size="20.0" fill="#000000" transform="matrix(1.00, 0.00, -0.00, -1.00, 494.5, 27.7)">&gt;</text><text xml:space="preserve" font-family="CourierNewPSMT,Courier New" font-size="20.0" fill="#000000" transform="matrix(1.00, 0.00, -0.00, -1.00, 506.5, 27.7)"> </text><text xml:space="preserve" font-family="CourierNewPS-BoldMT,Courier New" font-weight="bold" font-size="20.0" fill="#000000" transform="matrix(1.00, 0.00, -0.00, -1.00, 2.4, 4.7)">&lt;</text><text xml:space="preserve" font-family="CourierNewPS-BoldMT,Courier New" font-weight="bold" font-size="20.0" fill="#000000" transform="matrix(1.00, 0.00, -0.00, -1.00, 14.4, 4.7)">/</text><text xml:space="preserve" font-family="CourierNewPS-BoldMT,Courier New" font-weight="bold" font-size="20.0" fill="#000000" transform="matrix(1.00, 0.00, -0.00, -1.00, 26.4, 4.7)">f</text><text xml:space="preserve" font-family="CourierNewPS-BoldMT,Courier New" font-weight="bold" font-size="20.0" fill="#000000" transform="matrix(1.00, 0.00, -0.00, -1.00, 38.4, 4.7)">o</text><text xml:space="preserve" font-family="CourierNewPS-BoldMT,Courier New" font-weight="bold" font-size="20.0" fill="#000000" transform="matrix(1.00, 0.00, -0.00, -1.00, 50.5, 4.7)">r</text><text xml:space="preserve" font-family="CourierNewPS-BoldMT,Courier New" font-weight="bold" font-size="20.0" fill="#000000" transform="matrix(1.00, 0.00, -0.00, -1.00, 62.5, 4.7)">m</text><text xml:space="preserve" font-family="CourierNewPS-BoldMT,Courier New" font-weight="bold" font-size="20.0" fill="#000000" transform="matrix(1.00, 0.00, -0.00, -1.00, 74.5, 4.7)">&gt;</text><text xml:space="preserve" font-family="CourierNewPSMT,Courier New" font-size="20.0" fill="#000000" transform="matrix(1.00, 0.00, -0.00, -1.00, 86.4, 4.7)"> </text></g></svg>