<?xml version="1.0" encoding="UTF-8" standalone="no"?><svg xmlns="http://www.w3.org/2000/svg" xmlns:xlink="http://www.w3.org/1999/xlink" clip-rule="evenodd" stroke-miterlimit="10" viewBox="0 0 798 228"><desc>SVG generated by Keynote</desc><defs></defs><g transform="matrix(1.00, 0.00, -0.00, -1.00, 0.0, 228.0)"><g><clipPath id="clip0x7faa3e155f10"><path d="M 11.6 95.5 L 137.2 95.5 L 137.2 227.1 L 11.6 227.1 Z M 11.6 95.5 "></path></clipPath><g clip-path="url(#clip0x7faa3e155f10)"><image xlink:href="12D490E25874EC31F231ACFC83487C3C.png" width="225.00" height="225.00" transform="matrix(0.47, 0.00, -0.00, -0.47, 22.0, 220.0)"></image><image xlink:href="4EC2303C98701C5B64A55DD7004A3253.png" width="125.00" height="131.00" transform="matrix(1.00, 0.00, -0.00, 1.00, 12.0, 96.0)"></image></g></g><image xlink:href="728FD118235133CF2C0D738B9E04E1FC.png" width="138.00" height="36.00" transform="matrix(1.00, 0.00, -0.00, -1.00, 5.0, 85.0)"></image><g><clipPath id="clip0x7faa3e0b6d80"><path d="M -7.2 34.1 L 155.9 34.1 L 155.9 103.9 L -7.2 103.9 Z M -7.2 34.1 "></path></clipPath><g clip-path="url(#clip0x7faa3e0b6d80)"><text xml:space="preserve" font-family="AvenirNext-MediumItalic,Avenir Next" font-style="italic" font-size="32.0" fill="#5D514B" transform="matrix(1.00, 0.00, -0.00, -1.00, 6.3, 60.7)">C</text><text xml:space="preserve" font-family="AvenirNext-MediumItalic,Avenir Next" font-style="italic" font-size="32.0" fill="#5D514B" transform="matrix(1.00, 0.00, -0.00, -1.00, 28.3, 60.7)">o</text><text xml:space="preserve" font-family="AvenirNext-MediumItalic,Avenir Next" font-style="italic" font-size="32.0" fill="#5D514B" transform="matrix(1.00, 0.00, -0.00, -1.00, 47.5, 60.7)">d</text><text xml:space="preserve" font-family="AvenirNext-MediumItalic,Avenir Next" font-style="italic" font-size="32.0" fill="#5D514B" transform="matrix(1.00, 0.00, -0.00, -1.00, 67.6, 60.7)">e</text><text xml:space="preserve" font-family="AvenirNext-MediumItalic,Avenir Next" font-style="italic" font-size="32.0" fill="#5D514B" transform="matrix(1.00, 0.00, -0.00, -1.00, 85.6, 60.7)">p</text><text xml:space="preserve" font-family="AvenirNext-MediumItalic,Avenir Next" font-style="italic" font-size="32.0" fill="#5D514B" transform="matrix(1.00, 0.00, -0.00, -1.00, 105.9, 60.7)">e</text><text xml:space="preserve" font-family="AvenirNext-MediumItalic,Avenir Next" font-style="italic" font-size="32.0" fill="#5D514B" transform="matrix(1.00, 0.00, -0.00, -1.00, 124.0, 60.7)">n</text></g></g><image xlink:href="6BE70B2782203F9353E9A605CEDE7D24.png" width="130.00" height="29.00" transform="matrix(1.00, 0.00, -0.00, -1.00, 350.0, 85.0)"></image><g><clipPath id="clip0x7faa3e0d21a0"><path d="M 339.5 34.1 L 492.3 34.1 L 492.3 103.9 L 339.5 103.9 Z M 339.5 34.1 "></path></clipPath><g clip-path="url(#clip0x7faa3e0d21a0)"><text xml:space="preserve" font-family="AvenirNext-MediumItalic,Avenir Next" font-style="italic" font-size="32.0" fill="#5D514B" transform="matrix(1.00, 0.00, -0.00, -1.00, 353.0, 60.7)">J</text><text xml:space="preserve" font-family="AvenirNext-MediumItalic,Avenir Next" font-style="italic" font-size="32.0" fill="#5D514B" transform="matrix(1.00, 0.00, -0.00, -1.00, 368.8, 60.7)">S</text><text xml:space="preserve" font-family="AvenirNext-MediumItalic,Avenir Next" font-style="italic" font-size="32.0" fill="#5D514B" transform="matrix(1.00, 0.00, -0.00, -1.00, 387.0, 60.7)">F</text><text xml:space="preserve" font-family="AvenirNext-MediumItalic,Avenir Next" font-style="italic" font-size="32.0" fill="#5D514B" transform="matrix(1.00, 0.00, -0.00, -1.00, 404.1, 60.7)">i</text><text xml:space="preserve" font-family="AvenirNext-MediumItalic,Avenir Next" font-style="italic" font-size="32.0" fill="#5D514B" transform="matrix(1.00, 0.00, -0.00, -1.00, 412.4, 60.7)">d</text><text xml:space="preserve" font-family="AvenirNext-MediumItalic,Avenir Next" font-style="italic" font-size="32.0" fill="#5D514B" transform="matrix(1.00, 0.00, -0.00, -1.00, 432.5, 60.7)">d</text><text xml:space="preserve" font-family="AvenirNext-MediumItalic,Avenir Next" font-style="italic" font-size="32.0" fill="#5D514B" transform="matrix(1.00, 0.00, -0.00, -1.00, 452.6, 60.7)">l</text><text xml:space="preserve" font-family="AvenirNext-MediumItalic,Avenir Next" font-style="italic" font-size="32.0" fill="#5D514B" transform="matrix(1.00, 0.00, -0.00, -1.00, 460.9, 60.7)">e</text></g></g><image xlink:href="B29A6CBD63C163A6A0D517BA5A515417.png" width="92.00" height="28.00" transform="matrix(1.00, 0.00, -0.00, -1.00, 687.0, 84.0)"></image><g><clipPath id="clip0x7faa3e0d6c90"><path d="M 672.2 -9.9 L 888.4 -9.9 L 888.4 103.9 L 672.2 103.9 Z M 672.2 -9.9 "></path></clipPath><g clip-path="url(#clip0x7faa3e0d6c90)"><text xml:space="preserve" font-family="AvenirNext-MediumItalic,Avenir Next" font-style="italic" font-size="32.0" fill="#5D514B" transform="matrix(1.00, 0.00, -0.00, -1.00, 689.7, 60.7)">J</text><text xml:space="preserve" font-family="AvenirNext-MediumItalic,Avenir Next" font-style="italic" font-size="32.0" fill="#5D514B" transform="matrix(1.00, 0.00, -0.00, -1.00, 705.4, 60.7)">S</text><text xml:space="preserve" font-family="AvenirNext-MediumItalic,Avenir Next" font-style="italic" font-size="32.0" fill="#5D514B" transform="matrix(1.00, 0.00, -0.00, -1.00, 723.6, 60.7)"> </text><text xml:space="preserve" font-family="AvenirNext-MediumItalic,Avenir Next" font-style="italic" font-size="32.0" fill="#5D514B" transform="matrix(1.00, 0.00, -0.00, -1.00, 731.6, 60.7)">B</text><text xml:space="preserve" font-family="AvenirNext-MediumItalic,Avenir Next" font-style="italic" font-size="32.0" fill="#5D514B" transform="matrix(1.00, 0.00, -0.00, -1.00, 751.9, 60.7)">i</text><text xml:space="preserve" font-family="AvenirNext-MediumItalic,Avenir Next" font-style="italic" font-size="32.0" fill="#5D514B" transform="matrix(1.00, 0.00, -0.00, -1.00, 760.2, 60.7)">n</text></g></g><g><clipPath id="clip0x7faa3e0daab0"><path d="M 672.2 -9.9 L 888.4 -9.9 L 888.4 103.9 L 672.2 103.9 Z M 672.2 -9.9 "></path></clipPath><g clip-path="url(#clip0x7faa3e0daab0)"><text xml:space="preserve" font-family="AvenirNext-MediumItalic,Avenir Next" font-style="italic" font-size="32.0" fill="#5D514B" transform="matrix(1.00, 0.00, -0.00, -1.00, 778.7, 60.7)"> </text></g></g><g><clipPath id="clip0x7faa3e0dbdd0"><path d="M 671.2 95.3 L 797.2 95.3 L 797.2 227.4 L 671.2 227.4 Z M 671.2 95.3 "></path></clipPath><g clip-path="url(#clip0x7faa3e0dbdd0)"><image xlink:href="C8816342F7DC2EDF4345265813CF319E.jpeg" width="204.00" height="204.00" transform="matrix(0.52, 0.00, -0.00, -0.52, 681.0, 220.0)"></image><image xlink:href="../../B5B1F96A-72AD-4A7C-9A7F-E67F565A18A2/assets/43B089DB99DCE973D270B8585B31EF7A.png" width="126.00" height="132.00" transform="matrix(1.00, 0.00, -0.00, 1.00, 671.0, 95.0)"></image></g></g><g><clipPath id="clip0x7faa3e15c880"><path d="M 353.0 95.3 L 479.0 95.3 L 479.0 227.4 L 353.0 227.4 Z M 353.0 95.3 "></path></clipPath><g clip-path="url(#clip0x7faa3e15c880)"><image xlink:href="260F8E8ED129A201479D22C2A20AA1F4.png" width="225.00" height="225.00" transform="matrix(0.47, 0.00, -0.00, -0.47, 363.0, 220.0)"></image><image xlink:href="../../B5B1F96A-72AD-4A7C-9A7F-E67F565A18A2/assets/43B089DB99DCE973D270B8585B31EF7A.png" width="126.00" height="132.00" transform="matrix(1.00, 0.00, -0.00, 1.00, 353.0, 95.0)"></image></g></g></g></svg>