<?xml version="1.0" encoding="UTF-8" standalone="no"?><svg xmlns="http://www.w3.org/2000/svg" xmlns:xlink="http://www.w3.org/1999/xlink" clip-rule="evenodd" stroke-miterlimit="10" viewBox="0 0 368 67"><desc>SVG generated by Keynote</desc><defs></defs><g transform="matrix(1.00, 0.00, -0.00, -1.00, 0.0, 67.0)"><g><clipPath id="clip0x7faa502747a0"><path d="M 177.4 25.0 L 3.6 0.4 L 0.9 19.4 L 174.7 44.0 Z M 177.4 25.0 "></path></clipPath><g clip-path="url(#clip0x7faa502747a0)"><image xlink:href="A2EB016F9A8A8D7BC7AF167B4842AE93.png" width="174.00" height="17.00" transform="matrix(-0.99, -0.14, -0.14, 1.00, 176.2, 25.8)" opacity="0.72"></image><path d="M 0.0 0.0 L 156.3 0.0 L 157.8 0.0 " fill="none" stroke="#315956" stroke-width="3.00" transform="matrix(-0.99, -0.14, -0.14, 0.99, 173.1, 36.1)"></path><path d="M 17.4 20.7 L 5.3 12.3 L 19.3 7.6 Z M 17.4 20.7 " fill="#315956"></path></g></g><image xlink:href="A07F555DACB5F7ADF615E0DE278053E8.png" width="182.00" height="30.00" transform="matrix(1.00, 0.00, -0.00, -1.00, 181.0, 54.0)"></image><g><clipPath id="clip0x7faa52052c30"><path d="M 168.6 2.6 L 375.2 2.6 L 375.2 72.4 L 168.6 72.4 Z M 168.6 2.6 "></path></clipPath><g clip-path="url(#clip0x7faa52052c30)"><text xml:space="preserve" font-family="AvenirNext-MediumItalic,Avenir Next" font-style="italic" font-size="32.0" fill="#315956" transform="matrix(1.00, 0.00, -0.00, -1.00, 182.1, 29.2)">B</text><text xml:space="preserve" font-family="AvenirNext-MediumItalic,Avenir Next" font-style="italic" font-size="32.0" fill="#315956" transform="matrix(1.00, 0.00, -0.00, -1.00, 202.4, 29.2)">a</text><text xml:space="preserve" font-family="AvenirNext-MediumItalic,Avenir Next" font-style="italic" font-size="32.0" fill="#315956" transform="matrix(1.00, 0.00, -0.00, -1.00, 219.6, 29.2)">l</text><text xml:space="preserve" font-family="AvenirNext-MediumItalic,Avenir Next" font-style="italic" font-size="32.0" fill="#315956" transform="matrix(1.00, 0.00, -0.00, -1.00, 227.9, 29.2)">i</text><text xml:space="preserve" font-family="AvenirNext-MediumItalic,Avenir Next" font-style="italic" font-size="32.0" fill="#315956" transform="matrix(1.00, 0.00, -0.00, -1.00, 236.2, 29.2)">s</text><text xml:space="preserve" font-family="AvenirNext-MediumItalic,Avenir Next" font-style="italic" font-size="32.0" fill="#315956" transform="matrix(1.00, 0.00, -0.00, -1.00, 250.4, 29.2)">e</text><text xml:space="preserve" font-family="AvenirNext-MediumItalic,Avenir Next" font-style="italic" font-size="32.0" fill="#315956" transform="matrix(1.00, 0.00, -0.00, -1.00, 268.5, 29.2)"> </text><text xml:space="preserve" font-family="AvenirNext-MediumItalic,Avenir Next" font-style="italic" font-size="32.0" fill="#315956" transform="matrix(1.00, 0.00, -0.00, -1.00, 276.5, 29.2)">H</text><text xml:space="preserve" font-family="AvenirNext-MediumItalic,Avenir Next" font-style="italic" font-size="32.0" fill="#315956" transform="matrix(1.00, 0.00, -0.00, -1.00, 299.5, 29.2)">T</text><text xml:space="preserve" font-family="AvenirNext-MediumItalic,Avenir Next" font-style="italic" font-size="32.0" fill="#315956" transform="matrix(1.00, 0.00, -0.00, -1.00, 316.6, 29.2)">M</text><text xml:space="preserve" font-family="AvenirNext-MediumItalic,Avenir Next" font-style="italic" font-size="32.0" fill="#315956" transform="matrix(1.00, 0.00, -0.00, -1.00, 345.5, 29.2)">L</text></g></g></g></svg>