<?xml version="1.0" encoding="UTF-8" standalone="no"?><svg xmlns="http://www.w3.org/2000/svg" xmlns:xlink="http://www.w3.org/1999/xlink" clip-rule="evenodd" stroke-miterlimit="10" viewBox="0 0 538 57"><desc>SVG generated by Keynote</desc><defs></defs><g transform="matrix(1.00, 0.00, -0.00, -1.00, 0.0, 57.0)"><g><clipPath id="clip0x7faa50780350"><path d="M 349.9 18.4 L 1.4 0.4 L 0.4 19.5 L 349.0 37.5 Z M 349.9 18.4 "></path></clipPath><g clip-path="url(#clip0x7faa50780350)"><image xlink:href="../../D5564EB0-DDA1-467C-B40F-239E90C59FFA/assets/197D52FDA6459CE14A92A3772E2E111D.png" width="347.00" height="17.00" transform="matrix(-1.00, -0.05, -0.05, 1.01, 348.9, 19.3)" opacity="0.72"></image><path d="M 0.0 0.0 L 329.8 0.0 L 331.3 0.0 " fill="none" stroke="#417976" stroke-width="3.00" transform="matrix(-1.00, -0.05, -0.05, 1.00, 346.5, 29.8)"></path><path d="M 16.8 19.4 L 4.0 12.1 L 17.5 6.2 Z M 16.8 19.4 " fill="#417976"></path></g></g><image xlink:href="5EC85D26D1A8DE6A74BB849931C21EF4.png" width="174.00" height="37.00" transform="matrix(1.00, 0.00, -0.00, -1.00, 361.0, 44.0)"></image><g><clipPath id="clip0x7faa50771ef0"><path d="M 348.6 -7.4 L 545.2 -7.4 L 545.2 62.4 L 348.6 62.4 Z M 348.6 -7.4 "></path></clipPath><g clip-path="url(#clip0x7faa50771ef0)"><text xml:space="preserve" font-family="AvenirNext-MediumItalic,Avenir Next" font-style="italic" font-size="32.0" fill="#315956" transform="matrix(1.00, 0.00, -0.00, -1.00, 362.1, 19.2)">B</text><text xml:space="preserve" font-family="AvenirNext-MediumItalic,Avenir Next" font-style="italic" font-size="32.0" fill="#315956" transform="matrix(1.00, 0.00, -0.00, -1.00, 382.4, 19.2)">a</text><text xml:space="preserve" font-family="AvenirNext-MediumItalic,Avenir Next" font-style="italic" font-size="32.0" fill="#315956" transform="matrix(1.00, 0.00, -0.00, -1.00, 399.6, 19.2)">l</text><text xml:space="preserve" font-family="AvenirNext-MediumItalic,Avenir Next" font-style="italic" font-size="32.0" fill="#315956" transform="matrix(1.00, 0.00, -0.00, -1.00, 407.9, 19.2)">i</text><text xml:space="preserve" font-family="AvenirNext-MediumItalic,Avenir Next" font-style="italic" font-size="32.0" fill="#315956" transform="matrix(1.00, 0.00, -0.00, -1.00, 416.2, 19.2)">s</text><text xml:space="preserve" font-family="AvenirNext-MediumItalic,Avenir Next" font-style="italic" font-size="32.0" fill="#315956" transform="matrix(1.00, 0.00, -0.00, -1.00, 430.4, 19.2)">e</text><text xml:space="preserve" font-family="AvenirNext-MediumItalic,Avenir Next" font-style="italic" font-size="32.0" fill="#315956" transform="matrix(1.00, 0.00, -0.00, -1.00, 448.5, 19.2)"> </text><text xml:space="preserve" font-family="AvenirNext-MediumItalic,Avenir Next" font-style="italic" font-size="32.0" fill="#315956" transform="matrix(1.00, 0.00, -0.00, -1.00, 456.5, 19.2)">B</text><text xml:space="preserve" font-family="AvenirNext-MediumItalic,Avenir Next" font-style="italic" font-size="32.0" fill="#315956" transform="matrix(1.00, 0.00, -0.00, -1.00, 476.7, 19.2)">o</text><text xml:space="preserve" font-family="AvenirNext-MediumItalic,Avenir Next" font-style="italic" font-size="32.0" fill="#315956" transform="matrix(1.00, 0.00, -0.00, -1.00, 495.9, 19.2)">d</text><text xml:space="preserve" font-family="AvenirNext-MediumItalic,Avenir Next" font-style="italic" font-size="32.0" fill="#315956" transform="matrix(1.00, 0.00, -0.00, -1.00, 516.0, 19.2)">y</text></g></g></g></svg>