<?xml version="1.0" encoding="UTF-8" standalone="no"?><svg xmlns="http://www.w3.org/2000/svg" xmlns:xlink="http://www.w3.org/1999/xlink" clip-rule="evenodd" stroke-miterlimit="10" viewBox="0 0 1024 768"><desc>SVG generated by Keynote</desc><defs></defs><g transform="matrix(1.00, 0.00, -0.00, -1.00, 0.0, 768.0)"><g><clipPath id="clip0x7faa503966a0"><path d="M 0.0 768.0 L 1024.0 768.0 L 1024.0 0.0 L 0.0 0.0 Z M 0.0 768.0 "></path></clipPath><g clip-path="url(#clip0x7faa503966a0)"><image xlink:href="../../9C7E9419-8A9E-4BEA-836D-D65EE0722FC0/assets/B5EE15FD4291743AF7496326DC17A466.jpeg" width="2048.00" height="1536.00" transform="matrix(0.50, 0.00, -0.00, -0.50, 0.0, 768.0)"></image></g></g><g opacity="0.45"><g><clipPath id="clip0x7faa5042d660"><path d="M 30.0 48.0 L 994.0 48.0 L 994.0 741.0 L 30.0 741.0 Z M 30.0 48.0 "></path></clipPath><g clip-path="url(#clip0x7faa5042d660)"><image xlink:href="../../9C7E9419-8A9E-4BEA-836D-D65EE0722FC0/assets/1E0376F862DA30D710D4F1E0694CAC10.png" width="1374.00" height="986.00" transform="matrix(0.70, 0.00, -0.00, -0.70, 31.0, 740.0)"></image></g></g></g><image xlink:href="../../0C575298-BAA2-4A9D-86E9-76F4E7A31B0A/assets/A7D887CAEB302A98F0D75AFAFE2FA1B7.png" width="149.00" height="39.00" transform="matrix(1.00, 0.00, -0.00, -1.00, 437.0, 701.0)"></image><text xml:space="preserve" font-family="AvenirNext-Bold,Avenir Next" font-weight="bold" font-size="48.0" fill="#3D3B38" transform="matrix(1.00, 0.00, -0.00, -1.00, 436.5, 666.6)">H</text><text xml:space="preserve" font-family="AvenirNext-Bold,Avenir Next" font-weight="bold" font-size="48.0" fill="#3D3B38" transform="matrix(1.00, 0.00, -0.00, -1.00, 477.0, 666.6)">T</text><text xml:space="preserve" font-family="AvenirNext-Bold,Avenir Next" font-weight="bold" font-size="48.0" fill="#3D3B38" transform="matrix(1.00, 0.00, -0.00, -1.00, 508.7, 666.6)">M</text><text xml:space="preserve" font-family="AvenirNext-Bold,Avenir Next" font-weight="bold" font-size="48.0" fill="#3D3B38" transform="matrix(1.00, 0.00, -0.00, -1.00, 558.4, 666.6)">L</text><image xlink:href="../../0C575298-BAA2-4A9D-86E9-76F4E7A31B0A/assets/C6F1576CC7BDA490651F882E230B23BA.png" width="15.00" height="15.00" transform="matrix(1.00, 0.00, -0.00, -1.00, 74.0, 454.0)"></image><text xml:space="preserve" font-family="AvenirNext-Medium,Avenir Next" font-size="27.0" fill="#5D514B" transform="matrix(1.00, 0.00, -0.00, -1.00, 75.0, 438.9)">•</text><image xlink:href="../../0C575298-BAA2-4A9D-86E9-76F4E7A31B0A/assets/DF726605F9EE9D76390E4455425B4140.png" width="473.00" height="41.00" transform="matrix(1.00, 0.00, -0.00, -1.00, 111.0, 466.0)"></image><text xml:space="preserve" font-family="AvenirNext-Medium,Avenir Next" font-size="36.0" fill="#5D514B" transform="matrix(1.00, 0.00, -0.00, -1.00, 110.0, 438.2)">H</text><text xml:space="preserve" font-family="AvenirNext-Medium,Avenir Next" font-size="36.0" fill="#5D514B" transform="matrix(1.00, 0.00, -0.00, -1.00, 136.2, 438.2)">y</text><text xml:space="preserve" font-family="AvenirNext-Medium,Avenir Next" font-size="36.0" fill="#5D514B" transform="matrix(1.00, 0.00, -0.00, -1.00, 154.4, 438.2)">p</text><text xml:space="preserve" font-family="AvenirNext-Medium,Avenir Next" font-size="36.0" fill="#5D514B" transform="matrix(1.00, 0.00, -0.00, -1.00, 177.2, 438.2)">e</text><text xml:space="preserve" font-family="AvenirNext-Medium,Avenir Next" font-size="36.0" fill="#5D514B" transform="matrix(1.00, 0.00, -0.00, -1.00, 197.8, 438.2)">r</text><text xml:space="preserve" font-family="AvenirNext-Medium,Avenir Next" font-size="36.0" fill="#5D514B" transform="matrix(1.00, 0.00, -0.00, -1.00, 210.4, 438.2)">t</text><text xml:space="preserve" font-family="AvenirNext-Medium,Avenir Next" font-size="36.0" fill="#5D514B" transform="matrix(1.00, 0.00, -0.00, -1.00, 222.3, 438.2)">e</text><text xml:space="preserve" font-family="AvenirNext-Medium,Avenir Next" font-size="36.0" fill="#5D514B" transform="matrix(1.00, 0.00, -0.00, -1.00, 242.6, 438.2)">x</text><text xml:space="preserve" font-family="AvenirNext-Medium,Avenir Next" font-size="36.0" fill="#5D514B" transform="matrix(1.00, 0.00, -0.00, -1.00, 260.9, 438.2)">t</text><text xml:space="preserve" font-family="AvenirNext-Medium,Avenir Next" font-size="36.0" fill="#5D514B" transform="matrix(1.00, 0.00, -0.00, -1.00, 272.8, 438.2)"> </text><text xml:space="preserve" font-family="AvenirNext-Medium,Avenir Next" font-size="36.0" fill="#5D514B" transform="matrix(1.00, 0.00, -0.00, -1.00, 281.8, 438.2)">M</text><text xml:space="preserve" font-family="AvenirNext-Medium,Avenir Next" font-size="36.0" fill="#5D514B" transform="matrix(1.00, 0.00, -0.00, -1.00, 314.3, 438.2)">a</text><text xml:space="preserve" font-family="AvenirNext-Medium,Avenir Next" font-size="36.0" fill="#5D514B" transform="matrix(1.00, 0.00, -0.00, -1.00, 333.8, 438.2)">r</text><text xml:space="preserve" font-family="AvenirNext-Medium,Avenir Next" font-size="36.0" fill="#5D514B" transform="matrix(1.00, 0.00, -0.00, -1.00, 346.8, 438.2)">k</text><text xml:space="preserve" font-family="AvenirNext-Medium,Avenir Next" font-size="36.0" fill="#5D514B" transform="matrix(1.00, 0.00, -0.00, -1.00, 365.4, 438.2)">u</text><text xml:space="preserve" font-family="AvenirNext-Medium,Avenir Next" font-size="36.0" fill="#5D514B" transform="matrix(1.00, 0.00, -0.00, -1.00, 386.3, 438.2)">p</text><text xml:space="preserve" font-family="AvenirNext-Medium,Avenir Next" font-size="36.0" fill="#5D514B" transform="matrix(1.00, 0.00, -0.00, -1.00, 409.2, 438.2)"> </text><text xml:space="preserve" font-family="AvenirNext-Medium,Avenir Next" font-size="36.0" fill="#5D514B" transform="matrix(1.00, 0.00, -0.00, -1.00, 418.2, 438.2)">L</text><text xml:space="preserve" font-family="AvenirNext-Medium,Avenir Next" font-size="36.0" fill="#5D514B" transform="matrix(1.00, 0.00, -0.00, -1.00, 436.6, 438.2)">a</text><text xml:space="preserve" font-family="AvenirNext-Medium,Avenir Next" font-size="36.0" fill="#5D514B" transform="matrix(1.00, 0.00, -0.00, -1.00, 456.1, 438.2)">n</text><text xml:space="preserve" font-family="AvenirNext-Medium,Avenir Next" font-size="36.0" fill="#5D514B" transform="matrix(1.00, 0.00, -0.00, -1.00, 477.0, 438.2)">g</text><text xml:space="preserve" font-family="AvenirNext-Medium,Avenir Next" font-size="36.0" fill="#5D514B" transform="matrix(1.00, 0.00, -0.00, -1.00, 499.8, 438.2)">u</text><text xml:space="preserve" font-family="AvenirNext-Medium,Avenir Next" font-size="36.0" fill="#5D514B" transform="matrix(1.00, 0.00, -0.00, -1.00, 520.7, 438.2)">a</text><text xml:space="preserve" font-family="AvenirNext-Medium,Avenir Next" font-size="36.0" fill="#5D514B" transform="matrix(1.00, 0.00, -0.00, -1.00, 540.2, 438.2)">g</text><text xml:space="preserve" font-family="AvenirNext-Medium,Avenir Next" font-size="36.0" fill="#5D514B" transform="matrix(1.00, 0.00, -0.00, -1.00, 563.0, 438.2)">e</text><text xml:space="preserve" font-family="AvenirNext-Medium,Avenir Next" font-size="36.0" fill="#5D514B" transform="matrix(1.00, 0.00, -0.00, -1.00, 583.6, 438.2)"> </text><image xlink:href="../../0C575298-BAA2-4A9D-86E9-76F4E7A31B0A/assets/C6F1576CC7BDA490651F882E230B23BA.png" width="15.00" height="15.00" transform="matrix(1.00, 0.00, -0.00, -1.00, 74.0, 373.0)"></image><text xml:space="preserve" font-family="AvenirNext-Medium,Avenir Next" font-size="27.0" fill="#5D514B" transform="matrix(1.00, 0.00, -0.00, -1.00, 75.0, 357.9)">•</text><image xlink:href="../../0C575298-BAA2-4A9D-86E9-76F4E7A31B0A/assets/5D9B14F43EAB637DF7E62060BC25DF85.png" width="626.00" height="38.00" transform="matrix(1.00, 0.00, -0.00, -1.00, 109.0, 385.0)"></image><text xml:space="preserve" font-family="AvenirNext-Medium,Avenir Next" font-size="36.0" fill="#5D514B" transform="matrix(1.00, 0.00, -0.00, -1.00, 110.0, 357.2)">S</text><text xml:space="preserve" font-family="AvenirNext-Medium,Avenir Next" font-size="36.0" fill="#5D514B" transform="matrix(1.00, 0.00, -0.00, -1.00, 130.3, 357.2)">t</text><text xml:space="preserve" font-family="AvenirNext-Medium,Avenir Next" font-size="36.0" fill="#5D514B" transform="matrix(1.00, 0.00, -0.00, -1.00, 142.1, 357.2)">a</text><text xml:space="preserve" font-family="AvenirNext-Medium,Avenir Next" font-size="36.0" fill="#5D514B" transform="matrix(1.00, 0.00, -0.00, -1.00, 161.6, 357.2)">n</text><text xml:space="preserve" font-family="AvenirNext-Medium,Avenir Next" font-size="36.0" fill="#5D514B" transform="matrix(1.00, 0.00, -0.00, -1.00, 182.6, 357.2)">d</text><text xml:space="preserve" font-family="AvenirNext-Medium,Avenir Next" font-size="36.0" fill="#5D514B" transform="matrix(1.00, 0.00, -0.00, -1.00, 205.4, 357.2)">a</text><text xml:space="preserve" font-family="AvenirNext-Medium,Avenir Next" font-size="36.0" fill="#5D514B" transform="matrix(1.00, 0.00, -0.00, -1.00, 224.9, 357.2)">r</text><text xml:space="preserve" font-family="AvenirNext-Medium,Avenir Next" font-size="36.0" fill="#5D514B" transform="matrix(1.00, 0.00, -0.00, -1.00, 237.3, 357.2)">d</text><text xml:space="preserve" font-family="AvenirNext-Medium,Avenir Next" font-size="36.0" fill="#5D514B" transform="matrix(1.00, 0.00, -0.00, -1.00, 260.2, 357.2)">s</text><text xml:space="preserve" font-family="AvenirNext-Medium,Avenir Next" font-size="36.0" fill="#5D514B" transform="matrix(1.00, 0.00, -0.00, -1.00, 276.2, 357.2)"> </text><text xml:space="preserve" font-family="AvenirNext-Medium,Avenir Next" font-size="36.0" fill="#5D514B" transform="matrix(1.00, 0.00, -0.00, -1.00, 284.7, 357.2)">W</text><text xml:space="preserve" font-family="AvenirNext-Medium,Avenir Next" font-size="36.0" fill="#5D514B" transform="matrix(1.00, 0.00, -0.00, -1.00, 320.3, 357.2)">3</text><text xml:space="preserve" font-family="AvenirNext-Medium,Avenir Next" font-size="36.0" fill="#5D514B" transform="matrix(1.00, 0.00, -0.00, -1.00, 341.7, 357.2)">C</text><text xml:space="preserve" font-family="AvenirNext-Medium,Avenir Next" font-size="36.0" fill="#5D514B" transform="matrix(1.00, 0.00, -0.00, -1.00, 367.2, 357.2)"> </text><text xml:space="preserve" font-family="AvenirNext-Medium,Avenir Next" font-size="36.0" fill="#5D514B" transform="matrix(1.00, 0.00, -0.00, -1.00, 376.2, 357.2)">(</text><text xml:space="preserve" font-family="AvenirNext-Medium,Avenir Next" font-size="36.0" fill="#5D514B" transform="matrix(1.00, 0.00, -0.00, -1.00, 387.6, 357.2)">H</text><text xml:space="preserve" font-family="AvenirNext-Medium,Avenir Next" font-size="36.0" fill="#5D514B" transform="matrix(1.00, 0.00, -0.00, -1.00, 413.8, 357.2)">T</text><text xml:space="preserve" font-family="AvenirNext-Medium,Avenir Next" font-size="36.0" fill="#5D514B" transform="matrix(1.00, 0.00, -0.00, -1.00, 434.3, 357.2)">M</text><text xml:space="preserve" font-family="AvenirNext-Medium,Avenir Next" font-size="36.0" fill="#5D514B" transform="matrix(1.00, 0.00, -0.00, -1.00, 466.8, 357.2)">L</text><text xml:space="preserve" font-family="AvenirNext-Medium,Avenir Next" font-size="36.0" fill="#5D514B" transform="matrix(1.00, 0.00, -0.00, -1.00, 485.2, 357.2)">5</text><text xml:space="preserve" font-family="AvenirNext-Medium,Avenir Next" font-size="36.0" fill="#5D514B" transform="matrix(1.00, 0.00, -0.00, -1.00, 506.6, 357.2)"> </text><text xml:space="preserve" font-family="AvenirNext-Medium,Avenir Next" font-size="36.0" fill="#5D514B" transform="matrix(1.00, 0.00, -0.00, -1.00, 515.6, 357.2)">&amp;</text><text xml:space="preserve" font-family="AvenirNext-Medium,Avenir Next" font-size="36.0" fill="#5D514B" transform="matrix(1.00, 0.00, -0.00, -1.00, 541.6, 357.2)"> </text><text xml:space="preserve" font-family="AvenirNext-Medium,Avenir Next" font-size="36.0" fill="#5D514B" transform="matrix(1.00, 0.00, -0.00, -1.00, 550.6, 357.2)">H</text><text xml:space="preserve" font-family="AvenirNext-Medium,Avenir Next" font-size="36.0" fill="#5D514B" transform="matrix(1.00, 0.00, -0.00, -1.00, 576.9, 357.2)">T</text><text xml:space="preserve" font-family="AvenirNext-Medium,Avenir Next" font-size="36.0" fill="#5D514B" transform="matrix(1.00, 0.00, -0.00, -1.00, 597.4, 357.2)">M</text><text xml:space="preserve" font-family="AvenirNext-Medium,Avenir Next" font-size="36.0" fill="#5D514B" transform="matrix(1.00, 0.00, -0.00, -1.00, 629.9, 357.2)">L</text><text xml:space="preserve" font-family="AvenirNext-Medium,Avenir Next" font-size="36.0" fill="#5D514B" transform="matrix(1.00, 0.00, -0.00, -1.00, 648.3, 357.2)">4</text><text xml:space="preserve" font-family="AvenirNext-Medium,Avenir Next" font-size="36.0" fill="#5D514B" transform="matrix(1.00, 0.00, -0.00, -1.00, 669.7, 357.2)">.</text><text xml:space="preserve" font-family="AvenirNext-Medium,Avenir Next" font-size="36.0" fill="#5D514B" transform="matrix(1.00, 0.00, -0.00, -1.00, 679.1, 357.2)">0</text><text xml:space="preserve" font-family="AvenirNext-Medium,Avenir Next" font-size="36.0" fill="#5D514B" transform="matrix(1.00, 0.00, -0.00, -1.00, 700.5, 357.2)">1</text><text xml:space="preserve" font-family="AvenirNext-Medium,Avenir Next" font-size="36.0" fill="#5D514B" transform="matrix(1.00, 0.00, -0.00, -1.00, 721.9, 357.2)">)</text><text xml:space="preserve" font-family="AvenirNext-Medium,Avenir Next" font-size="36.0" fill="#5D514B" transform="matrix(1.00, 0.00, -0.00, -1.00, 733.2, 357.2)"> </text><text xml:space="preserve" font-family="AvenirNext-Medium,Avenir Next" font-size="36.0" fill="#5D514B" transform="matrix(1.00, 0.00, -0.00, -1.00, 742.2, 357.2)"> </text><image xlink:href="../../0C575298-BAA2-4A9D-86E9-76F4E7A31B0A/assets/C6F1576CC7BDA490651F882E230B23BA.png" width="15.00" height="15.00" transform="matrix(1.00, 0.00, -0.00, -1.00, 74.0, 292.0)"></image><text xml:space="preserve" font-family="AvenirNext-Medium,Avenir Next" font-size="27.0" fill="#5D514B" transform="matrix(1.00, 0.00, -0.00, -1.00, 75.0, 276.9)">•</text><image xlink:href="../../0C575298-BAA2-4A9D-86E9-76F4E7A31B0A/assets/A017D688841FD086F978A16A18CBB3E8.png" width="248.00" height="32.00" transform="matrix(1.00, 0.00, -0.00, -1.00, 111.0, 303.0)"></image><text xml:space="preserve" font-family="AvenirNext-Medium,Avenir Next" font-size="36.0" fill="#5D514B" transform="matrix(1.00, 0.00, -0.00, -1.00, 110.0, 276.2)">B</text><text xml:space="preserve" font-family="AvenirNext-Medium,Avenir Next" font-size="36.0" fill="#5D514B" transform="matrix(1.00, 0.00, -0.00, -1.00, 133.1, 276.2)">a</text><text xml:space="preserve" font-family="AvenirNext-Medium,Avenir Next" font-size="36.0" fill="#5D514B" transform="matrix(1.00, 0.00, -0.00, -1.00, 152.6, 276.2)">s</text><text xml:space="preserve" font-family="AvenirNext-Medium,Avenir Next" font-size="36.0" fill="#5D514B" transform="matrix(1.00, 0.00, -0.00, -1.00, 168.6, 276.2)">é</text><text xml:space="preserve" font-family="AvenirNext-Medium,Avenir Next" font-size="36.0" fill="#5D514B" transform="matrix(1.00, 0.00, -0.00, -1.00, 189.2, 276.2)"> </text><text xml:space="preserve" font-family="AvenirNext-Medium,Avenir Next" font-size="36.0" fill="#5D514B" transform="matrix(1.00, 0.00, -0.00, -1.00, 198.2, 276.2)">s</text><text xml:space="preserve" font-family="AvenirNext-Medium,Avenir Next" font-size="36.0" fill="#5D514B" transform="matrix(1.00, 0.00, -0.00, -1.00, 214.2, 276.2)">u</text><text xml:space="preserve" font-family="AvenirNext-Medium,Avenir Next" font-size="36.0" fill="#5D514B" transform="matrix(1.00, 0.00, -0.00, -1.00, 235.2, 276.2)">r</text><text xml:space="preserve" font-family="AvenirNext-Medium,Avenir Next" font-size="36.0" fill="#5D514B" transform="matrix(1.00, 0.00, -0.00, -1.00, 248.2, 276.2)"> </text><text xml:space="preserve" font-family="AvenirNext-Medium,Avenir Next" font-size="36.0" fill="#5D514B" transform="matrix(1.00, 0.00, -0.00, -1.00, 257.2, 276.2)">S</text><text xml:space="preserve" font-family="AvenirNext-Medium,Avenir Next" font-size="36.0" fill="#5D514B" transform="matrix(1.00, 0.00, -0.00, -1.00, 277.7, 276.2)">G</text><text xml:space="preserve" font-family="AvenirNext-Medium,Avenir Next" font-size="36.0" fill="#5D514B" transform="matrix(1.00, 0.00, -0.00, -1.00, 305.7, 276.2)">M</text><text xml:space="preserve" font-family="AvenirNext-Medium,Avenir Next" font-size="36.0" fill="#5D514B" transform="matrix(1.00, 0.00, -0.00, -1.00, 338.2, 276.2)">L</text><text xml:space="preserve" font-family="AvenirNext-Medium,Avenir Next" font-size="36.0" fill="#5D514B" transform="matrix(1.00, 0.00, -0.00, -1.00, 355.7, 276.2)"> </text><image xlink:href="../../0C575298-BAA2-4A9D-86E9-76F4E7A31B0A/assets/C6F1576CC7BDA490651F882E230B23BA.png" width="15.00" height="15.00" transform="matrix(1.00, 0.00, -0.00, -1.00, 74.0, 211.0)"></image><text xml:space="preserve" font-family="AvenirNext-Medium,Avenir Next" font-size="27.0" fill="#5D514B" transform="matrix(1.00, 0.00, -0.00, -1.00, 75.0, 195.9)">•</text><image xlink:href="../../0C575298-BAA2-4A9D-86E9-76F4E7A31B0A/assets/7088A24555CEBE2C087373405B1EB8D9.png" width="323.00" height="38.00" transform="matrix(1.00, 0.00, -0.00, -1.00, 108.0, 223.0)"></image><text xml:space="preserve" font-family="AvenirNext-Medium,Avenir Next" font-size="36.0" fill="#5D514B" transform="matrix(1.00, 0.00, -0.00, -1.00, 110.0, 195.2)">A</text><text xml:space="preserve" font-family="AvenirNext-Medium,Avenir Next" font-size="36.0" fill="#5D514B" transform="matrix(1.00, 0.00, -0.00, -1.00, 135.6, 195.2)">r</text><text xml:space="preserve" font-family="AvenirNext-Medium,Avenir Next" font-size="36.0" fill="#5D514B" transform="matrix(1.00, 0.00, -0.00, -1.00, 148.6, 195.2)">r</text><text xml:space="preserve" font-family="AvenirNext-Medium,Avenir Next" font-size="36.0" fill="#5D514B" transform="matrix(1.00, 0.00, -0.00, -1.00, 161.7, 195.2)">i</text><text xml:space="preserve" font-family="AvenirNext-Medium,Avenir Next" font-size="36.0" fill="#5D514B" transform="matrix(1.00, 0.00, -0.00, -1.00, 171.0, 195.2)">v</text><text xml:space="preserve" font-family="AvenirNext-Medium,Avenir Next" font-size="36.0" fill="#5D514B" transform="matrix(1.00, 0.00, -0.00, -1.00, 189.1, 195.2)">é</text><text xml:space="preserve" font-family="AvenirNext-Medium,Avenir Next" font-size="36.0" fill="#5D514B" transform="matrix(1.00, 0.00, -0.00, -1.00, 209.8, 195.2)">e</text><text xml:space="preserve" font-family="AvenirNext-Medium,Avenir Next" font-size="36.0" fill="#5D514B" transform="matrix(1.00, 0.00, -0.00, -1.00, 230.4, 195.2)"> </text><text xml:space="preserve" font-family="AvenirNext-Medium,Avenir Next" font-size="36.0" fill="#5D514B" transform="matrix(1.00, 0.00, -0.00, -1.00, 239.4, 195.2)">d</text><text xml:space="preserve" font-family="AvenirNext-Medium,Avenir Next" font-size="36.0" fill="#5D514B" transform="matrix(1.00, 0.00, -0.00, -1.00, 262.2, 195.2)">e</text><text xml:space="preserve" font-family="AvenirNext-Medium,Avenir Next" font-size="36.0" fill="#5D514B" transform="matrix(1.00, 0.00, -0.00, -1.00, 282.9, 195.2)"> </text><text xml:space="preserve" font-family="AvenirNext-Medium,Avenir Next" font-size="36.0" fill="#5D514B" transform="matrix(1.00, 0.00, -0.00, -1.00, 291.9, 195.2)">H</text><text xml:space="preserve" font-family="AvenirNext-Medium,Avenir Next" font-size="36.0" fill="#5D514B" transform="matrix(1.00, 0.00, -0.00, -1.00, 318.1, 195.2)">T</text><text xml:space="preserve" font-family="AvenirNext-Medium,Avenir Next" font-size="36.0" fill="#5D514B" transform="matrix(1.00, 0.00, -0.00, -1.00, 338.6, 195.2)">M</text><text xml:space="preserve" font-family="AvenirNext-Medium,Avenir Next" font-size="36.0" fill="#5D514B" transform="matrix(1.00, 0.00, -0.00, -1.00, 371.1, 195.2)">L</text><text xml:space="preserve" font-family="AvenirNext-Medium,Avenir Next" font-size="36.0" fill="#5D514B" transform="matrix(1.00, 0.00, -0.00, -1.00, 389.5, 195.2)">5</text><text xml:space="preserve" font-family="AvenirNext-Medium,Avenir Next" font-size="36.0" fill="#5D514B" transform="matrix(1.00, 0.00, -0.00, -1.00, 410.9, 195.2)"> </text><text xml:space="preserve" font-family="AvenirNext-Medium,Avenir Next" font-size="36.0" fill="#5D514B" transform="matrix(1.00, 0.00, -0.00, -1.00, 419.9, 195.2)">(</text><image xlink:href="../../0C575298-BAA2-4A9D-86E9-76F4E7A31B0A/assets/7C8B98483D69A866D34F1D68F626328D.png" width="163.00" height="41.00" transform="matrix(1.00, 0.00, -0.00, -1.00, 429.0, 223.0)"></image><text xml:space="preserve" font-family="AvenirNext-Medium,Avenir Next" font-size="36.0" fill="#5D514B" transform="matrix(1.00, 0.00, -0.00, -1.00, 431.3, 195.2)">w</text><text xml:space="preserve" font-family="AvenirNext-Medium,Avenir Next" font-size="36.0" fill="#5D514B" transform="matrix(1.00, 0.00, -0.00, -1.00, 459.1, 195.2)">i</text><text xml:space="preserve" font-family="AvenirNext-Medium,Avenir Next" font-size="36.0" fill="#5D514B" transform="matrix(1.00, 0.00, -0.00, -1.00, 468.4, 195.2)">k</text><text xml:space="preserve" font-family="AvenirNext-Medium,Avenir Next" font-size="36.0" fill="#5D514B" transform="matrix(1.00, 0.00, -0.00, -1.00, 487.4, 195.2)">i</text><text xml:space="preserve" font-family="AvenirNext-Medium,Avenir Next" font-size="36.0" fill="#5D514B" transform="matrix(1.00, 0.00, -0.00, -1.00, 496.7, 195.2)">p</text><text xml:space="preserve" font-family="AvenirNext-Medium,Avenir Next" font-size="36.0" fill="#5D514B" transform="matrix(1.00, 0.00, -0.00, -1.00, 519.5, 195.2)">e</text><text xml:space="preserve" font-family="AvenirNext-Medium,Avenir Next" font-size="36.0" fill="#5D514B" transform="matrix(1.00, 0.00, -0.00, -1.00, 540.2, 195.2)">d</text><text xml:space="preserve" font-family="AvenirNext-Medium,Avenir Next" font-size="36.0" fill="#5D514B" transform="matrix(1.00, 0.00, -0.00, -1.00, 563.0, 195.2)">i</text><text xml:space="preserve" font-family="AvenirNext-Medium,Avenir Next" font-size="36.0" fill="#5D514B" transform="matrix(1.00, 0.00, -0.00, -1.00, 572.3, 195.2)">a</text><image xlink:href="../../0C575298-BAA2-4A9D-86E9-76F4E7A31B0A/assets/D9AFACE8D2632C063F23C5E2BEB5A040.png" width="12.00" height="37.00" transform="matrix(1.00, 0.00, -0.00, -1.00, 592.0, 222.0)"></image><text xml:space="preserve" font-family="AvenirNext-Medium,Avenir Next" font-size="36.0" fill="#5D514B" transform="matrix(1.00, 0.00, -0.00, -1.00, 591.9, 195.2)">)</text><g><clipPath id="clip0x7faa50451450"><path d="M 430.3 190.6 L 591.9 190.6 L 591.9 194.4 L 430.3 194.4 Z M 430.3 190.6 "></path></clipPath><g clip-path="url(#clip0x7faa50451450)"><path d="M 360.3 370.5 L 520.9 370.5 " fill="none" stroke="#5D514B" stroke-width="1.80" transform="matrix(1.00, 0.00, 0.00, -1.00, 71.0, 563.0)"></path></g></g></g></svg>