<?xml version="1.0" encoding="UTF-8" standalone="no"?><svg xmlns="http://www.w3.org/2000/svg" xmlns:xlink="http://www.w3.org/1999/xlink" clip-rule="evenodd" stroke-miterlimit="10" viewBox="0 0 557 158"><desc>SVG generated by Keynote</desc><defs></defs><g transform="matrix(1.00, 0.00, -0.00, -1.00, 0.0, 158.0)"><text xml:space="preserve" font-family="CourierNewPS-BoldMT,Courier New" font-weight="bold" font-size="20.0" fill="#000000" transform="matrix(1.00, 0.00, -0.00, -1.00, 2.5, 142.8)">&lt;</text><text xml:space="preserve" font-family="CourierNewPS-BoldMT,Courier New" font-weight="bold" font-size="20.0" fill="#000000" transform="matrix(1.00, 0.00, -0.00, -1.00, 14.5, 142.8)">f</text><text xml:space="preserve" font-family="CourierNewPS-BoldMT,Courier New" font-weight="bold" font-size="20.0" fill="#000000" transform="matrix(1.00, 0.00, -0.00, -1.00, 26.5, 142.8)">o</text><text xml:space="preserve" font-family="CourierNewPS-BoldMT,Courier New" font-weight="bold" font-size="20.0" fill="#000000" transform="matrix(1.00, 0.00, -0.00, -1.00, 38.5, 142.8)">r</text><text xml:space="preserve" font-family="CourierNewPS-BoldMT,Courier New" font-weight="bold" font-size="20.0" fill="#000000" transform="matrix(1.00, 0.00, -0.00, -1.00, 50.5, 142.8)">m</text><text xml:space="preserve" font-family="CourierNewPSMT,Courier New" font-size="20.0" fill="#000000" transform="matrix(1.00, 0.00, -0.00, -1.00, 62.5, 142.8)"> </text><text xml:space="preserve" font-family="CourierNewPSMT,Courier New" font-size="20.0" fill="#006DBC" transform="matrix(1.00, 0.00, -0.00, -1.00, 74.5, 142.8)">a</text><text xml:space="preserve" font-family="CourierNewPSMT,Courier New" font-size="20.0" fill="#006DBC" transform="matrix(1.00, 0.00, -0.00, -1.00, 86.5, 142.8)">c</text><text xml:space="preserve" font-family="CourierNewPSMT,Courier New" font-size="20.0" fill="#006DBC" transform="matrix(1.00, 0.00, -0.00, -1.00, 98.5, 142.8)">t</text><text xml:space="preserve" font-family="CourierNewPSMT,Courier New" font-size="20.0" fill="#006DBC" transform="matrix(1.00, 0.00, -0.00, -1.00, 110.5, 142.8)">i</text><text xml:space="preserve" font-family="CourierNewPSMT,Courier New" font-size="20.0" fill="#006DBC" transform="matrix(1.00, 0.00, -0.00, -1.00, 122.5, 142.8)">o</text><text xml:space="preserve" font-family="CourierNewPSMT,Courier New" font-size="20.0" fill="#006DBC" transform="matrix(1.00, 0.00, -0.00, -1.00, 134.5, 142.8)">n</text><text xml:space="preserve" font-family="CourierNewPSMT,Courier New" font-size="20.0" fill="#000000" transform="matrix(1.00, 0.00, -0.00, -1.00, 146.5, 142.8)">=</text><text xml:space="preserve" font-family="CourierNewPSMT,Courier New" font-size="20.0" fill="#CC1C00" transform="matrix(1.00, 0.00, -0.00, -1.00, 158.5, 142.8)">"</text><text xml:space="preserve" font-family="CourierNewPSMT,Courier New" font-size="20.0" fill="#CC1C00" transform="matrix(1.00, 0.00, -0.00, -1.00, 170.5, 142.8)">#</text><text xml:space="preserve" font-family="CourierNewPSMT,Courier New" font-size="20.0" fill="#CC1C00" transform="matrix(1.00, 0.00, -0.00, -1.00, 182.5, 142.8)">"</text><text xml:space="preserve" font-family="CourierNewPSMT,Courier New" font-size="20.0" fill="#000000" transform="matrix(1.00, 0.00, -0.00, -1.00, 194.5, 142.8)"> </text><text xml:space="preserve" font-family="CourierNewPSMT,Courier New" font-size="20.0" fill="#006DBC" transform="matrix(1.00, 0.00, -0.00, -1.00, 206.5, 142.8)">m</text><text xml:space="preserve" font-family="CourierNewPSMT,Courier New" font-size="20.0" fill="#006DBC" transform="matrix(1.00, 0.00, -0.00, -1.00, 218.5, 142.8)">e</text><text xml:space="preserve" font-family="CourierNewPSMT,Courier New" font-size="20.0" fill="#006DBC" transform="matrix(1.00, 0.00, -0.00, -1.00, 230.5, 142.8)">t</text><text xml:space="preserve" font-family="CourierNewPSMT,Courier New" font-size="20.0" fill="#006DBC" transform="matrix(1.00, 0.00, -0.00, -1.00, 242.5, 142.8)">h</text><text xml:space="preserve" font-family="CourierNewPSMT,Courier New" font-size="20.0" fill="#006DBC" transform="matrix(1.00, 0.00, -0.00, -1.00, 254.5, 142.8)">o</text><text xml:space="preserve" font-family="CourierNewPSMT,Courier New" font-size="20.0" fill="#006DBC" transform="matrix(1.00, 0.00, -0.00, -1.00, 266.5, 142.8)">d</text><text xml:space="preserve" font-family="CourierNewPSMT,Courier New" font-size="20.0" fill="#000000" transform="matrix(1.00, 0.00, -0.00, -1.00, 278.5, 142.8)">=</text><text xml:space="preserve" font-family="CourierNewPSMT,Courier New" font-size="20.0" fill="#CC1C00" transform="matrix(1.00, 0.00, -0.00, -1.00, 290.5, 142.8)">"</text><text xml:space="preserve" font-family="CourierNewPSMT,Courier New" font-size="20.0" fill="#CC1C00" transform="matrix(1.00, 0.00, -0.00, -1.00, 302.5, 142.8)">p</text><text xml:space="preserve" font-family="CourierNewPSMT,Courier New" font-size="20.0" fill="#CC1C00" transform="matrix(1.00, 0.00, -0.00, -1.00, 314.5, 142.8)">o</text><text xml:space="preserve" font-family="CourierNewPSMT,Courier New" font-size="20.0" fill="#CC1C00" transform="matrix(1.00, 0.00, -0.00, -1.00, 326.5, 142.8)">s</text><text xml:space="preserve" font-family="CourierNewPSMT,Courier New" font-size="20.0" fill="#CC1C00" transform="matrix(1.00, 0.00, -0.00, -1.00, 338.5, 142.8)">t</text><text xml:space="preserve" font-family="CourierNewPSMT,Courier New" font-size="20.0" fill="#CC1C00" transform="matrix(1.00, 0.00, -0.00, -1.00, 350.5, 142.8)">"</text><text xml:space="preserve" font-family="CourierNewPS-BoldMT,Courier New" font-weight="bold" font-size="20.0" fill="#000000" transform="matrix(1.00, 0.00, -0.00, -1.00, 362.5, 142.8)">&gt;</text><text xml:space="preserve" font-family="CourierNewPSMT,Courier New" font-size="20.0" fill="#000000" transform="matrix(1.00, 0.00, -0.00, -1.00, 374.5, 142.8)"> </text><text xml:space="preserve" font-family="CourierNewPSMT,Courier New" font-size="20.0" fill="#000000" transform="matrix(1.00, 0.00, -0.00, -1.00, 2.5, 119.8)"> </text><text xml:space="preserve" font-family="CourierNewPSMT,Courier New" font-size="20.0" fill="#000000" transform="matrix(1.00, 0.00, -0.00, -1.00, 14.5, 119.8)"> </text><text xml:space="preserve" font-family="CourierNewPSMT,Courier New" font-size="20.0" fill="#000000" transform="matrix(1.00, 0.00, -0.00, -1.00, 26.5, 119.8)"> </text><text xml:space="preserve" font-family="CourierNewPSMT,Courier New" font-size="20.0" fill="#000000" transform="matrix(1.00, 0.00, -0.00, -1.00, 38.5, 119.8)"> </text><text xml:space="preserve" font-family="CourierNewPS-BoldMT,Courier New" font-weight="bold" font-size="20.0" fill="#000000" transform="matrix(1.00, 0.00, -0.00, -1.00, 50.5, 119.8)">&lt;</text><text xml:space="preserve" font-family="CourierNewPS-BoldMT,Courier New" font-weight="bold" font-size="20.0" fill="#000000" transform="matrix(1.00, 0.00, -0.00, -1.00, 62.5, 119.8)">i</text><text xml:space="preserve" font-family="CourierNewPS-BoldMT,Courier New" font-weight="bold" font-size="20.0" fill="#000000" transform="matrix(1.00, 0.00, -0.00, -1.00, 74.5, 119.8)">n</text><text xml:space="preserve" font-family="CourierNewPS-BoldMT,Courier New" font-weight="bold" font-size="20.0" fill="#000000" transform="matrix(1.00, 0.00, -0.00, -1.00, 86.5, 119.8)">p</text><text xml:space="preserve" font-family="CourierNewPS-BoldMT,Courier New" font-weight="bold" font-size="20.0" fill="#000000" transform="matrix(1.00, 0.00, -0.00, -1.00, 98.5, 119.8)">u</text><text xml:space="preserve" font-family="CourierNewPS-BoldMT,Courier New" font-weight="bold" font-size="20.0" fill="#000000" transform="matrix(1.00, 0.00, -0.00, -1.00, 110.5, 119.8)">t</text><text xml:space="preserve" font-family="CourierNewPSMT,Courier New" font-size="20.0" fill="#000000" transform="matrix(1.00, 0.00, -0.00, -1.00, 122.5, 119.8)"> </text><text xml:space="preserve" font-family="CourierNewPSMT,Courier New" font-size="20.0" fill="#006DBC" transform="matrix(1.00, 0.00, -0.00, -1.00, 134.5, 119.8)">t</text><text xml:space="preserve" font-family="CourierNewPSMT,Courier New" font-size="20.0" fill="#006DBC" transform="matrix(1.00, 0.00, -0.00, -1.00, 146.5, 119.8)">y</text><text xml:space="preserve" font-family="CourierNewPSMT,Courier New" font-size="20.0" fill="#006DBC" transform="matrix(1.00, 0.00, -0.00, -1.00, 158.5, 119.8)">p</text><text xml:space="preserve" font-family="CourierNewPSMT,Courier New" font-size="20.0" fill="#006DBC" transform="matrix(1.00, 0.00, -0.00, -1.00, 170.5, 119.8)">e</text><text xml:space="preserve" font-family="CourierNewPSMT,Courier New" font-size="20.0" fill="#000000" transform="matrix(1.00, 0.00, -0.00, -1.00, 182.5, 119.8)">=</text><text xml:space="preserve" font-family="CourierNewPSMT,Courier New" font-size="20.0" fill="#CC1C00" transform="matrix(1.00, 0.00, -0.00, -1.00, 194.5, 119.8)">"</text><text xml:space="preserve" font-family="CourierNewPSMT,Courier New" font-size="20.0" fill="#CC1C00" transform="matrix(1.00, 0.00, -0.00, -1.00, 206.5, 119.8)">s</text><text xml:space="preserve" font-family="CourierNewPSMT,Courier New" font-size="20.0" fill="#CC1C00" transform="matrix(1.00, 0.00, -0.00, -1.00, 218.5, 119.8)">u</text><text xml:space="preserve" font-family="CourierNewPSMT,Courier New" font-size="20.0" fill="#CC1C00" transform="matrix(1.00, 0.00, -0.00, -1.00, 230.5, 119.8)">b</text><text xml:space="preserve" font-family="CourierNewPSMT,Courier New" font-size="20.0" fill="#CC1C00" transform="matrix(1.00, 0.00, -0.00, -1.00, 242.5, 119.8)">m</text><text xml:space="preserve" font-family="CourierNewPSMT,Courier New" font-size="20.0" fill="#CC1C00" transform="matrix(1.00, 0.00, -0.00, -1.00, 254.5, 119.8)">i</text><text xml:space="preserve" font-family="CourierNewPSMT,Courier New" font-size="20.0" fill="#CC1C00" transform="matrix(1.00, 0.00, -0.00, -1.00, 266.5, 119.8)">t</text><text xml:space="preserve" font-family="CourierNewPSMT,Courier New" font-size="20.0" fill="#CC1C00" transform="matrix(1.00, 0.00, -0.00, -1.00, 278.5, 119.8)">"</text><text xml:space="preserve" font-family="CourierNewPSMT,Courier New" font-size="20.0" fill="#000000" transform="matrix(1.00, 0.00, -0.00, -1.00, 290.5, 119.8)"> </text><text xml:space="preserve" font-family="CourierNewPSMT,Courier New" font-size="20.0" fill="#006DBC" transform="matrix(1.00, 0.00, -0.00, -1.00, 302.5, 119.8)">v</text><text xml:space="preserve" font-family="CourierNewPSMT,Courier New" font-size="20.0" fill="#006DBC" transform="matrix(1.00, 0.00, -0.00, -1.00, 314.5, 119.8)">a</text><text xml:space="preserve" font-family="CourierNewPSMT,Courier New" font-size="20.0" fill="#006DBC" transform="matrix(1.00, 0.00, -0.00, -1.00, 326.5, 119.8)">l</text><text xml:space="preserve" font-family="CourierNewPSMT,Courier New" font-size="20.0" fill="#006DBC" transform="matrix(1.00, 0.00, -0.00, -1.00, 338.5, 119.8)">u</text><text xml:space="preserve" font-family="CourierNewPSMT,Courier New" font-size="20.0" fill="#006DBC" transform="matrix(1.00, 0.00, -0.00, -1.00, 350.5, 119.8)">e</text><text xml:space="preserve" font-family="CourierNewPSMT,Courier New" font-size="20.0" fill="#000000" transform="matrix(1.00, 0.00, -0.00, -1.00, 362.5, 119.8)">=</text><text xml:space="preserve" font-family="CourierNewPSMT,Courier New" font-size="20.0" fill="#CC1C00" transform="matrix(1.00, 0.00, -0.00, -1.00, 374.5, 119.8)">"</text><text xml:space="preserve" font-family="CourierNewPSMT,Courier New" font-size="20.0" fill="#CC1C00" transform="matrix(1.00, 0.00, -0.00, -1.00, 386.5, 119.8)">V</text><text xml:space="preserve" font-family="CourierNewPSMT,Courier New" font-size="20.0" fill="#CC1C00" transform="matrix(1.00, 0.00, -0.00, -1.00, 398.5, 119.8)">a</text><text xml:space="preserve" font-family="CourierNewPSMT,Courier New" font-size="20.0" fill="#CC1C00" transform="matrix(1.00, 0.00, -0.00, -1.00, 410.5, 119.8)">l</text><text xml:space="preserve" font-family="CourierNewPSMT,Courier New" font-size="20.0" fill="#CC1C00" transform="matrix(1.00, 0.00, -0.00, -1.00, 422.5, 119.8)">i</text><text xml:space="preserve" font-family="CourierNewPSMT,Courier New" font-size="20.0" fill="#CC1C00" transform="matrix(1.00, 0.00, -0.00, -1.00, 434.5, 119.8)">d</text><text xml:space="preserve" font-family="CourierNewPSMT,Courier New" font-size="20.0" fill="#CC1C00" transform="matrix(1.00, 0.00, -0.00, -1.00, 446.5, 119.8)">e</text><text xml:space="preserve" font-family="CourierNewPSMT,Courier New" font-size="20.0" fill="#CC1C00" transform="matrix(1.00, 0.00, -0.00, -1.00, 458.5, 119.8)">r</text><text xml:space="preserve" font-family="CourierNewPSMT,Courier New" font-size="20.0" fill="#CC1C00" transform="matrix(1.00, 0.00, -0.00, -1.00, 470.5, 119.8)">"</text><text xml:space="preserve" font-family="CourierNewPS-BoldMT,Courier New" font-weight="bold" font-size="20.0" fill="#000000" transform="matrix(1.00, 0.00, -0.00, -1.00, 482.5, 119.8)">&gt;</text><text xml:space="preserve" font-family="CourierNewPSMT,Courier New" font-size="20.0" fill="#000000" transform="matrix(1.00, 0.00, -0.00, -1.00, 494.5, 119.8)"> </text><text xml:space="preserve" font-family="CourierNewPSMT,Courier New" font-size="20.0" fill="#000000" transform="matrix(1.00, 0.00, -0.00, -1.00, 2.5, 96.8)"> </text><text xml:space="preserve" font-family="CourierNewPSMT,Courier New" font-size="20.0" fill="#000000" transform="matrix(1.00, 0.00, -0.00, -1.00, 14.5, 96.8)"> </text><text xml:space="preserve" font-family="CourierNewPSMT,Courier New" font-size="20.0" fill="#000000" transform="matrix(1.00, 0.00, -0.00, -1.00, 26.5, 96.8)"> </text><text xml:space="preserve" font-family="CourierNewPSMT,Courier New" font-size="20.0" fill="#000000" transform="matrix(1.00, 0.00, -0.00, -1.00, 38.5, 96.8)"> </text><text xml:space="preserve" font-family="CourierNewPSMT,Courier New" font-size="20.0" fill="#000000" transform="matrix(1.00, 0.00, -0.00, -1.00, 50.5, 96.8)"> </text><text xml:space="preserve" font-family="CourierNewPSMT,Courier New" font-size="20.0" fill="#000000" transform="matrix(1.00, 0.00, -0.00, -1.00, 2.5, 73.8)"> </text><text xml:space="preserve" font-family="CourierNewPSMT,Courier New" font-size="20.0" fill="#000000" transform="matrix(1.00, 0.00, -0.00, -1.00, 14.5, 73.8)"> </text><text xml:space="preserve" font-family="CourierNewPSMT,Courier New" font-size="20.0" fill="#000000" transform="matrix(1.00, 0.00, -0.00, -1.00, 26.5, 73.8)"> </text><text xml:space="preserve" font-family="CourierNewPSMT,Courier New" font-size="20.0" fill="#000000" transform="matrix(1.00, 0.00, -0.00, -1.00, 38.5, 73.8)"> </text><text xml:space="preserve" font-family="CourierNewPS-BoldMT,Courier New" font-weight="bold" font-size="20.0" fill="#000000" transform="matrix(1.00, 0.00, -0.00, -1.00, 50.5, 73.8)">&lt;</text><text xml:space="preserve" font-family="CourierNewPS-BoldMT,Courier New" font-weight="bold" font-size="20.0" fill="#000000" transform="matrix(1.00, 0.00, -0.00, -1.00, 62.5, 73.8)">i</text><text xml:space="preserve" font-family="CourierNewPS-BoldMT,Courier New" font-weight="bold" font-size="20.0" fill="#000000" transform="matrix(1.00, 0.00, -0.00, -1.00, 74.5, 73.8)">n</text><text xml:space="preserve" font-family="CourierNewPS-BoldMT,Courier New" font-weight="bold" font-size="20.0" fill="#000000" transform="matrix(1.00, 0.00, -0.00, -1.00, 86.5, 73.8)">p</text><text xml:space="preserve" font-family="CourierNewPS-BoldMT,Courier New" font-weight="bold" font-size="20.0" fill="#000000" transform="matrix(1.00, 0.00, -0.00, -1.00, 98.5, 73.8)">u</text><text xml:space="preserve" font-family="CourierNewPS-BoldMT,Courier New" font-weight="bold" font-size="20.0" fill="#000000" transform="matrix(1.00, 0.00, -0.00, -1.00, 110.5, 73.8)">t</text><text xml:space="preserve" font-family="CourierNewPSMT,Courier New" font-size="20.0" fill="#000000" transform="matrix(1.00, 0.00, -0.00, -1.00, 122.5, 73.8)"> </text><text xml:space="preserve" font-family="CourierNewPSMT,Courier New" font-size="20.0" fill="#006DBC" transform="matrix(1.00, 0.00, -0.00, -1.00, 134.5, 73.8)">t</text><text xml:space="preserve" font-family="CourierNewPSMT,Courier New" font-size="20.0" fill="#006DBC" transform="matrix(1.00, 0.00, -0.00, -1.00, 146.5, 73.8)">y</text><text xml:space="preserve" font-family="CourierNewPSMT,Courier New" font-size="20.0" fill="#006DBC" transform="matrix(1.00, 0.00, -0.00, -1.00, 158.5, 73.8)">p</text><text xml:space="preserve" font-family="CourierNewPSMT,Courier New" font-size="20.0" fill="#006DBC" transform="matrix(1.00, 0.00, -0.00, -1.00, 170.5, 73.8)">e</text><text xml:space="preserve" font-family="CourierNewPSMT,Courier New" font-size="20.0" fill="#000000" transform="matrix(1.00, 0.00, -0.00, -1.00, 182.5, 73.8)">=</text><text xml:space="preserve" font-family="CourierNewPSMT,Courier New" font-size="20.0" fill="#CC1C00" transform="matrix(1.00, 0.00, -0.00, -1.00, 194.5, 73.8)">"</text><text xml:space="preserve" font-family="CourierNewPSMT,Courier New" font-size="20.0" fill="#CC1C00" transform="matrix(1.00, 0.00, -0.00, -1.00, 206.5, 73.8)">b</text><text xml:space="preserve" font-family="CourierNewPSMT,Courier New" font-size="20.0" fill="#CC1C00" transform="matrix(1.00, 0.00, -0.00, -1.00, 218.5, 73.8)">u</text><text xml:space="preserve" font-family="CourierNewPSMT,Courier New" font-size="20.0" fill="#CC1C00" transform="matrix(1.00, 0.00, -0.00, -1.00, 230.5, 73.8)">t</text><text xml:space="preserve" font-family="CourierNewPSMT,Courier New" font-size="20.0" fill="#CC1C00" transform="matrix(1.00, 0.00, -0.00, -1.00, 242.5, 73.8)">t</text><text xml:space="preserve" font-family="CourierNewPSMT,Courier New" font-size="20.0" fill="#CC1C00" transform="matrix(1.00, 0.00, -0.00, -1.00, 254.5, 73.8)">o</text><text xml:space="preserve" font-family="CourierNewPSMT,Courier New" font-size="20.0" fill="#CC1C00" transform="matrix(1.00, 0.00, -0.00, -1.00, 266.5, 73.8)">n</text><text xml:space="preserve" font-family="CourierNewPSMT,Courier New" font-size="20.0" fill="#CC1C00" transform="matrix(1.00, 0.00, -0.00, -1.00, 278.5, 73.8)">"</text><text xml:space="preserve" font-family="CourierNewPSMT,Courier New" font-size="20.0" fill="#000000" transform="matrix(1.00, 0.00, -0.00, -1.00, 290.5, 73.8)"> </text><text xml:space="preserve" font-family="CourierNewPSMT,Courier New" font-size="20.0" fill="#006DBC" transform="matrix(1.00, 0.00, -0.00, -1.00, 302.5, 73.8)">v</text><text xml:space="preserve" font-family="CourierNewPSMT,Courier New" font-size="20.0" fill="#006DBC" transform="matrix(1.00, 0.00, -0.00, -1.00, 314.5, 73.8)">a</text><text xml:space="preserve" font-family="CourierNewPSMT,Courier New" font-size="20.0" fill="#006DBC" transform="matrix(1.00, 0.00, -0.00, -1.00, 326.5, 73.8)">l</text><text xml:space="preserve" font-family="CourierNewPSMT,Courier New" font-size="20.0" fill="#006DBC" transform="matrix(1.00, 0.00, -0.00, -1.00, 338.5, 73.8)">u</text><text xml:space="preserve" font-family="CourierNewPSMT,Courier New" font-size="20.0" fill="#006DBC" transform="matrix(1.00, 0.00, -0.00, -1.00, 350.5, 73.8)">e</text><text xml:space="preserve" font-family="CourierNewPSMT,Courier New" font-size="20.0" fill="#000000" transform="matrix(1.00, 0.00, -0.00, -1.00, 362.5, 73.8)">=</text><text xml:space="preserve" font-family="CourierNewPSMT,Courier New" font-size="20.0" fill="#CC1C00" transform="matrix(1.00, 0.00, -0.00, -1.00, 374.5, 73.8)">"</text><text xml:space="preserve" font-family="CourierNewPSMT,Courier New" font-size="20.0" fill="#CC1C00" transform="matrix(1.00, 0.00, -0.00, -1.00, 386.5, 73.8)">N</text><text xml:space="preserve" font-family="CourierNewPSMT,Courier New" font-size="20.0" fill="#CC1C00" transform="matrix(1.00, 0.00, -0.00, -1.00, 398.5, 73.8)">e</text><text xml:space="preserve" font-family="CourierNewPSMT,Courier New" font-size="20.0" fill="#CC1C00" transform="matrix(1.00, 0.00, -0.00, -1.00, 410.5, 73.8)"> </text><text xml:space="preserve" font-family="CourierNewPSMT,Courier New" font-size="20.0" fill="#CC1C00" transform="matrix(1.00, 0.00, -0.00, -1.00, 422.5, 73.8)">f</text><text xml:space="preserve" font-family="CourierNewPSMT,Courier New" font-size="20.0" fill="#CC1C00" transform="matrix(1.00, 0.00, -0.00, -1.00, 434.5, 73.8)">a</text><text xml:space="preserve" font-family="CourierNewPSMT,Courier New" font-size="20.0" fill="#CC1C00" transform="matrix(1.00, 0.00, -0.00, -1.00, 446.5, 73.8)">i</text><text xml:space="preserve" font-family="CourierNewPSMT,Courier New" font-size="20.0" fill="#CC1C00" transform="matrix(1.00, 0.00, -0.00, -1.00, 458.5, 73.8)">t</text><text xml:space="preserve" font-family="CourierNewPSMT,Courier New" font-size="20.0" fill="#CC1C00" transform="matrix(1.00, 0.00, -0.00, -1.00, 470.5, 73.8)"> </text><text xml:space="preserve" font-family="CourierNewPSMT,Courier New" font-size="20.0" fill="#CC1C00" transform="matrix(1.00, 0.00, -0.00, -1.00, 482.6, 73.8)">r</text><text xml:space="preserve" font-family="CourierNewPSMT,Courier New" font-size="20.0" fill="#CC1C00" transform="matrix(1.00, 0.00, -0.00, -1.00, 494.6, 73.8)">i</text><text xml:space="preserve" font-family="CourierNewPSMT,Courier New" font-size="20.0" fill="#CC1C00" transform="matrix(1.00, 0.00, -0.00, -1.00, 506.6, 73.8)">e</text><text xml:space="preserve" font-family="CourierNewPSMT,Courier New" font-size="20.0" fill="#CC1C00" transform="matrix(1.00, 0.00, -0.00, -1.00, 518.6, 73.8)">n</text><text xml:space="preserve" font-family="CourierNewPSMT,Courier New" font-size="20.0" fill="#CC1C00" transform="matrix(1.00, 0.00, -0.00, -1.00, 530.6, 73.8)">"</text><text xml:space="preserve" font-family="CourierNewPS-BoldMT,Courier New" font-weight="bold" font-size="20.0" fill="#000000" transform="matrix(1.00, 0.00, -0.00, -1.00, 542.5, 73.8)">&gt;</text><text xml:space="preserve" font-family="CourierNewPSMT,Courier New" font-size="20.0" fill="#000000" transform="matrix(1.00, 0.00, -0.00, -1.00, 554.5, 73.8)"> </text><text xml:space="preserve" font-family="CourierNewPSMT,Courier New" font-size="20.0" fill="#000000" transform="matrix(1.00, 0.00, -0.00, -1.00, 2.5, 50.8)"> </text><text xml:space="preserve" font-family="CourierNewPSMT,Courier New" font-size="20.0" fill="#000000" transform="matrix(1.00, 0.00, -0.00, -1.00, 14.5, 50.8)"> </text><text xml:space="preserve" font-family="CourierNewPSMT,Courier New" font-size="20.0" fill="#000000" transform="matrix(1.00, 0.00, -0.00, -1.00, 26.5, 50.8)"> </text><text xml:space="preserve" font-family="CourierNewPSMT,Courier New" font-size="20.0" fill="#000000" transform="matrix(1.00, 0.00, -0.00, -1.00, 38.5, 50.8)"> </text><text xml:space="preserve" font-family="CourierNewPSMT,Courier New" font-size="20.0" fill="#000000" transform="matrix(1.00, 0.00, -0.00, -1.00, 50.5, 50.8)"> </text><text xml:space="preserve" font-family="CourierNewPSMT,Courier New" font-size="20.0" fill="#000000" transform="matrix(1.00, 0.00, -0.00, -1.00, 2.5, 27.8)"> </text><text xml:space="preserve" font-family="CourierNewPSMT,Courier New" font-size="20.0" fill="#000000" transform="matrix(1.00, 0.00, -0.00, -1.00, 14.5, 27.8)"> </text><text xml:space="preserve" font-family="CourierNewPSMT,Courier New" font-size="20.0" fill="#000000" transform="matrix(1.00, 0.00, -0.00, -1.00, 26.5, 27.8)"> </text><text xml:space="preserve" font-family="CourierNewPSMT,Courier New" font-size="20.0" fill="#000000" transform="matrix(1.00, 0.00, -0.00, -1.00, 38.5, 27.8)"> </text><text xml:space="preserve" font-family="CourierNewPS-BoldMT,Courier New" font-weight="bold" font-size="20.0" fill="#000000" transform="matrix(1.00, 0.00, -0.00, -1.00, 50.5, 27.8)">&lt;</text><text xml:space="preserve" font-family="CourierNewPS-BoldMT,Courier New" font-weight="bold" font-size="20.0" fill="#000000" transform="matrix(1.00, 0.00, -0.00, -1.00, 62.5, 27.8)">b</text><text xml:space="preserve" font-family="CourierNewPS-BoldMT,Courier New" font-weight="bold" font-size="20.0" fill="#000000" transform="matrix(1.00, 0.00, -0.00, -1.00, 74.5, 27.8)">u</text><text xml:space="preserve" font-family="CourierNewPS-BoldMT,Courier New" font-weight="bold" font-size="20.0" fill="#000000" transform="matrix(1.00, 0.00, -0.00, -1.00, 86.5, 27.8)">t</text><text xml:space="preserve" font-family="CourierNewPS-BoldMT,Courier New" font-weight="bold" font-size="20.0" fill="#000000" transform="matrix(1.00, 0.00, -0.00, -1.00, 98.5, 27.8)">t</text><text xml:space="preserve" font-family="CourierNewPS-BoldMT,Courier New" font-weight="bold" font-size="20.0" fill="#000000" transform="matrix(1.00, 0.00, -0.00, -1.00, 110.5, 27.8)">o</text><text xml:space="preserve" font-family="CourierNewPS-BoldMT,Courier New" font-weight="bold" font-size="20.0" fill="#000000" transform="matrix(1.00, 0.00, -0.00, -1.00, 122.5, 27.8)">n</text><text xml:space="preserve" font-family="CourierNewPSMT,Courier New" font-size="20.0" fill="#000000" transform="matrix(1.00, 0.00, -0.00, -1.00, 134.5, 27.8)"> </text><text xml:space="preserve" font-family="CourierNewPSMT,Courier New" font-size="20.0" fill="#006DBC" transform="matrix(1.00, 0.00, -0.00, -1.00, 146.5, 27.8)">t</text><text xml:space="preserve" font-family="CourierNewPSMT,Courier New" font-size="20.0" fill="#006DBC" transform="matrix(1.00, 0.00, -0.00, -1.00, 158.5, 27.8)">y</text><text xml:space="preserve" font-family="CourierNewPSMT,Courier New" font-size="20.0" fill="#006DBC" transform="matrix(1.00, 0.00, -0.00, -1.00, 170.5, 27.8)">p</text><text xml:space="preserve" font-family="CourierNewPSMT,Courier New" font-size="20.0" fill="#006DBC" transform="matrix(1.00, 0.00, -0.00, -1.00, 182.5, 27.8)">e</text><text xml:space="preserve" font-family="CourierNewPSMT,Courier New" font-size="20.0" fill="#000000" transform="matrix(1.00, 0.00, -0.00, -1.00, 194.5, 27.8)">=</text><text xml:space="preserve" font-family="CourierNewPSMT,Courier New" font-size="20.0" fill="#CC1C00" transform="matrix(1.00, 0.00, -0.00, -1.00, 206.5, 27.8)">"</text><text xml:space="preserve" font-family="CourierNewPSMT,Courier New" font-size="20.0" fill="#CC1C00" transform="matrix(1.00, 0.00, -0.00, -1.00, 218.5, 27.8)">s</text><text xml:space="preserve" font-family="CourierNewPSMT,Courier New" font-size="20.0" fill="#CC1C00" transform="matrix(1.00, 0.00, -0.00, -1.00, 230.5, 27.8)">u</text><text xml:space="preserve" font-family="CourierNewPSMT,Courier New" font-size="20.0" fill="#CC1C00" transform="matrix(1.00, 0.00, -0.00, -1.00, 242.5, 27.8)">b</text><text xml:space="preserve" font-family="CourierNewPSMT,Courier New" font-size="20.0" fill="#CC1C00" transform="matrix(1.00, 0.00, -0.00, -1.00, 254.5, 27.8)">m</text><text xml:space="preserve" font-family="CourierNewPSMT,Courier New" font-size="20.0" fill="#CC1C00" transform="matrix(1.00, 0.00, -0.00, -1.00, 266.5, 27.8)">i</text><text xml:space="preserve" font-family="CourierNewPSMT,Courier New" font-size="20.0" fill="#CC1C00" transform="matrix(1.00, 0.00, -0.00, -1.00, 278.5, 27.8)">t</text><text xml:space="preserve" font-family="CourierNewPSMT,Courier New" font-size="20.0" fill="#CC1C00" transform="matrix(1.00, 0.00, -0.00, -1.00, 290.5, 27.8)">"</text><text xml:space="preserve" font-family="CourierNewPS-BoldMT,Courier New" font-weight="bold" font-size="20.0" fill="#000000" transform="matrix(1.00, 0.00, -0.00, -1.00, 302.5, 27.8)">&gt;</text><text xml:space="preserve" font-family="CourierNewPSMT,Courier New" font-size="20.0" fill="#000000" transform="matrix(1.00, 0.00, -0.00, -1.00, 314.5, 27.8)">V</text><text xml:space="preserve" font-family="CourierNewPSMT,Courier New" font-size="20.0" fill="#000000" transform="matrix(1.00, 0.00, -0.00, -1.00, 326.5, 27.8)">a</text><text xml:space="preserve" font-family="CourierNewPSMT,Courier New" font-size="20.0" fill="#000000" transform="matrix(1.00, 0.00, -0.00, -1.00, 338.5, 27.8)">l</text><text xml:space="preserve" font-family="CourierNewPSMT,Courier New" font-size="20.0" fill="#000000" transform="matrix(1.00, 0.00, -0.00, -1.00, 350.5, 27.8)">i</text><text xml:space="preserve" font-family="CourierNewPSMT,Courier New" font-size="20.0" fill="#000000" transform="matrix(1.00, 0.00, -0.00, -1.00, 362.5, 27.8)">d</text><text xml:space="preserve" font-family="CourierNewPSMT,Courier New" font-size="20.0" fill="#000000" transform="matrix(1.00, 0.00, -0.00, -1.00, 374.5, 27.8)">e</text><text xml:space="preserve" font-family="CourierNewPSMT,Courier New" font-size="20.0" fill="#000000" transform="matrix(1.00, 0.00, -0.00, -1.00, 386.5, 27.8)">r</text><text xml:space="preserve" font-family="CourierNewPS-BoldMT,Courier New" font-weight="bold" font-size="20.0" fill="#000000" transform="matrix(1.00, 0.00, -0.00, -1.00, 398.5, 27.8)">&lt;</text><text xml:space="preserve" font-family="CourierNewPS-BoldMT,Courier New" font-weight="bold" font-size="20.0" fill="#000000" transform="matrix(1.00, 0.00, -0.00, -1.00, 410.5, 27.8)">/</text><text xml:space="preserve" font-family="CourierNewPS-BoldMT,Courier New" font-weight="bold" font-size="20.0" fill="#000000" transform="matrix(1.00, 0.00, -0.00, -1.00, 422.5, 27.8)">b</text><text xml:space="preserve" font-family="CourierNewPS-BoldMT,Courier New" font-weight="bold" font-size="20.0" fill="#000000" transform="matrix(1.00, 0.00, -0.00, -1.00, 434.5, 27.8)">u</text><text xml:space="preserve" font-family="CourierNewPS-BoldMT,Courier New" font-weight="bold" font-size="20.0" fill="#000000" transform="matrix(1.00, 0.00, -0.00, -1.00, 446.5, 27.8)">t</text><text xml:space="preserve" font-family="CourierNewPS-BoldMT,Courier New" font-weight="bold" font-size="20.0" fill="#000000" transform="matrix(1.00, 0.00, -0.00, -1.00, 458.5, 27.8)">t</text><text xml:space="preserve" font-family="CourierNewPS-BoldMT,Courier New" font-weight="bold" font-size="20.0" fill="#000000" transform="matrix(1.00, 0.00, -0.00, -1.00, 470.5, 27.8)">o</text><text xml:space="preserve" font-family="CourierNewPS-BoldMT,Courier New" font-weight="bold" font-size="20.0" fill="#000000" transform="matrix(1.00, 0.00, -0.00, -1.00, 482.5, 27.8)">n</text><text xml:space="preserve" font-family="CourierNewPS-BoldMT,Courier New" font-weight="bold" font-size="20.0" fill="#000000" transform="matrix(1.00, 0.00, -0.00, -1.00, 494.6, 27.8)">&gt;</text><text xml:space="preserve" font-family="CourierNewPSMT,Courier New" font-size="20.0" fill="#000000" transform="matrix(1.00, 0.00, -0.00, -1.00, 506.5, 27.8)"> </text><text xml:space="preserve" font-family="CourierNewPS-BoldMT,Courier New" font-weight="bold" font-size="20.0" fill="#000000" transform="matrix(1.00, 0.00, -0.00, -1.00, 2.5, 4.8)">&lt;</text><text xml:space="preserve" font-family="CourierNewPS-BoldMT,Courier New" font-weight="bold" font-size="20.0" fill="#000000" transform="matrix(1.00, 0.00, -0.00, -1.00, 14.5, 4.8)">/</text><text xml:space="preserve" font-family="CourierNewPS-BoldMT,Courier New" font-weight="bold" font-size="20.0" fill="#000000" transform="matrix(1.00, 0.00, -0.00, -1.00, 26.5, 4.8)">f</text><text xml:space="preserve" font-family="CourierNewPS-BoldMT,Courier New" font-weight="bold" font-size="20.0" fill="#000000" transform="matrix(1.00, 0.00, -0.00, -1.00, 38.5, 4.8)">o</text><text xml:space="preserve" font-family="CourierNewPS-BoldMT,Courier New" font-weight="bold" font-size="20.0" fill="#000000" transform="matrix(1.00, 0.00, -0.00, -1.00, 50.5, 4.8)">r</text><text xml:space="preserve" font-family="CourierNewPS-BoldMT,Courier New" font-weight="bold" font-size="20.0" fill="#000000" transform="matrix(1.00, 0.00, -0.00, -1.00, 62.5, 4.8)">m</text><text xml:space="preserve" font-family="CourierNewPS-BoldMT,Courier New" font-weight="bold" font-size="20.0" fill="#000000" transform="matrix(1.00, 0.00, -0.00, -1.00, 74.5, 4.8)">&gt;</text><text xml:space="preserve" font-family="CourierNewPSMT,Courier New" font-size="20.0" fill="#000000" transform="matrix(1.00, 0.00, -0.00, -1.00, 86.5, 4.8)"> </text></g></svg>