<?xml version="1.0" encoding="UTF-8" standalone="no"?><svg xmlns="http://www.w3.org/2000/svg" xmlns:xlink="http://www.w3.org/1999/xlink" clip-rule="evenodd" stroke-miterlimit="10" viewBox="0 0 893 83"><desc>SVG generated by Keynote</desc><defs></defs><g transform="matrix(1.00, 0.00, -0.00, -1.00, 0.0, 83.0)"><image xlink:href="0210125ED91A4135FD5214F9986DC5A5.png" width="886.00" height="36.00" transform="matrix(1.00, 0.00, -0.00, -1.00, 3.0, 81.0)"></image><text xml:space="preserve" font-family="AvenirNext-MediumItalic,Avenir Next" font-style="italic" font-size="32.0" fill="#5D514B" transform="matrix(1.00, 0.00, -0.00, -1.00, 4.9, 56.7)">E</text><text xml:space="preserve" font-family="AvenirNext-MediumItalic,Avenir Next" font-style="italic" font-size="32.0" fill="#5D514B" transform="matrix(1.00, 0.00, -0.00, -1.00, 23.5, 56.7)">x</text><text xml:space="preserve" font-family="AvenirNext-MediumItalic,Avenir Next" font-style="italic" font-size="32.0" fill="#5D514B" transform="matrix(1.00, 0.00, -0.00, -1.00, 39.0, 56.7)">e</text><text xml:space="preserve" font-family="AvenirNext-MediumItalic,Avenir Next" font-style="italic" font-size="32.0" fill="#5D514B" transform="matrix(1.00, 0.00, -0.00, -1.00, 57.1, 56.7)">r</text><text xml:space="preserve" font-family="AvenirNext-MediumItalic,Avenir Next" font-style="italic" font-size="32.0" fill="#5D514B" transform="matrix(1.00, 0.00, -0.00, -1.00, 67.7, 56.7)">c</text><text xml:space="preserve" font-family="AvenirNext-MediumItalic,Avenir Next" font-style="italic" font-size="32.0" fill="#5D514B" transform="matrix(1.00, 0.00, -0.00, -1.00, 83.5, 56.7)">i</text><text xml:space="preserve" font-family="AvenirNext-MediumItalic,Avenir Next" font-style="italic" font-size="32.0" fill="#5D514B" transform="matrix(1.00, 0.00, -0.00, -1.00, 91.8, 56.7)">c</text><text xml:space="preserve" font-family="AvenirNext-MediumItalic,Avenir Next" font-style="italic" font-size="32.0" fill="#5D514B" transform="matrix(1.00, 0.00, -0.00, -1.00, 107.7, 56.7)">e</text><text xml:space="preserve" font-family="AvenirNext-MediumItalic,Avenir Next" font-style="italic" font-size="32.0" fill="#5D514B" transform="matrix(1.00, 0.00, -0.00, -1.00, 125.8, 56.7)"> </text><text xml:space="preserve" font-family="AvenirNext-MediumItalic,Avenir Next" font-style="italic" font-size="32.0" fill="#5D514B" transform="matrix(1.00, 0.00, -0.00, -1.00, 133.8, 56.7)">:</text><text xml:space="preserve" font-family="AvenirNext-MediumItalic,Avenir Next" font-style="italic" font-size="32.0" fill="#5D514B" transform="matrix(1.00, 0.00, -0.00, -1.00, 143.4, 56.7)"> </text><text xml:space="preserve" font-family="AvenirNext-MediumItalic,Avenir Next" font-style="italic" font-size="32.0" fill="#5D514B" transform="matrix(1.00, 0.00, -0.00, -1.00, 151.4, 56.7)">l</text><text xml:space="preserve" font-family="AvenirNext-MediumItalic,Avenir Next" font-style="italic" font-size="32.0" fill="#5D514B" transform="matrix(1.00, 0.00, -0.00, -1.00, 159.7, 56.7)">’</text><text xml:space="preserve" font-family="AvenirNext-MediumItalic,Avenir Next" font-style="italic" font-size="32.0" fill="#5D514B" transform="matrix(1.00, 0.00, -0.00, -1.00, 166.0, 56.7)">A</text><text xml:space="preserve" font-family="AvenirNext-MediumItalic,Avenir Next" font-style="italic" font-size="32.0" fill="#5D514B" transform="matrix(1.00, 0.00, -0.00, -1.00, 187.8, 56.7)">P</text><text xml:space="preserve" font-family="AvenirNext-MediumItalic,Avenir Next" font-style="italic" font-size="32.0" fill="#5D514B" transform="matrix(1.00, 0.00, -0.00, -1.00, 206.8, 56.7)">I</text><text xml:space="preserve" font-family="AvenirNext-MediumItalic,Avenir Next" font-style="italic" font-size="32.0" fill="#5D514B" transform="matrix(1.00, 0.00, -0.00, -1.00, 215.5, 56.7)"> </text><text xml:space="preserve" font-family="AvenirNext-MediumItalic,Avenir Next" font-style="italic" font-size="32.0" fill="#5D514B" transform="matrix(1.00, 0.00, -0.00, -1.00, 223.5, 56.7)">d</text><text xml:space="preserve" font-family="AvenirNext-MediumItalic,Avenir Next" font-style="italic" font-size="32.0" fill="#5D514B" transform="matrix(1.00, 0.00, -0.00, -1.00, 243.6, 56.7)">’</text><text xml:space="preserve" font-family="AvenirNext-MediumItalic,Avenir Next" font-style="italic" font-size="32.0" fill="#5D514B" transform="matrix(1.00, 0.00, -0.00, -1.00, 249.5, 56.7)">e</text><text xml:space="preserve" font-family="AvenirNext-MediumItalic,Avenir Next" font-style="italic" font-size="32.0" fill="#5D514B" transform="matrix(1.00, 0.00, -0.00, -1.00, 267.6, 56.7)">n</text><text xml:space="preserve" font-family="AvenirNext-MediumItalic,Avenir Next" font-style="italic" font-size="32.0" fill="#5D514B" transform="matrix(1.00, 0.00, -0.00, -1.00, 286.2, 56.7)">v</text><text xml:space="preserve" font-family="AvenirNext-MediumItalic,Avenir Next" font-style="italic" font-size="32.0" fill="#5D514B" transform="matrix(1.00, 0.00, -0.00, -1.00, 301.9, 56.7)">o</text><text xml:space="preserve" font-family="AvenirNext-MediumItalic,Avenir Next" font-style="italic" font-size="32.0" fill="#5D514B" transform="matrix(1.00, 0.00, -0.00, -1.00, 321.1, 56.7)">i</text><text xml:space="preserve" font-family="AvenirNext-MediumItalic,Avenir Next" font-style="italic" font-size="32.0" fill="#5D514B" transform="matrix(1.00, 0.00, -0.00, -1.00, 329.4, 56.7)"> </text><text xml:space="preserve" font-family="AvenirNext-MediumItalic,Avenir Next" font-style="italic" font-size="32.0" fill="#5D514B" transform="matrix(1.00, 0.00, -0.00, -1.00, 337.4, 56.7)">d</text><text xml:space="preserve" font-family="AvenirNext-MediumItalic,Avenir Next" font-style="italic" font-size="32.0" fill="#5D514B" transform="matrix(1.00, 0.00, -0.00, -1.00, 357.5, 56.7)">e</text><text xml:space="preserve" font-family="AvenirNext-MediumItalic,Avenir Next" font-style="italic" font-size="32.0" fill="#5D514B" transform="matrix(1.00, 0.00, -0.00, -1.00, 375.5, 56.7)"> </text><text xml:space="preserve" font-family="AvenirNext-MediumItalic,Avenir Next" font-style="italic" font-size="32.0" fill="#5D514B" transform="matrix(1.00, 0.00, -0.00, -1.00, 383.5, 56.7)">m</text><text xml:space="preserve" font-family="AvenirNext-MediumItalic,Avenir Next" font-style="italic" font-size="32.0" fill="#5D514B" transform="matrix(1.00, 0.00, -0.00, -1.00, 411.8, 56.7)">a</text><text xml:space="preserve" font-family="AvenirNext-MediumItalic,Avenir Next" font-style="italic" font-size="32.0" fill="#5D514B" transform="matrix(1.00, 0.00, -0.00, -1.00, 429.0, 56.7)">i</text><text xml:space="preserve" font-family="AvenirNext-MediumItalic,Avenir Next" font-style="italic" font-size="32.0" fill="#5D514B" transform="matrix(1.00, 0.00, -0.00, -1.00, 437.3, 56.7)">l</text><text xml:space="preserve" font-family="AvenirNext-MediumItalic,Avenir Next" font-style="italic" font-size="32.0" fill="#5D514B" transform="matrix(1.00, 0.00, -0.00, -1.00, 445.6, 56.7)"> </text><text xml:space="preserve" font-family="AvenirNext-MediumItalic,Avenir Next" font-style="italic" font-size="32.0" fill="#5D514B" transform="matrix(1.00, 0.00, -0.00, -1.00, 453.6, 56.7)">a</text><text xml:space="preserve" font-family="AvenirNext-MediumItalic,Avenir Next" font-style="italic" font-size="32.0" fill="#5D514B" transform="matrix(1.00, 0.00, -0.00, -1.00, 470.8, 56.7)"> </text><text xml:space="preserve" font-family="AvenirNext-MediumItalic,Avenir Next" font-style="italic" font-size="32.0" fill="#5D514B" transform="matrix(1.00, 0.00, -0.00, -1.00, 478.8, 56.7)">c</text><text xml:space="preserve" font-family="AvenirNext-MediumItalic,Avenir Next" font-style="italic" font-size="32.0" fill="#5D514B" transform="matrix(1.00, 0.00, -0.00, -1.00, 494.7, 56.7)">h</text><text xml:space="preserve" font-family="AvenirNext-MediumItalic,Avenir Next" font-style="italic" font-size="32.0" fill="#5D514B" transform="matrix(1.00, 0.00, -0.00, -1.00, 513.3, 56.7)">a</text><text xml:space="preserve" font-family="AvenirNext-MediumItalic,Avenir Next" font-style="italic" font-size="32.0" fill="#5D514B" transform="matrix(1.00, 0.00, -0.00, -1.00, 530.4, 56.7)">n</text><text xml:space="preserve" font-family="AvenirNext-MediumItalic,Avenir Next" font-style="italic" font-size="32.0" fill="#5D514B" transform="matrix(1.00, 0.00, -0.00, -1.00, 549.0, 56.7)">g</text><text xml:space="preserve" font-family="AvenirNext-MediumItalic,Avenir Next" font-style="italic" font-size="32.0" fill="#5D514B" transform="matrix(1.00, 0.00, -0.00, -1.00, 569.2, 56.7)">é</text><text xml:space="preserve" font-family="AvenirNext-MediumItalic,Avenir Next" font-style="italic" font-size="32.0" fill="#5D514B" transform="matrix(1.00, 0.00, -0.00, -1.00, 587.3, 56.7)">,</text><text xml:space="preserve" font-family="AvenirNext-MediumItalic,Avenir Next" font-style="italic" font-size="32.0" fill="#5D514B" transform="matrix(1.00, 0.00, -0.00, -1.00, 594.6, 56.7)"> </text><text xml:space="preserve" font-family="AvenirNext-MediumItalic,Avenir Next" font-style="italic" font-size="32.0" fill="#5D514B" transform="matrix(1.00, 0.00, -0.00, -1.00, 602.6, 56.7)">c</text><text xml:space="preserve" font-family="AvenirNext-MediumItalic,Avenir Next" font-style="italic" font-size="32.0" fill="#5D514B" transform="matrix(1.00, 0.00, -0.00, -1.00, 618.5, 56.7)">o</text><text xml:space="preserve" font-family="AvenirNext-MediumItalic,Avenir Next" font-style="italic" font-size="32.0" fill="#5D514B" transform="matrix(1.00, 0.00, -0.00, -1.00, 637.7, 56.7)">m</text><text xml:space="preserve" font-family="AvenirNext-MediumItalic,Avenir Next" font-style="italic" font-size="32.0" fill="#5D514B" transform="matrix(1.00, 0.00, -0.00, -1.00, 666.0, 56.7)">m</text><text xml:space="preserve" font-family="AvenirNext-MediumItalic,Avenir Next" font-style="italic" font-size="32.0" fill="#5D514B" transform="matrix(1.00, 0.00, -0.00, -1.00, 694.3, 56.7)">e</text><text xml:space="preserve" font-family="AvenirNext-MediumItalic,Avenir Next" font-style="italic" font-size="32.0" fill="#5D514B" transform="matrix(1.00, 0.00, -0.00, -1.00, 712.4, 56.7)">n</text><text xml:space="preserve" font-family="AvenirNext-MediumItalic,Avenir Next" font-style="italic" font-size="32.0" fill="#5D514B" transform="matrix(1.00, 0.00, -0.00, -1.00, 731.0, 56.7)">t</text><text xml:space="preserve" font-family="AvenirNext-MediumItalic,Avenir Next" font-style="italic" font-size="32.0" fill="#5D514B" transform="matrix(1.00, 0.00, -0.00, -1.00, 741.3, 56.7)"> </text><text xml:space="preserve" font-family="AvenirNext-MediumItalic,Avenir Next" font-style="italic" font-size="32.0" fill="#5D514B" transform="matrix(1.00, 0.00, -0.00, -1.00, 749.3, 56.7)">m</text><text xml:space="preserve" font-family="AvenirNext-MediumItalic,Avenir Next" font-style="italic" font-size="32.0" fill="#5D514B" transform="matrix(1.00, 0.00, -0.00, -1.00, 777.6, 56.7)">e</text><text xml:space="preserve" font-family="AvenirNext-MediumItalic,Avenir Next" font-style="italic" font-size="32.0" fill="#5D514B" transform="matrix(1.00, 0.00, -0.00, -1.00, 795.7, 56.7)">t</text><text xml:space="preserve" font-family="AvenirNext-MediumItalic,Avenir Next" font-style="italic" font-size="32.0" fill="#5D514B" transform="matrix(1.00, 0.00, -0.00, -1.00, 805.5, 56.7)">t</text><text xml:space="preserve" font-family="AvenirNext-MediumItalic,Avenir Next" font-style="italic" font-size="32.0" fill="#5D514B" transform="matrix(1.00, 0.00, -0.00, -1.00, 815.9, 56.7)">r</text><text xml:space="preserve" font-family="AvenirNext-MediumItalic,Avenir Next" font-style="italic" font-size="32.0" fill="#5D514B" transform="matrix(1.00, 0.00, -0.00, -1.00, 826.4, 56.7)">e</text><text xml:space="preserve" font-family="AvenirNext-MediumItalic,Avenir Next" font-style="italic" font-size="32.0" fill="#5D514B" transform="matrix(1.00, 0.00, -0.00, -1.00, 844.5, 56.7)"> </text><text xml:space="preserve" font-family="AvenirNext-MediumItalic,Avenir Next" font-style="italic" font-size="32.0" fill="#5D514B" transform="matrix(1.00, 0.00, -0.00, -1.00, 852.5, 56.7)">e</text><text xml:space="preserve" font-family="AvenirNext-MediumItalic,Avenir Next" font-style="italic" font-size="32.0" fill="#5D514B" transform="matrix(1.00, 0.00, -0.00, -1.00, 870.6, 56.7)">n</text><text xml:space="preserve" font-family="AvenirNext-MediumItalic,Avenir Next" font-style="italic" font-size="32.0" fill="#5D514B" transform="matrix(1.00, 0.00, -0.00, -1.00, 889.2, 56.7)"> </text><image xlink:href="204EE68753084F69707DE21726CCFCA4.png" width="698.00" height="36.00" transform="matrix(1.00, 0.00, -0.00, -1.00, 2.0, 37.0)"></image><text xml:space="preserve" font-family="AvenirNext-MediumItalic,Avenir Next" font-style="italic" font-size="32.0" fill="#5D514B" transform="matrix(1.00, 0.00, -0.00, -1.00, 4.9, 12.7)">p</text><text xml:space="preserve" font-family="AvenirNext-MediumItalic,Avenir Next" font-style="italic" font-size="32.0" fill="#5D514B" transform="matrix(1.00, 0.00, -0.00, -1.00, 25.1, 12.7)">l</text><text xml:space="preserve" font-family="AvenirNext-MediumItalic,Avenir Next" font-style="italic" font-size="32.0" fill="#5D514B" transform="matrix(1.00, 0.00, -0.00, -1.00, 33.5, 12.7)">a</text><text xml:space="preserve" font-family="AvenirNext-MediumItalic,Avenir Next" font-style="italic" font-size="32.0" fill="#5D514B" transform="matrix(1.00, 0.00, -0.00, -1.00, 50.6, 12.7)">c</text><text xml:space="preserve" font-family="AvenirNext-MediumItalic,Avenir Next" font-style="italic" font-size="32.0" fill="#5D514B" transform="matrix(1.00, 0.00, -0.00, -1.00, 66.5, 12.7)">e</text><text xml:space="preserve" font-family="AvenirNext-MediumItalic,Avenir Next" font-style="italic" font-size="32.0" fill="#5D514B" transform="matrix(1.00, 0.00, -0.00, -1.00, 84.6, 12.7)"> </text><text xml:space="preserve" font-family="AvenirNext-MediumItalic,Avenir Next" font-style="italic" font-size="32.0" fill="#5D514B" transform="matrix(1.00, 0.00, -0.00, -1.00, 92.6, 12.7)">u</text><text xml:space="preserve" font-family="AvenirNext-MediumItalic,Avenir Next" font-style="italic" font-size="32.0" fill="#5D514B" transform="matrix(1.00, 0.00, -0.00, -1.00, 111.2, 12.7)">n</text><text xml:space="preserve" font-family="AvenirNext-MediumItalic,Avenir Next" font-style="italic" font-size="32.0" fill="#5D514B" transform="matrix(1.00, 0.00, -0.00, -1.00, 129.8, 12.7)"> </text><text xml:space="preserve" font-family="AvenirNext-MediumItalic,Avenir Next" font-style="italic" font-size="32.0" fill="#5D514B" transform="matrix(1.00, 0.00, -0.00, -1.00, 137.8, 12.7)">a</text><text xml:space="preserve" font-family="AvenirNext-MediumItalic,Avenir Next" font-style="italic" font-size="32.0" fill="#5D514B" transform="matrix(1.00, 0.00, -0.00, -1.00, 155.0, 12.7)">d</text><text xml:space="preserve" font-family="AvenirNext-MediumItalic,Avenir Next" font-style="italic" font-size="32.0" fill="#5D514B" transform="matrix(1.00, 0.00, -0.00, -1.00, 175.1, 12.7)">a</text><text xml:space="preserve" font-family="AvenirNext-MediumItalic,Avenir Next" font-style="italic" font-size="32.0" fill="#5D514B" transform="matrix(1.00, 0.00, -0.00, -1.00, 192.2, 12.7)">p</text><text xml:space="preserve" font-family="AvenirNext-MediumItalic,Avenir Next" font-style="italic" font-size="32.0" fill="#5D514B" transform="matrix(1.00, 0.00, -0.00, -1.00, 212.5, 12.7)">t</text><text xml:space="preserve" font-family="AvenirNext-MediumItalic,Avenir Next" font-style="italic" font-size="32.0" fill="#5D514B" transform="matrix(1.00, 0.00, -0.00, -1.00, 222.8, 12.7)">a</text><text xml:space="preserve" font-family="AvenirNext-MediumItalic,Avenir Next" font-style="italic" font-size="32.0" fill="#5D514B" transform="matrix(1.00, 0.00, -0.00, -1.00, 239.7, 12.7)">t</text><text xml:space="preserve" font-family="AvenirNext-MediumItalic,Avenir Next" font-style="italic" font-size="32.0" fill="#5D514B" transform="matrix(1.00, 0.00, -0.00, -1.00, 250.1, 12.7)">e</text><text xml:space="preserve" font-family="AvenirNext-MediumItalic,Avenir Next" font-style="italic" font-size="32.0" fill="#5D514B" transform="matrix(1.00, 0.00, -0.00, -1.00, 268.1, 12.7)">u</text><text xml:space="preserve" font-family="AvenirNext-MediumItalic,Avenir Next" font-style="italic" font-size="32.0" fill="#5D514B" transform="matrix(1.00, 0.00, -0.00, -1.00, 286.7, 12.7)">r</text><text xml:space="preserve" font-family="AvenirNext-MediumItalic,Avenir Next" font-style="italic" font-size="32.0" fill="#5D514B" transform="matrix(1.00, 0.00, -0.00, -1.00, 297.7, 12.7)"> </text><text xml:space="preserve" font-family="AvenirNext-MediumItalic,Avenir Next" font-style="italic" font-size="32.0" fill="#5D514B" transform="matrix(1.00, 0.00, -0.00, -1.00, 305.7, 12.7)">p</text><text xml:space="preserve" font-family="AvenirNext-MediumItalic,Avenir Next" font-style="italic" font-size="32.0" fill="#5D514B" transform="matrix(1.00, 0.00, -0.00, -1.00, 325.9, 12.7)">o</text><text xml:space="preserve" font-family="AvenirNext-MediumItalic,Avenir Next" font-style="italic" font-size="32.0" fill="#5D514B" transform="matrix(1.00, 0.00, -0.00, -1.00, 345.1, 12.7)">u</text><text xml:space="preserve" font-family="AvenirNext-MediumItalic,Avenir Next" font-style="italic" font-size="32.0" fill="#5D514B" transform="matrix(1.00, 0.00, -0.00, -1.00, 363.7, 12.7)">r</text><text xml:space="preserve" font-family="AvenirNext-MediumItalic,Avenir Next" font-style="italic" font-size="32.0" fill="#5D514B" transform="matrix(1.00, 0.00, -0.00, -1.00, 374.7, 12.7)"> </text><text xml:space="preserve" font-family="AvenirNext-MediumItalic,Avenir Next" font-style="italic" font-size="32.0" fill="#5D514B" transform="matrix(1.00, 0.00, -0.00, -1.00, 382.7, 12.7)">n</text><text xml:space="preserve" font-family="AvenirNext-MediumItalic,Avenir Next" font-style="italic" font-size="32.0" fill="#5D514B" transform="matrix(1.00, 0.00, -0.00, -1.00, 401.3, 12.7)">e</text><text xml:space="preserve" font-family="AvenirNext-MediumItalic,Avenir Next" font-style="italic" font-size="32.0" fill="#5D514B" transform="matrix(1.00, 0.00, -0.00, -1.00, 419.4, 12.7)"> </text><text xml:space="preserve" font-family="AvenirNext-MediumItalic,Avenir Next" font-style="italic" font-size="32.0" fill="#5D514B" transform="matrix(1.00, 0.00, -0.00, -1.00, 427.4, 12.7)">p</text><text xml:space="preserve" font-family="AvenirNext-MediumItalic,Avenir Next" font-style="italic" font-size="32.0" fill="#5D514B" transform="matrix(1.00, 0.00, -0.00, -1.00, 447.6, 12.7)">a</text><text xml:space="preserve" font-family="AvenirNext-MediumItalic,Avenir Next" font-style="italic" font-size="32.0" fill="#5D514B" transform="matrix(1.00, 0.00, -0.00, -1.00, 464.8, 12.7)">s</text><text xml:space="preserve" font-family="AvenirNext-MediumItalic,Avenir Next" font-style="italic" font-size="32.0" fill="#5D514B" transform="matrix(1.00, 0.00, -0.00, -1.00, 479.0, 12.7)"> </text><text xml:space="preserve" font-family="AvenirNext-MediumItalic,Avenir Next" font-style="italic" font-size="32.0" fill="#5D514B" transform="matrix(1.00, 0.00, -0.00, -1.00, 487.0, 12.7)">t</text><text xml:space="preserve" font-family="AvenirNext-MediumItalic,Avenir Next" font-style="italic" font-size="32.0" fill="#5D514B" transform="matrix(1.00, 0.00, -0.00, -1.00, 497.4, 12.7)">o</text><text xml:space="preserve" font-family="AvenirNext-MediumItalic,Avenir Next" font-style="italic" font-size="32.0" fill="#5D514B" transform="matrix(1.00, 0.00, -0.00, -1.00, 516.6, 12.7)">u</text><text xml:space="preserve" font-family="AvenirNext-MediumItalic,Avenir Next" font-style="italic" font-size="32.0" fill="#5D514B" transform="matrix(1.00, 0.00, -0.00, -1.00, 535.1, 12.7)">t</text><text xml:space="preserve" font-family="AvenirNext-MediumItalic,Avenir Next" font-style="italic" font-size="32.0" fill="#5D514B" transform="matrix(1.00, 0.00, -0.00, -1.00, 545.5, 12.7)"> </text><text xml:space="preserve" font-family="AvenirNext-MediumItalic,Avenir Next" font-style="italic" font-size="32.0" fill="#5D514B" transform="matrix(1.00, 0.00, -0.00, -1.00, 553.5, 12.7)">c</text><text xml:space="preserve" font-family="AvenirNext-MediumItalic,Avenir Next" font-style="italic" font-size="32.0" fill="#5D514B" transform="matrix(1.00, 0.00, -0.00, -1.00, 569.4, 12.7)">h</text><text xml:space="preserve" font-family="AvenirNext-MediumItalic,Avenir Next" font-style="italic" font-size="32.0" fill="#5D514B" transform="matrix(1.00, 0.00, -0.00, -1.00, 588.0, 12.7)">a</text><text xml:space="preserve" font-family="AvenirNext-MediumItalic,Avenir Next" font-style="italic" font-size="32.0" fill="#5D514B" transform="matrix(1.00, 0.00, -0.00, -1.00, 605.2, 12.7)">n</text><text xml:space="preserve" font-family="AvenirNext-MediumItalic,Avenir Next" font-style="italic" font-size="32.0" fill="#5D514B" transform="matrix(1.00, 0.00, -0.00, -1.00, 623.8, 12.7)">g</text><text xml:space="preserve" font-family="AvenirNext-MediumItalic,Avenir Next" font-style="italic" font-size="32.0" fill="#5D514B" transform="matrix(1.00, 0.00, -0.00, -1.00, 643.9, 12.7)">e</text><text xml:space="preserve" font-family="AvenirNext-MediumItalic,Avenir Next" font-style="italic" font-size="32.0" fill="#5D514B" transform="matrix(1.00, 0.00, -0.00, -1.00, 662.0, 12.7)">r</text><text xml:space="preserve" font-family="AvenirNext-MediumItalic,Avenir Next" font-style="italic" font-size="32.0" fill="#5D514B" transform="matrix(1.00, 0.00, -0.00, -1.00, 673.0, 12.7)"> </text><text xml:space="preserve" font-family="AvenirNext-MediumItalic,Avenir Next" font-style="italic" font-size="32.0" fill="#5D514B" transform="matrix(1.00, 0.00, -0.00, -1.00, 681.0, 12.7)">?</text><text xml:space="preserve" font-family="AvenirNext-MediumItalic,Avenir Next" font-style="italic" font-size="32.0" fill="#5D514B" transform="matrix(1.00, 0.00, -0.00, -1.00, 697.0, 12.7)"> </text></g></svg>