<?xml version="1.0" encoding="UTF-8" standalone="no"?><svg xmlns="http://www.w3.org/2000/svg" xmlns:xlink="http://www.w3.org/1999/xlink" clip-rule="evenodd" stroke-miterlimit="10" viewBox="0 0 793 68"><desc>SVG generated by Keynote</desc><defs></defs><g transform="matrix(1.00, 0.00, -0.00, -1.00, 0.0, 68.0)"><image xlink:href="B6215CA0BFED6039B21CE068245BFD74.png" width="788.00" height="34.00" transform="matrix(1.00, 0.00, -0.00, -1.00, 3.0, 67.0)"></image><text xml:space="preserve" font-family="AvenirNext-Medium,Avenir Next" font-size="28.0" fill="#5D514B" transform="matrix(1.00, 0.00, -0.00, -1.00, 3.4, 44.6)">L</text><text xml:space="preserve" font-family="AvenirNext-Medium,Avenir Next" font-size="28.0" fill="#5D514B" transform="matrix(1.00, 0.00, -0.00, -1.00, 17.2, 44.6)">e</text><text xml:space="preserve" font-family="AvenirNext-Medium,Avenir Next" font-size="28.0" fill="#5D514B" transform="matrix(1.00, 0.00, -0.00, -1.00, 33.2, 44.6)"> </text><text xml:space="preserve" font-family="AvenirNext-Medium,Avenir Next" font-size="28.0" fill="#5D514B" transform="matrix(1.00, 0.00, -0.00, -1.00, 40.2, 44.6)">f</text><text xml:space="preserve" font-family="AvenirNext-Medium,Avenir Next" font-size="28.0" fill="#5D514B" transform="matrix(1.00, 0.00, -0.00, -1.00, 48.9, 44.6)">o</text><text xml:space="preserve" font-family="AvenirNext-Medium,Avenir Next" font-size="28.0" fill="#5D514B" transform="matrix(1.00, 0.00, -0.00, -1.00, 66.0, 44.6)">r</text><text xml:space="preserve" font-family="AvenirNext-Medium,Avenir Next" font-size="28.0" fill="#5D514B" transform="matrix(1.00, 0.00, -0.00, -1.00, 76.1, 44.6)">m</text><text xml:space="preserve" font-family="AvenirNext-Medium,Avenir Next" font-size="28.0" fill="#5D514B" transform="matrix(1.00, 0.00, -0.00, -1.00, 101.0, 44.6)">u</text><text xml:space="preserve" font-family="AvenirNext-Medium,Avenir Next" font-size="28.0" fill="#5D514B" transform="matrix(1.00, 0.00, -0.00, -1.00, 117.3, 44.6)">l</text><text xml:space="preserve" font-family="AvenirNext-Medium,Avenir Next" font-size="28.0" fill="#5D514B" transform="matrix(1.00, 0.00, -0.00, -1.00, 124.6, 44.6)">a</text><text xml:space="preserve" font-family="AvenirNext-Medium,Avenir Next" font-size="28.0" fill="#5D514B" transform="matrix(1.00, 0.00, -0.00, -1.00, 139.7, 44.6)">i</text><text xml:space="preserve" font-family="AvenirNext-Medium,Avenir Next" font-size="28.0" fill="#5D514B" transform="matrix(1.00, 0.00, -0.00, -1.00, 147.0, 44.6)">r</text><text xml:space="preserve" font-family="AvenirNext-Medium,Avenir Next" font-size="28.0" fill="#5D514B" transform="matrix(1.00, 0.00, -0.00, -1.00, 156.6, 44.6)">e</text><text xml:space="preserve" font-family="AvenirNext-Medium,Avenir Next" font-size="28.0" fill="#5D514B" transform="matrix(1.00, 0.00, -0.00, -1.00, 172.7, 44.6)"> </text><text xml:space="preserve" font-family="AvenirNext-Medium,Avenir Next" font-size="28.0" fill="#5D514B" transform="matrix(1.00, 0.00, -0.00, -1.00, 179.7, 44.6)">e</text><text xml:space="preserve" font-family="AvenirNext-Medium,Avenir Next" font-size="28.0" fill="#5D514B" transform="matrix(1.00, 0.00, -0.00, -1.00, 195.7, 44.6)">s</text><text xml:space="preserve" font-family="AvenirNext-Medium,Avenir Next" font-size="28.0" fill="#5D514B" transform="matrix(1.00, 0.00, -0.00, -1.00, 208.1, 44.6)">t</text><text xml:space="preserve" font-family="AvenirNext-Medium,Avenir Next" font-size="28.0" fill="#5D514B" transform="matrix(1.00, 0.00, -0.00, -1.00, 217.3, 44.6)"> </text><text xml:space="preserve" font-family="AvenirNext-Medium,Avenir Next" font-size="28.0" fill="#5D514B" transform="matrix(1.00, 0.00, -0.00, -1.00, 224.3, 44.6)">e</text><text xml:space="preserve" font-family="AvenirNext-Medium,Avenir Next" font-size="28.0" fill="#5D514B" transform="matrix(1.00, 0.00, -0.00, -1.00, 240.4, 44.6)">n</text><text xml:space="preserve" font-family="AvenirNext-Medium,Avenir Next" font-size="28.0" fill="#5D514B" transform="matrix(1.00, 0.00, -0.00, -1.00, 256.7, 44.6)"> </text><text xml:space="preserve" font-family="AvenirNext-Medium,Avenir Next" font-size="28.0" fill="#5D514B" transform="matrix(1.00, 0.00, -0.00, -1.00, 263.7, 44.6)">p</text><text xml:space="preserve" font-family="AvenirNext-Medium,Avenir Next" font-size="28.0" fill="#5D514B" transform="matrix(1.00, 0.00, -0.00, -1.00, 281.4, 44.6)">o</text><text xml:space="preserve" font-family="AvenirNext-Medium,Avenir Next" font-size="28.0" fill="#5D514B" transform="matrix(1.00, 0.00, -0.00, -1.00, 298.5, 44.6)">s</text><text xml:space="preserve" font-family="AvenirNext-Medium,Avenir Next" font-size="28.0" fill="#5D514B" transform="matrix(1.00, 0.00, -0.00, -1.00, 311.0, 44.6)">t</text><text xml:space="preserve" font-family="AvenirNext-Medium,Avenir Next" font-size="28.0" fill="#5D514B" transform="matrix(1.00, 0.00, -0.00, -1.00, 320.2, 44.6)">,</text><text xml:space="preserve" font-family="AvenirNext-Medium,Avenir Next" font-size="28.0" fill="#5D514B" transform="matrix(1.00, 0.00, -0.00, -1.00, 326.6, 44.6)"> </text><text xml:space="preserve" font-family="AvenirNext-Medium,Avenir Next" font-size="28.0" fill="#5D514B" transform="matrix(1.00, 0.00, -0.00, -1.00, 333.6, 44.6)">l</text><text xml:space="preserve" font-family="AvenirNext-Medium,Avenir Next" font-size="28.0" fill="#5D514B" transform="matrix(1.00, 0.00, -0.00, -1.00, 340.9, 44.6)">e</text><text xml:space="preserve" font-family="AvenirNext-Medium,Avenir Next" font-size="28.0" fill="#5D514B" transform="matrix(1.00, 0.00, -0.00, -1.00, 356.9, 44.6)">s</text><text xml:space="preserve" font-family="AvenirNext-Medium,Avenir Next" font-size="28.0" fill="#5D514B" transform="matrix(1.00, 0.00, -0.00, -1.00, 369.4, 44.6)"> </text><text xml:space="preserve" font-family="AvenirNext-Medium,Avenir Next" font-size="28.0" fill="#5D514B" transform="matrix(1.00, 0.00, -0.00, -1.00, 376.4, 44.6)">i</text><text xml:space="preserve" font-family="AvenirNext-Medium,Avenir Next" font-size="28.0" fill="#5D514B" transform="matrix(1.00, 0.00, -0.00, -1.00, 383.6, 44.6)">n</text><text xml:space="preserve" font-family="AvenirNext-Medium,Avenir Next" font-size="28.0" fill="#5D514B" transform="matrix(1.00, 0.00, -0.00, -1.00, 399.9, 44.6)">f</text><text xml:space="preserve" font-family="AvenirNext-Medium,Avenir Next" font-size="28.0" fill="#5D514B" transform="matrix(1.00, 0.00, -0.00, -1.00, 408.6, 44.6)">o</text><text xml:space="preserve" font-family="AvenirNext-Medium,Avenir Next" font-size="28.0" fill="#5D514B" transform="matrix(1.00, 0.00, -0.00, -1.00, 425.7, 44.6)">r</text><text xml:space="preserve" font-family="AvenirNext-Medium,Avenir Next" font-size="28.0" fill="#5D514B" transform="matrix(1.00, 0.00, -0.00, -1.00, 435.8, 44.6)">m</text><text xml:space="preserve" font-family="AvenirNext-Medium,Avenir Next" font-size="28.0" fill="#5D514B" transform="matrix(1.00, 0.00, -0.00, -1.00, 460.6, 44.6)">a</text><text xml:space="preserve" font-family="AvenirNext-Medium,Avenir Next" font-size="28.0" fill="#5D514B" transform="matrix(1.00, 0.00, -0.00, -1.00, 475.5, 44.6)">t</text><text xml:space="preserve" font-family="AvenirNext-Medium,Avenir Next" font-size="28.0" fill="#5D514B" transform="matrix(1.00, 0.00, -0.00, -1.00, 484.7, 44.6)">i</text><text xml:space="preserve" font-family="AvenirNext-Medium,Avenir Next" font-size="28.0" fill="#5D514B" transform="matrix(1.00, 0.00, -0.00, -1.00, 492.0, 44.6)">o</text><text xml:space="preserve" font-family="AvenirNext-Medium,Avenir Next" font-size="28.0" fill="#5D514B" transform="matrix(1.00, 0.00, -0.00, -1.00, 509.1, 44.6)">n</text><text xml:space="preserve" font-family="AvenirNext-Medium,Avenir Next" font-size="28.0" fill="#5D514B" transform="matrix(1.00, 0.00, -0.00, -1.00, 525.4, 44.6)">s</text><text xml:space="preserve" font-family="AvenirNext-Medium,Avenir Next" font-size="28.0" fill="#5D514B" transform="matrix(1.00, 0.00, -0.00, -1.00, 537.8, 44.6)"> </text><text xml:space="preserve" font-family="AvenirNext-Medium,Avenir Next" font-size="28.0" fill="#5D514B" transform="matrix(1.00, 0.00, -0.00, -1.00, 544.8, 44.6)">n</text><text xml:space="preserve" font-family="AvenirNext-Medium,Avenir Next" font-size="28.0" fill="#5D514B" transform="matrix(1.00, 0.00, -0.00, -1.00, 561.1, 44.6)">e</text><text xml:space="preserve" font-family="AvenirNext-Medium,Avenir Next" font-size="28.0" fill="#5D514B" transform="matrix(1.00, 0.00, -0.00, -1.00, 577.1, 44.6)"> </text><text xml:space="preserve" font-family="AvenirNext-Medium,Avenir Next" font-size="28.0" fill="#5D514B" transform="matrix(1.00, 0.00, -0.00, -1.00, 584.1, 44.6)">s</text><text xml:space="preserve" font-family="AvenirNext-Medium,Avenir Next" font-size="28.0" fill="#5D514B" transform="matrix(1.00, 0.00, -0.00, -1.00, 596.6, 44.6)">e</text><text xml:space="preserve" font-family="AvenirNext-Medium,Avenir Next" font-size="28.0" fill="#5D514B" transform="matrix(1.00, 0.00, -0.00, -1.00, 612.6, 44.6)">r</text><text xml:space="preserve" font-family="AvenirNext-Medium,Avenir Next" font-size="28.0" fill="#5D514B" transform="matrix(1.00, 0.00, -0.00, -1.00, 622.3, 44.6)">o</text><text xml:space="preserve" font-family="AvenirNext-Medium,Avenir Next" font-size="28.0" fill="#5D514B" transform="matrix(1.00, 0.00, -0.00, -1.00, 639.3, 44.6)">n</text><text xml:space="preserve" font-family="AvenirNext-Medium,Avenir Next" font-size="28.0" fill="#5D514B" transform="matrix(1.00, 0.00, -0.00, -1.00, 655.6, 44.6)">t</text><text xml:space="preserve" font-family="AvenirNext-Medium,Avenir Next" font-size="28.0" fill="#5D514B" transform="matrix(1.00, 0.00, -0.00, -1.00, 664.8, 44.6)"> </text><text xml:space="preserve" font-family="AvenirNext-Medium,Avenir Next" font-size="28.0" fill="#5D514B" transform="matrix(1.00, 0.00, -0.00, -1.00, 671.8, 44.6)">d</text><text xml:space="preserve" font-family="AvenirNext-Medium,Avenir Next" font-size="28.0" fill="#5D514B" transform="matrix(1.00, 0.00, -0.00, -1.00, 689.6, 44.6)">o</text><text xml:space="preserve" font-family="AvenirNext-Medium,Avenir Next" font-size="28.0" fill="#5D514B" transform="matrix(1.00, 0.00, -0.00, -1.00, 706.7, 44.6)">n</text><text xml:space="preserve" font-family="AvenirNext-Medium,Avenir Next" font-size="28.0" fill="#5D514B" transform="matrix(1.00, 0.00, -0.00, -1.00, 723.0, 44.6)">c</text><text xml:space="preserve" font-family="AvenirNext-Medium,Avenir Next" font-size="28.0" fill="#5D514B" transform="matrix(1.00, 0.00, -0.00, -1.00, 736.8, 44.6)"> </text><text xml:space="preserve" font-family="AvenirNext-Medium,Avenir Next" font-size="28.0" fill="#5D514B" transform="matrix(1.00, 0.00, -0.00, -1.00, 743.8, 44.6)">p</text><text xml:space="preserve" font-family="AvenirNext-Medium,Avenir Next" font-size="28.0" fill="#5D514B" transform="matrix(1.00, 0.00, -0.00, -1.00, 761.6, 44.6)">a</text><text xml:space="preserve" font-family="AvenirNext-Medium,Avenir Next" font-size="28.0" fill="#5D514B" transform="matrix(1.00, 0.00, -0.00, -1.00, 776.8, 44.6)">s</text><text xml:space="preserve" font-family="AvenirNext-Medium,Avenir Next" font-size="28.0" fill="#5D514B" transform="matrix(1.00, 0.00, -0.00, -1.00, 789.2, 44.6)"> </text><image xlink:href="01903E66383E439701CF8715EA99E560.png" width="221.00" height="26.00" transform="matrix(1.00, 0.00, -0.00, -1.00, 1.0, 28.0)"></image><text xml:space="preserve" font-family="AvenirNext-Medium,Avenir Next" font-size="28.0" fill="#5D514B" transform="matrix(1.00, 0.00, -0.00, -1.00, 3.4, 6.6)">v</text><text xml:space="preserve" font-family="AvenirNext-Medium,Avenir Next" font-size="28.0" fill="#5D514B" transform="matrix(1.00, 0.00, -0.00, -1.00, 17.5, 6.6)">i</text><text xml:space="preserve" font-family="AvenirNext-Medium,Avenir Next" font-size="28.0" fill="#5D514B" transform="matrix(1.00, 0.00, -0.00, -1.00, 24.8, 6.6)">s</text><text xml:space="preserve" font-family="AvenirNext-Medium,Avenir Next" font-size="28.0" fill="#5D514B" transform="matrix(1.00, 0.00, -0.00, -1.00, 37.2, 6.6)">i</text><text xml:space="preserve" font-family="AvenirNext-Medium,Avenir Next" font-size="28.0" fill="#5D514B" transform="matrix(1.00, 0.00, -0.00, -1.00, 44.4, 6.6)">b</text><text xml:space="preserve" font-family="AvenirNext-Medium,Avenir Next" font-size="28.0" fill="#5D514B" transform="matrix(1.00, 0.00, -0.00, -1.00, 62.3, 6.6)">l</text><text xml:space="preserve" font-family="AvenirNext-Medium,Avenir Next" font-size="28.0" fill="#5D514B" transform="matrix(1.00, 0.00, -0.00, -1.00, 69.5, 6.6)">e</text><text xml:space="preserve" font-family="AvenirNext-Medium,Avenir Next" font-size="28.0" fill="#5D514B" transform="matrix(1.00, 0.00, -0.00, -1.00, 85.6, 6.6)">s</text><text xml:space="preserve" font-family="AvenirNext-Medium,Avenir Next" font-size="28.0" fill="#5D514B" transform="matrix(1.00, 0.00, -0.00, -1.00, 98.0, 6.6)"> </text><text xml:space="preserve" font-family="AvenirNext-Medium,Avenir Next" font-size="28.0" fill="#5D514B" transform="matrix(1.00, 0.00, -0.00, -1.00, 105.0, 6.6)">d</text><text xml:space="preserve" font-family="AvenirNext-Medium,Avenir Next" font-size="28.0" fill="#5D514B" transform="matrix(1.00, 0.00, -0.00, -1.00, 122.8, 6.6)">a</text><text xml:space="preserve" font-family="AvenirNext-Medium,Avenir Next" font-size="28.0" fill="#5D514B" transform="matrix(1.00, 0.00, -0.00, -1.00, 138.0, 6.6)">n</text><text xml:space="preserve" font-family="AvenirNext-Medium,Avenir Next" font-size="28.0" fill="#5D514B" transform="matrix(1.00, 0.00, -0.00, -1.00, 154.3, 6.6)">s</text><text xml:space="preserve" font-family="AvenirNext-Medium,Avenir Next" font-size="28.0" fill="#5D514B" transform="matrix(1.00, 0.00, -0.00, -1.00, 166.7, 6.6)"> </text><text xml:space="preserve" font-family="AvenirNext-Medium,Avenir Next" font-size="28.0" fill="#5D514B" transform="matrix(1.00, 0.00, -0.00, -1.00, 173.7, 6.6)">l</text><text xml:space="preserve" font-family="AvenirNext-Medium,Avenir Next" font-size="28.0" fill="#5D514B" transform="matrix(1.00, 0.00, -0.00, -1.00, 181.0, 6.6)">’</text><text xml:space="preserve" font-family="AvenirNext-Medium,Avenir Next" font-size="28.0" fill="#5D514B" transform="matrix(1.00, 0.00, -0.00, -1.00, 187.9, 6.6)">u</text><text xml:space="preserve" font-family="AvenirNext-Medium,Avenir Next" font-size="28.0" fill="#5D514B" transform="matrix(1.00, 0.00, -0.00, -1.00, 204.2, 6.6)">r</text><text xml:space="preserve" font-family="AvenirNext-Medium,Avenir Next" font-size="28.0" fill="#5D514B" transform="matrix(1.00, 0.00, -0.00, -1.00, 214.3, 6.6)">l</text></g></svg>