<?xml version="1.0" encoding="UTF-8" standalone="no"?><svg xmlns="http://www.w3.org/2000/svg" xmlns:xlink="http://www.w3.org/1999/xlink" clip-rule="evenodd" stroke-miterlimit="10" viewBox="0 0 819 227"><desc>SVG generated by Keynote</desc><defs></defs><g transform="matrix(1.00, 0.00, -0.00, -1.00, 0.0, 227.0)"><text xml:space="preserve" font-family="CourierNewPS-BoldMT,Courier New" font-weight="bold" font-size="20.0" fill="#000000" transform="matrix(1.00, 0.00, -0.00, -1.00, 2.4, 211.5)">&lt;</text><text xml:space="preserve" font-family="CourierNewPS-BoldMT,Courier New" font-weight="bold" font-size="20.0" fill="#000000" transform="matrix(1.00, 0.00, -0.00, -1.00, 14.4, 211.5)">f</text><text xml:space="preserve" font-family="CourierNewPS-BoldMT,Courier New" font-weight="bold" font-size="20.0" fill="#000000" transform="matrix(1.00, 0.00, -0.00, -1.00, 26.4, 211.5)">o</text><text xml:space="preserve" font-family="CourierNewPS-BoldMT,Courier New" font-weight="bold" font-size="20.0" fill="#000000" transform="matrix(1.00, 0.00, -0.00, -1.00, 38.4, 211.5)">r</text><text xml:space="preserve" font-family="CourierNewPS-BoldMT,Courier New" font-weight="bold" font-size="20.0" fill="#000000" transform="matrix(1.00, 0.00, -0.00, -1.00, 50.4, 211.5)">m</text><text xml:space="preserve" font-family="CourierNewPSMT,Courier New" font-size="20.0" fill="#000000" transform="matrix(1.00, 0.00, -0.00, -1.00, 62.4, 211.5)"> </text><text xml:space="preserve" font-family="CourierNewPSMT,Courier New" font-size="20.0" fill="#006DBC" transform="matrix(1.00, 0.00, -0.00, -1.00, 74.4, 211.5)">a</text><text xml:space="preserve" font-family="CourierNewPSMT,Courier New" font-size="20.0" fill="#006DBC" transform="matrix(1.00, 0.00, -0.00, -1.00, 86.4, 211.5)">c</text><text xml:space="preserve" font-family="CourierNewPSMT,Courier New" font-size="20.0" fill="#006DBC" transform="matrix(1.00, 0.00, -0.00, -1.00, 98.5, 211.5)">t</text><text xml:space="preserve" font-family="CourierNewPSMT,Courier New" font-size="20.0" fill="#006DBC" transform="matrix(1.00, 0.00, -0.00, -1.00, 110.5, 211.5)">i</text><text xml:space="preserve" font-family="CourierNewPSMT,Courier New" font-size="20.0" fill="#006DBC" transform="matrix(1.00, 0.00, -0.00, -1.00, 122.5, 211.5)">o</text><text xml:space="preserve" font-family="CourierNewPSMT,Courier New" font-size="20.0" fill="#006DBC" transform="matrix(1.00, 0.00, -0.00, -1.00, 134.5, 211.5)">n</text><text xml:space="preserve" font-family="CourierNewPSMT,Courier New" font-size="20.0" fill="#000000" transform="matrix(1.00, 0.00, -0.00, -1.00, 146.5, 211.5)">=</text><text xml:space="preserve" font-family="CourierNewPSMT,Courier New" font-size="20.0" fill="#CC1C00" transform="matrix(1.00, 0.00, -0.00, -1.00, 158.5, 211.5)">"</text><text xml:space="preserve" font-family="CourierNewPSMT,Courier New" font-size="20.0" fill="#CC1C00" transform="matrix(1.00, 0.00, -0.00, -1.00, 170.5, 211.5)">#</text><text xml:space="preserve" font-family="CourierNewPSMT,Courier New" font-size="20.0" fill="#CC1C00" transform="matrix(1.00, 0.00, -0.00, -1.00, 182.5, 211.5)">"</text><text xml:space="preserve" font-family="CourierNewPSMT,Courier New" font-size="20.0" fill="#000000" transform="matrix(1.00, 0.00, -0.00, -1.00, 194.5, 211.5)"> </text><text xml:space="preserve" font-family="CourierNewPSMT,Courier New" font-size="20.0" fill="#006DBC" transform="matrix(1.00, 0.00, -0.00, -1.00, 206.5, 211.5)">m</text><text xml:space="preserve" font-family="CourierNewPSMT,Courier New" font-size="20.0" fill="#006DBC" transform="matrix(1.00, 0.00, -0.00, -1.00, 218.5, 211.5)">e</text><text xml:space="preserve" font-family="CourierNewPSMT,Courier New" font-size="20.0" fill="#006DBC" transform="matrix(1.00, 0.00, -0.00, -1.00, 230.5, 211.5)">t</text><text xml:space="preserve" font-family="CourierNewPSMT,Courier New" font-size="20.0" fill="#006DBC" transform="matrix(1.00, 0.00, -0.00, -1.00, 242.5, 211.5)">h</text><text xml:space="preserve" font-family="CourierNewPSMT,Courier New" font-size="20.0" fill="#006DBC" transform="matrix(1.00, 0.00, -0.00, -1.00, 254.5, 211.5)">o</text><text xml:space="preserve" font-family="CourierNewPSMT,Courier New" font-size="20.0" fill="#006DBC" transform="matrix(1.00, 0.00, -0.00, -1.00, 266.5, 211.5)">d</text><text xml:space="preserve" font-family="CourierNewPSMT,Courier New" font-size="20.0" fill="#000000" transform="matrix(1.00, 0.00, -0.00, -1.00, 278.5, 211.5)">=</text><text xml:space="preserve" font-family="CourierNewPSMT,Courier New" font-size="20.0" fill="#CC1C00" transform="matrix(1.00, 0.00, -0.00, -1.00, 290.5, 211.5)">"</text><text xml:space="preserve" font-family="CourierNewPSMT,Courier New" font-size="20.0" fill="#CC1C00" transform="matrix(1.00, 0.00, -0.00, -1.00, 302.5, 211.5)">p</text><text xml:space="preserve" font-family="CourierNewPSMT,Courier New" font-size="20.0" fill="#CC1C00" transform="matrix(1.00, 0.00, -0.00, -1.00, 314.5, 211.5)">o</text><text xml:space="preserve" font-family="CourierNewPSMT,Courier New" font-size="20.0" fill="#CC1C00" transform="matrix(1.00, 0.00, -0.00, -1.00, 326.5, 211.5)">s</text><text xml:space="preserve" font-family="CourierNewPSMT,Courier New" font-size="20.0" fill="#CC1C00" transform="matrix(1.00, 0.00, -0.00, -1.00, 338.5, 211.5)">t</text><text xml:space="preserve" font-family="CourierNewPSMT,Courier New" font-size="20.0" fill="#CC1C00" transform="matrix(1.00, 0.00, -0.00, -1.00, 350.5, 211.5)">"</text><text xml:space="preserve" font-family="CourierNewPS-BoldMT,Courier New" font-weight="bold" font-size="20.0" fill="#000000" transform="matrix(1.00, 0.00, -0.00, -1.00, 362.5, 211.5)">&gt;</text><text xml:space="preserve" font-family="CourierNewPSMT,Courier New" font-size="20.0" fill="#000000" transform="matrix(1.00, 0.00, -0.00, -1.00, 374.5, 211.5)"> </text><text xml:space="preserve" font-family="CourierNewPSMT,Courier New" font-size="20.0" fill="#000000" transform="matrix(1.00, 0.00, -0.00, -1.00, 2.4, 188.5)"> </text><text xml:space="preserve" font-family="CourierNewPSMT,Courier New" font-size="20.0" fill="#000000" transform="matrix(1.00, 0.00, -0.00, -1.00, 14.4, 188.5)"> </text><text xml:space="preserve" font-family="CourierNewPSMT,Courier New" font-size="20.0" fill="#000000" transform="matrix(1.00, 0.00, -0.00, -1.00, 26.4, 188.5)"> </text><text xml:space="preserve" font-family="CourierNewPSMT,Courier New" font-size="20.0" fill="#000000" transform="matrix(1.00, 0.00, -0.00, -1.00, 38.4, 188.5)"> </text><text xml:space="preserve" font-family="CourierNewPS-BoldMT,Courier New" font-weight="bold" font-size="20.0" fill="#000000" transform="matrix(1.00, 0.00, -0.00, -1.00, 50.4, 188.5)">&lt;</text><text xml:space="preserve" font-family="CourierNewPS-BoldMT,Courier New" font-weight="bold" font-size="20.0" fill="#000000" transform="matrix(1.00, 0.00, -0.00, -1.00, 62.4, 188.5)">l</text><text xml:space="preserve" font-family="CourierNewPS-BoldMT,Courier New" font-weight="bold" font-size="20.0" fill="#000000" transform="matrix(1.00, 0.00, -0.00, -1.00, 74.4, 188.5)">a</text><text xml:space="preserve" font-family="CourierNewPS-BoldMT,Courier New" font-weight="bold" font-size="20.0" fill="#000000" transform="matrix(1.00, 0.00, -0.00, -1.00, 86.5, 188.5)">b</text><text xml:space="preserve" font-family="CourierNewPS-BoldMT,Courier New" font-weight="bold" font-size="20.0" fill="#000000" transform="matrix(1.00, 0.00, -0.00, -1.00, 98.5, 188.5)">e</text><text xml:space="preserve" font-family="CourierNewPS-BoldMT,Courier New" font-weight="bold" font-size="20.0" fill="#000000" transform="matrix(1.00, 0.00, -0.00, -1.00, 110.5, 188.5)">l</text><text xml:space="preserve" font-family="CourierNewPS-BoldMT,Courier New" font-weight="bold" font-size="20.0" fill="#000000" transform="matrix(1.00, 0.00, -0.00, -1.00, 122.5, 188.5)">&gt;</text><text xml:space="preserve" font-family="CourierNewPSMT,Courier New" font-size="20.0" fill="#000000" transform="matrix(1.00, 0.00, -0.00, -1.00, 134.5, 188.5)"> </text><text xml:space="preserve" font-family="CourierNewPSMT,Courier New" font-size="20.0" fill="#000000" transform="matrix(1.00, 0.00, -0.00, -1.00, 2.4, 165.5)"> </text><text xml:space="preserve" font-family="CourierNewPSMT,Courier New" font-size="20.0" fill="#000000" transform="matrix(1.00, 0.00, -0.00, -1.00, 14.4, 165.5)"> </text><text xml:space="preserve" font-family="CourierNewPSMT,Courier New" font-size="20.0" fill="#000000" transform="matrix(1.00, 0.00, -0.00, -1.00, 26.4, 165.5)"> </text><text xml:space="preserve" font-family="CourierNewPSMT,Courier New" font-size="20.0" fill="#000000" transform="matrix(1.00, 0.00, -0.00, -1.00, 38.4, 165.5)"> </text><text xml:space="preserve" font-family="CourierNewPSMT,Courier New" font-size="20.0" fill="#000000" transform="matrix(1.00, 0.00, -0.00, -1.00, 50.4, 165.5)"> </text><text xml:space="preserve" font-family="CourierNewPSMT,Courier New" font-size="20.0" fill="#000000" transform="matrix(1.00, 0.00, -0.00, -1.00, 62.5, 165.5)"> </text><text xml:space="preserve" font-family="CourierNewPSMT,Courier New" font-size="20.0" fill="#000000" transform="matrix(1.00, 0.00, -0.00, -1.00, 74.5, 165.5)"> </text><text xml:space="preserve" font-family="CourierNewPSMT,Courier New" font-size="20.0" fill="#000000" transform="matrix(1.00, 0.00, -0.00, -1.00, 86.5, 165.5)"> </text><text xml:space="preserve" font-family="CourierNewPS-BoldMT,Courier New" font-weight="bold" font-size="20.0" fill="#000000" transform="matrix(1.00, 0.00, -0.00, -1.00, 98.4, 165.5)">&lt;</text><text xml:space="preserve" font-family="CourierNewPS-BoldMT,Courier New" font-weight="bold" font-size="20.0" fill="#000000" transform="matrix(1.00, 0.00, -0.00, -1.00, 110.5, 165.5)">i</text><text xml:space="preserve" font-family="CourierNewPS-BoldMT,Courier New" font-weight="bold" font-size="20.0" fill="#000000" transform="matrix(1.00, 0.00, -0.00, -1.00, 122.5, 165.5)">n</text><text xml:space="preserve" font-family="CourierNewPS-BoldMT,Courier New" font-weight="bold" font-size="20.0" fill="#000000" transform="matrix(1.00, 0.00, -0.00, -1.00, 134.5, 165.5)">p</text><text xml:space="preserve" font-family="CourierNewPS-BoldMT,Courier New" font-weight="bold" font-size="20.0" fill="#000000" transform="matrix(1.00, 0.00, -0.00, -1.00, 146.5, 165.5)">u</text><text xml:space="preserve" font-family="CourierNewPS-BoldMT,Courier New" font-weight="bold" font-size="20.0" fill="#000000" transform="matrix(1.00, 0.00, -0.00, -1.00, 158.5, 165.5)">t</text><text xml:space="preserve" font-family="CourierNewPSMT,Courier New" font-size="20.0" fill="#000000" transform="matrix(1.00, 0.00, -0.00, -1.00, 170.5, 165.5)"> </text><text xml:space="preserve" font-family="CourierNewPSMT,Courier New" font-size="20.0" fill="#006DBC" transform="matrix(1.00, 0.00, -0.00, -1.00, 182.5, 165.5)">t</text><text xml:space="preserve" font-family="CourierNewPSMT,Courier New" font-size="20.0" fill="#006DBC" transform="matrix(1.00, 0.00, -0.00, -1.00, 194.5, 165.5)">y</text><text xml:space="preserve" font-family="CourierNewPSMT,Courier New" font-size="20.0" fill="#006DBC" transform="matrix(1.00, 0.00, -0.00, -1.00, 206.5, 165.5)">p</text><text xml:space="preserve" font-family="CourierNewPSMT,Courier New" font-size="20.0" fill="#006DBC" transform="matrix(1.00, 0.00, -0.00, -1.00, 218.5, 165.5)">e</text><text xml:space="preserve" font-family="CourierNewPSMT,Courier New" font-size="20.0" fill="#000000" transform="matrix(1.00, 0.00, -0.00, -1.00, 230.5, 165.5)">=</text><text xml:space="preserve" font-family="CourierNewPSMT,Courier New" font-size="20.0" fill="#CC1C00" transform="matrix(1.00, 0.00, -0.00, -1.00, 242.5, 165.5)">"</text><text xml:space="preserve" font-family="CourierNewPSMT,Courier New" font-size="20.0" fill="#CC1C00" transform="matrix(1.00, 0.00, -0.00, -1.00, 254.5, 165.5)">r</text><text xml:space="preserve" font-family="CourierNewPSMT,Courier New" font-size="20.0" fill="#CC1C00" transform="matrix(1.00, 0.00, -0.00, -1.00, 266.5, 165.5)">a</text><text xml:space="preserve" font-family="CourierNewPSMT,Courier New" font-size="20.0" fill="#CC1C00" transform="matrix(1.00, 0.00, -0.00, -1.00, 278.5, 165.5)">d</text><text xml:space="preserve" font-family="CourierNewPSMT,Courier New" font-size="20.0" fill="#CC1C00" transform="matrix(1.00, 0.00, -0.00, -1.00, 290.5, 165.5)">i</text><text xml:space="preserve" font-family="CourierNewPSMT,Courier New" font-size="20.0" fill="#CC1C00" transform="matrix(1.00, 0.00, -0.00, -1.00, 302.5, 165.5)">o</text><text xml:space="preserve" font-family="CourierNewPSMT,Courier New" font-size="20.0" fill="#CC1C00" transform="matrix(1.00, 0.00, -0.00, -1.00, 314.5, 165.5)">"</text><text xml:space="preserve" font-family="CourierNewPSMT,Courier New" font-size="20.0" fill="#000000" transform="matrix(1.00, 0.00, -0.00, -1.00, 326.5, 165.5)"> </text><text xml:space="preserve" font-family="CourierNewPSMT,Courier New" font-size="20.0" fill="#006DBC" transform="matrix(1.00, 0.00, -0.00, -1.00, 338.5, 165.5)">n</text><text xml:space="preserve" font-family="CourierNewPSMT,Courier New" font-size="20.0" fill="#006DBC" transform="matrix(1.00, 0.00, -0.00, -1.00, 350.5, 165.5)">a</text><text xml:space="preserve" font-family="CourierNewPSMT,Courier New" font-size="20.0" fill="#006DBC" transform="matrix(1.00, 0.00, -0.00, -1.00, 362.5, 165.5)">m</text><text xml:space="preserve" font-family="CourierNewPSMT,Courier New" font-size="20.0" fill="#006DBC" transform="matrix(1.00, 0.00, -0.00, -1.00, 374.5, 165.5)">e</text><text xml:space="preserve" font-family="CourierNewPSMT,Courier New" font-size="20.0" fill="#000000" transform="matrix(1.00, 0.00, -0.00, -1.00, 386.5, 165.5)">=</text><text xml:space="preserve" font-family="CourierNewPSMT,Courier New" font-size="20.0" fill="#CC1C00" transform="matrix(1.00, 0.00, -0.00, -1.00, 398.5, 165.5)">"</text><text xml:space="preserve" font-family="CourierNewPSMT,Courier New" font-size="20.0" fill="#CC1C00" transform="matrix(1.00, 0.00, -0.00, -1.00, 410.5, 165.5)">c</text><text xml:space="preserve" font-family="CourierNewPSMT,Courier New" font-size="20.0" fill="#CC1C00" transform="matrix(1.00, 0.00, -0.00, -1.00, 422.5, 165.5)">h</text><text xml:space="preserve" font-family="CourierNewPSMT,Courier New" font-size="20.0" fill="#CC1C00" transform="matrix(1.00, 0.00, -0.00, -1.00, 434.5, 165.5)">o</text><text xml:space="preserve" font-family="CourierNewPSMT,Courier New" font-size="20.0" fill="#CC1C00" transform="matrix(1.00, 0.00, -0.00, -1.00, 446.5, 165.5)">i</text><text xml:space="preserve" font-family="CourierNewPSMT,Courier New" font-size="20.0" fill="#CC1C00" transform="matrix(1.00, 0.00, -0.00, -1.00, 458.5, 165.5)">c</text><text xml:space="preserve" font-family="CourierNewPSMT,Courier New" font-size="20.0" fill="#CC1C00" transform="matrix(1.00, 0.00, -0.00, -1.00, 470.5, 165.5)">e</text><text xml:space="preserve" font-family="CourierNewPSMT,Courier New" font-size="20.0" fill="#CC1C00" transform="matrix(1.00, 0.00, -0.00, -1.00, 482.5, 165.5)">"</text><text xml:space="preserve" font-family="CourierNewPSMT,Courier New" font-size="20.0" fill="#000000" transform="matrix(1.00, 0.00, -0.00, -1.00, 494.5, 165.5)"> </text><text xml:space="preserve" font-family="CourierNewPSMT,Courier New" font-size="20.0" fill="#006DBC" transform="matrix(1.00, 0.00, -0.00, -1.00, 506.5, 165.5)">v</text><text xml:space="preserve" font-family="CourierNewPSMT,Courier New" font-size="20.0" fill="#006DBC" transform="matrix(1.00, 0.00, -0.00, -1.00, 518.5, 165.5)">a</text><text xml:space="preserve" font-family="CourierNewPSMT,Courier New" font-size="20.0" fill="#006DBC" transform="matrix(1.00, 0.00, -0.00, -1.00, 530.5, 165.5)">l</text><text xml:space="preserve" font-family="CourierNewPSMT,Courier New" font-size="20.0" fill="#006DBC" transform="matrix(1.00, 0.00, -0.00, -1.00, 542.5, 165.5)">u</text><text xml:space="preserve" font-family="CourierNewPSMT,Courier New" font-size="20.0" fill="#006DBC" transform="matrix(1.00, 0.00, -0.00, -1.00, 554.5, 165.5)">e</text><text xml:space="preserve" font-family="CourierNewPSMT,Courier New" font-size="20.0" fill="#000000" transform="matrix(1.00, 0.00, -0.00, -1.00, 566.5, 165.5)">=</text><text xml:space="preserve" font-family="CourierNewPSMT,Courier New" font-size="20.0" fill="#CC1C00" transform="matrix(1.00, 0.00, -0.00, -1.00, 578.5, 165.5)">"</text><text xml:space="preserve" font-family="CourierNewPSMT,Courier New" font-size="20.0" fill="#CC1C00" transform="matrix(1.00, 0.00, -0.00, -1.00, 590.5, 165.5)">1</text><text xml:space="preserve" font-family="CourierNewPSMT,Courier New" font-size="20.0" fill="#CC1C00" transform="matrix(1.00, 0.00, -0.00, -1.00, 602.5, 165.5)">"</text><text xml:space="preserve" font-family="CourierNewPSMT,Courier New" font-size="20.0" fill="#000000" transform="matrix(1.00, 0.00, -0.00, -1.00, 614.5, 165.5)"> </text><text xml:space="preserve" font-family="CourierNewPSMT,Courier New" font-size="20.0" fill="#000000" transform="matrix(1.00, 0.00, -0.00, -1.00, 626.5, 165.5)">c</text><text xml:space="preserve" font-family="CourierNewPSMT,Courier New" font-size="20.0" fill="#000000" transform="matrix(1.00, 0.00, -0.00, -1.00, 638.5, 165.5)">h</text><text xml:space="preserve" font-family="CourierNewPSMT,Courier New" font-size="20.0" fill="#000000" transform="matrix(1.00, 0.00, -0.00, -1.00, 650.5, 165.5)">e</text><text xml:space="preserve" font-family="CourierNewPSMT,Courier New" font-size="20.0" fill="#000000" transform="matrix(1.00, 0.00, -0.00, -1.00, 662.5, 165.5)">c</text><text xml:space="preserve" font-family="CourierNewPSMT,Courier New" font-size="20.0" fill="#000000" transform="matrix(1.00, 0.00, -0.00, -1.00, 674.6, 165.5)">k</text><text xml:space="preserve" font-family="CourierNewPSMT,Courier New" font-size="20.0" fill="#000000" transform="matrix(1.00, 0.00, -0.00, -1.00, 686.6, 165.5)">e</text><text xml:space="preserve" font-family="CourierNewPSMT,Courier New" font-size="20.0" fill="#000000" transform="matrix(1.00, 0.00, -0.00, -1.00, 698.6, 165.5)">d</text><text xml:space="preserve" font-family="CourierNewPS-BoldMT,Courier New" font-weight="bold" font-size="20.0" fill="#000000" transform="matrix(1.00, 0.00, -0.00, -1.00, 710.5, 165.5)">&gt;</text><text xml:space="preserve" font-family="CourierNewPSMT,Courier New" font-size="20.0" fill="#000000" transform="matrix(1.00, 0.00, -0.00, -1.00, 722.5, 165.5)"> </text><text xml:space="preserve" font-family="CourierNewPSMT,Courier New" font-size="20.0" fill="#000000" transform="matrix(1.00, 0.00, -0.00, -1.00, 734.6, 165.5)">C</text><text xml:space="preserve" font-family="CourierNewPSMT,Courier New" font-size="20.0" fill="#000000" transform="matrix(1.00, 0.00, -0.00, -1.00, 746.6, 165.5)">h</text><text xml:space="preserve" font-family="CourierNewPSMT,Courier New" font-size="20.0" fill="#000000" transform="matrix(1.00, 0.00, -0.00, -1.00, 758.6, 165.5)">o</text><text xml:space="preserve" font-family="CourierNewPSMT,Courier New" font-size="20.0" fill="#000000" transform="matrix(1.00, 0.00, -0.00, -1.00, 770.6, 165.5)">i</text><text xml:space="preserve" font-family="CourierNewPSMT,Courier New" font-size="20.0" fill="#000000" transform="matrix(1.00, 0.00, -0.00, -1.00, 782.6, 165.5)">x</text><text xml:space="preserve" font-family="CourierNewPSMT,Courier New" font-size="20.0" fill="#000000" transform="matrix(1.00, 0.00, -0.00, -1.00, 794.6, 165.5)"> </text><text xml:space="preserve" font-family="CourierNewPSMT,Courier New" font-size="20.0" fill="#BE8F00" transform="matrix(1.00, 0.00, -0.00, -1.00, 806.6, 165.5)">1</text><text xml:space="preserve" font-family="CourierNewPSMT,Courier New" font-size="20.0" fill="#000000" transform="matrix(1.00, 0.00, -0.00, -1.00, 818.6, 165.5)"> </text><text xml:space="preserve" font-family="CourierNewPSMT,Courier New" font-size="20.0" fill="#000000" transform="matrix(1.00, 0.00, -0.00, -1.00, 2.4, 142.5)"> </text><text xml:space="preserve" font-family="CourierNewPSMT,Courier New" font-size="20.0" fill="#000000" transform="matrix(1.00, 0.00, -0.00, -1.00, 14.4, 142.5)"> </text><text xml:space="preserve" font-family="CourierNewPSMT,Courier New" font-size="20.0" fill="#000000" transform="matrix(1.00, 0.00, -0.00, -1.00, 26.4, 142.5)"> </text><text xml:space="preserve" font-family="CourierNewPSMT,Courier New" font-size="20.0" fill="#000000" transform="matrix(1.00, 0.00, -0.00, -1.00, 38.4, 142.5)"> </text><text xml:space="preserve" font-family="CourierNewPS-BoldMT,Courier New" font-weight="bold" font-size="20.0" fill="#000000" transform="matrix(1.00, 0.00, -0.00, -1.00, 50.4, 142.5)">&lt;</text><text xml:space="preserve" font-family="CourierNewPS-BoldMT,Courier New" font-weight="bold" font-size="20.0" fill="#000000" transform="matrix(1.00, 0.00, -0.00, -1.00, 62.4, 142.5)">/</text><text xml:space="preserve" font-family="CourierNewPS-BoldMT,Courier New" font-weight="bold" font-size="20.0" fill="#000000" transform="matrix(1.00, 0.00, -0.00, -1.00, 74.4, 142.5)">l</text><text xml:space="preserve" font-family="CourierNewPS-BoldMT,Courier New" font-weight="bold" font-size="20.0" fill="#000000" transform="matrix(1.00, 0.00, -0.00, -1.00, 86.5, 142.5)">a</text><text xml:space="preserve" font-family="CourierNewPS-BoldMT,Courier New" font-weight="bold" font-size="20.0" fill="#000000" transform="matrix(1.00, 0.00, -0.00, -1.00, 98.5, 142.5)">b</text><text xml:space="preserve" font-family="CourierNewPS-BoldMT,Courier New" font-weight="bold" font-size="20.0" fill="#000000" transform="matrix(1.00, 0.00, -0.00, -1.00, 110.5, 142.5)">e</text><text xml:space="preserve" font-family="CourierNewPS-BoldMT,Courier New" font-weight="bold" font-size="20.0" fill="#000000" transform="matrix(1.00, 0.00, -0.00, -1.00, 122.5, 142.5)">l</text><text xml:space="preserve" font-family="CourierNewPS-BoldMT,Courier New" font-weight="bold" font-size="20.0" fill="#000000" transform="matrix(1.00, 0.00, -0.00, -1.00, 134.5, 142.5)">&gt;</text><text xml:space="preserve" font-family="CourierNewPSMT,Courier New" font-size="20.0" fill="#000000" transform="matrix(1.00, 0.00, -0.00, -1.00, 146.5, 142.5)"> </text><text xml:space="preserve" font-family="CourierNewPSMT,Courier New" font-size="20.0" fill="#000000" transform="matrix(1.00, 0.00, -0.00, -1.00, 2.4, 119.5)"> </text><text xml:space="preserve" font-family="CourierNewPSMT,Courier New" font-size="20.0" fill="#000000" transform="matrix(1.00, 0.00, -0.00, -1.00, 14.4, 119.5)"> </text><text xml:space="preserve" font-family="CourierNewPSMT,Courier New" font-size="20.0" fill="#000000" transform="matrix(1.00, 0.00, -0.00, -1.00, 26.4, 119.5)"> </text><text xml:space="preserve" font-family="CourierNewPSMT,Courier New" font-size="20.0" fill="#000000" transform="matrix(1.00, 0.00, -0.00, -1.00, 38.4, 119.5)"> </text><text xml:space="preserve" font-family="CourierNewPS-BoldMT,Courier New" font-weight="bold" font-size="20.0" fill="#000000" transform="matrix(1.00, 0.00, -0.00, -1.00, 50.4, 119.5)">&lt;</text><text xml:space="preserve" font-family="CourierNewPS-BoldMT,Courier New" font-weight="bold" font-size="20.0" fill="#000000" transform="matrix(1.00, 0.00, -0.00, -1.00, 62.4, 119.5)">l</text><text xml:space="preserve" font-family="CourierNewPS-BoldMT,Courier New" font-weight="bold" font-size="20.0" fill="#000000" transform="matrix(1.00, 0.00, -0.00, -1.00, 74.4, 119.5)">a</text><text xml:space="preserve" font-family="CourierNewPS-BoldMT,Courier New" font-weight="bold" font-size="20.0" fill="#000000" transform="matrix(1.00, 0.00, -0.00, -1.00, 86.5, 119.5)">b</text><text xml:space="preserve" font-family="CourierNewPS-BoldMT,Courier New" font-weight="bold" font-size="20.0" fill="#000000" transform="matrix(1.00, 0.00, -0.00, -1.00, 98.5, 119.5)">e</text><text xml:space="preserve" font-family="CourierNewPS-BoldMT,Courier New" font-weight="bold" font-size="20.0" fill="#000000" transform="matrix(1.00, 0.00, -0.00, -1.00, 110.5, 119.5)">l</text><text xml:space="preserve" font-family="CourierNewPS-BoldMT,Courier New" font-weight="bold" font-size="20.0" fill="#000000" transform="matrix(1.00, 0.00, -0.00, -1.00, 122.5, 119.5)">&gt;</text><text xml:space="preserve" font-family="CourierNewPSMT,Courier New" font-size="20.0" fill="#000000" transform="matrix(1.00, 0.00, -0.00, -1.00, 134.5, 119.5)"> </text><text xml:space="preserve" font-family="CourierNewPSMT,Courier New" font-size="20.0" fill="#000000" transform="matrix(1.00, 0.00, -0.00, -1.00, 2.4, 96.5)"> </text><text xml:space="preserve" font-family="CourierNewPSMT,Courier New" font-size="20.0" fill="#000000" transform="matrix(1.00, 0.00, -0.00, -1.00, 14.4, 96.5)"> </text><text xml:space="preserve" font-family="CourierNewPSMT,Courier New" font-size="20.0" fill="#000000" transform="matrix(1.00, 0.00, -0.00, -1.00, 26.4, 96.5)"> </text><text xml:space="preserve" font-family="CourierNewPSMT,Courier New" font-size="20.0" fill="#000000" transform="matrix(1.00, 0.00, -0.00, -1.00, 38.4, 96.5)"> </text><text xml:space="preserve" font-family="CourierNewPSMT,Courier New" font-size="20.0" fill="#000000" transform="matrix(1.00, 0.00, -0.00, -1.00, 50.4, 96.5)"> </text><text xml:space="preserve" font-family="CourierNewPSMT,Courier New" font-size="20.0" fill="#000000" transform="matrix(1.00, 0.00, -0.00, -1.00, 62.5, 96.5)"> </text><text xml:space="preserve" font-family="CourierNewPSMT,Courier New" font-size="20.0" fill="#000000" transform="matrix(1.00, 0.00, -0.00, -1.00, 74.5, 96.5)"> </text><text xml:space="preserve" font-family="CourierNewPSMT,Courier New" font-size="20.0" fill="#000000" transform="matrix(1.00, 0.00, -0.00, -1.00, 86.5, 96.5)"> </text><text xml:space="preserve" font-family="CourierNewPS-BoldMT,Courier New" font-weight="bold" font-size="20.0" fill="#000000" transform="matrix(1.00, 0.00, -0.00, -1.00, 98.4, 96.5)">&lt;</text><text xml:space="preserve" font-family="CourierNewPS-BoldMT,Courier New" font-weight="bold" font-size="20.0" fill="#000000" transform="matrix(1.00, 0.00, -0.00, -1.00, 110.5, 96.5)">i</text><text xml:space="preserve" font-family="CourierNewPS-BoldMT,Courier New" font-weight="bold" font-size="20.0" fill="#000000" transform="matrix(1.00, 0.00, -0.00, -1.00, 122.5, 96.5)">n</text><text xml:space="preserve" font-family="CourierNewPS-BoldMT,Courier New" font-weight="bold" font-size="20.0" fill="#000000" transform="matrix(1.00, 0.00, -0.00, -1.00, 134.5, 96.5)">p</text><text xml:space="preserve" font-family="CourierNewPS-BoldMT,Courier New" font-weight="bold" font-size="20.0" fill="#000000" transform="matrix(1.00, 0.00, -0.00, -1.00, 146.5, 96.5)">u</text><text xml:space="preserve" font-family="CourierNewPS-BoldMT,Courier New" font-weight="bold" font-size="20.0" fill="#000000" transform="matrix(1.00, 0.00, -0.00, -1.00, 158.5, 96.5)">t</text><text xml:space="preserve" font-family="CourierNewPSMT,Courier New" font-size="20.0" fill="#000000" transform="matrix(1.00, 0.00, -0.00, -1.00, 170.5, 96.5)"> </text><text xml:space="preserve" font-family="CourierNewPSMT,Courier New" font-size="20.0" fill="#006DBC" transform="matrix(1.00, 0.00, -0.00, -1.00, 182.5, 96.5)">t</text><text xml:space="preserve" font-family="CourierNewPSMT,Courier New" font-size="20.0" fill="#006DBC" transform="matrix(1.00, 0.00, -0.00, -1.00, 194.5, 96.5)">y</text><text xml:space="preserve" font-family="CourierNewPSMT,Courier New" font-size="20.0" fill="#006DBC" transform="matrix(1.00, 0.00, -0.00, -1.00, 206.5, 96.5)">p</text><text xml:space="preserve" font-family="CourierNewPSMT,Courier New" font-size="20.0" fill="#006DBC" transform="matrix(1.00, 0.00, -0.00, -1.00, 218.5, 96.5)">e</text><text xml:space="preserve" font-family="CourierNewPSMT,Courier New" font-size="20.0" fill="#000000" transform="matrix(1.00, 0.00, -0.00, -1.00, 230.5, 96.5)">=</text><text xml:space="preserve" font-family="CourierNewPSMT,Courier New" font-size="20.0" fill="#CC1C00" transform="matrix(1.00, 0.00, -0.00, -1.00, 242.5, 96.5)">"</text><text xml:space="preserve" font-family="CourierNewPSMT,Courier New" font-size="20.0" fill="#CC1C00" transform="matrix(1.00, 0.00, -0.00, -1.00, 254.5, 96.5)">r</text><text xml:space="preserve" font-family="CourierNewPSMT,Courier New" font-size="20.0" fill="#CC1C00" transform="matrix(1.00, 0.00, -0.00, -1.00, 266.5, 96.5)">a</text><text xml:space="preserve" font-family="CourierNewPSMT,Courier New" font-size="20.0" fill="#CC1C00" transform="matrix(1.00, 0.00, -0.00, -1.00, 278.5, 96.5)">d</text><text xml:space="preserve" font-family="CourierNewPSMT,Courier New" font-size="20.0" fill="#CC1C00" transform="matrix(1.00, 0.00, -0.00, -1.00, 290.5, 96.5)">i</text><text xml:space="preserve" font-family="CourierNewPSMT,Courier New" font-size="20.0" fill="#CC1C00" transform="matrix(1.00, 0.00, -0.00, -1.00, 302.5, 96.5)">o</text><text xml:space="preserve" font-family="CourierNewPSMT,Courier New" font-size="20.0" fill="#CC1C00" transform="matrix(1.00, 0.00, -0.00, -1.00, 314.5, 96.5)">"</text><text xml:space="preserve" font-family="CourierNewPSMT,Courier New" font-size="20.0" fill="#000000" transform="matrix(1.00, 0.00, -0.00, -1.00, 326.5, 96.5)"> </text><text xml:space="preserve" font-family="CourierNewPSMT,Courier New" font-size="20.0" fill="#006DBC" transform="matrix(1.00, 0.00, -0.00, -1.00, 338.5, 96.5)">n</text><text xml:space="preserve" font-family="CourierNewPSMT,Courier New" font-size="20.0" fill="#006DBC" transform="matrix(1.00, 0.00, -0.00, -1.00, 350.5, 96.5)">a</text><text xml:space="preserve" font-family="CourierNewPSMT,Courier New" font-size="20.0" fill="#006DBC" transform="matrix(1.00, 0.00, -0.00, -1.00, 362.5, 96.5)">m</text><text xml:space="preserve" font-family="CourierNewPSMT,Courier New" font-size="20.0" fill="#006DBC" transform="matrix(1.00, 0.00, -0.00, -1.00, 374.5, 96.5)">e</text><text xml:space="preserve" font-family="CourierNewPSMT,Courier New" font-size="20.0" fill="#000000" transform="matrix(1.00, 0.00, -0.00, -1.00, 386.5, 96.5)">=</text><text xml:space="preserve" font-family="CourierNewPSMT,Courier New" font-size="20.0" fill="#CC1C00" transform="matrix(1.00, 0.00, -0.00, -1.00, 398.5, 96.5)">"</text><text xml:space="preserve" font-family="CourierNewPSMT,Courier New" font-size="20.0" fill="#CC1C00" transform="matrix(1.00, 0.00, -0.00, -1.00, 410.5, 96.5)">c</text><text xml:space="preserve" font-family="CourierNewPSMT,Courier New" font-size="20.0" fill="#CC1C00" transform="matrix(1.00, 0.00, -0.00, -1.00, 422.5, 96.5)">h</text><text xml:space="preserve" font-family="CourierNewPSMT,Courier New" font-size="20.0" fill="#CC1C00" transform="matrix(1.00, 0.00, -0.00, -1.00, 434.5, 96.5)">o</text><text xml:space="preserve" font-family="CourierNewPSMT,Courier New" font-size="20.0" fill="#CC1C00" transform="matrix(1.00, 0.00, -0.00, -1.00, 446.5, 96.5)">i</text><text xml:space="preserve" font-family="CourierNewPSMT,Courier New" font-size="20.0" fill="#CC1C00" transform="matrix(1.00, 0.00, -0.00, -1.00, 458.5, 96.5)">c</text><text xml:space="preserve" font-family="CourierNewPSMT,Courier New" font-size="20.0" fill="#CC1C00" transform="matrix(1.00, 0.00, -0.00, -1.00, 470.5, 96.5)">e</text><text xml:space="preserve" font-family="CourierNewPSMT,Courier New" font-size="20.0" fill="#CC1C00" transform="matrix(1.00, 0.00, -0.00, -1.00, 482.5, 96.5)">"</text><text xml:space="preserve" font-family="CourierNewPSMT,Courier New" font-size="20.0" fill="#000000" transform="matrix(1.00, 0.00, -0.00, -1.00, 494.5, 96.5)"> </text><text xml:space="preserve" font-family="CourierNewPSMT,Courier New" font-size="20.0" fill="#006DBC" transform="matrix(1.00, 0.00, -0.00, -1.00, 506.5, 96.5)">v</text><text xml:space="preserve" font-family="CourierNewPSMT,Courier New" font-size="20.0" fill="#006DBC" transform="matrix(1.00, 0.00, -0.00, -1.00, 518.5, 96.5)">a</text><text xml:space="preserve" font-family="CourierNewPSMT,Courier New" font-size="20.0" fill="#006DBC" transform="matrix(1.00, 0.00, -0.00, -1.00, 530.5, 96.5)">l</text><text xml:space="preserve" font-family="CourierNewPSMT,Courier New" font-size="20.0" fill="#006DBC" transform="matrix(1.00, 0.00, -0.00, -1.00, 542.5, 96.5)">u</text><text xml:space="preserve" font-family="CourierNewPSMT,Courier New" font-size="20.0" fill="#006DBC" transform="matrix(1.00, 0.00, -0.00, -1.00, 554.5, 96.5)">e</text><text xml:space="preserve" font-family="CourierNewPSMT,Courier New" font-size="20.0" fill="#000000" transform="matrix(1.00, 0.00, -0.00, -1.00, 566.5, 96.5)">=</text><text xml:space="preserve" font-family="CourierNewPSMT,Courier New" font-size="20.0" fill="#CC1C00" transform="matrix(1.00, 0.00, -0.00, -1.00, 578.5, 96.5)">"</text><text xml:space="preserve" font-family="CourierNewPSMT,Courier New" font-size="20.0" fill="#CC1C00" transform="matrix(1.00, 0.00, -0.00, -1.00, 590.5, 96.5)">2</text><text xml:space="preserve" font-family="CourierNewPSMT,Courier New" font-size="20.0" fill="#CC1C00" transform="matrix(1.00, 0.00, -0.00, -1.00, 602.5, 96.5)">"</text><text xml:space="preserve" font-family="CourierNewPS-BoldMT,Courier New" font-weight="bold" font-size="20.0" fill="#000000" transform="matrix(1.00, 0.00, -0.00, -1.00, 614.5, 96.5)">&gt;</text><text xml:space="preserve" font-family="CourierNewPSMT,Courier New" font-size="20.0" fill="#000000" transform="matrix(1.00, 0.00, -0.00, -1.00, 626.5, 96.5)"> </text><text xml:space="preserve" font-family="CourierNewPSMT,Courier New" font-size="20.0" fill="#000000" transform="matrix(1.00, 0.00, -0.00, -1.00, 638.5, 96.5)">C</text><text xml:space="preserve" font-family="CourierNewPSMT,Courier New" font-size="20.0" fill="#000000" transform="matrix(1.00, 0.00, -0.00, -1.00, 650.5, 96.5)">h</text><text xml:space="preserve" font-family="CourierNewPSMT,Courier New" font-size="20.0" fill="#000000" transform="matrix(1.00, 0.00, -0.00, -1.00, 662.5, 96.5)">o</text><text xml:space="preserve" font-family="CourierNewPSMT,Courier New" font-size="20.0" fill="#000000" transform="matrix(1.00, 0.00, -0.00, -1.00, 674.6, 96.5)">i</text><text xml:space="preserve" font-family="CourierNewPSMT,Courier New" font-size="20.0" fill="#000000" transform="matrix(1.00, 0.00, -0.00, -1.00, 686.6, 96.5)">x</text><text xml:space="preserve" font-family="CourierNewPSMT,Courier New" font-size="20.0" fill="#000000" transform="matrix(1.00, 0.00, -0.00, -1.00, 698.6, 96.5)"> </text><text xml:space="preserve" font-family="CourierNewPSMT,Courier New" font-size="20.0" fill="#BE8F00" transform="matrix(1.00, 0.00, -0.00, -1.00, 710.5, 96.5)">2</text><text xml:space="preserve" font-family="CourierNewPSMT,Courier New" font-size="20.0" fill="#000000" transform="matrix(1.00, 0.00, -0.00, -1.00, 722.5, 96.5)"> </text><text xml:space="preserve" font-family="CourierNewPSMT,Courier New" font-size="20.0" fill="#000000" transform="matrix(1.00, 0.00, -0.00, -1.00, 2.4, 73.5)"> </text><text xml:space="preserve" font-family="CourierNewPSMT,Courier New" font-size="20.0" fill="#000000" transform="matrix(1.00, 0.00, -0.00, -1.00, 14.4, 73.5)"> </text><text xml:space="preserve" font-family="CourierNewPSMT,Courier New" font-size="20.0" fill="#000000" transform="matrix(1.00, 0.00, -0.00, -1.00, 26.4, 73.5)"> </text><text xml:space="preserve" font-family="CourierNewPSMT,Courier New" font-size="20.0" fill="#000000" transform="matrix(1.00, 0.00, -0.00, -1.00, 38.4, 73.5)"> </text><text xml:space="preserve" font-family="CourierNewPS-BoldMT,Courier New" font-weight="bold" font-size="20.0" fill="#000000" transform="matrix(1.00, 0.00, -0.00, -1.00, 50.4, 73.5)">&lt;</text><text xml:space="preserve" font-family="CourierNewPS-BoldMT,Courier New" font-weight="bold" font-size="20.0" fill="#000000" transform="matrix(1.00, 0.00, -0.00, -1.00, 62.4, 73.5)">/</text><text xml:space="preserve" font-family="CourierNewPS-BoldMT,Courier New" font-weight="bold" font-size="20.0" fill="#000000" transform="matrix(1.00, 0.00, -0.00, -1.00, 74.4, 73.5)">l</text><text xml:space="preserve" font-family="CourierNewPS-BoldMT,Courier New" font-weight="bold" font-size="20.0" fill="#000000" transform="matrix(1.00, 0.00, -0.00, -1.00, 86.5, 73.5)">a</text><text xml:space="preserve" font-family="CourierNewPS-BoldMT,Courier New" font-weight="bold" font-size="20.0" fill="#000000" transform="matrix(1.00, 0.00, -0.00, -1.00, 98.5, 73.5)">b</text><text xml:space="preserve" font-family="CourierNewPS-BoldMT,Courier New" font-weight="bold" font-size="20.0" fill="#000000" transform="matrix(1.00, 0.00, -0.00, -1.00, 110.5, 73.5)">e</text><text xml:space="preserve" font-family="CourierNewPS-BoldMT,Courier New" font-weight="bold" font-size="20.0" fill="#000000" transform="matrix(1.00, 0.00, -0.00, -1.00, 122.5, 73.5)">l</text><text xml:space="preserve" font-family="CourierNewPS-BoldMT,Courier New" font-weight="bold" font-size="20.0" fill="#000000" transform="matrix(1.00, 0.00, -0.00, -1.00, 134.5, 73.5)">&gt;</text><text xml:space="preserve" font-family="CourierNewPSMT,Courier New" font-size="20.0" fill="#000000" transform="matrix(1.00, 0.00, -0.00, -1.00, 146.5, 73.5)"> </text><text xml:space="preserve" font-family="CourierNewPSMT,Courier New" font-size="20.0" fill="#000000" transform="matrix(1.00, 0.00, -0.00, -1.00, 2.4, 27.5)"> </text><text xml:space="preserve" font-family="CourierNewPSMT,Courier New" font-size="20.0" fill="#000000" transform="matrix(1.00, 0.00, -0.00, -1.00, 14.4, 27.5)"> </text><text xml:space="preserve" font-family="CourierNewPSMT,Courier New" font-size="20.0" fill="#000000" transform="matrix(1.00, 0.00, -0.00, -1.00, 26.4, 27.5)"> </text><text xml:space="preserve" font-family="CourierNewPSMT,Courier New" font-size="20.0" fill="#000000" transform="matrix(1.00, 0.00, -0.00, -1.00, 38.4, 27.5)"> </text><text xml:space="preserve" font-family="CourierNewPS-BoldMT,Courier New" font-weight="bold" font-size="20.0" fill="#000000" transform="matrix(1.00, 0.00, -0.00, -1.00, 50.4, 27.5)">&lt;</text><text xml:space="preserve" font-family="CourierNewPS-BoldMT,Courier New" font-weight="bold" font-size="20.0" fill="#000000" transform="matrix(1.00, 0.00, -0.00, -1.00, 62.4, 27.5)">b</text><text xml:space="preserve" font-family="CourierNewPS-BoldMT,Courier New" font-weight="bold" font-size="20.0" fill="#000000" transform="matrix(1.00, 0.00, -0.00, -1.00, 74.4, 27.5)">u</text><text xml:space="preserve" font-family="CourierNewPS-BoldMT,Courier New" font-weight="bold" font-size="20.0" fill="#000000" transform="matrix(1.00, 0.00, -0.00, -1.00, 86.5, 27.5)">t</text><text xml:space="preserve" font-family="CourierNewPS-BoldMT,Courier New" font-weight="bold" font-size="20.0" fill="#000000" transform="matrix(1.00, 0.00, -0.00, -1.00, 98.5, 27.5)">t</text><text xml:space="preserve" font-family="CourierNewPS-BoldMT,Courier New" font-weight="bold" font-size="20.0" fill="#000000" transform="matrix(1.00, 0.00, -0.00, -1.00, 110.5, 27.5)">o</text><text xml:space="preserve" font-family="CourierNewPS-BoldMT,Courier New" font-weight="bold" font-size="20.0" fill="#000000" transform="matrix(1.00, 0.00, -0.00, -1.00, 122.5, 27.5)">n</text><text xml:space="preserve" font-family="CourierNewPSMT,Courier New" font-size="20.0" fill="#000000" transform="matrix(1.00, 0.00, -0.00, -1.00, 134.5, 27.5)"> </text><text xml:space="preserve" font-family="CourierNewPSMT,Courier New" font-size="20.0" fill="#006DBC" transform="matrix(1.00, 0.00, -0.00, -1.00, 146.5, 27.5)">t</text><text xml:space="preserve" font-family="CourierNewPSMT,Courier New" font-size="20.0" fill="#006DBC" transform="matrix(1.00, 0.00, -0.00, -1.00, 158.5, 27.5)">y</text><text xml:space="preserve" font-family="CourierNewPSMT,Courier New" font-size="20.0" fill="#006DBC" transform="matrix(1.00, 0.00, -0.00, -1.00, 170.5, 27.5)">p</text><text xml:space="preserve" font-family="CourierNewPSMT,Courier New" font-size="20.0" fill="#006DBC" transform="matrix(1.00, 0.00, -0.00, -1.00, 182.5, 27.5)">e</text><text xml:space="preserve" font-family="CourierNewPSMT,Courier New" font-size="20.0" fill="#000000" transform="matrix(1.00, 0.00, -0.00, -1.00, 194.5, 27.5)">=</text><text xml:space="preserve" font-family="CourierNewPSMT,Courier New" font-size="20.0" fill="#CC1C00" transform="matrix(1.00, 0.00, -0.00, -1.00, 206.5, 27.5)">"</text><text xml:space="preserve" font-family="CourierNewPSMT,Courier New" font-size="20.0" fill="#CC1C00" transform="matrix(1.00, 0.00, -0.00, -1.00, 218.5, 27.5)">s</text><text xml:space="preserve" font-family="CourierNewPSMT,Courier New" font-size="20.0" fill="#CC1C00" transform="matrix(1.00, 0.00, -0.00, -1.00, 230.5, 27.5)">u</text><text xml:space="preserve" font-family="CourierNewPSMT,Courier New" font-size="20.0" fill="#CC1C00" transform="matrix(1.00, 0.00, -0.00, -1.00, 242.5, 27.5)">b</text><text xml:space="preserve" font-family="CourierNewPSMT,Courier New" font-size="20.0" fill="#CC1C00" transform="matrix(1.00, 0.00, -0.00, -1.00, 254.5, 27.5)">m</text><text xml:space="preserve" font-family="CourierNewPSMT,Courier New" font-size="20.0" fill="#CC1C00" transform="matrix(1.00, 0.00, -0.00, -1.00, 266.5, 27.5)">i</text><text xml:space="preserve" font-family="CourierNewPSMT,Courier New" font-size="20.0" fill="#CC1C00" transform="matrix(1.00, 0.00, -0.00, -1.00, 278.5, 27.5)">t</text><text xml:space="preserve" font-family="CourierNewPSMT,Courier New" font-size="20.0" fill="#CC1C00" transform="matrix(1.00, 0.00, -0.00, -1.00, 290.5, 27.5)">"</text><text xml:space="preserve" font-family="CourierNewPS-BoldMT,Courier New" font-weight="bold" font-size="20.0" fill="#000000" transform="matrix(1.00, 0.00, -0.00, -1.00, 302.5, 27.5)">&gt;</text><text xml:space="preserve" font-family="CourierNewPSMT,Courier New" font-size="20.0" fill="#000000" transform="matrix(1.00, 0.00, -0.00, -1.00, 314.5, 27.5)">V</text><text xml:space="preserve" font-family="CourierNewPSMT,Courier New" font-size="20.0" fill="#000000" transform="matrix(1.00, 0.00, -0.00, -1.00, 326.5, 27.5)">a</text><text xml:space="preserve" font-family="CourierNewPSMT,Courier New" font-size="20.0" fill="#000000" transform="matrix(1.00, 0.00, -0.00, -1.00, 338.5, 27.5)">l</text><text xml:space="preserve" font-family="CourierNewPSMT,Courier New" font-size="20.0" fill="#000000" transform="matrix(1.00, 0.00, -0.00, -1.00, 350.5, 27.5)">i</text><text xml:space="preserve" font-family="CourierNewPSMT,Courier New" font-size="20.0" fill="#000000" transform="matrix(1.00, 0.00, -0.00, -1.00, 362.5, 27.5)">d</text><text xml:space="preserve" font-family="CourierNewPSMT,Courier New" font-size="20.0" fill="#000000" transform="matrix(1.00, 0.00, -0.00, -1.00, 374.5, 27.5)">e</text><text xml:space="preserve" font-family="CourierNewPSMT,Courier New" font-size="20.0" fill="#000000" transform="matrix(1.00, 0.00, -0.00, -1.00, 386.5, 27.5)">r</text><text xml:space="preserve" font-family="CourierNewPS-BoldMT,Courier New" font-weight="bold" font-size="20.0" fill="#000000" transform="matrix(1.00, 0.00, -0.00, -1.00, 398.5, 27.5)">&lt;</text><text xml:space="preserve" font-family="CourierNewPS-BoldMT,Courier New" font-weight="bold" font-size="20.0" fill="#000000" transform="matrix(1.00, 0.00, -0.00, -1.00, 410.5, 27.5)">/</text><text xml:space="preserve" font-family="CourierNewPS-BoldMT,Courier New" font-weight="bold" font-size="20.0" fill="#000000" transform="matrix(1.00, 0.00, -0.00, -1.00, 422.5, 27.5)">b</text><text xml:space="preserve" font-family="CourierNewPS-BoldMT,Courier New" font-weight="bold" font-size="20.0" fill="#000000" transform="matrix(1.00, 0.00, -0.00, -1.00, 434.5, 27.5)">u</text><text xml:space="preserve" font-family="CourierNewPS-BoldMT,Courier New" font-weight="bold" font-size="20.0" fill="#000000" transform="matrix(1.00, 0.00, -0.00, -1.00, 446.5, 27.5)">t</text><text xml:space="preserve" font-family="CourierNewPS-BoldMT,Courier New" font-weight="bold" font-size="20.0" fill="#000000" transform="matrix(1.00, 0.00, -0.00, -1.00, 458.5, 27.5)">t</text><text xml:space="preserve" font-family="CourierNewPS-BoldMT,Courier New" font-weight="bold" font-size="20.0" fill="#000000" transform="matrix(1.00, 0.00, -0.00, -1.00, 470.5, 27.5)">o</text><text xml:space="preserve" font-family="CourierNewPS-BoldMT,Courier New" font-weight="bold" font-size="20.0" fill="#000000" transform="matrix(1.00, 0.00, -0.00, -1.00, 482.5, 27.5)">n</text><text xml:space="preserve" font-family="CourierNewPS-BoldMT,Courier New" font-weight="bold" font-size="20.0" fill="#000000" transform="matrix(1.00, 0.00, -0.00, -1.00, 494.5, 27.5)">&gt;</text><text xml:space="preserve" font-family="CourierNewPSMT,Courier New" font-size="20.0" fill="#000000" transform="matrix(1.00, 0.00, -0.00, -1.00, 506.5, 27.5)"> </text><text xml:space="preserve" font-family="CourierNewPS-BoldMT,Courier New" font-weight="bold" font-size="20.0" fill="#000000" transform="matrix(1.00, 0.00, -0.00, -1.00, 2.4, 4.5)">&lt;</text><text xml:space="preserve" font-family="CourierNewPS-BoldMT,Courier New" font-weight="bold" font-size="20.0" fill="#000000" transform="matrix(1.00, 0.00, -0.00, -1.00, 14.4, 4.5)">/</text><text xml:space="preserve" font-family="CourierNewPS-BoldMT,Courier New" font-weight="bold" font-size="20.0" fill="#000000" transform="matrix(1.00, 0.00, -0.00, -1.00, 26.4, 4.5)">f</text><text xml:space="preserve" font-family="CourierNewPS-BoldMT,Courier New" font-weight="bold" font-size="20.0" fill="#000000" transform="matrix(1.00, 0.00, -0.00, -1.00, 38.4, 4.5)">o</text><text xml:space="preserve" font-family="CourierNewPS-BoldMT,Courier New" font-weight="bold" font-size="20.0" fill="#000000" transform="matrix(1.00, 0.00, -0.00, -1.00, 50.4, 4.5)">r</text><text xml:space="preserve" font-family="CourierNewPS-BoldMT,Courier New" font-weight="bold" font-size="20.0" fill="#000000" transform="matrix(1.00, 0.00, -0.00, -1.00, 62.5, 4.5)">m</text><text xml:space="preserve" font-family="CourierNewPS-BoldMT,Courier New" font-weight="bold" font-size="20.0" fill="#000000" transform="matrix(1.00, 0.00, -0.00, -1.00, 74.5, 4.5)">&gt;</text><text xml:space="preserve" font-family="CourierNewPSMT,Courier New" font-size="20.0" fill="#000000" transform="matrix(1.00, 0.00, -0.00, -1.00, 86.4, 4.5)"> </text></g></svg>