<?xml version="1.0" encoding="UTF-8" standalone="no"?><svg xmlns="http://www.w3.org/2000/svg" xmlns:xlink="http://www.w3.org/1999/xlink" clip-rule="evenodd" stroke-miterlimit="10" viewBox="0 0 1024 768"><desc>SVG generated by Keynote</desc><defs></defs><g transform="matrix(1.00, 0.00, -0.00, -1.00, 0.0, 768.0)"><g><clipPath id="clip0x7fd4705a4a70"><path d="M 0.0 768.0 L 1024.0 768.0 L 1024.0 0.0 L 0.0 0.0 Z M 0.0 768.0 "></path></clipPath><g clip-path="url(#clip0x7fd4705a4a70)"><image xlink:href="../../53554F40-54C5-4BA3-B9EB-20A3EADC6C50/assets/B5EE15FD4291743AF7496326DC17A466.jpeg" width="2048.00" height="1536.00" transform="matrix(0.50, 0.00, -0.00, -0.50, 0.0, 768.0)"></image></g></g><g opacity="0.45"><g><clipPath id="clip0x7fd46d8cc2e0"><path d="M 30.0 48.0 L 994.0 48.0 L 994.0 741.0 L 30.0 741.0 Z M 30.0 48.0 "></path></clipPath><g clip-path="url(#clip0x7fd46d8cc2e0)"><image xlink:href="../../53554F40-54C5-4BA3-B9EB-20A3EADC6C50/assets/1E0376F862DA30D710D4F1E0694CAC10.png" width="1374.00" height="986.00" transform="matrix(0.70, 0.00, -0.00, -0.70, 31.0, 740.0)"></image></g></g></g><image xlink:href="AFAF07E12FBF515D424141206506C240.png" width="758.00" height="41.00" transform="matrix(1.00, 0.00, -0.00, -1.00, 132.0, 701.0)"></image><text xml:space="preserve" font-family="AvenirNext-Bold,Avenir Next" font-weight="bold" font-size="48.0" fill="#3D3B38" transform="matrix(1.00, 0.00, -0.00, -1.00, 130.7, 665.6)">P</text><text xml:space="preserve" font-family="AvenirNext-Bold,Avenir Next" font-weight="bold" font-size="48.0" fill="#3D3B38" transform="matrix(1.00, 0.00, -0.00, -1.00, 162.4, 665.6)">A</text><text xml:space="preserve" font-family="AvenirNext-Bold,Avenir Next" font-weight="bold" font-size="48.0" fill="#3D3B38" transform="matrix(1.00, 0.00, -0.00, -1.00, 198.4, 665.6)">T</text><text xml:space="preserve" font-family="AvenirNext-Bold,Avenir Next" font-weight="bold" font-size="48.0" fill="#3D3B38" transform="matrix(1.00, 0.00, -0.00, -1.00, 230.1, 665.6)">T</text><text xml:space="preserve" font-family="AvenirNext-Bold,Avenir Next" font-weight="bold" font-size="48.0" fill="#3D3B38" transform="matrix(1.00, 0.00, -0.00, -1.00, 261.8, 665.6)">E</text><text xml:space="preserve" font-family="AvenirNext-Bold,Avenir Next" font-weight="bold" font-size="48.0" fill="#3D3B38" transform="matrix(1.00, 0.00, -0.00, -1.00, 294.8, 665.6)">R</text><text xml:space="preserve" font-family="AvenirNext-Bold,Avenir Next" font-weight="bold" font-size="48.0" fill="#3D3B38" transform="matrix(1.00, 0.00, -0.00, -1.00, 330.5, 665.6)">N</text><text xml:space="preserve" font-family="AvenirNext-Bold,Avenir Next" font-weight="bold" font-size="48.0" fill="#3D3B38" transform="matrix(1.00, 0.00, -0.00, -1.00, 372.2, 665.6)"> </text><text xml:space="preserve" font-family="AvenirNext-Bold,Avenir Next" font-weight="bold" font-size="48.0" fill="#3D3B38" transform="matrix(1.00, 0.00, -0.00, -1.00, 388.1, 665.6)">F</text><text xml:space="preserve" font-family="AvenirNext-Bold,Avenir Next" font-weight="bold" font-size="48.0" fill="#3D3B38" transform="matrix(1.00, 0.00, -0.00, -1.00, 417.0, 665.6)">A</text><text xml:space="preserve" font-family="AvenirNext-Bold,Avenir Next" font-weight="bold" font-size="48.0" fill="#3D3B38" transform="matrix(1.00, 0.00, -0.00, -1.00, 454.9, 665.6)">C</text><text xml:space="preserve" font-family="AvenirNext-Bold,Avenir Next" font-weight="bold" font-size="48.0" fill="#3D3B38" transform="matrix(1.00, 0.00, -0.00, -1.00, 491.9, 665.6)">T</text><text xml:space="preserve" font-family="AvenirNext-Bold,Avenir Next" font-weight="bold" font-size="48.0" fill="#3D3B38" transform="matrix(1.00, 0.00, -0.00, -1.00, 522.2, 665.6)">O</text><text xml:space="preserve" font-family="AvenirNext-Bold,Avenir Next" font-weight="bold" font-size="48.0" fill="#3D3B38" transform="matrix(1.00, 0.00, -0.00, -1.00, 566.9, 665.6)">R</text><text xml:space="preserve" font-family="AvenirNext-Bold,Avenir Next" font-weight="bold" font-size="48.0" fill="#3D3B38" transform="matrix(1.00, 0.00, -0.00, -1.00, 602.0, 665.6)">Y</text><text xml:space="preserve" font-family="AvenirNext-Bold,Avenir Next" font-weight="bold" font-size="48.0" fill="#3D3B38" transform="matrix(1.00, 0.00, -0.00, -1.00, 636.8, 665.6)"> </text><text xml:space="preserve" font-family="AvenirNext-Bold,Avenir Next" font-weight="bold" font-size="48.0" fill="#3D3B38" transform="matrix(1.00, 0.00, -0.00, -1.00, 652.7, 665.6)">M</text><text xml:space="preserve" font-family="AvenirNext-Bold,Avenir Next" font-weight="bold" font-size="48.0" fill="#3D3B38" transform="matrix(1.00, 0.00, -0.00, -1.00, 702.4, 665.6)">E</text><text xml:space="preserve" font-family="AvenirNext-Bold,Avenir Next" font-weight="bold" font-size="48.0" fill="#3D3B38" transform="matrix(1.00, 0.00, -0.00, -1.00, 735.3, 665.6)">T</text><text xml:space="preserve" font-family="AvenirNext-Bold,Avenir Next" font-weight="bold" font-size="48.0" fill="#3D3B38" transform="matrix(1.00, 0.00, -0.00, -1.00, 767.1, 665.6)">H</text><text xml:space="preserve" font-family="AvenirNext-Bold,Avenir Next" font-weight="bold" font-size="48.0" fill="#3D3B38" transform="matrix(1.00, 0.00, -0.00, -1.00, 807.6, 665.6)">O</text><text xml:space="preserve" font-family="AvenirNext-Bold,Avenir Next" font-weight="bold" font-size="48.0" fill="#3D3B38" transform="matrix(1.00, 0.00, -0.00, -1.00, 852.3, 665.6)">D</text><image xlink:href="F9CE227E17B204A54BFDD5546ED4D441.png" width="426.00" height="265.00" transform="matrix(1.00, 0.00, -0.00, -1.00, 299.0, 617.0)"></image><image xlink:href="9F51CC6003BADE2CA95B7D5749629909.png" width="20.00" height="28.00" transform="matrix(1.00, 0.00, -0.00, -1.00, 68.0, 325.0)"></image><text xml:space="preserve" font-family="AvenirNext-Medium,Avenir Next" font-size="32.0" fill="#5D514B" transform="matrix(1.00, 0.00, -0.00, -1.00, 68.0, 301.7)">P</text><image xlink:href="00C83A92CA18BF3DC1F937A1B221F027.png" width="838.00" height="36.00" transform="matrix(1.00, 0.00, -0.00, -1.00, 84.0, 326.0)"></image><text xml:space="preserve" font-family="AvenirNext-Medium,Avenir Next" font-size="32.0" fill="#5D514B" transform="matrix(1.00, 0.00, -0.00, -1.00, 84.9, 301.7)">e</text><text xml:space="preserve" font-family="AvenirNext-Medium,Avenir Next" font-size="32.0" fill="#5D514B" transform="matrix(1.00, 0.00, -0.00, -1.00, 103.3, 301.7)">r</text><text xml:space="preserve" font-family="AvenirNext-Medium,Avenir Next" font-size="32.0" fill="#5D514B" transform="matrix(1.00, 0.00, -0.00, -1.00, 114.8, 301.7)">m</text><text xml:space="preserve" font-family="AvenirNext-Medium,Avenir Next" font-size="32.0" fill="#5D514B" transform="matrix(1.00, 0.00, -0.00, -1.00, 143.2, 301.7)">e</text><text xml:space="preserve" font-family="AvenirNext-Medium,Avenir Next" font-size="32.0" fill="#5D514B" transform="matrix(1.00, 0.00, -0.00, -1.00, 161.6, 301.7)">t</text><text xml:space="preserve" font-family="AvenirNext-Medium,Avenir Next" font-size="32.0" fill="#5D514B" transform="matrix(1.00, 0.00, -0.00, -1.00, 172.1, 301.7)"> </text><text xml:space="preserve" font-family="AvenirNext-Medium,Avenir Next" font-size="32.0" fill="#5D514B" transform="matrix(1.00, 0.00, -0.00, -1.00, 180.1, 301.7)">d</text><text xml:space="preserve" font-family="AvenirNext-Medium,Avenir Next" font-size="32.0" fill="#5D514B" transform="matrix(1.00, 0.00, -0.00, -1.00, 200.4, 301.7)">'</text><text xml:space="preserve" font-family="AvenirNext-Medium,Avenir Next" font-size="32.0" fill="#5D514B" transform="matrix(1.00, 0.00, -0.00, -1.00, 208.8, 301.7)">i</text><text xml:space="preserve" font-family="AvenirNext-Medium,Avenir Next" font-size="32.0" fill="#5D514B" transform="matrix(1.00, 0.00, -0.00, -1.00, 217.1, 301.7)">n</text><text xml:space="preserve" font-family="AvenirNext-Medium,Avenir Next" font-size="32.0" fill="#5D514B" transform="matrix(1.00, 0.00, -0.00, -1.00, 235.7, 301.7)">s</text><text xml:space="preserve" font-family="AvenirNext-Medium,Avenir Next" font-size="32.0" fill="#5D514B" transform="matrix(1.00, 0.00, -0.00, -1.00, 249.9, 301.7)">t</text><text xml:space="preserve" font-family="AvenirNext-Medium,Avenir Next" font-size="32.0" fill="#5D514B" transform="matrix(1.00, 0.00, -0.00, -1.00, 260.4, 301.7)">a</text><text xml:space="preserve" font-family="AvenirNext-Medium,Avenir Next" font-size="32.0" fill="#5D514B" transform="matrix(1.00, 0.00, -0.00, -1.00, 277.8, 301.7)">n</text><text xml:space="preserve" font-family="AvenirNext-Medium,Avenir Next" font-size="32.0" fill="#5D514B" transform="matrix(1.00, 0.00, -0.00, -1.00, 296.4, 301.7)">c</text><text xml:space="preserve" font-family="AvenirNext-Medium,Avenir Next" font-size="32.0" fill="#5D514B" transform="matrix(1.00, 0.00, -0.00, -1.00, 312.2, 301.7)">i</text><text xml:space="preserve" font-family="AvenirNext-Medium,Avenir Next" font-size="32.0" fill="#5D514B" transform="matrix(1.00, 0.00, -0.00, -1.00, 320.5, 301.7)">e</text><text xml:space="preserve" font-family="AvenirNext-Medium,Avenir Next" font-size="32.0" fill="#5D514B" transform="matrix(1.00, 0.00, -0.00, -1.00, 338.8, 301.7)">r</text><text xml:space="preserve" font-family="AvenirNext-Medium,Avenir Next" font-size="32.0" fill="#5D514B" transform="matrix(1.00, 0.00, -0.00, -1.00, 350.4, 301.7)"> </text><text xml:space="preserve" font-family="AvenirNext-Medium,Avenir Next" font-size="32.0" fill="#5D514B" transform="matrix(1.00, 0.00, -0.00, -1.00, 358.4, 301.7)">d</text><text xml:space="preserve" font-family="AvenirNext-Medium,Avenir Next" font-size="32.0" fill="#5D514B" transform="matrix(1.00, 0.00, -0.00, -1.00, 378.7, 301.7)">e</text><text xml:space="preserve" font-family="AvenirNext-Medium,Avenir Next" font-size="32.0" fill="#5D514B" transform="matrix(1.00, 0.00, -0.00, -1.00, 397.1, 301.7)">s</text><text xml:space="preserve" font-family="AvenirNext-Medium,Avenir Next" font-size="32.0" fill="#5D514B" transform="matrix(1.00, 0.00, -0.00, -1.00, 411.3, 301.7)"> </text><text xml:space="preserve" font-family="AvenirNext-Medium,Avenir Next" font-size="32.0" fill="#5D514B" transform="matrix(1.00, 0.00, -0.00, -1.00, 419.3, 301.7)">o</text><text xml:space="preserve" font-family="AvenirNext-Medium,Avenir Next" font-size="32.0" fill="#5D514B" transform="matrix(1.00, 0.00, -0.00, -1.00, 438.8, 301.7)">b</text><text xml:space="preserve" font-family="AvenirNext-Medium,Avenir Next" font-size="32.0" fill="#5D514B" transform="matrix(1.00, 0.00, -0.00, -1.00, 459.2, 301.7)">j</text><text xml:space="preserve" font-family="AvenirNext-Medium,Avenir Next" font-size="32.0" fill="#5D514B" transform="matrix(1.00, 0.00, -0.00, -1.00, 467.5, 301.7)">e</text><text xml:space="preserve" font-family="AvenirNext-Medium,Avenir Next" font-size="32.0" fill="#5D514B" transform="matrix(1.00, 0.00, -0.00, -1.00, 485.8, 301.7)">t</text><text xml:space="preserve" font-family="AvenirNext-Medium,Avenir Next" font-size="32.0" fill="#5D514B" transform="matrix(1.00, 0.00, -0.00, -1.00, 496.3, 301.7)">s</text><text xml:space="preserve" font-family="AvenirNext-Medium,Avenir Next" font-size="32.0" fill="#5D514B" transform="matrix(1.00, 0.00, -0.00, -1.00, 510.6, 301.7)"> </text><text xml:space="preserve" font-family="AvenirNext-Medium,Avenir Next" font-size="32.0" fill="#5D514B" transform="matrix(1.00, 0.00, -0.00, -1.00, 518.6, 301.7)">d</text><text xml:space="preserve" font-family="AvenirNext-Medium,Avenir Next" font-size="32.0" fill="#5D514B" transform="matrix(1.00, 0.00, -0.00, -1.00, 538.9, 301.7)">o</text><text xml:space="preserve" font-family="AvenirNext-Medium,Avenir Next" font-size="32.0" fill="#5D514B" transform="matrix(1.00, 0.00, -0.00, -1.00, 558.4, 301.7)">n</text><text xml:space="preserve" font-family="AvenirNext-Medium,Avenir Next" font-size="32.0" fill="#5D514B" transform="matrix(1.00, 0.00, -0.00, -1.00, 577.0, 301.7)">t</text><text xml:space="preserve" font-family="AvenirNext-Medium,Avenir Next" font-size="32.0" fill="#5D514B" transform="matrix(1.00, 0.00, -0.00, -1.00, 587.5, 301.7)"> </text><text xml:space="preserve" font-family="AvenirNext-Medium,Avenir Next" font-size="32.0" fill="#5D514B" transform="matrix(1.00, 0.00, -0.00, -1.00, 595.5, 301.7)">l</text><text xml:space="preserve" font-family="AvenirNext-Medium,Avenir Next" font-size="32.0" fill="#5D514B" transform="matrix(1.00, 0.00, -0.00, -1.00, 603.9, 301.7)">e</text><text xml:space="preserve" font-family="AvenirNext-Medium,Avenir Next" font-size="32.0" fill="#5D514B" transform="matrix(1.00, 0.00, -0.00, -1.00, 622.2, 301.7)"> </text><text xml:space="preserve" font-family="AvenirNext-Medium,Avenir Next" font-size="32.0" fill="#5D514B" transform="matrix(1.00, 0.00, -0.00, -1.00, 630.2, 301.7)">t</text><text xml:space="preserve" font-family="AvenirNext-Medium,Avenir Next" font-size="32.0" fill="#5D514B" transform="matrix(1.00, 0.00, -0.00, -1.00, 640.7, 301.7)">y</text><text xml:space="preserve" font-family="AvenirNext-Medium,Avenir Next" font-size="32.0" fill="#5D514B" transform="matrix(1.00, 0.00, -0.00, -1.00, 656.9, 301.7)">p</text><text xml:space="preserve" font-family="AvenirNext-Medium,Avenir Next" font-size="32.0" fill="#5D514B" transform="matrix(1.00, 0.00, -0.00, -1.00, 677.1, 301.7)">e</text><text xml:space="preserve" font-family="AvenirNext-Medium,Avenir Next" font-size="32.0" fill="#5D514B" transform="matrix(1.00, 0.00, -0.00, -1.00, 695.5, 301.7)"> </text><text xml:space="preserve" font-family="AvenirNext-Medium,Avenir Next" font-size="32.0" fill="#5D514B" transform="matrix(1.00, 0.00, -0.00, -1.00, 703.5, 301.7)">e</text><text xml:space="preserve" font-family="AvenirNext-Medium,Avenir Next" font-size="32.0" fill="#5D514B" transform="matrix(1.00, 0.00, -0.00, -1.00, 721.8, 301.7)">s</text><text xml:space="preserve" font-family="AvenirNext-Medium,Avenir Next" font-size="32.0" fill="#5D514B" transform="matrix(1.00, 0.00, -0.00, -1.00, 736.0, 301.7)">t</text><text xml:space="preserve" font-family="AvenirNext-Medium,Avenir Next" font-size="32.0" fill="#5D514B" transform="matrix(1.00, 0.00, -0.00, -1.00, 746.6, 301.7)"> </text><text xml:space="preserve" font-family="AvenirNext-Medium,Avenir Next" font-size="32.0" fill="#5D514B" transform="matrix(1.00, 0.00, -0.00, -1.00, 754.6, 301.7)">d</text><text xml:space="preserve" font-family="AvenirNext-Medium,Avenir Next" font-size="32.0" fill="#5D514B" transform="matrix(1.00, 0.00, -0.00, -1.00, 774.9, 301.7)">é</text><text xml:space="preserve" font-family="AvenirNext-Medium,Avenir Next" font-size="32.0" fill="#5D514B" transform="matrix(1.00, 0.00, -0.00, -1.00, 793.2, 301.7)">r</text><text xml:space="preserve" font-family="AvenirNext-Medium,Avenir Next" font-size="32.0" fill="#5D514B" transform="matrix(1.00, 0.00, -0.00, -1.00, 804.8, 301.7)">i</text><text xml:space="preserve" font-family="AvenirNext-Medium,Avenir Next" font-size="32.0" fill="#5D514B" transform="matrix(1.00, 0.00, -0.00, -1.00, 813.1, 301.7)">v</text><text xml:space="preserve" font-family="AvenirNext-Medium,Avenir Next" font-size="32.0" fill="#5D514B" transform="matrix(1.00, 0.00, -0.00, -1.00, 829.2, 301.7)">é</text><text xml:space="preserve" font-family="AvenirNext-Medium,Avenir Next" font-size="32.0" fill="#5D514B" transform="matrix(1.00, 0.00, -0.00, -1.00, 847.5, 301.7)"> </text><text xml:space="preserve" font-family="AvenirNext-Medium,Avenir Next" font-size="32.0" fill="#5D514B" transform="matrix(1.00, 0.00, -0.00, -1.00, 855.5, 301.7)">d</text><text xml:space="preserve" font-family="AvenirNext-Medium,Avenir Next" font-size="32.0" fill="#5D514B" transform="matrix(1.00, 0.00, -0.00, -1.00, 875.9, 301.7)">'</text><text xml:space="preserve" font-family="AvenirNext-Medium,Avenir Next" font-size="32.0" fill="#5D514B" transform="matrix(1.00, 0.00, -0.00, -1.00, 884.3, 301.7)">u</text><text xml:space="preserve" font-family="AvenirNext-Medium,Avenir Next" font-size="32.0" fill="#5D514B" transform="matrix(1.00, 0.00, -0.00, -1.00, 902.9, 301.7)">n</text><text xml:space="preserve" font-family="AvenirNext-Medium,Avenir Next" font-size="32.0" fill="#5D514B" transform="matrix(1.00, 0.00, -0.00, -1.00, 921.5, 301.7)"> </text><image xlink:href="23ACDCBB296A4CBF93177E8A64B186C5.png" width="805.00" height="36.00" transform="matrix(1.00, 0.00, -0.00, -1.00, 66.0, 282.0)"></image><text xml:space="preserve" font-family="AvenirNext-Medium,Avenir Next" font-size="32.0" fill="#5D514B" transform="matrix(1.00, 0.00, -0.00, -1.00, 68.0, 257.7)">t</text><text xml:space="preserve" font-family="AvenirNext-Medium,Avenir Next" font-size="32.0" fill="#5D514B" transform="matrix(1.00, 0.00, -0.00, -1.00, 78.5, 257.7)">y</text><text xml:space="preserve" font-family="AvenirNext-Medium,Avenir Next" font-size="32.0" fill="#5D514B" transform="matrix(1.00, 0.00, -0.00, -1.00, 94.6, 257.7)">p</text><text xml:space="preserve" font-family="AvenirNext-Medium,Avenir Next" font-size="32.0" fill="#5D514B" transform="matrix(1.00, 0.00, -0.00, -1.00, 114.9, 257.7)">e</text><text xml:space="preserve" font-family="AvenirNext-Medium,Avenir Next" font-size="32.0" fill="#5D514B" transform="matrix(1.00, 0.00, -0.00, -1.00, 133.2, 257.7)"> </text><text xml:space="preserve" font-family="AvenirNext-Medium,Avenir Next" font-size="32.0" fill="#5D514B" transform="matrix(1.00, 0.00, -0.00, -1.00, 141.2, 257.7)">a</text><text xml:space="preserve" font-family="AvenirNext-Medium,Avenir Next" font-size="32.0" fill="#5D514B" transform="matrix(1.00, 0.00, -0.00, -1.00, 158.6, 257.7)">b</text><text xml:space="preserve" font-family="AvenirNext-Medium,Avenir Next" font-size="32.0" fill="#5D514B" transform="matrix(1.00, 0.00, -0.00, -1.00, 178.9, 257.7)">s</text><text xml:space="preserve" font-family="AvenirNext-Medium,Avenir Next" font-size="32.0" fill="#5D514B" transform="matrix(1.00, 0.00, -0.00, -1.00, 193.1, 257.7)">t</text><text xml:space="preserve" font-family="AvenirNext-Medium,Avenir Next" font-size="32.0" fill="#5D514B" transform="matrix(1.00, 0.00, -0.00, -1.00, 203.7, 257.7)">r</text><text xml:space="preserve" font-family="AvenirNext-Medium,Avenir Next" font-size="32.0" fill="#5D514B" transform="matrix(1.00, 0.00, -0.00, -1.00, 214.8, 257.7)">a</text><text xml:space="preserve" font-family="AvenirNext-Medium,Avenir Next" font-size="32.0" fill="#5D514B" transform="matrix(1.00, 0.00, -0.00, -1.00, 232.2, 257.7)">i</text><text xml:space="preserve" font-family="AvenirNext-Medium,Avenir Next" font-size="32.0" fill="#5D514B" transform="matrix(1.00, 0.00, -0.00, -1.00, 240.5, 257.7)">t</text><text xml:space="preserve" font-family="AvenirNext-Medium,Avenir Next" font-size="32.0" fill="#5D514B" transform="matrix(1.00, 0.00, -0.00, -1.00, 251.0, 257.7)">.</text><text xml:space="preserve" font-family="AvenirNext-Medium,Avenir Next" font-size="32.0" fill="#5D514B" transform="matrix(1.00, 0.00, -0.00, -1.00, 258.4, 257.7)"> </text><text xml:space="preserve" font-family="AvenirNext-Medium,Avenir Next" font-size="32.0" fill="#5D514B" transform="matrix(1.00, 0.00, -0.00, -1.00, 266.4, 257.7)">L</text><text xml:space="preserve" font-family="AvenirNext-Medium,Avenir Next" font-size="32.0" fill="#5D514B" transform="matrix(1.00, 0.00, -0.00, -1.00, 282.7, 257.7)">a</text><text xml:space="preserve" font-family="AvenirNext-Medium,Avenir Next" font-size="32.0" fill="#5D514B" transform="matrix(1.00, 0.00, -0.00, -1.00, 300.1, 257.7)"> </text><text xml:space="preserve" font-family="AvenirNext-Medium,Avenir Next" font-size="32.0" fill="#5D514B" transform="matrix(1.00, 0.00, -0.00, -1.00, 308.1, 257.7)">c</text><text xml:space="preserve" font-family="AvenirNext-Medium,Avenir Next" font-size="32.0" fill="#5D514B" transform="matrix(1.00, 0.00, -0.00, -1.00, 323.9, 257.7)">l</text><text xml:space="preserve" font-family="AvenirNext-Medium,Avenir Next" font-size="32.0" fill="#5D514B" transform="matrix(1.00, 0.00, -0.00, -1.00, 332.2, 257.7)">a</text><text xml:space="preserve" font-family="AvenirNext-Medium,Avenir Next" font-size="32.0" fill="#5D514B" transform="matrix(1.00, 0.00, -0.00, -1.00, 349.5, 257.7)">s</text><text xml:space="preserve" font-family="AvenirNext-Medium,Avenir Next" font-size="32.0" fill="#5D514B" transform="matrix(1.00, 0.00, -0.00, -1.00, 363.7, 257.7)">s</text><text xml:space="preserve" font-family="AvenirNext-Medium,Avenir Next" font-size="32.0" fill="#5D514B" transform="matrix(1.00, 0.00, -0.00, -1.00, 377.9, 257.7)">e</text><text xml:space="preserve" font-family="AvenirNext-Medium,Avenir Next" font-size="32.0" fill="#5D514B" transform="matrix(1.00, 0.00, -0.00, -1.00, 396.3, 257.7)"> </text><text xml:space="preserve" font-family="AvenirNext-Medium,Avenir Next" font-size="32.0" fill="#5D514B" transform="matrix(1.00, 0.00, -0.00, -1.00, 404.3, 257.7)">e</text><text xml:space="preserve" font-family="AvenirNext-Medium,Avenir Next" font-size="32.0" fill="#5D514B" transform="matrix(1.00, 0.00, -0.00, -1.00, 422.3, 257.7)">x</text><text xml:space="preserve" font-family="AvenirNext-Medium,Avenir Next" font-size="32.0" fill="#5D514B" transform="matrix(1.00, 0.00, -0.00, -1.00, 438.7, 257.7)">a</text><text xml:space="preserve" font-family="AvenirNext-Medium,Avenir Next" font-size="32.0" fill="#5D514B" transform="matrix(1.00, 0.00, -0.00, -1.00, 456.0, 257.7)">c</text><text xml:space="preserve" font-family="AvenirNext-Medium,Avenir Next" font-size="32.0" fill="#5D514B" transform="matrix(1.00, 0.00, -0.00, -1.00, 471.8, 257.7)">t</text><text xml:space="preserve" font-family="AvenirNext-Medium,Avenir Next" font-size="32.0" fill="#5D514B" transform="matrix(1.00, 0.00, -0.00, -1.00, 482.3, 257.7)">e</text><text xml:space="preserve" font-family="AvenirNext-Medium,Avenir Next" font-size="32.0" fill="#5D514B" transform="matrix(1.00, 0.00, -0.00, -1.00, 500.7, 257.7)"> </text><text xml:space="preserve" font-family="AvenirNext-Medium,Avenir Next" font-size="32.0" fill="#5D514B" transform="matrix(1.00, 0.00, -0.00, -1.00, 508.7, 257.7)">d</text><text xml:space="preserve" font-family="AvenirNext-Medium,Avenir Next" font-size="32.0" fill="#5D514B" transform="matrix(1.00, 0.00, -0.00, -1.00, 529.0, 257.7)">e</text><text xml:space="preserve" font-family="AvenirNext-Medium,Avenir Next" font-size="32.0" fill="#5D514B" transform="matrix(1.00, 0.00, -0.00, -1.00, 547.3, 257.7)"> </text><text xml:space="preserve" font-family="AvenirNext-Medium,Avenir Next" font-size="32.0" fill="#5D514B" transform="matrix(1.00, 0.00, -0.00, -1.00, 555.3, 257.7)">l</text><text xml:space="preserve" font-family="AvenirNext-Medium,Avenir Next" font-size="32.0" fill="#5D514B" transform="matrix(1.00, 0.00, -0.00, -1.00, 563.6, 257.7)">'</text><text xml:space="preserve" font-family="AvenirNext-Medium,Avenir Next" font-size="32.0" fill="#5D514B" transform="matrix(1.00, 0.00, -0.00, -1.00, 572.0, 257.7)">o</text><text xml:space="preserve" font-family="AvenirNext-Medium,Avenir Next" font-size="32.0" fill="#5D514B" transform="matrix(1.00, 0.00, -0.00, -1.00, 591.5, 257.7)">b</text><text xml:space="preserve" font-family="AvenirNext-Medium,Avenir Next" font-size="32.0" fill="#5D514B" transform="matrix(1.00, 0.00, -0.00, -1.00, 611.9, 257.7)">j</text><text xml:space="preserve" font-family="AvenirNext-Medium,Avenir Next" font-size="32.0" fill="#5D514B" transform="matrix(1.00, 0.00, -0.00, -1.00, 620.2, 257.7)">e</text><text xml:space="preserve" font-family="AvenirNext-Medium,Avenir Next" font-size="32.0" fill="#5D514B" transform="matrix(1.00, 0.00, -0.00, -1.00, 638.6, 257.7)">t</text><text xml:space="preserve" font-family="AvenirNext-Medium,Avenir Next" font-size="32.0" fill="#5D514B" transform="matrix(1.00, 0.00, -0.00, -1.00, 649.1, 257.7)"> </text><text xml:space="preserve" font-family="AvenirNext-Medium,Avenir Next" font-size="32.0" fill="#5D514B" transform="matrix(1.00, 0.00, -0.00, -1.00, 657.1, 257.7)">n</text><text xml:space="preserve" font-family="AvenirNext-Medium,Avenir Next" font-size="32.0" fill="#5D514B" transform="matrix(1.00, 0.00, -0.00, -1.00, 675.7, 257.7)">'</text><text xml:space="preserve" font-family="AvenirNext-Medium,Avenir Next" font-size="32.0" fill="#5D514B" transform="matrix(1.00, 0.00, -0.00, -1.00, 684.1, 257.7)">e</text><text xml:space="preserve" font-family="AvenirNext-Medium,Avenir Next" font-size="32.0" fill="#5D514B" transform="matrix(1.00, 0.00, -0.00, -1.00, 702.4, 257.7)">s</text><text xml:space="preserve" font-family="AvenirNext-Medium,Avenir Next" font-size="32.0" fill="#5D514B" transform="matrix(1.00, 0.00, -0.00, -1.00, 716.6, 257.7)">t</text><text xml:space="preserve" font-family="AvenirNext-Medium,Avenir Next" font-size="32.0" fill="#5D514B" transform="matrix(1.00, 0.00, -0.00, -1.00, 727.2, 257.7)"> </text><text xml:space="preserve" font-family="AvenirNext-Medium,Avenir Next" font-size="32.0" fill="#5D514B" transform="matrix(1.00, 0.00, -0.00, -1.00, 735.2, 257.7)">d</text><text xml:space="preserve" font-family="AvenirNext-Medium,Avenir Next" font-size="32.0" fill="#5D514B" transform="matrix(1.00, 0.00, -0.00, -1.00, 755.5, 257.7)">o</text><text xml:space="preserve" font-family="AvenirNext-Medium,Avenir Next" font-size="32.0" fill="#5D514B" transform="matrix(1.00, 0.00, -0.00, -1.00, 775.0, 257.7)">n</text><text xml:space="preserve" font-family="AvenirNext-Medium,Avenir Next" font-size="32.0" fill="#5D514B" transform="matrix(1.00, 0.00, -0.00, -1.00, 793.6, 257.7)">c</text><text xml:space="preserve" font-family="AvenirNext-Medium,Avenir Next" font-size="32.0" fill="#5D514B" transform="matrix(1.00, 0.00, -0.00, -1.00, 809.4, 257.7)"> </text><text xml:space="preserve" font-family="AvenirNext-Medium,Avenir Next" font-size="32.0" fill="#5D514B" transform="matrix(1.00, 0.00, -0.00, -1.00, 817.4, 257.7)">p</text><text xml:space="preserve" font-family="AvenirNext-Medium,Avenir Next" font-size="32.0" fill="#5D514B" transform="matrix(1.00, 0.00, -0.00, -1.00, 837.7, 257.7)">a</text><text xml:space="preserve" font-family="AvenirNext-Medium,Avenir Next" font-size="32.0" fill="#5D514B" transform="matrix(1.00, 0.00, -0.00, -1.00, 855.1, 257.7)">s</text><text xml:space="preserve" font-family="AvenirNext-Medium,Avenir Next" font-size="32.0" fill="#5D514B" transform="matrix(1.00, 0.00, -0.00, -1.00, 869.3, 257.7)"> </text><image xlink:href="04AAD08E8E6D3626A7770A47647D46F4.png" width="332.00" height="36.00" transform="matrix(1.00, 0.00, -0.00, -1.00, 67.0, 238.0)"></image><text xml:space="preserve" font-family="AvenirNext-Medium,Avenir Next" font-size="32.0" fill="#5D514B" transform="matrix(1.00, 0.00, -0.00, -1.00, 68.0, 213.7)">c</text><text xml:space="preserve" font-family="AvenirNext-Medium,Avenir Next" font-size="32.0" fill="#5D514B" transform="matrix(1.00, 0.00, -0.00, -1.00, 83.8, 213.7)">o</text><text xml:space="preserve" font-family="AvenirNext-Medium,Avenir Next" font-size="32.0" fill="#5D514B" transform="matrix(1.00, 0.00, -0.00, -1.00, 103.3, 213.7)">n</text><text xml:space="preserve" font-family="AvenirNext-Medium,Avenir Next" font-size="32.0" fill="#5D514B" transform="matrix(1.00, 0.00, -0.00, -1.00, 121.9, 213.7)">n</text><text xml:space="preserve" font-family="AvenirNext-Medium,Avenir Next" font-size="32.0" fill="#5D514B" transform="matrix(1.00, 0.00, -0.00, -1.00, 140.5, 213.7)">u</text><text xml:space="preserve" font-family="AvenirNext-Medium,Avenir Next" font-size="32.0" fill="#5D514B" transform="matrix(1.00, 0.00, -0.00, -1.00, 159.2, 213.7)">e</text><text xml:space="preserve" font-family="AvenirNext-Medium,Avenir Next" font-size="32.0" fill="#5D514B" transform="matrix(1.00, 0.00, -0.00, -1.00, 177.5, 213.7)"> </text><text xml:space="preserve" font-family="AvenirNext-Medium,Avenir Next" font-size="32.0" fill="#5D514B" transform="matrix(1.00, 0.00, -0.00, -1.00, 185.5, 213.7)">p</text><text xml:space="preserve" font-family="AvenirNext-Medium,Avenir Next" font-size="32.0" fill="#5D514B" transform="matrix(1.00, 0.00, -0.00, -1.00, 205.8, 213.7)">a</text><text xml:space="preserve" font-family="AvenirNext-Medium,Avenir Next" font-size="32.0" fill="#5D514B" transform="matrix(1.00, 0.00, -0.00, -1.00, 223.1, 213.7)">r</text><text xml:space="preserve" font-family="AvenirNext-Medium,Avenir Next" font-size="32.0" fill="#5D514B" transform="matrix(1.00, 0.00, -0.00, -1.00, 234.7, 213.7)"> </text><text xml:space="preserve" font-family="AvenirNext-Medium,Avenir Next" font-size="32.0" fill="#5D514B" transform="matrix(1.00, 0.00, -0.00, -1.00, 242.7, 213.7)">l</text><text xml:space="preserve" font-family="AvenirNext-Medium,Avenir Next" font-size="32.0" fill="#5D514B" transform="matrix(1.00, 0.00, -0.00, -1.00, 251.0, 213.7)">'</text><text xml:space="preserve" font-family="AvenirNext-Medium,Avenir Next" font-size="32.0" fill="#5D514B" transform="matrix(1.00, 0.00, -0.00, -1.00, 259.4, 213.7)">a</text><text xml:space="preserve" font-family="AvenirNext-Medium,Avenir Next" font-size="32.0" fill="#5D514B" transform="matrix(1.00, 0.00, -0.00, -1.00, 276.8, 213.7)">p</text><text xml:space="preserve" font-family="AvenirNext-Medium,Avenir Next" font-size="32.0" fill="#5D514B" transform="matrix(1.00, 0.00, -0.00, -1.00, 297.1, 213.7)">p</text><text xml:space="preserve" font-family="AvenirNext-Medium,Avenir Next" font-size="32.0" fill="#5D514B" transform="matrix(1.00, 0.00, -0.00, -1.00, 317.3, 213.7)">e</text><text xml:space="preserve" font-family="AvenirNext-Medium,Avenir Next" font-size="32.0" fill="#5D514B" transform="matrix(1.00, 0.00, -0.00, -1.00, 335.7, 213.7)">l</text><text xml:space="preserve" font-family="AvenirNext-Medium,Avenir Next" font-size="32.0" fill="#5D514B" transform="matrix(1.00, 0.00, -0.00, -1.00, 344.0, 213.7)">a</text><text xml:space="preserve" font-family="AvenirNext-Medium,Avenir Next" font-size="32.0" fill="#5D514B" transform="matrix(1.00, 0.00, -0.00, -1.00, 361.3, 213.7)">n</text><text xml:space="preserve" font-family="AvenirNext-Medium,Avenir Next" font-size="32.0" fill="#5D514B" transform="matrix(1.00, 0.00, -0.00, -1.00, 380.0, 213.7)">t</text><text xml:space="preserve" font-family="AvenirNext-Medium,Avenir Next" font-size="32.0" fill="#5D514B" transform="matrix(1.00, 0.00, -0.00, -1.00, 390.5, 213.7)">.</text></g></svg>