<?xml version="1.0" encoding="UTF-8" standalone="no"?><svg xmlns="http://www.w3.org/2000/svg" xmlns:xlink="http://www.w3.org/1999/xlink" clip-rule="evenodd" stroke-miterlimit="10" viewBox="0 0 509 44"><desc>SVG generated by Keynote</desc><defs></defs><g transform="matrix(1.00, 0.00, -0.00, -1.00, 0.0, 44.0)"><image xlink:href="../../4E242D7A-EF32-4734-92DC-EB5BA0132716/assets/F94FCAEC9734CF5F01244758CCAD9C44.png" width="506.00" height="41.00" transform="matrix(1.00, 0.00, -0.00, -1.00, 2.0, 42.0)"></image><text xml:space="preserve" font-family="AvenirNext-Bold,Avenir Next" font-weight="bold" font-size="48.0" fill="#3D3B38" transform="matrix(1.00, 0.00, -0.00, -1.00, 1.1, 6.6)">L</text><text xml:space="preserve" font-family="AvenirNext-Bold,Avenir Next" font-weight="bold" font-size="48.0" fill="#3D3B38" transform="matrix(1.00, 0.00, -0.00, -1.00, 30.2, 6.6)">E</text><text xml:space="preserve" font-family="AvenirNext-Bold,Avenir Next" font-weight="bold" font-size="48.0" fill="#3D3B38" transform="matrix(1.00, 0.00, -0.00, -1.00, 63.2, 6.6)">S</text><text xml:space="preserve" font-family="AvenirNext-Bold,Avenir Next" font-weight="bold" font-size="48.0" fill="#3D3B38" transform="matrix(1.00, 0.00, -0.00, -1.00, 95.4, 6.6)"> </text><text xml:space="preserve" font-family="AvenirNext-Bold,Avenir Next" font-weight="bold" font-size="48.0" fill="#3D3B38" transform="matrix(1.00, 0.00, -0.00, -1.00, 111.2, 6.6)">P</text><text xml:space="preserve" font-family="AvenirNext-Bold,Avenir Next" font-weight="bold" font-size="48.0" fill="#3D3B38" transform="matrix(1.00, 0.00, -0.00, -1.00, 142.9, 6.6)">A</text><text xml:space="preserve" font-family="AvenirNext-Bold,Avenir Next" font-weight="bold" font-size="48.0" fill="#3D3B38" transform="matrix(1.00, 0.00, -0.00, -1.00, 181.7, 6.6)">R</text><text xml:space="preserve" font-family="AvenirNext-Bold,Avenir Next" font-weight="bold" font-size="48.0" fill="#3D3B38" transform="matrix(1.00, 0.00, -0.00, -1.00, 217.4, 6.6)">A</text><text xml:space="preserve" font-family="AvenirNext-Bold,Avenir Next" font-weight="bold" font-size="48.0" fill="#3D3B38" transform="matrix(1.00, 0.00, -0.00, -1.00, 255.4, 6.6)">G</text><text xml:space="preserve" font-family="AvenirNext-Bold,Avenir Next" font-weight="bold" font-size="48.0" fill="#3D3B38" transform="matrix(1.00, 0.00, -0.00, -1.00, 296.1, 6.6)">R</text><text xml:space="preserve" font-family="AvenirNext-Bold,Avenir Next" font-weight="bold" font-size="48.0" fill="#3D3B38" transform="matrix(1.00, 0.00, -0.00, -1.00, 331.8, 6.6)">A</text><text xml:space="preserve" font-family="AvenirNext-Bold,Avenir Next" font-weight="bold" font-size="48.0" fill="#3D3B38" transform="matrix(1.00, 0.00, -0.00, -1.00, 370.6, 6.6)">P</text><text xml:space="preserve" font-family="AvenirNext-Bold,Avenir Next" font-weight="bold" font-size="48.0" fill="#3D3B38" transform="matrix(1.00, 0.00, -0.00, -1.00, 405.2, 6.6)">H</text><text xml:space="preserve" font-family="AvenirNext-Bold,Avenir Next" font-weight="bold" font-size="48.0" fill="#3D3B38" transform="matrix(1.00, 0.00, -0.00, -1.00, 445.7, 6.6)">E</text><text xml:space="preserve" font-family="AvenirNext-Bold,Avenir Next" font-weight="bold" font-size="48.0" fill="#3D3B38" transform="matrix(1.00, 0.00, -0.00, -1.00, 478.7, 6.6)">S</text></g></svg>