<?xml version="1.0" encoding="UTF-8" standalone="no"?><svg xmlns="http://www.w3.org/2000/svg" xmlns:xlink="http://www.w3.org/1999/xlink" clip-rule="evenodd" stroke-miterlimit="10" viewBox="0 0 564 44"><desc>SVG generated by Keynote</desc><defs></defs><g transform="matrix(1.00, 0.00, -0.00, -1.00, 0.0, 44.0)"><image xlink:href="../../6C4FE96F-0AA5-4539-B916-2B7EBFA5B66A/assets/D15DCDCFDDFF7B33C4510FD94466B9FF.png" width="556.00" height="41.00" transform="matrix(1.00, 0.00, -0.00, -1.00, 2.0, 42.0)"></image><text xml:space="preserve" font-family="AvenirNext-Bold,Avenir Next" font-weight="bold" font-size="48.0" fill="#3D3B38" transform="matrix(1.00, 0.00, -0.00, -1.00, 1.2, 6.6)">P</text><text xml:space="preserve" font-family="AvenirNext-Bold,Avenir Next" font-weight="bold" font-size="48.0" fill="#3D3B38" transform="matrix(1.00, 0.00, -0.00, -1.00, 32.9, 6.6)">A</text><text xml:space="preserve" font-family="AvenirNext-Bold,Avenir Next" font-weight="bold" font-size="48.0" fill="#3D3B38" transform="matrix(1.00, 0.00, -0.00, -1.00, 68.8, 6.6)">T</text><text xml:space="preserve" font-family="AvenirNext-Bold,Avenir Next" font-weight="bold" font-size="48.0" fill="#3D3B38" transform="matrix(1.00, 0.00, -0.00, -1.00, 100.5, 6.6)">T</text><text xml:space="preserve" font-family="AvenirNext-Bold,Avenir Next" font-weight="bold" font-size="48.0" fill="#3D3B38" transform="matrix(1.00, 0.00, -0.00, -1.00, 132.3, 6.6)">E</text><text xml:space="preserve" font-family="AvenirNext-Bold,Avenir Next" font-weight="bold" font-size="48.0" fill="#3D3B38" transform="matrix(1.00, 0.00, -0.00, -1.00, 165.2, 6.6)">R</text><text xml:space="preserve" font-family="AvenirNext-Bold,Avenir Next" font-weight="bold" font-size="48.0" fill="#3D3B38" transform="matrix(1.00, 0.00, -0.00, -1.00, 200.9, 6.6)">N</text><text xml:space="preserve" font-family="AvenirNext-Bold,Avenir Next" font-weight="bold" font-size="48.0" fill="#3D3B38" transform="matrix(1.00, 0.00, -0.00, -1.00, 242.7, 6.6)"> </text><text xml:space="preserve" font-family="AvenirNext-Bold,Avenir Next" font-weight="bold" font-size="48.0" fill="#3D3B38" transform="matrix(1.00, 0.00, -0.00, -1.00, 258.5, 6.6)">C</text><text xml:space="preserve" font-family="AvenirNext-Bold,Avenir Next" font-weight="bold" font-size="48.0" fill="#3D3B38" transform="matrix(1.00, 0.00, -0.00, -1.00, 295.2, 6.6)">O</text><text xml:space="preserve" font-family="AvenirNext-Bold,Avenir Next" font-weight="bold" font-size="48.0" fill="#3D3B38" transform="matrix(1.00, 0.00, -0.00, -1.00, 339.9, 6.6)">M</text><text xml:space="preserve" font-family="AvenirNext-Bold,Avenir Next" font-weight="bold" font-size="48.0" fill="#3D3B38" transform="matrix(1.00, 0.00, -0.00, -1.00, 389.6, 6.6)">M</text><text xml:space="preserve" font-family="AvenirNext-Bold,Avenir Next" font-weight="bold" font-size="48.0" fill="#3D3B38" transform="matrix(1.00, 0.00, -0.00, -1.00, 439.2, 6.6)">A</text><text xml:space="preserve" font-family="AvenirNext-Bold,Avenir Next" font-weight="bold" font-size="48.0" fill="#3D3B38" transform="matrix(1.00, 0.00, -0.00, -1.00, 478.1, 6.6)">N</text><text xml:space="preserve" font-family="AvenirNext-Bold,Avenir Next" font-weight="bold" font-size="48.0" fill="#3D3B38" transform="matrix(1.00, 0.00, -0.00, -1.00, 519.8, 6.6)">D</text><text xml:space="preserve" font-family="AvenirNext-Bold,Avenir Next" font-weight="bold" font-size="48.0" fill="#3D3B38" transform="matrix(1.00, 0.00, -0.00, -1.00, 560.8, 6.6)"> </text></g></svg>